M48
; DRILL file {KiCad 5.1.5+dfsg1-2~bpo10+1} date Thu 26 Mar 2020 22:27:19 CET
; FORMAT={-:-/ absolute / inch / decimal}
; #@! TF.CreationDate,2020-03-26T22:27:19+01:00
; #@! TF.GenerationSoftware,Kicad,Pcbnew,5.1.5+dfsg1-2~bpo10+1
; #@! TF.FileFunction,Plated,1,6,PTH
FMAT,2
INCH
T1C0.0059
T2C0.0276
T3C0.0984
%
G90
G05
T1
X4.0118Y-4.7087
X4.0283Y-4.9606
X4.0311Y-4.2126
X4.1299Y-4.6063
X4.1299Y-4.6772
X4.1378Y-4.9173
X4.174Y-4.9169
X4.189Y-4.5945
X4.2244Y-4.5945
X4.2559Y-4.9449
X4.2559Y-4.563
X4.2559Y-4.5945
X4.2559Y-4.9134
X4.2559Y-4.9764
X4.2559Y-5.0079
X4.2677Y-4.7382
X4.2697Y-4.7972
X4.2717Y-4.7047
X4.3437Y-4.9154
X4.374Y-4.7087
X4.374Y-4.7402
X4.374Y-4.7717
X4.3819Y-4.5945
X4.3819Y-4.622
X4.3898Y-4.4055
X4.4055Y-4.7087
X4.4055Y-4.7402
X4.4055Y-4.7717
X4.415Y-4.6323
X4.4291Y-4.8543
X4.4309Y-5.012
X4.4309Y-5.051
X4.4587Y-4.6339
X4.4685Y-5.128
X4.4917Y-4.6854
X4.4921Y-4.5236
X4.4921Y-4.622
X4.5276Y-4.6319
X4.5307Y-5.0508
X4.5311Y-5.0906
X4.5394Y-4.8937
X4.5394Y-4.9252
X4.5433Y-4.3465
X4.5433Y-4.4252
X4.5433Y-4.4646
X4.5433Y-4.5039
X4.5472Y-4.3858
X4.5472Y-4.5374
X4.5472Y-4.5827
X4.5472Y-4.6811
X4.5551Y-4.7323
X4.5604Y-4.6204
X4.5669Y-4.8917
X4.5685Y-4.9764
X4.5701Y-5.0484
X4.5701Y-5.0906
X4.5868Y-4.1364
X4.6063Y-4.2874
X4.6063Y-4.7992
X4.6153Y-5.1217
X4.6157Y-4.9429
X4.6261Y-4.7597
X4.6262Y-4.1364
X4.6447Y-4.6614
X4.6457Y-4.2874
X4.6457Y-4.4252
X4.6457Y-4.4646
X4.6457Y-4.5039
X4.6457Y-4.5831
X4.6457Y-4.622
X4.6654Y-4.1378
X4.6752Y-4.0709
X4.6795Y-4.9618
X4.685Y-4.2874
X4.685Y-4.4252
X4.685Y-4.4646
X4.685Y-4.5039
X4.685Y-4.5831
X4.685Y-4.622
X4.685Y-4.6614
X4.685Y-4.7598
X4.7047Y-4.3071
X4.7047Y-4.7795
X4.7049Y-4.1089
X4.7185Y-4.9315
X4.7234Y-4.4646
X4.7234Y-4.5039
X4.7244Y-4.2874
X4.7244Y-4.4252
X4.7244Y-4.5827
X4.7244Y-4.622
X4.7244Y-4.6614
X4.7341Y-4.0709
X4.7638Y-4.2874
X4.7933Y-4.0709
X4.8028Y-4.4644
X4.8028Y-4.5039
X4.8031Y-4.4252
X4.8031Y-4.5827
X4.8031Y-4.622
X4.8031Y-4.6614
X4.8033Y-4.2679
X4.8228Y-4.3071
X4.8425Y-4.4252
X4.8425Y-4.4646
X4.8425Y-4.5039
X4.8425Y-4.5827
X4.8425Y-4.622
X4.8425Y-4.6614
X4.8524Y-4.0709
X4.8622Y-4.1693
X4.8622Y-4.2283
X4.8622Y-4.7992
X4.8622Y-4.8287
X4.8819Y-4.4252
X4.8819Y-4.4646
X4.8819Y-4.5039
X4.8819Y-4.5827
X4.8819Y-4.622
X4.8819Y-4.7795
X4.882Y-4.6613
X4.8937Y-4.3071
X4.9016Y-4.7598
X4.937Y-4.3071
X4.9496Y-4.8528
X4.9563Y-5.1154
X4.9677Y-4.5035
X4.9687Y-4.1813
X4.9705Y-4.7402
X4.9724Y-4.4646
X4.9803Y-4.3071
X4.9803Y-4.5433
X4.9862Y-4.622
X4.9959Y-4.5949
X4.9961Y-4.4961
X5.0069Y-4.5569
X5.0157Y-4.3465
X5.0199Y-4.6437
X5.0234Y-4.6004
X5.0344Y-4.5756
X5.0443Y-4.672
X5.049Y-4.851
X5.0492Y-4.6417
X5.0591Y-4.3268
X5.0638Y-4.7118
X5.0746Y-4.9476
X5.0982Y-4.1069
X5.1089Y-4.7211
X5.1118Y-4.6492
X5.1132Y-4.9699
X5.1376Y-5.0537
X5.1378Y-4.2
X5.164Y-5.1683
X5.1671Y-5.0026
X5.177Y-4.1073
X5.2055Y-4.8248
X5.2156Y-5.0561
X5.2165Y-4.3268
X5.2165Y-4.3858
X5.2165Y-4.4252
X5.2165Y-4.4646
X5.2165Y-4.5039
X5.2165Y-4.5433
X5.2201Y-4.9488
X5.2675Y-4.9593
X5.3037Y-4.9545
X5.3254Y-5.0569
X5.3437Y-4.8524
X5.3474Y-4.6933
X5.3734Y-5.0632
X5.3923Y-4.9533
X5.3945Y-4.6122
X5.4033Y-5.0715
X5.4234Y-4.2852
X5.4368Y-5.075
X5.437Y-4.9567
X5.437Y-4.9961
X5.4427Y-5.1069
X5.4427Y-5.1856
X5.4701Y-5.185
X5.4746Y-4.2927
X5.4756Y-4.7008
X5.4823Y-4.6236
X5.5089Y-4.3927
X5.5093Y-4.5207
X5.5096Y-4.5716
X5.51Y-4.6069
X5.511Y-4.6961
X5.5116Y-5.1069
X5.5132Y-4.3384
X5.5313Y-4.7878
X5.5423Y-4.9959
X5.5427Y-4.9569
X5.5441Y-4.5036
X5.5443Y-5.0348
X5.5492Y-4.7311
X5.5541Y-4.3443
X5.5555Y-4.4669
X5.5557Y-4.4329
X5.561Y-5.0768
X5.5657Y-4.7862
X5.5663Y-4.3679
X5.5762Y-4.323
X5.5799Y-5.1008
X5.5945Y-4.9614
X5.5992Y-5.0795
X5.6002Y-4.7821
X5.6053Y-4.2648
X5.6211Y-4.9476
X5.6305Y-4.3596
X5.6327Y-5.073
X5.6329Y-4.712
X5.6356Y-4.3939
X5.6373Y-5.1104
X5.6459Y-4.9289
X5.6494Y-4.749
X5.6614Y-4.9055
X5.6654Y-5.0795
X5.6671Y-4.4986
X5.6671Y-4.5306
X5.6671Y-4.5626
X5.6671Y-4.5946
X5.6671Y-4.6266
X5.6687Y-4.9667
X5.6839Y-4.3949
X5.6888Y-4.7878
X5.689Y-4.8898
X5.6983Y-4.369
X5.6991Y-4.4986
X5.6991Y-4.6266
X5.7014Y-4.7447
X5.7165Y-4.9587
X5.7167Y-4.9199
X5.7228Y-4.7882
X5.7262Y-4.3703
X5.7283Y-4.7504
X5.7283Y-5.0579
X5.7311Y-4.4986
X5.7311Y-4.6266
X5.748Y-4.9094
X5.752Y-4.9764
X5.7526Y-5.0337
X5.7534Y-4.3689
X5.7579Y-5.0689
X5.7631Y-4.4986
X5.7631Y-4.6266
X5.7653Y-4.2725
X5.7675Y-4.7929
X5.7675Y-4.8876
X5.785Y-4.3623
X5.785Y-4.7713
X5.7941Y-4.2685
X5.7951Y-4.4986
X5.7951Y-4.5306
X5.7951Y-4.5626
X5.7951Y-4.5946
X5.7951Y-4.6266
X5.8035Y-4.7929
X5.8069Y-4.8876
X5.8154Y-4.3618
X5.8199Y-4.7352
X5.8264Y-5.176
X5.8325Y-4.7929
X5.8404Y-4.373
X5.847Y-4.7467
X5.8687Y-4.2667
X5.8719Y-4.7738
X5.874Y-5.0821
X5.8846Y-4.8703
X5.8858Y-5.0354
X5.8957Y-4.3898
X5.8967Y-4.3616
X5.901Y-4.2711
X5.901Y-4.725
X5.9018Y-4.6888
X5.9045Y-4.4698
X5.9094Y-4.976
X5.9094Y-4.9449
X5.9102Y-4.9118
X5.9126Y-4.8703
X5.9175Y-4.5806
X5.9175Y-4.6086
X5.9213Y-5.063
X5.9243Y-4.4896
X5.9249Y-4.7588
X5.928Y-4.2724
X5.9447Y-4.1915
X5.9448Y-4.7786
X5.9459Y-4.6228
X5.9459Y-4.6508
X5.9553Y-4.4072
X5.9553Y-4.4353
X5.9633Y-4.3734
X5.9685Y-5.0996
X5.9914Y-4.3734
X6.0029Y-4.4674
X6.0065Y-4.6399
X6.0065Y-4.668
X6.0081Y-4.9549
X6.0081Y-4.9829
X6.0123Y-4.5143
X6.013Y-5.1213
X6.0227Y-4.4873
X6.0289Y-4.4074
X6.0289Y-4.4355
X6.0303Y-4.7833
X6.0311Y-4.701
X6.0322Y-4.5341
X6.0411Y-4.5865
X6.0583Y-4.7833
X6.0591Y-4.701
X6.0609Y-4.5667
X6.0793Y-4.3053
X6.0825Y-4.2293
X6.0917Y-4.4472
X6.1134Y-4.4752
X6.1167Y-4.19
X6.1167Y-4.3774
X6.1281Y-4.325
X6.1281Y-4.353
X6.1285Y-4.2462
X6.1285Y-4.2743
X6.1297Y-4.4037
X6.1297Y-4.4317
X6.1311Y-4.5612
X6.1311Y-4.5892
X6.1311Y-4.7974
X6.1311Y-4.8254
X6.3488Y-4.1713
X6.4449Y-4.8016
X6.4449Y-4.9189
X6.4457Y-4.8602
X6.4484Y-4.1516
X6.4492Y-4.7421
X6.4591Y-4.659
X6.4591Y-4.6875
X6.4689Y-4.5212
X6.4689Y-4.5497
X6.4886Y-4.6983
X6.4886Y-4.7269
X6.4898Y-4.6196
X6.4898Y-4.6481
X6.5043Y-4.4965
X6.5043Y-4.5657
X6.5508Y-4.5802
X6.5508Y-4.6088
T2
X5.913Y-5.1732
X5.963Y-5.1732
X6.013Y-5.1732
X6.063Y-5.1732
X4.437Y-5.177
X4.487Y-5.177
X4.537Y-5.177
X4.587Y-5.177
X5.539Y-5.1732
X5.589Y-5.1732
X5.639Y-5.1732
X5.689Y-5.1732
T3
X4.2913Y-4.0551
X4.2913Y-5.1181
X6.2598Y-4.0551
X6.2598Y-5.1181
T0
M30
