G04 #@! TF.GenerationSoftware,KiCad,Pcbnew,5.1.5+dfsg1-2~bpo10+1*
G04 #@! TF.CreationDate,2020-03-09T15:40:36+01:00*
G04 #@! TF.ProjectId,SDI-bridge,5344492d-6272-4696-9467-652e6b696361,rev?*
G04 #@! TF.SameCoordinates,Original*
G04 #@! TF.FileFunction,Soldermask,Bot*
G04 #@! TF.FilePolarity,Negative*
%FSLAX46Y46*%
G04 Gerber Fmt 4.6, Leading zero omitted, Abs format (unit mm)*
G04 Created by KiCad (PCBNEW 5.1.5+dfsg1-2~bpo10+1) date 2020-03-09 15:40:36*
%MOMM*%
%LPD*%
G04 APERTURE LIST*
%ADD10C,0.100000*%
G04 APERTURE END LIST*
D10*
G36*
X150326601Y-130814397D02*
G01*
X150365305Y-130822096D01*
X150397340Y-130835365D01*
X150474680Y-130867400D01*
X150573115Y-130933173D01*
X150656828Y-131016886D01*
X150721067Y-131113026D01*
X150736613Y-131131968D01*
X150755555Y-131147513D01*
X150777165Y-131159064D01*
X150800614Y-131166177D01*
X150825000Y-131168579D01*
X150849386Y-131166177D01*
X150872835Y-131159064D01*
X150894446Y-131147513D01*
X150913388Y-131131967D01*
X150928933Y-131113026D01*
X150993172Y-131016886D01*
X151076885Y-130933173D01*
X151175320Y-130867400D01*
X151252660Y-130835365D01*
X151284695Y-130822096D01*
X151323399Y-130814397D01*
X151400805Y-130799000D01*
X151519195Y-130799000D01*
X151596601Y-130814397D01*
X151635305Y-130822096D01*
X151667340Y-130835365D01*
X151744680Y-130867400D01*
X151843115Y-130933173D01*
X151926828Y-131016886D01*
X151991067Y-131113026D01*
X152006613Y-131131968D01*
X152025555Y-131147513D01*
X152047165Y-131159064D01*
X152070614Y-131166177D01*
X152095000Y-131168579D01*
X152119386Y-131166177D01*
X152142835Y-131159064D01*
X152164446Y-131147513D01*
X152183388Y-131131967D01*
X152198933Y-131113026D01*
X152263172Y-131016886D01*
X152346885Y-130933173D01*
X152445320Y-130867400D01*
X152522660Y-130835365D01*
X152554695Y-130822096D01*
X152593399Y-130814397D01*
X152670805Y-130799000D01*
X152789195Y-130799000D01*
X152866601Y-130814397D01*
X152905305Y-130822096D01*
X152937340Y-130835365D01*
X153014680Y-130867400D01*
X153113115Y-130933173D01*
X153196828Y-131016886D01*
X153261067Y-131113026D01*
X153276613Y-131131968D01*
X153295555Y-131147513D01*
X153317165Y-131159064D01*
X153340614Y-131166177D01*
X153365000Y-131168579D01*
X153389386Y-131166177D01*
X153412835Y-131159064D01*
X153434446Y-131147513D01*
X153453388Y-131131967D01*
X153468933Y-131113026D01*
X153533172Y-131016886D01*
X153616885Y-130933173D01*
X153715320Y-130867400D01*
X153792660Y-130835365D01*
X153824695Y-130822096D01*
X153863399Y-130814397D01*
X153940805Y-130799000D01*
X154059195Y-130799000D01*
X154136601Y-130814397D01*
X154175305Y-130822096D01*
X154207340Y-130835365D01*
X154284680Y-130867400D01*
X154383115Y-130933173D01*
X154466827Y-131016885D01*
X154532600Y-131115320D01*
X154577904Y-131224696D01*
X154601000Y-131340805D01*
X154601000Y-131459195D01*
X154577904Y-131575304D01*
X154532600Y-131684680D01*
X154466827Y-131783115D01*
X154383115Y-131866827D01*
X154284680Y-131932600D01*
X154207340Y-131964635D01*
X154175305Y-131977904D01*
X154136601Y-131985603D01*
X154059195Y-132001000D01*
X153940805Y-132001000D01*
X153863399Y-131985603D01*
X153824695Y-131977904D01*
X153792660Y-131964635D01*
X153715320Y-131932600D01*
X153616885Y-131866827D01*
X153533172Y-131783114D01*
X153468933Y-131686974D01*
X153453387Y-131668032D01*
X153434445Y-131652487D01*
X153412835Y-131640936D01*
X153389386Y-131633823D01*
X153365000Y-131631421D01*
X153340614Y-131633823D01*
X153317165Y-131640936D01*
X153295554Y-131652487D01*
X153276612Y-131668033D01*
X153261067Y-131686974D01*
X153196828Y-131783114D01*
X153113115Y-131866827D01*
X153014680Y-131932600D01*
X152937340Y-131964635D01*
X152905305Y-131977904D01*
X152866601Y-131985603D01*
X152789195Y-132001000D01*
X152670805Y-132001000D01*
X152593399Y-131985603D01*
X152554695Y-131977904D01*
X152522660Y-131964635D01*
X152445320Y-131932600D01*
X152346885Y-131866827D01*
X152263172Y-131783114D01*
X152198933Y-131686974D01*
X152183387Y-131668032D01*
X152164445Y-131652487D01*
X152142835Y-131640936D01*
X152119386Y-131633823D01*
X152095000Y-131631421D01*
X152070614Y-131633823D01*
X152047165Y-131640936D01*
X152025554Y-131652487D01*
X152006612Y-131668033D01*
X151991067Y-131686974D01*
X151926828Y-131783114D01*
X151843115Y-131866827D01*
X151744680Y-131932600D01*
X151667340Y-131964635D01*
X151635305Y-131977904D01*
X151596601Y-131985603D01*
X151519195Y-132001000D01*
X151400805Y-132001000D01*
X151323399Y-131985603D01*
X151284695Y-131977904D01*
X151252660Y-131964635D01*
X151175320Y-131932600D01*
X151076885Y-131866827D01*
X150993172Y-131783114D01*
X150928933Y-131686974D01*
X150913387Y-131668032D01*
X150894445Y-131652487D01*
X150872835Y-131640936D01*
X150849386Y-131633823D01*
X150825000Y-131631421D01*
X150800614Y-131633823D01*
X150777165Y-131640936D01*
X150755554Y-131652487D01*
X150736612Y-131668033D01*
X150721067Y-131686974D01*
X150656828Y-131783114D01*
X150573115Y-131866827D01*
X150474680Y-131932600D01*
X150397340Y-131964635D01*
X150365305Y-131977904D01*
X150326601Y-131985603D01*
X150249195Y-132001000D01*
X150130805Y-132001000D01*
X150053399Y-131985603D01*
X150014695Y-131977904D01*
X149982660Y-131964635D01*
X149905320Y-131932600D01*
X149806885Y-131866827D01*
X149723173Y-131783115D01*
X149657400Y-131684680D01*
X149612096Y-131575304D01*
X149589000Y-131459195D01*
X149589000Y-131340805D01*
X149612096Y-131224696D01*
X149657400Y-131115320D01*
X149723173Y-131016885D01*
X149806885Y-130933173D01*
X149905320Y-130867400D01*
X149982660Y-130835365D01*
X150014695Y-130822096D01*
X150053399Y-130814397D01*
X150130805Y-130799000D01*
X150249195Y-130799000D01*
X150326601Y-130814397D01*
G37*
G36*
X140826601Y-130814397D02*
G01*
X140865305Y-130822096D01*
X140897340Y-130835365D01*
X140974680Y-130867400D01*
X141073115Y-130933173D01*
X141156828Y-131016886D01*
X141221067Y-131113026D01*
X141236613Y-131131968D01*
X141255555Y-131147513D01*
X141277165Y-131159064D01*
X141300614Y-131166177D01*
X141325000Y-131168579D01*
X141349386Y-131166177D01*
X141372835Y-131159064D01*
X141394446Y-131147513D01*
X141413388Y-131131967D01*
X141428933Y-131113026D01*
X141493172Y-131016886D01*
X141576885Y-130933173D01*
X141675320Y-130867400D01*
X141752660Y-130835365D01*
X141784695Y-130822096D01*
X141823399Y-130814397D01*
X141900805Y-130799000D01*
X142019195Y-130799000D01*
X142096601Y-130814397D01*
X142135305Y-130822096D01*
X142167340Y-130835365D01*
X142244680Y-130867400D01*
X142343115Y-130933173D01*
X142426828Y-131016886D01*
X142491067Y-131113026D01*
X142506613Y-131131968D01*
X142525555Y-131147513D01*
X142547165Y-131159064D01*
X142570614Y-131166177D01*
X142595000Y-131168579D01*
X142619386Y-131166177D01*
X142642835Y-131159064D01*
X142664446Y-131147513D01*
X142683388Y-131131967D01*
X142698933Y-131113026D01*
X142763172Y-131016886D01*
X142846885Y-130933173D01*
X142945320Y-130867400D01*
X143022660Y-130835365D01*
X143054695Y-130822096D01*
X143093399Y-130814397D01*
X143170805Y-130799000D01*
X143289195Y-130799000D01*
X143366601Y-130814397D01*
X143405305Y-130822096D01*
X143437340Y-130835365D01*
X143514680Y-130867400D01*
X143613115Y-130933173D01*
X143696828Y-131016886D01*
X143761067Y-131113026D01*
X143776613Y-131131968D01*
X143795555Y-131147513D01*
X143817165Y-131159064D01*
X143840614Y-131166177D01*
X143865000Y-131168579D01*
X143889386Y-131166177D01*
X143912835Y-131159064D01*
X143934446Y-131147513D01*
X143953388Y-131131967D01*
X143968933Y-131113026D01*
X144033172Y-131016886D01*
X144116885Y-130933173D01*
X144215320Y-130867400D01*
X144292660Y-130835365D01*
X144324695Y-130822096D01*
X144363399Y-130814397D01*
X144440805Y-130799000D01*
X144559195Y-130799000D01*
X144636601Y-130814397D01*
X144675305Y-130822096D01*
X144707340Y-130835365D01*
X144784680Y-130867400D01*
X144883115Y-130933173D01*
X144966827Y-131016885D01*
X145032600Y-131115320D01*
X145077904Y-131224696D01*
X145101000Y-131340805D01*
X145101000Y-131459195D01*
X145077904Y-131575304D01*
X145032600Y-131684680D01*
X144966827Y-131783115D01*
X144883115Y-131866827D01*
X144784680Y-131932600D01*
X144707340Y-131964635D01*
X144675305Y-131977904D01*
X144636601Y-131985603D01*
X144559195Y-132001000D01*
X144440805Y-132001000D01*
X144363399Y-131985603D01*
X144324695Y-131977904D01*
X144292660Y-131964635D01*
X144215320Y-131932600D01*
X144116885Y-131866827D01*
X144033172Y-131783114D01*
X143968933Y-131686974D01*
X143953387Y-131668032D01*
X143934445Y-131652487D01*
X143912835Y-131640936D01*
X143889386Y-131633823D01*
X143865000Y-131631421D01*
X143840614Y-131633823D01*
X143817165Y-131640936D01*
X143795554Y-131652487D01*
X143776612Y-131668033D01*
X143761067Y-131686974D01*
X143696828Y-131783114D01*
X143613115Y-131866827D01*
X143514680Y-131932600D01*
X143437340Y-131964635D01*
X143405305Y-131977904D01*
X143366601Y-131985603D01*
X143289195Y-132001000D01*
X143170805Y-132001000D01*
X143093399Y-131985603D01*
X143054695Y-131977904D01*
X143022660Y-131964635D01*
X142945320Y-131932600D01*
X142846885Y-131866827D01*
X142763172Y-131783114D01*
X142698933Y-131686974D01*
X142683387Y-131668032D01*
X142664445Y-131652487D01*
X142642835Y-131640936D01*
X142619386Y-131633823D01*
X142595000Y-131631421D01*
X142570614Y-131633823D01*
X142547165Y-131640936D01*
X142525554Y-131652487D01*
X142506612Y-131668033D01*
X142491067Y-131686974D01*
X142426828Y-131783114D01*
X142343115Y-131866827D01*
X142244680Y-131932600D01*
X142167340Y-131964635D01*
X142135305Y-131977904D01*
X142096601Y-131985603D01*
X142019195Y-132001000D01*
X141900805Y-132001000D01*
X141823399Y-131985603D01*
X141784695Y-131977904D01*
X141752660Y-131964635D01*
X141675320Y-131932600D01*
X141576885Y-131866827D01*
X141493172Y-131783114D01*
X141428933Y-131686974D01*
X141413387Y-131668032D01*
X141394445Y-131652487D01*
X141372835Y-131640936D01*
X141349386Y-131633823D01*
X141325000Y-131631421D01*
X141300614Y-131633823D01*
X141277165Y-131640936D01*
X141255554Y-131652487D01*
X141236612Y-131668033D01*
X141221067Y-131686974D01*
X141156828Y-131783114D01*
X141073115Y-131866827D01*
X140974680Y-131932600D01*
X140897340Y-131964635D01*
X140865305Y-131977904D01*
X140826601Y-131985603D01*
X140749195Y-132001000D01*
X140630805Y-132001000D01*
X140553399Y-131985603D01*
X140514695Y-131977904D01*
X140482660Y-131964635D01*
X140405320Y-131932600D01*
X140306885Y-131866827D01*
X140223173Y-131783115D01*
X140157400Y-131684680D01*
X140112096Y-131575304D01*
X140089000Y-131459195D01*
X140089000Y-131340805D01*
X140112096Y-131224696D01*
X140157400Y-131115320D01*
X140223173Y-131016885D01*
X140306885Y-130933173D01*
X140405320Y-130867400D01*
X140482660Y-130835365D01*
X140514695Y-130822096D01*
X140553399Y-130814397D01*
X140630805Y-130799000D01*
X140749195Y-130799000D01*
X140826601Y-130814397D01*
G37*
G36*
X114691938Y-128931716D02*
G01*
X114712557Y-128937971D01*
X114731553Y-128948124D01*
X114748208Y-128961792D01*
X114761876Y-128978447D01*
X114772029Y-128997443D01*
X114778284Y-129018062D01*
X114781000Y-129045640D01*
X114781000Y-129554360D01*
X114778284Y-129581938D01*
X114772029Y-129602557D01*
X114761876Y-129621553D01*
X114748208Y-129638208D01*
X114731553Y-129651876D01*
X114712557Y-129662029D01*
X114691938Y-129668284D01*
X114664360Y-129671000D01*
X114205640Y-129671000D01*
X114178062Y-129668284D01*
X114157443Y-129662029D01*
X114138447Y-129651876D01*
X114121792Y-129638208D01*
X114108124Y-129621553D01*
X114097971Y-129602557D01*
X114091716Y-129581938D01*
X114089000Y-129554360D01*
X114089000Y-129045640D01*
X114091716Y-129018062D01*
X114097971Y-128997443D01*
X114108124Y-128978447D01*
X114121792Y-128961792D01*
X114138447Y-128948124D01*
X114157443Y-128937971D01*
X114178062Y-128931716D01*
X114205640Y-128929000D01*
X114664360Y-128929000D01*
X114691938Y-128931716D01*
G37*
G36*
X113721938Y-128931716D02*
G01*
X113742557Y-128937971D01*
X113761553Y-128948124D01*
X113778208Y-128961792D01*
X113791876Y-128978447D01*
X113802029Y-128997443D01*
X113808284Y-129018062D01*
X113811000Y-129045640D01*
X113811000Y-129554360D01*
X113808284Y-129581938D01*
X113802029Y-129602557D01*
X113791876Y-129621553D01*
X113778208Y-129638208D01*
X113761553Y-129651876D01*
X113742557Y-129662029D01*
X113721938Y-129668284D01*
X113694360Y-129671000D01*
X113235640Y-129671000D01*
X113208062Y-129668284D01*
X113187443Y-129662029D01*
X113168447Y-129651876D01*
X113151792Y-129638208D01*
X113138124Y-129621553D01*
X113127971Y-129602557D01*
X113121716Y-129581938D01*
X113119000Y-129554360D01*
X113119000Y-129045640D01*
X113121716Y-129018062D01*
X113127971Y-128997443D01*
X113138124Y-128978447D01*
X113151792Y-128961792D01*
X113168447Y-128948124D01*
X113187443Y-128937971D01*
X113208062Y-128931716D01*
X113235640Y-128929000D01*
X113694360Y-128929000D01*
X113721938Y-128931716D01*
G37*
G36*
X114691938Y-127931716D02*
G01*
X114712557Y-127937971D01*
X114731553Y-127948124D01*
X114748208Y-127961792D01*
X114761876Y-127978447D01*
X114772029Y-127997443D01*
X114778284Y-128018062D01*
X114781000Y-128045640D01*
X114781000Y-128554360D01*
X114778284Y-128581938D01*
X114772029Y-128602557D01*
X114761876Y-128621553D01*
X114748208Y-128638208D01*
X114731553Y-128651876D01*
X114712557Y-128662029D01*
X114691938Y-128668284D01*
X114664360Y-128671000D01*
X114205640Y-128671000D01*
X114178062Y-128668284D01*
X114157443Y-128662029D01*
X114138447Y-128651876D01*
X114121792Y-128638208D01*
X114108124Y-128621553D01*
X114097971Y-128602557D01*
X114091716Y-128581938D01*
X114089000Y-128554360D01*
X114089000Y-128045640D01*
X114091716Y-128018062D01*
X114097971Y-127997443D01*
X114108124Y-127978447D01*
X114121792Y-127961792D01*
X114138447Y-127948124D01*
X114157443Y-127937971D01*
X114178062Y-127931716D01*
X114205640Y-127929000D01*
X114664360Y-127929000D01*
X114691938Y-127931716D01*
G37*
G36*
X113721938Y-127931716D02*
G01*
X113742557Y-127937971D01*
X113761553Y-127948124D01*
X113778208Y-127961792D01*
X113791876Y-127978447D01*
X113802029Y-127997443D01*
X113808284Y-128018062D01*
X113811000Y-128045640D01*
X113811000Y-128554360D01*
X113808284Y-128581938D01*
X113802029Y-128602557D01*
X113791876Y-128621553D01*
X113778208Y-128638208D01*
X113761553Y-128651876D01*
X113742557Y-128662029D01*
X113721938Y-128668284D01*
X113694360Y-128671000D01*
X113235640Y-128671000D01*
X113208062Y-128668284D01*
X113187443Y-128662029D01*
X113168447Y-128651876D01*
X113151792Y-128638208D01*
X113138124Y-128621553D01*
X113127971Y-128602557D01*
X113121716Y-128581938D01*
X113119000Y-128554360D01*
X113119000Y-128045640D01*
X113121716Y-128018062D01*
X113127971Y-127997443D01*
X113138124Y-127978447D01*
X113151792Y-127961792D01*
X113168447Y-127948124D01*
X113187443Y-127937971D01*
X113208062Y-127931716D01*
X113235640Y-127929000D01*
X113694360Y-127929000D01*
X113721938Y-127931716D01*
G37*
G36*
X144351000Y-128601000D02*
G01*
X143449000Y-128601000D01*
X143449000Y-127899000D01*
X144351000Y-127899000D01*
X144351000Y-128601000D01*
G37*
G36*
X142551000Y-128601000D02*
G01*
X141649000Y-128601000D01*
X141649000Y-127899000D01*
X142551000Y-127899000D01*
X142551000Y-128601000D01*
G37*
G36*
X145481938Y-127391716D02*
G01*
X145502557Y-127397971D01*
X145521553Y-127408124D01*
X145538208Y-127421792D01*
X145551876Y-127438447D01*
X145562029Y-127457443D01*
X145568284Y-127478062D01*
X145571000Y-127505640D01*
X145571000Y-127964360D01*
X145568284Y-127991938D01*
X145562029Y-128012557D01*
X145551876Y-128031553D01*
X145538208Y-128048208D01*
X145521553Y-128061876D01*
X145502557Y-128072029D01*
X145481938Y-128078284D01*
X145454360Y-128081000D01*
X144945640Y-128081000D01*
X144918062Y-128078284D01*
X144897443Y-128072029D01*
X144878447Y-128061876D01*
X144861792Y-128048208D01*
X144848124Y-128031553D01*
X144837971Y-128012557D01*
X144831716Y-127991938D01*
X144829000Y-127964360D01*
X144829000Y-127505640D01*
X144831716Y-127478062D01*
X144837971Y-127457443D01*
X144848124Y-127438447D01*
X144861792Y-127421792D01*
X144878447Y-127408124D01*
X144897443Y-127397971D01*
X144918062Y-127391716D01*
X144945640Y-127389000D01*
X145454360Y-127389000D01*
X145481938Y-127391716D01*
G37*
G36*
X137246938Y-127236716D02*
G01*
X137267557Y-127242971D01*
X137286553Y-127253124D01*
X137303208Y-127266792D01*
X137316876Y-127283447D01*
X137327029Y-127302443D01*
X137333284Y-127323062D01*
X137336000Y-127350640D01*
X137336000Y-127809360D01*
X137333284Y-127836938D01*
X137327029Y-127857557D01*
X137316876Y-127876553D01*
X137303208Y-127893208D01*
X137286553Y-127906876D01*
X137267557Y-127917029D01*
X137246938Y-127923284D01*
X137219360Y-127926000D01*
X136710640Y-127926000D01*
X136683062Y-127923284D01*
X136662443Y-127917029D01*
X136643447Y-127906876D01*
X136626792Y-127893208D01*
X136613124Y-127876553D01*
X136602971Y-127857557D01*
X136596716Y-127836938D01*
X136594000Y-127809360D01*
X136594000Y-127350640D01*
X136596716Y-127323062D01*
X136602971Y-127302443D01*
X136613124Y-127283447D01*
X136626792Y-127266792D01*
X136643447Y-127253124D01*
X136662443Y-127242971D01*
X136683062Y-127236716D01*
X136710640Y-127234000D01*
X137219360Y-127234000D01*
X137246938Y-127236716D01*
G37*
G36*
X132756938Y-127236716D02*
G01*
X132777557Y-127242971D01*
X132796553Y-127253124D01*
X132813208Y-127266792D01*
X132826876Y-127283447D01*
X132837029Y-127302443D01*
X132843284Y-127323062D01*
X132846000Y-127350640D01*
X132846000Y-127809360D01*
X132843284Y-127836938D01*
X132837029Y-127857557D01*
X132826876Y-127876553D01*
X132813208Y-127893208D01*
X132796553Y-127906876D01*
X132777557Y-127917029D01*
X132756938Y-127923284D01*
X132729360Y-127926000D01*
X132220640Y-127926000D01*
X132193062Y-127923284D01*
X132172443Y-127917029D01*
X132153447Y-127906876D01*
X132136792Y-127893208D01*
X132123124Y-127876553D01*
X132112971Y-127857557D01*
X132106716Y-127836938D01*
X132104000Y-127809360D01*
X132104000Y-127350640D01*
X132106716Y-127323062D01*
X132112971Y-127302443D01*
X132123124Y-127283447D01*
X132136792Y-127266792D01*
X132153447Y-127253124D01*
X132172443Y-127242971D01*
X132193062Y-127236716D01*
X132220640Y-127234000D01*
X132729360Y-127234000D01*
X132756938Y-127236716D01*
G37*
G36*
X135001938Y-127236716D02*
G01*
X135022557Y-127242971D01*
X135041553Y-127253124D01*
X135058208Y-127266792D01*
X135071876Y-127283447D01*
X135082029Y-127302443D01*
X135088284Y-127323062D01*
X135091000Y-127350640D01*
X135091000Y-127809360D01*
X135088284Y-127836938D01*
X135082029Y-127857557D01*
X135071876Y-127876553D01*
X135058208Y-127893208D01*
X135041553Y-127906876D01*
X135022557Y-127917029D01*
X135001938Y-127923284D01*
X134974360Y-127926000D01*
X134465640Y-127926000D01*
X134438062Y-127923284D01*
X134417443Y-127917029D01*
X134398447Y-127906876D01*
X134381792Y-127893208D01*
X134368124Y-127876553D01*
X134357971Y-127857557D01*
X134351716Y-127836938D01*
X134349000Y-127809360D01*
X134349000Y-127350640D01*
X134351716Y-127323062D01*
X134357971Y-127302443D01*
X134368124Y-127283447D01*
X134381792Y-127266792D01*
X134398447Y-127253124D01*
X134417443Y-127242971D01*
X134438062Y-127236716D01*
X134465640Y-127234000D01*
X134974360Y-127234000D01*
X135001938Y-127236716D01*
G37*
G36*
X113721938Y-126931716D02*
G01*
X113742557Y-126937971D01*
X113761553Y-126948124D01*
X113778208Y-126961792D01*
X113791876Y-126978447D01*
X113802029Y-126997443D01*
X113808284Y-127018062D01*
X113811000Y-127045640D01*
X113811000Y-127554360D01*
X113808284Y-127581938D01*
X113802029Y-127602557D01*
X113791876Y-127621553D01*
X113778208Y-127638208D01*
X113761553Y-127651876D01*
X113742557Y-127662029D01*
X113721938Y-127668284D01*
X113694360Y-127671000D01*
X113235640Y-127671000D01*
X113208062Y-127668284D01*
X113187443Y-127662029D01*
X113168447Y-127651876D01*
X113151792Y-127638208D01*
X113138124Y-127621553D01*
X113127971Y-127602557D01*
X113121716Y-127581938D01*
X113119000Y-127554360D01*
X113119000Y-127045640D01*
X113121716Y-127018062D01*
X113127971Y-126997443D01*
X113138124Y-126978447D01*
X113151792Y-126961792D01*
X113168447Y-126948124D01*
X113187443Y-126937971D01*
X113208062Y-126931716D01*
X113235640Y-126929000D01*
X113694360Y-126929000D01*
X113721938Y-126931716D01*
G37*
G36*
X114691938Y-126931716D02*
G01*
X114712557Y-126937971D01*
X114731553Y-126948124D01*
X114748208Y-126961792D01*
X114761876Y-126978447D01*
X114772029Y-126997443D01*
X114778284Y-127018062D01*
X114781000Y-127045640D01*
X114781000Y-127554360D01*
X114778284Y-127581938D01*
X114772029Y-127602557D01*
X114761876Y-127621553D01*
X114748208Y-127638208D01*
X114731553Y-127651876D01*
X114712557Y-127662029D01*
X114691938Y-127668284D01*
X114664360Y-127671000D01*
X114205640Y-127671000D01*
X114178062Y-127668284D01*
X114157443Y-127662029D01*
X114138447Y-127651876D01*
X114121792Y-127638208D01*
X114108124Y-127621553D01*
X114097971Y-127602557D01*
X114091716Y-127581938D01*
X114089000Y-127554360D01*
X114089000Y-127045640D01*
X114091716Y-127018062D01*
X114097971Y-126997443D01*
X114108124Y-126978447D01*
X114121792Y-126961792D01*
X114138447Y-126948124D01*
X114157443Y-126937971D01*
X114178062Y-126931716D01*
X114205640Y-126929000D01*
X114664360Y-126929000D01*
X114691938Y-126931716D01*
G37*
G36*
X144351000Y-127201000D02*
G01*
X143449000Y-127201000D01*
X143449000Y-126499000D01*
X144351000Y-126499000D01*
X144351000Y-127201000D01*
G37*
G36*
X142551000Y-127201000D02*
G01*
X141649000Y-127201000D01*
X141649000Y-126499000D01*
X142551000Y-126499000D01*
X142551000Y-127201000D01*
G37*
G36*
X145481938Y-126421716D02*
G01*
X145502557Y-126427971D01*
X145521553Y-126438124D01*
X145538208Y-126451792D01*
X145551876Y-126468447D01*
X145562029Y-126487443D01*
X145568284Y-126508062D01*
X145571000Y-126535640D01*
X145571000Y-126994360D01*
X145568284Y-127021938D01*
X145562029Y-127042557D01*
X145551876Y-127061553D01*
X145538208Y-127078208D01*
X145521553Y-127091876D01*
X145502557Y-127102029D01*
X145481938Y-127108284D01*
X145454360Y-127111000D01*
X144945640Y-127111000D01*
X144918062Y-127108284D01*
X144897443Y-127102029D01*
X144878447Y-127091876D01*
X144861792Y-127078208D01*
X144848124Y-127061553D01*
X144837971Y-127042557D01*
X144831716Y-127021938D01*
X144829000Y-126994360D01*
X144829000Y-126535640D01*
X144831716Y-126508062D01*
X144837971Y-126487443D01*
X144848124Y-126468447D01*
X144861792Y-126451792D01*
X144878447Y-126438124D01*
X144897443Y-126427971D01*
X144918062Y-126421716D01*
X144945640Y-126419000D01*
X145454360Y-126419000D01*
X145481938Y-126421716D01*
G37*
G36*
X137246938Y-126266716D02*
G01*
X137267557Y-126272971D01*
X137286553Y-126283124D01*
X137303208Y-126296792D01*
X137316876Y-126313447D01*
X137327029Y-126332443D01*
X137333284Y-126353062D01*
X137336000Y-126380640D01*
X137336000Y-126839360D01*
X137333284Y-126866938D01*
X137327029Y-126887557D01*
X137316876Y-126906553D01*
X137303208Y-126923208D01*
X137286553Y-126936876D01*
X137267557Y-126947029D01*
X137246938Y-126953284D01*
X137219360Y-126956000D01*
X136710640Y-126956000D01*
X136683062Y-126953284D01*
X136662443Y-126947029D01*
X136643447Y-126936876D01*
X136626792Y-126923208D01*
X136613124Y-126906553D01*
X136602971Y-126887557D01*
X136596716Y-126866938D01*
X136594000Y-126839360D01*
X136594000Y-126380640D01*
X136596716Y-126353062D01*
X136602971Y-126332443D01*
X136613124Y-126313447D01*
X136626792Y-126296792D01*
X136643447Y-126283124D01*
X136662443Y-126272971D01*
X136683062Y-126266716D01*
X136710640Y-126264000D01*
X137219360Y-126264000D01*
X137246938Y-126266716D01*
G37*
G36*
X135001938Y-126266716D02*
G01*
X135022557Y-126272971D01*
X135041553Y-126283124D01*
X135058208Y-126296792D01*
X135071876Y-126313447D01*
X135082029Y-126332443D01*
X135088284Y-126353062D01*
X135091000Y-126380640D01*
X135091000Y-126839360D01*
X135088284Y-126866938D01*
X135082029Y-126887557D01*
X135071876Y-126906553D01*
X135058208Y-126923208D01*
X135041553Y-126936876D01*
X135022557Y-126947029D01*
X135001938Y-126953284D01*
X134974360Y-126956000D01*
X134465640Y-126956000D01*
X134438062Y-126953284D01*
X134417443Y-126947029D01*
X134398447Y-126936876D01*
X134381792Y-126923208D01*
X134368124Y-126906553D01*
X134357971Y-126887557D01*
X134351716Y-126866938D01*
X134349000Y-126839360D01*
X134349000Y-126380640D01*
X134351716Y-126353062D01*
X134357971Y-126332443D01*
X134368124Y-126313447D01*
X134381792Y-126296792D01*
X134398447Y-126283124D01*
X134417443Y-126272971D01*
X134438062Y-126266716D01*
X134465640Y-126264000D01*
X134974360Y-126264000D01*
X135001938Y-126266716D01*
G37*
G36*
X132756938Y-126266716D02*
G01*
X132777557Y-126272971D01*
X132796553Y-126283124D01*
X132813208Y-126296792D01*
X132826876Y-126313447D01*
X132837029Y-126332443D01*
X132843284Y-126353062D01*
X132846000Y-126380640D01*
X132846000Y-126839360D01*
X132843284Y-126866938D01*
X132837029Y-126887557D01*
X132826876Y-126906553D01*
X132813208Y-126923208D01*
X132796553Y-126936876D01*
X132777557Y-126947029D01*
X132756938Y-126953284D01*
X132729360Y-126956000D01*
X132220640Y-126956000D01*
X132193062Y-126953284D01*
X132172443Y-126947029D01*
X132153447Y-126936876D01*
X132136792Y-126923208D01*
X132123124Y-126906553D01*
X132112971Y-126887557D01*
X132106716Y-126866938D01*
X132104000Y-126839360D01*
X132104000Y-126380640D01*
X132106716Y-126353062D01*
X132112971Y-126332443D01*
X132123124Y-126313447D01*
X132136792Y-126296792D01*
X132153447Y-126283124D01*
X132172443Y-126272971D01*
X132193062Y-126266716D01*
X132220640Y-126264000D01*
X132729360Y-126264000D01*
X132756938Y-126266716D01*
G37*
G36*
X149281938Y-126041716D02*
G01*
X149302557Y-126047971D01*
X149321553Y-126058124D01*
X149338208Y-126071792D01*
X149351876Y-126088447D01*
X149362029Y-126107443D01*
X149368284Y-126128062D01*
X149371000Y-126155640D01*
X149371000Y-126614360D01*
X149368284Y-126641938D01*
X149362029Y-126662557D01*
X149351876Y-126681553D01*
X149338208Y-126698208D01*
X149321553Y-126711876D01*
X149302557Y-126722029D01*
X149281938Y-126728284D01*
X149254360Y-126731000D01*
X148745640Y-126731000D01*
X148718062Y-126728284D01*
X148697443Y-126722029D01*
X148678447Y-126711876D01*
X148661792Y-126698208D01*
X148648124Y-126681553D01*
X148637971Y-126662557D01*
X148631716Y-126641938D01*
X148629000Y-126614360D01*
X148629000Y-126155640D01*
X148631716Y-126128062D01*
X148637971Y-126107443D01*
X148648124Y-126088447D01*
X148661792Y-126071792D01*
X148678447Y-126058124D01*
X148697443Y-126047971D01*
X148718062Y-126041716D01*
X148745640Y-126039000D01*
X149254360Y-126039000D01*
X149281938Y-126041716D01*
G37*
G36*
X113721938Y-125931716D02*
G01*
X113742557Y-125937971D01*
X113761553Y-125948124D01*
X113778208Y-125961792D01*
X113791876Y-125978447D01*
X113802029Y-125997443D01*
X113808284Y-126018062D01*
X113811000Y-126045640D01*
X113811000Y-126554360D01*
X113808284Y-126581938D01*
X113802029Y-126602557D01*
X113791876Y-126621553D01*
X113778208Y-126638208D01*
X113761553Y-126651876D01*
X113742557Y-126662029D01*
X113721938Y-126668284D01*
X113694360Y-126671000D01*
X113235640Y-126671000D01*
X113208062Y-126668284D01*
X113187443Y-126662029D01*
X113168447Y-126651876D01*
X113151792Y-126638208D01*
X113138124Y-126621553D01*
X113127971Y-126602557D01*
X113121716Y-126581938D01*
X113119000Y-126554360D01*
X113119000Y-126045640D01*
X113121716Y-126018062D01*
X113127971Y-125997443D01*
X113138124Y-125978447D01*
X113151792Y-125961792D01*
X113168447Y-125948124D01*
X113187443Y-125937971D01*
X113208062Y-125931716D01*
X113235640Y-125929000D01*
X113694360Y-125929000D01*
X113721938Y-125931716D01*
G37*
G36*
X114691938Y-125931716D02*
G01*
X114712557Y-125937971D01*
X114731553Y-125948124D01*
X114748208Y-125961792D01*
X114761876Y-125978447D01*
X114772029Y-125997443D01*
X114778284Y-126018062D01*
X114781000Y-126045640D01*
X114781000Y-126554360D01*
X114778284Y-126581938D01*
X114772029Y-126602557D01*
X114761876Y-126621553D01*
X114748208Y-126638208D01*
X114731553Y-126651876D01*
X114712557Y-126662029D01*
X114691938Y-126668284D01*
X114664360Y-126671000D01*
X114205640Y-126671000D01*
X114178062Y-126668284D01*
X114157443Y-126662029D01*
X114138447Y-126651876D01*
X114121792Y-126638208D01*
X114108124Y-126621553D01*
X114097971Y-126602557D01*
X114091716Y-126581938D01*
X114089000Y-126554360D01*
X114089000Y-126045640D01*
X114091716Y-126018062D01*
X114097971Y-125997443D01*
X114108124Y-125978447D01*
X114121792Y-125961792D01*
X114138447Y-125948124D01*
X114157443Y-125937971D01*
X114178062Y-125931716D01*
X114205640Y-125929000D01*
X114664360Y-125929000D01*
X114691938Y-125931716D01*
G37*
G36*
X149281938Y-125071716D02*
G01*
X149302557Y-125077971D01*
X149321553Y-125088124D01*
X149338208Y-125101792D01*
X149351876Y-125118447D01*
X149362029Y-125137443D01*
X149368284Y-125158062D01*
X149371000Y-125185640D01*
X149371000Y-125644360D01*
X149368284Y-125671938D01*
X149362029Y-125692557D01*
X149351876Y-125711553D01*
X149338208Y-125728208D01*
X149321553Y-125741876D01*
X149302557Y-125752029D01*
X149281938Y-125758284D01*
X149254360Y-125761000D01*
X148745640Y-125761000D01*
X148718062Y-125758284D01*
X148697443Y-125752029D01*
X148678447Y-125741876D01*
X148661792Y-125728208D01*
X148648124Y-125711553D01*
X148637971Y-125692557D01*
X148631716Y-125671938D01*
X148629000Y-125644360D01*
X148629000Y-125185640D01*
X148631716Y-125158062D01*
X148637971Y-125137443D01*
X148648124Y-125118447D01*
X148661792Y-125101792D01*
X148678447Y-125088124D01*
X148697443Y-125077971D01*
X148718062Y-125071716D01*
X148745640Y-125069000D01*
X149254360Y-125069000D01*
X149281938Y-125071716D01*
G37*
G36*
X113721938Y-124931716D02*
G01*
X113742557Y-124937971D01*
X113761553Y-124948124D01*
X113778208Y-124961792D01*
X113791876Y-124978447D01*
X113802029Y-124997443D01*
X113808284Y-125018062D01*
X113811000Y-125045640D01*
X113811000Y-125554360D01*
X113808284Y-125581938D01*
X113802029Y-125602557D01*
X113791876Y-125621553D01*
X113778208Y-125638208D01*
X113761553Y-125651876D01*
X113742557Y-125662029D01*
X113721938Y-125668284D01*
X113694360Y-125671000D01*
X113235640Y-125671000D01*
X113208062Y-125668284D01*
X113187443Y-125662029D01*
X113168447Y-125651876D01*
X113151792Y-125638208D01*
X113138124Y-125621553D01*
X113127971Y-125602557D01*
X113121716Y-125581938D01*
X113119000Y-125554360D01*
X113119000Y-125045640D01*
X113121716Y-125018062D01*
X113127971Y-124997443D01*
X113138124Y-124978447D01*
X113151792Y-124961792D01*
X113168447Y-124948124D01*
X113187443Y-124937971D01*
X113208062Y-124931716D01*
X113235640Y-124929000D01*
X113694360Y-124929000D01*
X113721938Y-124931716D01*
G37*
G36*
X114691938Y-124931716D02*
G01*
X114712557Y-124937971D01*
X114731553Y-124948124D01*
X114748208Y-124961792D01*
X114761876Y-124978447D01*
X114772029Y-124997443D01*
X114778284Y-125018062D01*
X114781000Y-125045640D01*
X114781000Y-125554360D01*
X114778284Y-125581938D01*
X114772029Y-125602557D01*
X114761876Y-125621553D01*
X114748208Y-125638208D01*
X114731553Y-125651876D01*
X114712557Y-125662029D01*
X114691938Y-125668284D01*
X114664360Y-125671000D01*
X114205640Y-125671000D01*
X114178062Y-125668284D01*
X114157443Y-125662029D01*
X114138447Y-125651876D01*
X114121792Y-125638208D01*
X114108124Y-125621553D01*
X114097971Y-125602557D01*
X114091716Y-125581938D01*
X114089000Y-125554360D01*
X114089000Y-125045640D01*
X114091716Y-125018062D01*
X114097971Y-124997443D01*
X114108124Y-124978447D01*
X114121792Y-124961792D01*
X114138447Y-124948124D01*
X114157443Y-124937971D01*
X114178062Y-124931716D01*
X114205640Y-124929000D01*
X114664360Y-124929000D01*
X114691938Y-124931716D01*
G37*
G36*
X120131938Y-124141716D02*
G01*
X120152557Y-124147971D01*
X120171553Y-124158124D01*
X120188208Y-124171792D01*
X120201876Y-124188447D01*
X120212029Y-124207443D01*
X120218284Y-124228062D01*
X120221000Y-124255640D01*
X120221000Y-124714360D01*
X120218284Y-124741938D01*
X120212029Y-124762557D01*
X120201876Y-124781553D01*
X120188208Y-124798208D01*
X120171553Y-124811876D01*
X120152557Y-124822029D01*
X120131938Y-124828284D01*
X120104360Y-124831000D01*
X119595640Y-124831000D01*
X119568062Y-124828284D01*
X119547443Y-124822029D01*
X119528447Y-124811876D01*
X119511792Y-124798208D01*
X119498124Y-124781553D01*
X119487971Y-124762557D01*
X119481716Y-124741938D01*
X119479000Y-124714360D01*
X119479000Y-124255640D01*
X119481716Y-124228062D01*
X119487971Y-124207443D01*
X119498124Y-124188447D01*
X119511792Y-124171792D01*
X119528447Y-124158124D01*
X119547443Y-124147971D01*
X119568062Y-124141716D01*
X119595640Y-124139000D01*
X120104360Y-124139000D01*
X120131938Y-124141716D01*
G37*
G36*
X119131938Y-124141716D02*
G01*
X119152557Y-124147971D01*
X119171553Y-124158124D01*
X119188208Y-124171792D01*
X119201876Y-124188447D01*
X119212029Y-124207443D01*
X119218284Y-124228062D01*
X119221000Y-124255640D01*
X119221000Y-124714360D01*
X119218284Y-124741938D01*
X119212029Y-124762557D01*
X119201876Y-124781553D01*
X119188208Y-124798208D01*
X119171553Y-124811876D01*
X119152557Y-124822029D01*
X119131938Y-124828284D01*
X119104360Y-124831000D01*
X118595640Y-124831000D01*
X118568062Y-124828284D01*
X118547443Y-124822029D01*
X118528447Y-124811876D01*
X118511792Y-124798208D01*
X118498124Y-124781553D01*
X118487971Y-124762557D01*
X118481716Y-124741938D01*
X118479000Y-124714360D01*
X118479000Y-124255640D01*
X118481716Y-124228062D01*
X118487971Y-124207443D01*
X118498124Y-124188447D01*
X118511792Y-124171792D01*
X118528447Y-124158124D01*
X118547443Y-124147971D01*
X118568062Y-124141716D01*
X118595640Y-124139000D01*
X119104360Y-124139000D01*
X119131938Y-124141716D01*
G37*
G36*
X118131938Y-124141716D02*
G01*
X118152557Y-124147971D01*
X118171553Y-124158124D01*
X118188208Y-124171792D01*
X118201876Y-124188447D01*
X118212029Y-124207443D01*
X118218284Y-124228062D01*
X118221000Y-124255640D01*
X118221000Y-124714360D01*
X118218284Y-124741938D01*
X118212029Y-124762557D01*
X118201876Y-124781553D01*
X118188208Y-124798208D01*
X118171553Y-124811876D01*
X118152557Y-124822029D01*
X118131938Y-124828284D01*
X118104360Y-124831000D01*
X117595640Y-124831000D01*
X117568062Y-124828284D01*
X117547443Y-124822029D01*
X117528447Y-124811876D01*
X117511792Y-124798208D01*
X117498124Y-124781553D01*
X117487971Y-124762557D01*
X117481716Y-124741938D01*
X117479000Y-124714360D01*
X117479000Y-124255640D01*
X117481716Y-124228062D01*
X117487971Y-124207443D01*
X117498124Y-124188447D01*
X117511792Y-124171792D01*
X117528447Y-124158124D01*
X117547443Y-124147971D01*
X117568062Y-124141716D01*
X117595640Y-124139000D01*
X118104360Y-124139000D01*
X118131938Y-124141716D01*
G37*
G36*
X114691938Y-123931716D02*
G01*
X114712557Y-123937971D01*
X114731553Y-123948124D01*
X114748208Y-123961792D01*
X114761876Y-123978447D01*
X114772029Y-123997443D01*
X114778284Y-124018062D01*
X114781000Y-124045640D01*
X114781000Y-124554360D01*
X114778284Y-124581938D01*
X114772029Y-124602557D01*
X114761876Y-124621553D01*
X114748208Y-124638208D01*
X114731553Y-124651876D01*
X114712557Y-124662029D01*
X114691938Y-124668284D01*
X114664360Y-124671000D01*
X114205640Y-124671000D01*
X114178062Y-124668284D01*
X114157443Y-124662029D01*
X114138447Y-124651876D01*
X114121792Y-124638208D01*
X114108124Y-124621553D01*
X114097971Y-124602557D01*
X114091716Y-124581938D01*
X114089000Y-124554360D01*
X114089000Y-124045640D01*
X114091716Y-124018062D01*
X114097971Y-123997443D01*
X114108124Y-123978447D01*
X114121792Y-123961792D01*
X114138447Y-123948124D01*
X114157443Y-123937971D01*
X114178062Y-123931716D01*
X114205640Y-123929000D01*
X114664360Y-123929000D01*
X114691938Y-123931716D01*
G37*
G36*
X113721938Y-123931716D02*
G01*
X113742557Y-123937971D01*
X113761553Y-123948124D01*
X113778208Y-123961792D01*
X113791876Y-123978447D01*
X113802029Y-123997443D01*
X113808284Y-124018062D01*
X113811000Y-124045640D01*
X113811000Y-124554360D01*
X113808284Y-124581938D01*
X113802029Y-124602557D01*
X113791876Y-124621553D01*
X113778208Y-124638208D01*
X113761553Y-124651876D01*
X113742557Y-124662029D01*
X113721938Y-124668284D01*
X113694360Y-124671000D01*
X113235640Y-124671000D01*
X113208062Y-124668284D01*
X113187443Y-124662029D01*
X113168447Y-124651876D01*
X113151792Y-124638208D01*
X113138124Y-124621553D01*
X113127971Y-124602557D01*
X113121716Y-124581938D01*
X113119000Y-124554360D01*
X113119000Y-124045640D01*
X113121716Y-124018062D01*
X113127971Y-123997443D01*
X113138124Y-123978447D01*
X113151792Y-123961792D01*
X113168447Y-123948124D01*
X113187443Y-123937971D01*
X113208062Y-123931716D01*
X113235640Y-123929000D01*
X113694360Y-123929000D01*
X113721938Y-123931716D01*
G37*
G36*
X110591938Y-123681716D02*
G01*
X110612557Y-123687971D01*
X110631553Y-123698124D01*
X110648208Y-123711792D01*
X110661876Y-123728447D01*
X110672029Y-123747443D01*
X110678284Y-123768062D01*
X110681000Y-123795640D01*
X110681000Y-124304360D01*
X110678284Y-124331938D01*
X110672029Y-124352557D01*
X110661876Y-124371553D01*
X110648208Y-124388208D01*
X110631553Y-124401876D01*
X110612557Y-124412029D01*
X110591938Y-124418284D01*
X110564360Y-124421000D01*
X110105640Y-124421000D01*
X110078062Y-124418284D01*
X110057443Y-124412029D01*
X110038447Y-124401876D01*
X110021792Y-124388208D01*
X110008124Y-124371553D01*
X109997971Y-124352557D01*
X109991716Y-124331938D01*
X109989000Y-124304360D01*
X109989000Y-123795640D01*
X109991716Y-123768062D01*
X109997971Y-123747443D01*
X110008124Y-123728447D01*
X110021792Y-123711792D01*
X110038447Y-123698124D01*
X110057443Y-123687971D01*
X110078062Y-123681716D01*
X110105640Y-123679000D01*
X110564360Y-123679000D01*
X110591938Y-123681716D01*
G37*
G36*
X109621938Y-123681716D02*
G01*
X109642557Y-123687971D01*
X109661553Y-123698124D01*
X109678208Y-123711792D01*
X109691876Y-123728447D01*
X109702029Y-123747443D01*
X109708284Y-123768062D01*
X109711000Y-123795640D01*
X109711000Y-124304360D01*
X109708284Y-124331938D01*
X109702029Y-124352557D01*
X109691876Y-124371553D01*
X109678208Y-124388208D01*
X109661553Y-124401876D01*
X109642557Y-124412029D01*
X109621938Y-124418284D01*
X109594360Y-124421000D01*
X109135640Y-124421000D01*
X109108062Y-124418284D01*
X109087443Y-124412029D01*
X109068447Y-124401876D01*
X109051792Y-124388208D01*
X109038124Y-124371553D01*
X109027971Y-124352557D01*
X109021716Y-124331938D01*
X109019000Y-124304360D01*
X109019000Y-123795640D01*
X109021716Y-123768062D01*
X109027971Y-123747443D01*
X109038124Y-123728447D01*
X109051792Y-123711792D01*
X109068447Y-123698124D01*
X109087443Y-123687971D01*
X109108062Y-123681716D01*
X109135640Y-123679000D01*
X109594360Y-123679000D01*
X109621938Y-123681716D01*
G37*
G36*
X119131938Y-123171716D02*
G01*
X119152557Y-123177971D01*
X119171553Y-123188124D01*
X119188208Y-123201792D01*
X119201876Y-123218447D01*
X119212029Y-123237443D01*
X119218284Y-123258062D01*
X119221000Y-123285640D01*
X119221000Y-123744360D01*
X119218284Y-123771938D01*
X119212029Y-123792557D01*
X119201876Y-123811553D01*
X119188208Y-123828208D01*
X119171553Y-123841876D01*
X119152557Y-123852029D01*
X119131938Y-123858284D01*
X119104360Y-123861000D01*
X118595640Y-123861000D01*
X118568062Y-123858284D01*
X118547443Y-123852029D01*
X118528447Y-123841876D01*
X118511792Y-123828208D01*
X118498124Y-123811553D01*
X118487971Y-123792557D01*
X118481716Y-123771938D01*
X118479000Y-123744360D01*
X118479000Y-123285640D01*
X118481716Y-123258062D01*
X118487971Y-123237443D01*
X118498124Y-123218447D01*
X118511792Y-123201792D01*
X118528447Y-123188124D01*
X118547443Y-123177971D01*
X118568062Y-123171716D01*
X118595640Y-123169000D01*
X119104360Y-123169000D01*
X119131938Y-123171716D01*
G37*
G36*
X120131938Y-123171716D02*
G01*
X120152557Y-123177971D01*
X120171553Y-123188124D01*
X120188208Y-123201792D01*
X120201876Y-123218447D01*
X120212029Y-123237443D01*
X120218284Y-123258062D01*
X120221000Y-123285640D01*
X120221000Y-123744360D01*
X120218284Y-123771938D01*
X120212029Y-123792557D01*
X120201876Y-123811553D01*
X120188208Y-123828208D01*
X120171553Y-123841876D01*
X120152557Y-123852029D01*
X120131938Y-123858284D01*
X120104360Y-123861000D01*
X119595640Y-123861000D01*
X119568062Y-123858284D01*
X119547443Y-123852029D01*
X119528447Y-123841876D01*
X119511792Y-123828208D01*
X119498124Y-123811553D01*
X119487971Y-123792557D01*
X119481716Y-123771938D01*
X119479000Y-123744360D01*
X119479000Y-123285640D01*
X119481716Y-123258062D01*
X119487971Y-123237443D01*
X119498124Y-123218447D01*
X119511792Y-123201792D01*
X119528447Y-123188124D01*
X119547443Y-123177971D01*
X119568062Y-123171716D01*
X119595640Y-123169000D01*
X120104360Y-123169000D01*
X120131938Y-123171716D01*
G37*
G36*
X118131938Y-123171716D02*
G01*
X118152557Y-123177971D01*
X118171553Y-123188124D01*
X118188208Y-123201792D01*
X118201876Y-123218447D01*
X118212029Y-123237443D01*
X118218284Y-123258062D01*
X118221000Y-123285640D01*
X118221000Y-123744360D01*
X118218284Y-123771938D01*
X118212029Y-123792557D01*
X118201876Y-123811553D01*
X118188208Y-123828208D01*
X118171553Y-123841876D01*
X118152557Y-123852029D01*
X118131938Y-123858284D01*
X118104360Y-123861000D01*
X117595640Y-123861000D01*
X117568062Y-123858284D01*
X117547443Y-123852029D01*
X117528447Y-123841876D01*
X117511792Y-123828208D01*
X117498124Y-123811553D01*
X117487971Y-123792557D01*
X117481716Y-123771938D01*
X117479000Y-123744360D01*
X117479000Y-123285640D01*
X117481716Y-123258062D01*
X117487971Y-123237443D01*
X117498124Y-123218447D01*
X117511792Y-123201792D01*
X117528447Y-123188124D01*
X117547443Y-123177971D01*
X117568062Y-123171716D01*
X117595640Y-123169000D01*
X118104360Y-123169000D01*
X118131938Y-123171716D01*
G37*
G36*
X107751000Y-123801000D02*
G01*
X107049000Y-123801000D01*
X107049000Y-122899000D01*
X107751000Y-122899000D01*
X107751000Y-123801000D01*
G37*
G36*
X106351000Y-123801000D02*
G01*
X105649000Y-123801000D01*
X105649000Y-122899000D01*
X106351000Y-122899000D01*
X106351000Y-123801000D01*
G37*
G36*
X113721938Y-122931716D02*
G01*
X113742557Y-122937971D01*
X113761553Y-122948124D01*
X113778208Y-122961792D01*
X113791876Y-122978447D01*
X113802029Y-122997443D01*
X113808284Y-123018062D01*
X113811000Y-123045640D01*
X113811000Y-123554360D01*
X113808284Y-123581938D01*
X113802029Y-123602557D01*
X113791876Y-123621553D01*
X113778208Y-123638208D01*
X113761553Y-123651876D01*
X113742557Y-123662029D01*
X113721938Y-123668284D01*
X113694360Y-123671000D01*
X113235640Y-123671000D01*
X113208062Y-123668284D01*
X113187443Y-123662029D01*
X113168447Y-123651876D01*
X113151792Y-123638208D01*
X113138124Y-123621553D01*
X113127971Y-123602557D01*
X113121716Y-123581938D01*
X113119000Y-123554360D01*
X113119000Y-123045640D01*
X113121716Y-123018062D01*
X113127971Y-122997443D01*
X113138124Y-122978447D01*
X113151792Y-122961792D01*
X113168447Y-122948124D01*
X113187443Y-122937971D01*
X113208062Y-122931716D01*
X113235640Y-122929000D01*
X113694360Y-122929000D01*
X113721938Y-122931716D01*
G37*
G36*
X114691938Y-122931716D02*
G01*
X114712557Y-122937971D01*
X114731553Y-122948124D01*
X114748208Y-122961792D01*
X114761876Y-122978447D01*
X114772029Y-122997443D01*
X114778284Y-123018062D01*
X114781000Y-123045640D01*
X114781000Y-123554360D01*
X114778284Y-123581938D01*
X114772029Y-123602557D01*
X114761876Y-123621553D01*
X114748208Y-123638208D01*
X114731553Y-123651876D01*
X114712557Y-123662029D01*
X114691938Y-123668284D01*
X114664360Y-123671000D01*
X114205640Y-123671000D01*
X114178062Y-123668284D01*
X114157443Y-123662029D01*
X114138447Y-123651876D01*
X114121792Y-123638208D01*
X114108124Y-123621553D01*
X114097971Y-123602557D01*
X114091716Y-123581938D01*
X114089000Y-123554360D01*
X114089000Y-123045640D01*
X114091716Y-123018062D01*
X114097971Y-122997443D01*
X114108124Y-122978447D01*
X114121792Y-122961792D01*
X114138447Y-122948124D01*
X114157443Y-122937971D01*
X114178062Y-122931716D01*
X114205640Y-122929000D01*
X114664360Y-122929000D01*
X114691938Y-122931716D01*
G37*
G36*
X109621938Y-122681716D02*
G01*
X109642557Y-122687971D01*
X109661553Y-122698124D01*
X109678208Y-122711792D01*
X109691876Y-122728447D01*
X109702029Y-122747443D01*
X109708284Y-122768062D01*
X109711000Y-122795640D01*
X109711000Y-123304360D01*
X109708284Y-123331938D01*
X109702029Y-123352557D01*
X109691876Y-123371553D01*
X109678208Y-123388208D01*
X109661553Y-123401876D01*
X109642557Y-123412029D01*
X109621938Y-123418284D01*
X109594360Y-123421000D01*
X109135640Y-123421000D01*
X109108062Y-123418284D01*
X109087443Y-123412029D01*
X109068447Y-123401876D01*
X109051792Y-123388208D01*
X109038124Y-123371553D01*
X109027971Y-123352557D01*
X109021716Y-123331938D01*
X109019000Y-123304360D01*
X109019000Y-122795640D01*
X109021716Y-122768062D01*
X109027971Y-122747443D01*
X109038124Y-122728447D01*
X109051792Y-122711792D01*
X109068447Y-122698124D01*
X109087443Y-122687971D01*
X109108062Y-122681716D01*
X109135640Y-122679000D01*
X109594360Y-122679000D01*
X109621938Y-122681716D01*
G37*
G36*
X110591938Y-122681716D02*
G01*
X110612557Y-122687971D01*
X110631553Y-122698124D01*
X110648208Y-122711792D01*
X110661876Y-122728447D01*
X110672029Y-122747443D01*
X110678284Y-122768062D01*
X110681000Y-122795640D01*
X110681000Y-123304360D01*
X110678284Y-123331938D01*
X110672029Y-123352557D01*
X110661876Y-123371553D01*
X110648208Y-123388208D01*
X110631553Y-123401876D01*
X110612557Y-123412029D01*
X110591938Y-123418284D01*
X110564360Y-123421000D01*
X110105640Y-123421000D01*
X110078062Y-123418284D01*
X110057443Y-123412029D01*
X110038447Y-123401876D01*
X110021792Y-123388208D01*
X110008124Y-123371553D01*
X109997971Y-123352557D01*
X109991716Y-123331938D01*
X109989000Y-123304360D01*
X109989000Y-122795640D01*
X109991716Y-122768062D01*
X109997971Y-122747443D01*
X110008124Y-122728447D01*
X110021792Y-122711792D01*
X110038447Y-122698124D01*
X110057443Y-122687971D01*
X110078062Y-122681716D01*
X110105640Y-122679000D01*
X110564360Y-122679000D01*
X110591938Y-122681716D01*
G37*
G36*
X131124260Y-112990371D02*
G01*
X131153679Y-113002557D01*
X131201784Y-113022482D01*
X131201787Y-113022484D01*
X131271559Y-113069104D01*
X131330896Y-113128441D01*
X131365774Y-113180640D01*
X131377518Y-113198216D01*
X131391447Y-113231844D01*
X131409629Y-113275740D01*
X131426000Y-113358043D01*
X131426000Y-113441957D01*
X131409629Y-113524260D01*
X131398069Y-113552169D01*
X131377518Y-113601784D01*
X131377516Y-113601787D01*
X131330896Y-113671559D01*
X131271559Y-113730896D01*
X131201787Y-113777516D01*
X131201786Y-113777517D01*
X131201785Y-113777517D01*
X131184888Y-113784516D01*
X131163277Y-113796067D01*
X131144336Y-113811612D01*
X131128790Y-113830554D01*
X131117239Y-113852165D01*
X131110126Y-113875614D01*
X131107724Y-113900000D01*
X131110126Y-113924386D01*
X131117239Y-113947835D01*
X131128790Y-113969446D01*
X131144335Y-113988387D01*
X131163277Y-114003933D01*
X131184888Y-114015484D01*
X131201787Y-114022484D01*
X131271559Y-114069104D01*
X131330896Y-114128441D01*
X131356956Y-114167443D01*
X131377518Y-114198216D01*
X131387381Y-114222029D01*
X131409629Y-114275740D01*
X131426000Y-114358043D01*
X131426000Y-114441957D01*
X131409629Y-114524260D01*
X131405547Y-114534114D01*
X131377518Y-114601784D01*
X131377516Y-114601787D01*
X131330896Y-114671559D01*
X131271559Y-114730896D01*
X131201787Y-114777516D01*
X131201786Y-114777517D01*
X131201785Y-114777517D01*
X131184888Y-114784516D01*
X131163277Y-114796067D01*
X131144336Y-114811612D01*
X131128790Y-114830554D01*
X131117239Y-114852165D01*
X131110126Y-114875614D01*
X131107724Y-114900000D01*
X131110126Y-114924386D01*
X131117239Y-114947835D01*
X131128790Y-114969446D01*
X131144335Y-114988387D01*
X131163277Y-115003933D01*
X131184888Y-115015484D01*
X131201787Y-115022484D01*
X131271559Y-115069104D01*
X131330896Y-115128441D01*
X131350688Y-115158062D01*
X131377518Y-115198216D01*
X131391447Y-115231844D01*
X131409629Y-115275740D01*
X131426000Y-115358043D01*
X131426000Y-115441957D01*
X131409629Y-115524260D01*
X131399709Y-115548208D01*
X131377518Y-115601784D01*
X131377516Y-115601787D01*
X131330896Y-115671559D01*
X131271559Y-115730896D01*
X131201787Y-115777516D01*
X131201786Y-115777517D01*
X131201785Y-115777517D01*
X131184888Y-115784516D01*
X131163277Y-115796067D01*
X131144336Y-115811612D01*
X131128790Y-115830554D01*
X131117239Y-115852165D01*
X131110126Y-115875614D01*
X131107724Y-115900000D01*
X131110126Y-115924386D01*
X131117239Y-115947835D01*
X131128790Y-115969446D01*
X131144335Y-115988387D01*
X131163277Y-116003933D01*
X131184888Y-116015484D01*
X131201787Y-116022484D01*
X131271559Y-116069104D01*
X131330896Y-116128441D01*
X131357370Y-116168062D01*
X131377518Y-116198216D01*
X131387381Y-116222029D01*
X131409629Y-116275740D01*
X131426000Y-116358043D01*
X131426000Y-116441957D01*
X131409629Y-116524260D01*
X131402211Y-116542169D01*
X131377518Y-116601784D01*
X131377516Y-116601787D01*
X131330896Y-116671559D01*
X131271559Y-116730896D01*
X131201787Y-116777516D01*
X131201786Y-116777517D01*
X131201785Y-116777517D01*
X131184888Y-116784516D01*
X131163277Y-116796067D01*
X131144336Y-116811612D01*
X131128790Y-116830554D01*
X131117239Y-116852165D01*
X131110126Y-116875614D01*
X131107724Y-116900000D01*
X131110126Y-116924386D01*
X131117239Y-116947835D01*
X131128790Y-116969446D01*
X131144335Y-116988387D01*
X131163277Y-117003933D01*
X131184888Y-117015484D01*
X131199540Y-117021553D01*
X131201787Y-117022484D01*
X131271559Y-117069104D01*
X131330896Y-117128441D01*
X131366641Y-117181938D01*
X131377518Y-117198216D01*
X131391447Y-117231844D01*
X131409629Y-117275740D01*
X131426000Y-117358043D01*
X131426000Y-117441957D01*
X131409629Y-117524260D01*
X131398069Y-117552169D01*
X131377518Y-117601784D01*
X131377516Y-117601787D01*
X131330896Y-117671559D01*
X131271559Y-117730896D01*
X131201787Y-117777516D01*
X131201786Y-117777517D01*
X131201785Y-117777517D01*
X131184888Y-117784516D01*
X131163277Y-117796067D01*
X131144336Y-117811612D01*
X131128790Y-117830554D01*
X131117239Y-117852165D01*
X131110126Y-117875614D01*
X131107724Y-117900000D01*
X131110126Y-117924386D01*
X131117239Y-117947835D01*
X131128790Y-117969446D01*
X131144335Y-117988387D01*
X131163277Y-118003933D01*
X131184888Y-118015484D01*
X131199540Y-118021553D01*
X131201787Y-118022484D01*
X131271559Y-118069104D01*
X131330896Y-118128441D01*
X131365566Y-118180329D01*
X131377518Y-118198216D01*
X131395602Y-118241876D01*
X131409629Y-118275740D01*
X131426000Y-118358043D01*
X131426000Y-118441957D01*
X131409629Y-118524260D01*
X131399795Y-118548000D01*
X131377518Y-118601784D01*
X131377516Y-118601787D01*
X131330896Y-118671559D01*
X131271559Y-118730896D01*
X131201787Y-118777516D01*
X131201786Y-118777517D01*
X131201785Y-118777517D01*
X131184888Y-118784516D01*
X131163277Y-118796067D01*
X131144336Y-118811612D01*
X131128790Y-118830554D01*
X131117239Y-118852165D01*
X131110126Y-118875614D01*
X131107724Y-118900000D01*
X131110126Y-118924386D01*
X131117239Y-118947835D01*
X131128790Y-118969446D01*
X131144335Y-118988387D01*
X131163277Y-119003933D01*
X131184888Y-119015484D01*
X131201787Y-119022484D01*
X131271559Y-119069104D01*
X131330896Y-119128441D01*
X131359862Y-119171792D01*
X131377518Y-119198216D01*
X131395624Y-119241929D01*
X131409629Y-119275740D01*
X131426000Y-119358043D01*
X131426000Y-119441957D01*
X131409629Y-119524260D01*
X131399232Y-119549360D01*
X131377518Y-119601784D01*
X131377516Y-119601787D01*
X131330896Y-119671559D01*
X131271559Y-119730896D01*
X131201787Y-119777516D01*
X131201786Y-119777517D01*
X131201785Y-119777517D01*
X131184888Y-119784516D01*
X131163277Y-119796067D01*
X131144336Y-119811612D01*
X131128790Y-119830554D01*
X131117239Y-119852165D01*
X131110126Y-119875614D01*
X131107724Y-119900000D01*
X131110126Y-119924386D01*
X131117239Y-119947835D01*
X131128790Y-119969446D01*
X131144335Y-119988387D01*
X131163277Y-120003933D01*
X131184888Y-120015484D01*
X131199540Y-120021553D01*
X131201787Y-120022484D01*
X131271559Y-120069104D01*
X131330896Y-120128441D01*
X131330897Y-120128443D01*
X131377518Y-120198216D01*
X131395624Y-120241929D01*
X131409629Y-120275740D01*
X131426000Y-120358043D01*
X131426000Y-120441957D01*
X131409629Y-120524260D01*
X131395624Y-120558071D01*
X131377518Y-120601784D01*
X131377516Y-120601787D01*
X131330896Y-120671559D01*
X131271559Y-120730896D01*
X131201787Y-120777516D01*
X131201786Y-120777517D01*
X131201785Y-120777517D01*
X131184888Y-120784516D01*
X131163277Y-120796067D01*
X131144336Y-120811612D01*
X131128790Y-120830554D01*
X131117239Y-120852165D01*
X131110126Y-120875614D01*
X131107724Y-120900000D01*
X131110126Y-120924386D01*
X131117239Y-120947835D01*
X131128790Y-120969446D01*
X131144335Y-120988387D01*
X131163277Y-121003933D01*
X131184888Y-121015484D01*
X131201787Y-121022484D01*
X131271559Y-121069104D01*
X131330896Y-121128441D01*
X131330897Y-121128443D01*
X131377518Y-121198216D01*
X131395624Y-121241929D01*
X131409629Y-121275740D01*
X131426000Y-121358043D01*
X131426000Y-121441957D01*
X131409629Y-121524260D01*
X131395624Y-121558071D01*
X131377518Y-121601784D01*
X131377516Y-121601787D01*
X131330896Y-121671559D01*
X131271559Y-121730896D01*
X131201787Y-121777516D01*
X131201786Y-121777517D01*
X131201785Y-121777517D01*
X131184888Y-121784516D01*
X131163277Y-121796067D01*
X131144336Y-121811612D01*
X131128790Y-121830554D01*
X131117239Y-121852165D01*
X131110126Y-121875614D01*
X131107724Y-121900000D01*
X131110126Y-121924386D01*
X131117239Y-121947835D01*
X131128790Y-121969446D01*
X131144335Y-121988387D01*
X131163277Y-122003933D01*
X131184888Y-122015484D01*
X131201787Y-122022484D01*
X131271559Y-122069104D01*
X131330896Y-122128441D01*
X131330897Y-122128443D01*
X131377518Y-122198216D01*
X131395624Y-122241929D01*
X131409629Y-122275740D01*
X131426000Y-122358043D01*
X131426000Y-122441957D01*
X131409629Y-122524260D01*
X131395624Y-122558071D01*
X131377518Y-122601784D01*
X131377516Y-122601787D01*
X131330896Y-122671559D01*
X131271559Y-122730896D01*
X131215936Y-122768062D01*
X131201784Y-122777518D01*
X131158071Y-122795624D01*
X131124260Y-122809629D01*
X131041957Y-122826000D01*
X130958043Y-122826000D01*
X130875740Y-122809629D01*
X130841929Y-122795624D01*
X130798216Y-122777518D01*
X130784064Y-122768062D01*
X130728441Y-122730896D01*
X130669104Y-122671559D01*
X130622484Y-122601787D01*
X130622482Y-122601784D01*
X130604376Y-122558071D01*
X130590371Y-122524260D01*
X130574000Y-122441957D01*
X130574000Y-122358043D01*
X130590371Y-122275740D01*
X130604376Y-122241929D01*
X130622482Y-122198216D01*
X130669103Y-122128443D01*
X130669104Y-122128441D01*
X130728441Y-122069104D01*
X130798213Y-122022484D01*
X130815112Y-122015484D01*
X130836723Y-122003933D01*
X130855664Y-121988388D01*
X130871210Y-121969446D01*
X130882761Y-121947835D01*
X130889874Y-121924386D01*
X130892276Y-121900000D01*
X130889874Y-121875614D01*
X130882761Y-121852165D01*
X130871210Y-121830554D01*
X130855665Y-121811613D01*
X130836723Y-121796067D01*
X130815112Y-121784516D01*
X130798215Y-121777517D01*
X130798214Y-121777517D01*
X130798213Y-121777516D01*
X130728441Y-121730896D01*
X130669104Y-121671559D01*
X130622484Y-121601787D01*
X130622482Y-121601784D01*
X130604376Y-121558071D01*
X130590371Y-121524260D01*
X130574000Y-121441957D01*
X130574000Y-121358043D01*
X130590371Y-121275740D01*
X130604376Y-121241929D01*
X130622482Y-121198216D01*
X130669103Y-121128443D01*
X130669104Y-121128441D01*
X130728441Y-121069104D01*
X130798213Y-121022484D01*
X130815112Y-121015484D01*
X130836723Y-121003933D01*
X130855664Y-120988388D01*
X130871210Y-120969446D01*
X130882761Y-120947835D01*
X130889874Y-120924386D01*
X130892276Y-120900000D01*
X130889874Y-120875614D01*
X130882761Y-120852165D01*
X130871210Y-120830554D01*
X130855665Y-120811613D01*
X130836723Y-120796067D01*
X130815112Y-120784516D01*
X130798215Y-120777517D01*
X130798214Y-120777517D01*
X130798213Y-120777516D01*
X130728441Y-120730896D01*
X130669104Y-120671559D01*
X130622484Y-120601787D01*
X130622482Y-120601784D01*
X130604376Y-120558071D01*
X130590371Y-120524260D01*
X130574000Y-120441957D01*
X130574000Y-120358043D01*
X130590371Y-120275740D01*
X130604376Y-120241929D01*
X130622482Y-120198216D01*
X130669103Y-120128443D01*
X130669104Y-120128441D01*
X130728441Y-120069104D01*
X130798213Y-120022484D01*
X130800461Y-120021553D01*
X130815112Y-120015484D01*
X130836723Y-120003933D01*
X130855664Y-119988388D01*
X130871210Y-119969446D01*
X130882761Y-119947835D01*
X130889874Y-119924386D01*
X130892276Y-119900000D01*
X130889874Y-119875614D01*
X130882761Y-119852165D01*
X130871210Y-119830554D01*
X130855665Y-119811613D01*
X130836723Y-119796067D01*
X130815112Y-119784516D01*
X130798215Y-119777517D01*
X130798214Y-119777517D01*
X130798213Y-119777516D01*
X130728441Y-119730896D01*
X130669104Y-119671559D01*
X130622484Y-119601787D01*
X130622482Y-119601784D01*
X130600768Y-119549360D01*
X130590371Y-119524260D01*
X130574000Y-119441957D01*
X130574000Y-119358043D01*
X130590371Y-119275740D01*
X130604376Y-119241929D01*
X130622482Y-119198216D01*
X130640138Y-119171792D01*
X130669104Y-119128441D01*
X130728441Y-119069104D01*
X130798213Y-119022484D01*
X130815112Y-119015484D01*
X130836723Y-119003933D01*
X130855664Y-118988388D01*
X130871210Y-118969446D01*
X130882761Y-118947835D01*
X130889874Y-118924386D01*
X130892276Y-118900000D01*
X130889874Y-118875614D01*
X130882761Y-118852165D01*
X130871210Y-118830554D01*
X130855665Y-118811613D01*
X130836723Y-118796067D01*
X130815112Y-118784516D01*
X130798215Y-118777517D01*
X130798214Y-118777517D01*
X130798213Y-118777516D01*
X130728441Y-118730896D01*
X130669104Y-118671559D01*
X130622484Y-118601787D01*
X130622482Y-118601784D01*
X130600205Y-118548000D01*
X130590371Y-118524260D01*
X130574000Y-118441957D01*
X130574000Y-118358043D01*
X130590371Y-118275740D01*
X130604398Y-118241876D01*
X130622482Y-118198216D01*
X130634434Y-118180329D01*
X130669104Y-118128441D01*
X130728441Y-118069104D01*
X130798213Y-118022484D01*
X130800461Y-118021553D01*
X130815112Y-118015484D01*
X130836723Y-118003933D01*
X130855664Y-117988388D01*
X130871210Y-117969446D01*
X130882761Y-117947835D01*
X130889874Y-117924386D01*
X130892276Y-117900000D01*
X130889874Y-117875614D01*
X130882761Y-117852165D01*
X130871210Y-117830554D01*
X130855665Y-117811613D01*
X130836723Y-117796067D01*
X130815112Y-117784516D01*
X130798215Y-117777517D01*
X130798214Y-117777517D01*
X130798213Y-117777516D01*
X130728441Y-117730896D01*
X130669104Y-117671559D01*
X130622484Y-117601787D01*
X130622482Y-117601784D01*
X130601931Y-117552169D01*
X130590371Y-117524260D01*
X130574000Y-117441957D01*
X130574000Y-117358043D01*
X130590371Y-117275740D01*
X130608553Y-117231844D01*
X130622482Y-117198216D01*
X130633359Y-117181938D01*
X130669104Y-117128441D01*
X130728441Y-117069104D01*
X130798213Y-117022484D01*
X130800461Y-117021553D01*
X130815112Y-117015484D01*
X130836723Y-117003933D01*
X130855664Y-116988388D01*
X130871210Y-116969446D01*
X130882761Y-116947835D01*
X130889874Y-116924386D01*
X130892276Y-116900000D01*
X130889874Y-116875614D01*
X130882761Y-116852165D01*
X130871210Y-116830554D01*
X130855665Y-116811613D01*
X130836723Y-116796067D01*
X130815112Y-116784516D01*
X130798215Y-116777517D01*
X130798214Y-116777517D01*
X130798213Y-116777516D01*
X130728441Y-116730896D01*
X130669104Y-116671559D01*
X130622484Y-116601787D01*
X130622482Y-116601784D01*
X130597789Y-116542169D01*
X130590371Y-116524260D01*
X130574000Y-116441957D01*
X130574000Y-116358043D01*
X130590371Y-116275740D01*
X130612619Y-116222029D01*
X130622482Y-116198216D01*
X130642630Y-116168062D01*
X130669104Y-116128441D01*
X130728441Y-116069104D01*
X130798213Y-116022484D01*
X130815112Y-116015484D01*
X130836723Y-116003933D01*
X130855664Y-115988388D01*
X130871210Y-115969446D01*
X130882761Y-115947835D01*
X130889874Y-115924386D01*
X130892276Y-115900000D01*
X130889874Y-115875614D01*
X130882761Y-115852165D01*
X130871210Y-115830554D01*
X130855665Y-115811613D01*
X130836723Y-115796067D01*
X130815112Y-115784516D01*
X130798215Y-115777517D01*
X130798214Y-115777517D01*
X130798213Y-115777516D01*
X130728441Y-115730896D01*
X130669104Y-115671559D01*
X130622484Y-115601787D01*
X130622482Y-115601784D01*
X130600291Y-115548208D01*
X130590371Y-115524260D01*
X130574000Y-115441957D01*
X130574000Y-115358043D01*
X130590371Y-115275740D01*
X130608553Y-115231844D01*
X130622482Y-115198216D01*
X130649312Y-115158062D01*
X130669104Y-115128441D01*
X130728441Y-115069104D01*
X130798213Y-115022484D01*
X130815112Y-115015484D01*
X130836723Y-115003933D01*
X130855664Y-114988388D01*
X130871210Y-114969446D01*
X130882761Y-114947835D01*
X130889874Y-114924386D01*
X130892276Y-114900000D01*
X130889874Y-114875614D01*
X130882761Y-114852165D01*
X130871210Y-114830554D01*
X130855665Y-114811613D01*
X130836723Y-114796067D01*
X130815112Y-114784516D01*
X130798215Y-114777517D01*
X130798214Y-114777517D01*
X130798213Y-114777516D01*
X130728441Y-114730896D01*
X130669104Y-114671559D01*
X130622484Y-114601787D01*
X130622482Y-114601784D01*
X130594453Y-114534114D01*
X130590371Y-114524260D01*
X130574000Y-114441957D01*
X130574000Y-114358043D01*
X130590371Y-114275740D01*
X130612619Y-114222029D01*
X130622482Y-114198216D01*
X130643044Y-114167443D01*
X130669104Y-114128441D01*
X130728441Y-114069104D01*
X130798213Y-114022484D01*
X130815112Y-114015484D01*
X130836723Y-114003933D01*
X130855664Y-113988388D01*
X130871210Y-113969446D01*
X130882761Y-113947835D01*
X130889874Y-113924386D01*
X130892276Y-113900000D01*
X130889874Y-113875614D01*
X130882761Y-113852165D01*
X130871210Y-113830554D01*
X130855665Y-113811613D01*
X130836723Y-113796067D01*
X130815112Y-113784516D01*
X130798215Y-113777517D01*
X130798214Y-113777517D01*
X130798213Y-113777516D01*
X130728441Y-113730896D01*
X130669104Y-113671559D01*
X130622484Y-113601787D01*
X130622482Y-113601784D01*
X130601931Y-113552169D01*
X130590371Y-113524260D01*
X130574000Y-113441957D01*
X130574000Y-113358043D01*
X130590371Y-113275740D01*
X130608553Y-113231844D01*
X130622482Y-113198216D01*
X130634226Y-113180640D01*
X130669104Y-113128441D01*
X130728441Y-113069104D01*
X130798213Y-113022484D01*
X130798216Y-113022482D01*
X130846321Y-113002557D01*
X130875740Y-112990371D01*
X130958043Y-112974000D01*
X131041957Y-112974000D01*
X131124260Y-112990371D01*
G37*
G36*
X107751000Y-122301000D02*
G01*
X107049000Y-122301000D01*
X107049000Y-121399000D01*
X107751000Y-121399000D01*
X107751000Y-122301000D01*
G37*
G36*
X106351000Y-122301000D02*
G01*
X105649000Y-122301000D01*
X105649000Y-121399000D01*
X106351000Y-121399000D01*
X106351000Y-122301000D01*
G37*
G36*
X107751000Y-120801000D02*
G01*
X107049000Y-120801000D01*
X107049000Y-119899000D01*
X107751000Y-119899000D01*
X107751000Y-120801000D01*
G37*
G36*
X106351000Y-120801000D02*
G01*
X105649000Y-120801000D01*
X105649000Y-119899000D01*
X106351000Y-119899000D01*
X106351000Y-120801000D01*
G37*
G36*
X109621938Y-119331716D02*
G01*
X109642557Y-119337971D01*
X109661553Y-119348124D01*
X109678208Y-119361792D01*
X109691876Y-119378447D01*
X109702029Y-119397443D01*
X109708284Y-119418062D01*
X109711000Y-119445640D01*
X109711000Y-119954360D01*
X109708284Y-119981938D01*
X109702029Y-120002557D01*
X109691876Y-120021553D01*
X109678208Y-120038208D01*
X109661553Y-120051876D01*
X109642557Y-120062029D01*
X109621938Y-120068284D01*
X109594360Y-120071000D01*
X109135640Y-120071000D01*
X109108062Y-120068284D01*
X109087443Y-120062029D01*
X109068447Y-120051876D01*
X109051792Y-120038208D01*
X109038124Y-120021553D01*
X109027971Y-120002557D01*
X109021716Y-119981938D01*
X109019000Y-119954360D01*
X109019000Y-119445640D01*
X109021716Y-119418062D01*
X109027971Y-119397443D01*
X109038124Y-119378447D01*
X109051792Y-119361792D01*
X109068447Y-119348124D01*
X109087443Y-119337971D01*
X109108062Y-119331716D01*
X109135640Y-119329000D01*
X109594360Y-119329000D01*
X109621938Y-119331716D01*
G37*
G36*
X110591938Y-119331716D02*
G01*
X110612557Y-119337971D01*
X110631553Y-119348124D01*
X110648208Y-119361792D01*
X110661876Y-119378447D01*
X110672029Y-119397443D01*
X110678284Y-119418062D01*
X110681000Y-119445640D01*
X110681000Y-119954360D01*
X110678284Y-119981938D01*
X110672029Y-120002557D01*
X110661876Y-120021553D01*
X110648208Y-120038208D01*
X110631553Y-120051876D01*
X110612557Y-120062029D01*
X110591938Y-120068284D01*
X110564360Y-120071000D01*
X110105640Y-120071000D01*
X110078062Y-120068284D01*
X110057443Y-120062029D01*
X110038447Y-120051876D01*
X110021792Y-120038208D01*
X110008124Y-120021553D01*
X109997971Y-120002557D01*
X109991716Y-119981938D01*
X109989000Y-119954360D01*
X109989000Y-119445640D01*
X109991716Y-119418062D01*
X109997971Y-119397443D01*
X110008124Y-119378447D01*
X110021792Y-119361792D01*
X110038447Y-119348124D01*
X110057443Y-119337971D01*
X110078062Y-119331716D01*
X110105640Y-119329000D01*
X110564360Y-119329000D01*
X110591938Y-119331716D01*
G37*
G36*
X103021938Y-119231716D02*
G01*
X103042557Y-119237971D01*
X103061553Y-119248124D01*
X103078208Y-119261792D01*
X103091876Y-119278447D01*
X103102029Y-119297443D01*
X103108284Y-119318062D01*
X103111000Y-119345640D01*
X103111000Y-119854360D01*
X103108284Y-119881938D01*
X103102029Y-119902557D01*
X103091876Y-119921553D01*
X103078208Y-119938208D01*
X103061553Y-119951876D01*
X103042557Y-119962029D01*
X103021938Y-119968284D01*
X102994360Y-119971000D01*
X102535640Y-119971000D01*
X102508062Y-119968284D01*
X102487443Y-119962029D01*
X102468447Y-119951876D01*
X102451792Y-119938208D01*
X102438124Y-119921553D01*
X102427971Y-119902557D01*
X102421716Y-119881938D01*
X102419000Y-119854360D01*
X102419000Y-119345640D01*
X102421716Y-119318062D01*
X102427971Y-119297443D01*
X102438124Y-119278447D01*
X102451792Y-119261792D01*
X102468447Y-119248124D01*
X102487443Y-119237971D01*
X102508062Y-119231716D01*
X102535640Y-119229000D01*
X102994360Y-119229000D01*
X103021938Y-119231716D01*
G37*
G36*
X103991938Y-119231716D02*
G01*
X104012557Y-119237971D01*
X104031553Y-119248124D01*
X104048208Y-119261792D01*
X104061876Y-119278447D01*
X104072029Y-119297443D01*
X104078284Y-119318062D01*
X104081000Y-119345640D01*
X104081000Y-119854360D01*
X104078284Y-119881938D01*
X104072029Y-119902557D01*
X104061876Y-119921553D01*
X104048208Y-119938208D01*
X104031553Y-119951876D01*
X104012557Y-119962029D01*
X103991938Y-119968284D01*
X103964360Y-119971000D01*
X103505640Y-119971000D01*
X103478062Y-119968284D01*
X103457443Y-119962029D01*
X103438447Y-119951876D01*
X103421792Y-119938208D01*
X103408124Y-119921553D01*
X103397971Y-119902557D01*
X103391716Y-119881938D01*
X103389000Y-119854360D01*
X103389000Y-119345640D01*
X103391716Y-119318062D01*
X103397971Y-119297443D01*
X103408124Y-119278447D01*
X103421792Y-119261792D01*
X103438447Y-119248124D01*
X103457443Y-119237971D01*
X103478062Y-119231716D01*
X103505640Y-119229000D01*
X103964360Y-119229000D01*
X103991938Y-119231716D01*
G37*
G36*
X115031938Y-119141716D02*
G01*
X115052557Y-119147971D01*
X115071553Y-119158124D01*
X115088208Y-119171792D01*
X115101876Y-119188447D01*
X115112029Y-119207443D01*
X115118284Y-119228062D01*
X115121000Y-119255640D01*
X115121000Y-119714360D01*
X115118284Y-119741938D01*
X115112029Y-119762557D01*
X115101876Y-119781553D01*
X115088208Y-119798208D01*
X115071553Y-119811876D01*
X115052557Y-119822029D01*
X115031938Y-119828284D01*
X115004360Y-119831000D01*
X114495640Y-119831000D01*
X114468062Y-119828284D01*
X114447443Y-119822029D01*
X114428447Y-119811876D01*
X114411792Y-119798208D01*
X114398124Y-119781553D01*
X114387971Y-119762557D01*
X114381716Y-119741938D01*
X114379000Y-119714360D01*
X114379000Y-119255640D01*
X114381716Y-119228062D01*
X114387971Y-119207443D01*
X114398124Y-119188447D01*
X114411792Y-119171792D01*
X114428447Y-119158124D01*
X114447443Y-119147971D01*
X114468062Y-119141716D01*
X114495640Y-119139000D01*
X115004360Y-119139000D01*
X115031938Y-119141716D01*
G37*
G36*
X149271938Y-119011716D02*
G01*
X149292557Y-119017971D01*
X149311553Y-119028124D01*
X149328208Y-119041792D01*
X149341876Y-119058447D01*
X149352029Y-119077443D01*
X149358284Y-119098062D01*
X149361000Y-119125640D01*
X149361000Y-119584360D01*
X149358284Y-119611938D01*
X149352029Y-119632557D01*
X149341876Y-119651553D01*
X149328208Y-119668208D01*
X149311553Y-119681876D01*
X149292557Y-119692029D01*
X149271938Y-119698284D01*
X149244360Y-119701000D01*
X148735640Y-119701000D01*
X148708062Y-119698284D01*
X148687443Y-119692029D01*
X148668447Y-119681876D01*
X148651792Y-119668208D01*
X148638124Y-119651553D01*
X148627971Y-119632557D01*
X148621716Y-119611938D01*
X148619000Y-119584360D01*
X148619000Y-119125640D01*
X148621716Y-119098062D01*
X148627971Y-119077443D01*
X148638124Y-119058447D01*
X148651792Y-119041792D01*
X148668447Y-119028124D01*
X148687443Y-119017971D01*
X148708062Y-119011716D01*
X148735640Y-119009000D01*
X149244360Y-119009000D01*
X149271938Y-119011716D01*
G37*
G36*
X148241938Y-119011716D02*
G01*
X148262557Y-119017971D01*
X148281553Y-119028124D01*
X148298208Y-119041792D01*
X148311876Y-119058447D01*
X148322029Y-119077443D01*
X148328284Y-119098062D01*
X148331000Y-119125640D01*
X148331000Y-119584360D01*
X148328284Y-119611938D01*
X148322029Y-119632557D01*
X148311876Y-119651553D01*
X148298208Y-119668208D01*
X148281553Y-119681876D01*
X148262557Y-119692029D01*
X148241938Y-119698284D01*
X148214360Y-119701000D01*
X147705640Y-119701000D01*
X147678062Y-119698284D01*
X147657443Y-119692029D01*
X147638447Y-119681876D01*
X147621792Y-119668208D01*
X147608124Y-119651553D01*
X147597971Y-119632557D01*
X147591716Y-119611938D01*
X147589000Y-119584360D01*
X147589000Y-119125640D01*
X147591716Y-119098062D01*
X147597971Y-119077443D01*
X147608124Y-119058447D01*
X147621792Y-119041792D01*
X147638447Y-119028124D01*
X147657443Y-119017971D01*
X147678062Y-119011716D01*
X147705640Y-119009000D01*
X148214360Y-119009000D01*
X148241938Y-119011716D01*
G37*
G36*
X147211938Y-119001716D02*
G01*
X147232557Y-119007971D01*
X147251553Y-119018124D01*
X147268208Y-119031792D01*
X147281876Y-119048447D01*
X147292029Y-119067443D01*
X147298284Y-119088062D01*
X147301000Y-119115640D01*
X147301000Y-119574360D01*
X147298284Y-119601938D01*
X147292029Y-119622557D01*
X147281876Y-119641553D01*
X147268208Y-119658208D01*
X147251553Y-119671876D01*
X147232557Y-119682029D01*
X147211938Y-119688284D01*
X147184360Y-119691000D01*
X146675640Y-119691000D01*
X146648062Y-119688284D01*
X146627443Y-119682029D01*
X146608447Y-119671876D01*
X146591792Y-119658208D01*
X146578124Y-119641553D01*
X146567971Y-119622557D01*
X146561716Y-119601938D01*
X146559000Y-119574360D01*
X146559000Y-119115640D01*
X146561716Y-119088062D01*
X146567971Y-119067443D01*
X146578124Y-119048447D01*
X146591792Y-119031792D01*
X146608447Y-119018124D01*
X146627443Y-119007971D01*
X146648062Y-119001716D01*
X146675640Y-118999000D01*
X147184360Y-118999000D01*
X147211938Y-119001716D01*
G37*
G36*
X145086938Y-118926716D02*
G01*
X145107557Y-118932971D01*
X145126553Y-118943124D01*
X145143208Y-118956792D01*
X145156876Y-118973447D01*
X145167029Y-118992443D01*
X145173284Y-119013062D01*
X145176000Y-119040640D01*
X145176000Y-119549360D01*
X145173284Y-119576938D01*
X145167029Y-119597557D01*
X145156876Y-119616553D01*
X145143208Y-119633208D01*
X145126553Y-119646876D01*
X145107557Y-119657029D01*
X145086938Y-119663284D01*
X145059360Y-119666000D01*
X144600640Y-119666000D01*
X144573062Y-119663284D01*
X144552443Y-119657029D01*
X144533447Y-119646876D01*
X144516792Y-119633208D01*
X144503124Y-119616553D01*
X144492971Y-119597557D01*
X144486716Y-119576938D01*
X144484000Y-119549360D01*
X144484000Y-119040640D01*
X144486716Y-119013062D01*
X144492971Y-118992443D01*
X144503124Y-118973447D01*
X144516792Y-118956792D01*
X144533447Y-118943124D01*
X144552443Y-118932971D01*
X144573062Y-118926716D01*
X144600640Y-118924000D01*
X145059360Y-118924000D01*
X145086938Y-118926716D01*
G37*
G36*
X146056938Y-118926716D02*
G01*
X146077557Y-118932971D01*
X146096553Y-118943124D01*
X146113208Y-118956792D01*
X146126876Y-118973447D01*
X146137029Y-118992443D01*
X146143284Y-119013062D01*
X146146000Y-119040640D01*
X146146000Y-119549360D01*
X146143284Y-119576938D01*
X146137029Y-119597557D01*
X146126876Y-119616553D01*
X146113208Y-119633208D01*
X146096553Y-119646876D01*
X146077557Y-119657029D01*
X146056938Y-119663284D01*
X146029360Y-119666000D01*
X145570640Y-119666000D01*
X145543062Y-119663284D01*
X145522443Y-119657029D01*
X145503447Y-119646876D01*
X145486792Y-119633208D01*
X145473124Y-119616553D01*
X145462971Y-119597557D01*
X145456716Y-119576938D01*
X145454000Y-119549360D01*
X145454000Y-119040640D01*
X145456716Y-119013062D01*
X145462971Y-118992443D01*
X145473124Y-118973447D01*
X145486792Y-118956792D01*
X145503447Y-118943124D01*
X145522443Y-118932971D01*
X145543062Y-118926716D01*
X145570640Y-118924000D01*
X146029360Y-118924000D01*
X146056938Y-118926716D01*
G37*
G36*
X142391000Y-119591000D02*
G01*
X141489000Y-119591000D01*
X141489000Y-118889000D01*
X142391000Y-118889000D01*
X142391000Y-119591000D01*
G37*
G36*
X106351000Y-119301000D02*
G01*
X105649000Y-119301000D01*
X105649000Y-118399000D01*
X106351000Y-118399000D01*
X106351000Y-119301000D01*
G37*
G36*
X107751000Y-119301000D02*
G01*
X107049000Y-119301000D01*
X107049000Y-118399000D01*
X107751000Y-118399000D01*
X107751000Y-119301000D01*
G37*
G36*
X116781938Y-118541716D02*
G01*
X116802557Y-118547971D01*
X116821553Y-118558124D01*
X116838208Y-118571792D01*
X116851876Y-118588447D01*
X116862029Y-118607443D01*
X116868284Y-118628062D01*
X116871000Y-118655640D01*
X116871000Y-119114360D01*
X116868284Y-119141938D01*
X116862029Y-119162557D01*
X116851876Y-119181553D01*
X116838208Y-119198208D01*
X116821553Y-119211876D01*
X116802557Y-119222029D01*
X116781938Y-119228284D01*
X116754360Y-119231000D01*
X116245640Y-119231000D01*
X116218062Y-119228284D01*
X116197443Y-119222029D01*
X116178447Y-119211876D01*
X116161792Y-119198208D01*
X116148124Y-119181553D01*
X116137971Y-119162557D01*
X116131716Y-119141938D01*
X116129000Y-119114360D01*
X116129000Y-118655640D01*
X116131716Y-118628062D01*
X116137971Y-118607443D01*
X116148124Y-118588447D01*
X116161792Y-118571792D01*
X116178447Y-118558124D01*
X116197443Y-118547971D01*
X116218062Y-118541716D01*
X116245640Y-118539000D01*
X116754360Y-118539000D01*
X116781938Y-118541716D01*
G37*
G36*
X103021938Y-118231716D02*
G01*
X103042557Y-118237971D01*
X103061553Y-118248124D01*
X103078208Y-118261792D01*
X103091876Y-118278447D01*
X103102029Y-118297443D01*
X103108284Y-118318062D01*
X103111000Y-118345640D01*
X103111000Y-118854360D01*
X103108284Y-118881938D01*
X103102029Y-118902557D01*
X103091876Y-118921553D01*
X103078208Y-118938208D01*
X103061553Y-118951876D01*
X103042557Y-118962029D01*
X103021938Y-118968284D01*
X102994360Y-118971000D01*
X102535640Y-118971000D01*
X102508062Y-118968284D01*
X102487443Y-118962029D01*
X102468447Y-118951876D01*
X102451792Y-118938208D01*
X102438124Y-118921553D01*
X102427971Y-118902557D01*
X102421716Y-118881938D01*
X102419000Y-118854360D01*
X102419000Y-118345640D01*
X102421716Y-118318062D01*
X102427971Y-118297443D01*
X102438124Y-118278447D01*
X102451792Y-118261792D01*
X102468447Y-118248124D01*
X102487443Y-118237971D01*
X102508062Y-118231716D01*
X102535640Y-118229000D01*
X102994360Y-118229000D01*
X103021938Y-118231716D01*
G37*
G36*
X103991938Y-118231716D02*
G01*
X104012557Y-118237971D01*
X104031553Y-118248124D01*
X104048208Y-118261792D01*
X104061876Y-118278447D01*
X104072029Y-118297443D01*
X104078284Y-118318062D01*
X104081000Y-118345640D01*
X104081000Y-118854360D01*
X104078284Y-118881938D01*
X104072029Y-118902557D01*
X104061876Y-118921553D01*
X104048208Y-118938208D01*
X104031553Y-118951876D01*
X104012557Y-118962029D01*
X103991938Y-118968284D01*
X103964360Y-118971000D01*
X103505640Y-118971000D01*
X103478062Y-118968284D01*
X103457443Y-118962029D01*
X103438447Y-118951876D01*
X103421792Y-118938208D01*
X103408124Y-118921553D01*
X103397971Y-118902557D01*
X103391716Y-118881938D01*
X103389000Y-118854360D01*
X103389000Y-118345640D01*
X103391716Y-118318062D01*
X103397971Y-118297443D01*
X103408124Y-118278447D01*
X103421792Y-118261792D01*
X103438447Y-118248124D01*
X103457443Y-118237971D01*
X103478062Y-118231716D01*
X103505640Y-118229000D01*
X103964360Y-118229000D01*
X103991938Y-118231716D01*
G37*
G36*
X115031938Y-118171716D02*
G01*
X115052557Y-118177971D01*
X115071553Y-118188124D01*
X115088208Y-118201792D01*
X115101876Y-118218447D01*
X115112029Y-118237443D01*
X115118284Y-118258062D01*
X115121000Y-118285640D01*
X115121000Y-118744360D01*
X115118284Y-118771938D01*
X115112029Y-118792557D01*
X115101876Y-118811553D01*
X115088208Y-118828208D01*
X115071553Y-118841876D01*
X115052557Y-118852029D01*
X115031938Y-118858284D01*
X115004360Y-118861000D01*
X114495640Y-118861000D01*
X114468062Y-118858284D01*
X114447443Y-118852029D01*
X114428447Y-118841876D01*
X114411792Y-118828208D01*
X114398124Y-118811553D01*
X114387971Y-118792557D01*
X114381716Y-118771938D01*
X114379000Y-118744360D01*
X114379000Y-118285640D01*
X114381716Y-118258062D01*
X114387971Y-118237443D01*
X114398124Y-118218447D01*
X114411792Y-118201792D01*
X114428447Y-118188124D01*
X114447443Y-118177971D01*
X114468062Y-118171716D01*
X114495640Y-118169000D01*
X115004360Y-118169000D01*
X115031938Y-118171716D01*
G37*
G36*
X149271938Y-118041716D02*
G01*
X149292557Y-118047971D01*
X149311553Y-118058124D01*
X149328208Y-118071792D01*
X149341876Y-118088447D01*
X149352029Y-118107443D01*
X149358284Y-118128062D01*
X149361000Y-118155640D01*
X149361000Y-118614360D01*
X149358284Y-118641938D01*
X149352029Y-118662557D01*
X149341876Y-118681553D01*
X149328208Y-118698208D01*
X149311553Y-118711876D01*
X149292557Y-118722029D01*
X149271938Y-118728284D01*
X149244360Y-118731000D01*
X148735640Y-118731000D01*
X148708062Y-118728284D01*
X148687443Y-118722029D01*
X148668447Y-118711876D01*
X148651792Y-118698208D01*
X148638124Y-118681553D01*
X148627971Y-118662557D01*
X148621716Y-118641938D01*
X148619000Y-118614360D01*
X148619000Y-118155640D01*
X148621716Y-118128062D01*
X148627971Y-118107443D01*
X148638124Y-118088447D01*
X148651792Y-118071792D01*
X148668447Y-118058124D01*
X148687443Y-118047971D01*
X148708062Y-118041716D01*
X148735640Y-118039000D01*
X149244360Y-118039000D01*
X149271938Y-118041716D01*
G37*
G36*
X148241938Y-118041716D02*
G01*
X148262557Y-118047971D01*
X148281553Y-118058124D01*
X148298208Y-118071792D01*
X148311876Y-118088447D01*
X148322029Y-118107443D01*
X148328284Y-118128062D01*
X148331000Y-118155640D01*
X148331000Y-118614360D01*
X148328284Y-118641938D01*
X148322029Y-118662557D01*
X148311876Y-118681553D01*
X148298208Y-118698208D01*
X148281553Y-118711876D01*
X148262557Y-118722029D01*
X148241938Y-118728284D01*
X148214360Y-118731000D01*
X147705640Y-118731000D01*
X147678062Y-118728284D01*
X147657443Y-118722029D01*
X147638447Y-118711876D01*
X147621792Y-118698208D01*
X147608124Y-118681553D01*
X147597971Y-118662557D01*
X147591716Y-118641938D01*
X147589000Y-118614360D01*
X147589000Y-118155640D01*
X147591716Y-118128062D01*
X147597971Y-118107443D01*
X147608124Y-118088447D01*
X147621792Y-118071792D01*
X147638447Y-118058124D01*
X147657443Y-118047971D01*
X147678062Y-118041716D01*
X147705640Y-118039000D01*
X148214360Y-118039000D01*
X148241938Y-118041716D01*
G37*
G36*
X147211938Y-118031716D02*
G01*
X147232557Y-118037971D01*
X147251553Y-118048124D01*
X147268208Y-118061792D01*
X147281876Y-118078447D01*
X147292029Y-118097443D01*
X147298284Y-118118062D01*
X147301000Y-118145640D01*
X147301000Y-118604360D01*
X147298284Y-118631938D01*
X147292029Y-118652557D01*
X147281876Y-118671553D01*
X147268208Y-118688208D01*
X147251553Y-118701876D01*
X147232557Y-118712029D01*
X147211938Y-118718284D01*
X147184360Y-118721000D01*
X146675640Y-118721000D01*
X146648062Y-118718284D01*
X146627443Y-118712029D01*
X146608447Y-118701876D01*
X146591792Y-118688208D01*
X146578124Y-118671553D01*
X146567971Y-118652557D01*
X146561716Y-118631938D01*
X146559000Y-118604360D01*
X146559000Y-118145640D01*
X146561716Y-118118062D01*
X146567971Y-118097443D01*
X146578124Y-118078447D01*
X146591792Y-118061792D01*
X146608447Y-118048124D01*
X146627443Y-118037971D01*
X146648062Y-118031716D01*
X146675640Y-118029000D01*
X147184360Y-118029000D01*
X147211938Y-118031716D01*
G37*
G36*
X145106938Y-117906716D02*
G01*
X145127557Y-117912971D01*
X145146553Y-117923124D01*
X145163208Y-117936792D01*
X145176876Y-117953447D01*
X145187029Y-117972443D01*
X145193284Y-117993062D01*
X145196000Y-118020640D01*
X145196000Y-118529360D01*
X145193284Y-118556938D01*
X145187029Y-118577557D01*
X145176876Y-118596553D01*
X145163208Y-118613208D01*
X145146553Y-118626876D01*
X145127557Y-118637029D01*
X145106938Y-118643284D01*
X145079360Y-118646000D01*
X144620640Y-118646000D01*
X144593062Y-118643284D01*
X144572443Y-118637029D01*
X144553447Y-118626876D01*
X144536792Y-118613208D01*
X144523124Y-118596553D01*
X144512971Y-118577557D01*
X144506716Y-118556938D01*
X144504000Y-118529360D01*
X144504000Y-118020640D01*
X144506716Y-117993062D01*
X144512971Y-117972443D01*
X144523124Y-117953447D01*
X144536792Y-117936792D01*
X144553447Y-117923124D01*
X144572443Y-117912971D01*
X144593062Y-117906716D01*
X144620640Y-117904000D01*
X145079360Y-117904000D01*
X145106938Y-117906716D01*
G37*
G36*
X146076938Y-117906716D02*
G01*
X146097557Y-117912971D01*
X146116553Y-117923124D01*
X146133208Y-117936792D01*
X146146876Y-117953447D01*
X146157029Y-117972443D01*
X146163284Y-117993062D01*
X146166000Y-118020640D01*
X146166000Y-118529360D01*
X146163284Y-118556938D01*
X146157029Y-118577557D01*
X146146876Y-118596553D01*
X146133208Y-118613208D01*
X146116553Y-118626876D01*
X146097557Y-118637029D01*
X146076938Y-118643284D01*
X146049360Y-118646000D01*
X145590640Y-118646000D01*
X145563062Y-118643284D01*
X145542443Y-118637029D01*
X145523447Y-118626876D01*
X145506792Y-118613208D01*
X145493124Y-118596553D01*
X145482971Y-118577557D01*
X145476716Y-118556938D01*
X145474000Y-118529360D01*
X145474000Y-118020640D01*
X145476716Y-117993062D01*
X145482971Y-117972443D01*
X145493124Y-117953447D01*
X145506792Y-117936792D01*
X145523447Y-117923124D01*
X145542443Y-117912971D01*
X145563062Y-117906716D01*
X145590640Y-117904000D01*
X146049360Y-117904000D01*
X146076938Y-117906716D01*
G37*
G36*
X116781938Y-117571716D02*
G01*
X116802557Y-117577971D01*
X116821553Y-117588124D01*
X116838208Y-117601792D01*
X116851876Y-117618447D01*
X116862029Y-117637443D01*
X116868284Y-117658062D01*
X116871000Y-117685640D01*
X116871000Y-118144360D01*
X116868284Y-118171938D01*
X116862029Y-118192557D01*
X116851876Y-118211553D01*
X116838208Y-118228208D01*
X116821553Y-118241876D01*
X116802557Y-118252029D01*
X116781938Y-118258284D01*
X116754360Y-118261000D01*
X116245640Y-118261000D01*
X116218062Y-118258284D01*
X116197443Y-118252029D01*
X116178447Y-118241876D01*
X116161792Y-118228208D01*
X116148124Y-118211553D01*
X116137971Y-118192557D01*
X116131716Y-118171938D01*
X116129000Y-118144360D01*
X116129000Y-117685640D01*
X116131716Y-117658062D01*
X116137971Y-117637443D01*
X116148124Y-117618447D01*
X116161792Y-117601792D01*
X116178447Y-117588124D01*
X116197443Y-117577971D01*
X116218062Y-117571716D01*
X116245640Y-117569000D01*
X116754360Y-117569000D01*
X116781938Y-117571716D01*
G37*
G36*
X121281938Y-117541716D02*
G01*
X121302557Y-117547971D01*
X121321553Y-117558124D01*
X121338208Y-117571792D01*
X121351876Y-117588447D01*
X121362029Y-117607443D01*
X121368284Y-117628062D01*
X121371000Y-117655640D01*
X121371000Y-118114360D01*
X121368284Y-118141938D01*
X121362029Y-118162557D01*
X121351876Y-118181553D01*
X121338208Y-118198208D01*
X121321553Y-118211876D01*
X121302557Y-118222029D01*
X121281938Y-118228284D01*
X121254360Y-118231000D01*
X120745640Y-118231000D01*
X120718062Y-118228284D01*
X120697443Y-118222029D01*
X120678447Y-118211876D01*
X120661792Y-118198208D01*
X120648124Y-118181553D01*
X120637971Y-118162557D01*
X120631716Y-118141938D01*
X120629000Y-118114360D01*
X120629000Y-117655640D01*
X120631716Y-117628062D01*
X120637971Y-117607443D01*
X120648124Y-117588447D01*
X120661792Y-117571792D01*
X120678447Y-117558124D01*
X120697443Y-117547971D01*
X120718062Y-117541716D01*
X120745640Y-117539000D01*
X121254360Y-117539000D01*
X121281938Y-117541716D01*
G37*
G36*
X142391000Y-118191000D02*
G01*
X141489000Y-118191000D01*
X141489000Y-117489000D01*
X142391000Y-117489000D01*
X142391000Y-118191000D01*
G37*
G36*
X109621938Y-117331716D02*
G01*
X109642557Y-117337971D01*
X109661553Y-117348124D01*
X109678208Y-117361792D01*
X109691876Y-117378447D01*
X109702029Y-117397443D01*
X109708284Y-117418062D01*
X109711000Y-117445640D01*
X109711000Y-117954360D01*
X109708284Y-117981938D01*
X109702029Y-118002557D01*
X109691876Y-118021553D01*
X109678208Y-118038208D01*
X109661553Y-118051876D01*
X109642557Y-118062029D01*
X109621938Y-118068284D01*
X109594360Y-118071000D01*
X109135640Y-118071000D01*
X109108062Y-118068284D01*
X109087443Y-118062029D01*
X109068447Y-118051876D01*
X109051792Y-118038208D01*
X109038124Y-118021553D01*
X109027971Y-118002557D01*
X109021716Y-117981938D01*
X109019000Y-117954360D01*
X109019000Y-117445640D01*
X109021716Y-117418062D01*
X109027971Y-117397443D01*
X109038124Y-117378447D01*
X109051792Y-117361792D01*
X109068447Y-117348124D01*
X109087443Y-117337971D01*
X109108062Y-117331716D01*
X109135640Y-117329000D01*
X109594360Y-117329000D01*
X109621938Y-117331716D01*
G37*
G36*
X110591938Y-117331716D02*
G01*
X110612557Y-117337971D01*
X110631553Y-117348124D01*
X110648208Y-117361792D01*
X110661876Y-117378447D01*
X110672029Y-117397443D01*
X110678284Y-117418062D01*
X110681000Y-117445640D01*
X110681000Y-117954360D01*
X110678284Y-117981938D01*
X110672029Y-118002557D01*
X110661876Y-118021553D01*
X110648208Y-118038208D01*
X110631553Y-118051876D01*
X110612557Y-118062029D01*
X110591938Y-118068284D01*
X110564360Y-118071000D01*
X110105640Y-118071000D01*
X110078062Y-118068284D01*
X110057443Y-118062029D01*
X110038447Y-118051876D01*
X110021792Y-118038208D01*
X110008124Y-118021553D01*
X109997971Y-118002557D01*
X109991716Y-117981938D01*
X109989000Y-117954360D01*
X109989000Y-117445640D01*
X109991716Y-117418062D01*
X109997971Y-117397443D01*
X110008124Y-117378447D01*
X110021792Y-117361792D01*
X110038447Y-117348124D01*
X110057443Y-117337971D01*
X110078062Y-117331716D01*
X110105640Y-117329000D01*
X110564360Y-117329000D01*
X110591938Y-117331716D01*
G37*
G36*
X143531938Y-117331716D02*
G01*
X143552557Y-117337971D01*
X143571553Y-117348124D01*
X143588208Y-117361792D01*
X143601876Y-117378447D01*
X143612029Y-117397443D01*
X143618284Y-117418062D01*
X143621000Y-117445640D01*
X143621000Y-117904360D01*
X143618284Y-117931938D01*
X143612029Y-117952557D01*
X143601876Y-117971553D01*
X143588208Y-117988208D01*
X143571553Y-118001876D01*
X143552557Y-118012029D01*
X143531938Y-118018284D01*
X143504360Y-118021000D01*
X142995640Y-118021000D01*
X142968062Y-118018284D01*
X142947443Y-118012029D01*
X142928447Y-118001876D01*
X142911792Y-117988208D01*
X142898124Y-117971553D01*
X142887971Y-117952557D01*
X142881716Y-117931938D01*
X142879000Y-117904360D01*
X142879000Y-117445640D01*
X142881716Y-117418062D01*
X142887971Y-117397443D01*
X142898124Y-117378447D01*
X142911792Y-117361792D01*
X142928447Y-117348124D01*
X142947443Y-117337971D01*
X142968062Y-117331716D01*
X142995640Y-117329000D01*
X143504360Y-117329000D01*
X143531938Y-117331716D01*
G37*
G36*
X148251938Y-117051716D02*
G01*
X148272557Y-117057971D01*
X148291553Y-117068124D01*
X148308208Y-117081792D01*
X148321876Y-117098447D01*
X148332029Y-117117443D01*
X148338284Y-117138062D01*
X148341000Y-117165640D01*
X148341000Y-117624360D01*
X148338284Y-117651938D01*
X148332029Y-117672557D01*
X148321876Y-117691553D01*
X148308208Y-117708208D01*
X148291553Y-117721876D01*
X148272557Y-117732029D01*
X148251938Y-117738284D01*
X148224360Y-117741000D01*
X147715640Y-117741000D01*
X147688062Y-117738284D01*
X147667443Y-117732029D01*
X147648447Y-117721876D01*
X147631792Y-117708208D01*
X147618124Y-117691553D01*
X147607971Y-117672557D01*
X147601716Y-117651938D01*
X147599000Y-117624360D01*
X147599000Y-117165640D01*
X147601716Y-117138062D01*
X147607971Y-117117443D01*
X147618124Y-117098447D01*
X147631792Y-117081792D01*
X147648447Y-117068124D01*
X147667443Y-117057971D01*
X147688062Y-117051716D01*
X147715640Y-117049000D01*
X148224360Y-117049000D01*
X148251938Y-117051716D01*
G37*
G36*
X149301938Y-117041716D02*
G01*
X149322557Y-117047971D01*
X149341553Y-117058124D01*
X149358208Y-117071792D01*
X149371876Y-117088447D01*
X149382029Y-117107443D01*
X149388284Y-117128062D01*
X149391000Y-117155640D01*
X149391000Y-117614360D01*
X149388284Y-117641938D01*
X149382029Y-117662557D01*
X149371876Y-117681553D01*
X149358208Y-117698208D01*
X149341553Y-117711876D01*
X149322557Y-117722029D01*
X149301938Y-117728284D01*
X149274360Y-117731000D01*
X148765640Y-117731000D01*
X148738062Y-117728284D01*
X148717443Y-117722029D01*
X148698447Y-117711876D01*
X148681792Y-117698208D01*
X148668124Y-117681553D01*
X148657971Y-117662557D01*
X148651716Y-117641938D01*
X148649000Y-117614360D01*
X148649000Y-117155640D01*
X148651716Y-117128062D01*
X148657971Y-117107443D01*
X148668124Y-117088447D01*
X148681792Y-117071792D01*
X148698447Y-117058124D01*
X148717443Y-117047971D01*
X148738062Y-117041716D01*
X148765640Y-117039000D01*
X149274360Y-117039000D01*
X149301938Y-117041716D01*
G37*
G36*
X113491938Y-116531716D02*
G01*
X113512557Y-116537971D01*
X113531553Y-116548124D01*
X113548208Y-116561792D01*
X113561876Y-116578447D01*
X113572029Y-116597443D01*
X113578284Y-116618062D01*
X113581000Y-116645640D01*
X113581000Y-117154360D01*
X113578284Y-117181938D01*
X113572029Y-117202557D01*
X113561876Y-117221553D01*
X113548208Y-117238208D01*
X113531553Y-117251876D01*
X113512557Y-117262029D01*
X113491938Y-117268284D01*
X113464360Y-117271000D01*
X113005640Y-117271000D01*
X112978062Y-117268284D01*
X112957443Y-117262029D01*
X112938447Y-117251876D01*
X112921792Y-117238208D01*
X112908124Y-117221553D01*
X112897971Y-117202557D01*
X112891716Y-117181938D01*
X112889000Y-117154360D01*
X112889000Y-116645640D01*
X112891716Y-116618062D01*
X112897971Y-116597443D01*
X112908124Y-116578447D01*
X112921792Y-116561792D01*
X112938447Y-116548124D01*
X112957443Y-116537971D01*
X112978062Y-116531716D01*
X113005640Y-116529000D01*
X113464360Y-116529000D01*
X113491938Y-116531716D01*
G37*
G36*
X112521938Y-116531716D02*
G01*
X112542557Y-116537971D01*
X112561553Y-116548124D01*
X112578208Y-116561792D01*
X112591876Y-116578447D01*
X112602029Y-116597443D01*
X112608284Y-116618062D01*
X112611000Y-116645640D01*
X112611000Y-117154360D01*
X112608284Y-117181938D01*
X112602029Y-117202557D01*
X112591876Y-117221553D01*
X112578208Y-117238208D01*
X112561553Y-117251876D01*
X112542557Y-117262029D01*
X112521938Y-117268284D01*
X112494360Y-117271000D01*
X112035640Y-117271000D01*
X112008062Y-117268284D01*
X111987443Y-117262029D01*
X111968447Y-117251876D01*
X111951792Y-117238208D01*
X111938124Y-117221553D01*
X111927971Y-117202557D01*
X111921716Y-117181938D01*
X111919000Y-117154360D01*
X111919000Y-116645640D01*
X111921716Y-116618062D01*
X111927971Y-116597443D01*
X111938124Y-116578447D01*
X111951792Y-116561792D01*
X111968447Y-116548124D01*
X111987443Y-116537971D01*
X112008062Y-116531716D01*
X112035640Y-116529000D01*
X112494360Y-116529000D01*
X112521938Y-116531716D01*
G37*
G36*
X121281938Y-116571716D02*
G01*
X121302557Y-116577971D01*
X121321553Y-116588124D01*
X121338208Y-116601792D01*
X121351876Y-116618447D01*
X121362029Y-116637443D01*
X121368284Y-116658062D01*
X121371000Y-116685640D01*
X121371000Y-117144360D01*
X121368284Y-117171938D01*
X121362029Y-117192557D01*
X121351876Y-117211553D01*
X121338208Y-117228208D01*
X121321553Y-117241876D01*
X121302557Y-117252029D01*
X121281938Y-117258284D01*
X121254360Y-117261000D01*
X120745640Y-117261000D01*
X120718062Y-117258284D01*
X120697443Y-117252029D01*
X120678447Y-117241876D01*
X120661792Y-117228208D01*
X120648124Y-117211553D01*
X120637971Y-117192557D01*
X120631716Y-117171938D01*
X120629000Y-117144360D01*
X120629000Y-116685640D01*
X120631716Y-116658062D01*
X120637971Y-116637443D01*
X120648124Y-116618447D01*
X120661792Y-116601792D01*
X120678447Y-116588124D01*
X120697443Y-116577971D01*
X120718062Y-116571716D01*
X120745640Y-116569000D01*
X121254360Y-116569000D01*
X121281938Y-116571716D01*
G37*
G36*
X142421938Y-116421716D02*
G01*
X142442557Y-116427971D01*
X142461553Y-116438124D01*
X142478208Y-116451792D01*
X142491876Y-116468447D01*
X142502029Y-116487443D01*
X142508284Y-116508062D01*
X142511000Y-116535640D01*
X142511000Y-116994360D01*
X142508284Y-117021938D01*
X142502029Y-117042557D01*
X142491876Y-117061553D01*
X142478208Y-117078208D01*
X142461553Y-117091876D01*
X142442557Y-117102029D01*
X142421938Y-117108284D01*
X142394360Y-117111000D01*
X141885640Y-117111000D01*
X141858062Y-117108284D01*
X141837443Y-117102029D01*
X141818447Y-117091876D01*
X141801792Y-117078208D01*
X141788124Y-117061553D01*
X141777971Y-117042557D01*
X141771716Y-117021938D01*
X141769000Y-116994360D01*
X141769000Y-116535640D01*
X141771716Y-116508062D01*
X141777971Y-116487443D01*
X141788124Y-116468447D01*
X141801792Y-116451792D01*
X141818447Y-116438124D01*
X141837443Y-116427971D01*
X141858062Y-116421716D01*
X141885640Y-116419000D01*
X142394360Y-116419000D01*
X142421938Y-116421716D01*
G37*
G36*
X141421938Y-116421716D02*
G01*
X141442557Y-116427971D01*
X141461553Y-116438124D01*
X141478208Y-116451792D01*
X141491876Y-116468447D01*
X141502029Y-116487443D01*
X141508284Y-116508062D01*
X141511000Y-116535640D01*
X141511000Y-116994360D01*
X141508284Y-117021938D01*
X141502029Y-117042557D01*
X141491876Y-117061553D01*
X141478208Y-117078208D01*
X141461553Y-117091876D01*
X141442557Y-117102029D01*
X141421938Y-117108284D01*
X141394360Y-117111000D01*
X140885640Y-117111000D01*
X140858062Y-117108284D01*
X140837443Y-117102029D01*
X140818447Y-117091876D01*
X140801792Y-117078208D01*
X140788124Y-117061553D01*
X140777971Y-117042557D01*
X140771716Y-117021938D01*
X140769000Y-116994360D01*
X140769000Y-116535640D01*
X140771716Y-116508062D01*
X140777971Y-116487443D01*
X140788124Y-116468447D01*
X140801792Y-116451792D01*
X140818447Y-116438124D01*
X140837443Y-116427971D01*
X140858062Y-116421716D01*
X140885640Y-116419000D01*
X141394360Y-116419000D01*
X141421938Y-116421716D01*
G37*
G36*
X157686938Y-116341716D02*
G01*
X157707557Y-116347971D01*
X157726553Y-116358124D01*
X157743208Y-116371792D01*
X157756876Y-116388447D01*
X157767029Y-116407443D01*
X157773284Y-116428062D01*
X157776000Y-116455640D01*
X157776000Y-116964360D01*
X157773284Y-116991938D01*
X157767029Y-117012557D01*
X157756876Y-117031553D01*
X157743208Y-117048208D01*
X157726553Y-117061876D01*
X157707557Y-117072029D01*
X157686938Y-117078284D01*
X157659360Y-117081000D01*
X157200640Y-117081000D01*
X157173062Y-117078284D01*
X157152443Y-117072029D01*
X157133447Y-117061876D01*
X157116792Y-117048208D01*
X157103124Y-117031553D01*
X157092971Y-117012557D01*
X157086716Y-116991938D01*
X157084000Y-116964360D01*
X157084000Y-116455640D01*
X157086716Y-116428062D01*
X157092971Y-116407443D01*
X157103124Y-116388447D01*
X157116792Y-116371792D01*
X157133447Y-116358124D01*
X157152443Y-116347971D01*
X157173062Y-116341716D01*
X157200640Y-116339000D01*
X157659360Y-116339000D01*
X157686938Y-116341716D01*
G37*
G36*
X156716938Y-116341716D02*
G01*
X156737557Y-116347971D01*
X156756553Y-116358124D01*
X156773208Y-116371792D01*
X156786876Y-116388447D01*
X156797029Y-116407443D01*
X156803284Y-116428062D01*
X156806000Y-116455640D01*
X156806000Y-116964360D01*
X156803284Y-116991938D01*
X156797029Y-117012557D01*
X156786876Y-117031553D01*
X156773208Y-117048208D01*
X156756553Y-117061876D01*
X156737557Y-117072029D01*
X156716938Y-117078284D01*
X156689360Y-117081000D01*
X156230640Y-117081000D01*
X156203062Y-117078284D01*
X156182443Y-117072029D01*
X156163447Y-117061876D01*
X156146792Y-117048208D01*
X156133124Y-117031553D01*
X156122971Y-117012557D01*
X156116716Y-116991938D01*
X156114000Y-116964360D01*
X156114000Y-116455640D01*
X156116716Y-116428062D01*
X156122971Y-116407443D01*
X156133124Y-116388447D01*
X156146792Y-116371792D01*
X156163447Y-116358124D01*
X156182443Y-116347971D01*
X156203062Y-116341716D01*
X156230640Y-116339000D01*
X156689360Y-116339000D01*
X156716938Y-116341716D01*
G37*
G36*
X110591938Y-116331716D02*
G01*
X110612557Y-116337971D01*
X110631553Y-116348124D01*
X110648208Y-116361792D01*
X110661876Y-116378447D01*
X110672029Y-116397443D01*
X110678284Y-116418062D01*
X110681000Y-116445640D01*
X110681000Y-116954360D01*
X110678284Y-116981938D01*
X110672029Y-117002557D01*
X110661876Y-117021553D01*
X110648208Y-117038208D01*
X110631553Y-117051876D01*
X110612557Y-117062029D01*
X110591938Y-117068284D01*
X110564360Y-117071000D01*
X110105640Y-117071000D01*
X110078062Y-117068284D01*
X110057443Y-117062029D01*
X110038447Y-117051876D01*
X110021792Y-117038208D01*
X110008124Y-117021553D01*
X109997971Y-117002557D01*
X109991716Y-116981938D01*
X109989000Y-116954360D01*
X109989000Y-116445640D01*
X109991716Y-116418062D01*
X109997971Y-116397443D01*
X110008124Y-116378447D01*
X110021792Y-116361792D01*
X110038447Y-116348124D01*
X110057443Y-116337971D01*
X110078062Y-116331716D01*
X110105640Y-116329000D01*
X110564360Y-116329000D01*
X110591938Y-116331716D01*
G37*
G36*
X109621938Y-116331716D02*
G01*
X109642557Y-116337971D01*
X109661553Y-116348124D01*
X109678208Y-116361792D01*
X109691876Y-116378447D01*
X109702029Y-116397443D01*
X109708284Y-116418062D01*
X109711000Y-116445640D01*
X109711000Y-116954360D01*
X109708284Y-116981938D01*
X109702029Y-117002557D01*
X109691876Y-117021553D01*
X109678208Y-117038208D01*
X109661553Y-117051876D01*
X109642557Y-117062029D01*
X109621938Y-117068284D01*
X109594360Y-117071000D01*
X109135640Y-117071000D01*
X109108062Y-117068284D01*
X109087443Y-117062029D01*
X109068447Y-117051876D01*
X109051792Y-117038208D01*
X109038124Y-117021553D01*
X109027971Y-117002557D01*
X109021716Y-116981938D01*
X109019000Y-116954360D01*
X109019000Y-116445640D01*
X109021716Y-116418062D01*
X109027971Y-116397443D01*
X109038124Y-116378447D01*
X109051792Y-116361792D01*
X109068447Y-116348124D01*
X109087443Y-116337971D01*
X109108062Y-116331716D01*
X109135640Y-116329000D01*
X109594360Y-116329000D01*
X109621938Y-116331716D01*
G37*
G36*
X143531938Y-116361716D02*
G01*
X143552557Y-116367971D01*
X143571553Y-116378124D01*
X143588208Y-116391792D01*
X143601876Y-116408447D01*
X143612029Y-116427443D01*
X143618284Y-116448062D01*
X143621000Y-116475640D01*
X143621000Y-116934360D01*
X143618284Y-116961938D01*
X143612029Y-116982557D01*
X143601876Y-117001553D01*
X143588208Y-117018208D01*
X143571553Y-117031876D01*
X143552557Y-117042029D01*
X143531938Y-117048284D01*
X143504360Y-117051000D01*
X142995640Y-117051000D01*
X142968062Y-117048284D01*
X142947443Y-117042029D01*
X142928447Y-117031876D01*
X142911792Y-117018208D01*
X142898124Y-117001553D01*
X142887971Y-116982557D01*
X142881716Y-116961938D01*
X142879000Y-116934360D01*
X142879000Y-116475640D01*
X142881716Y-116448062D01*
X142887971Y-116427443D01*
X142898124Y-116408447D01*
X142911792Y-116391792D01*
X142928447Y-116378124D01*
X142947443Y-116367971D01*
X142968062Y-116361716D01*
X142995640Y-116359000D01*
X143504360Y-116359000D01*
X143531938Y-116361716D01*
G37*
G36*
X148251938Y-116081716D02*
G01*
X148272557Y-116087971D01*
X148291553Y-116098124D01*
X148308208Y-116111792D01*
X148321876Y-116128447D01*
X148332029Y-116147443D01*
X148338284Y-116168062D01*
X148341000Y-116195640D01*
X148341000Y-116654360D01*
X148338284Y-116681938D01*
X148332029Y-116702557D01*
X148321876Y-116721553D01*
X148308208Y-116738208D01*
X148291553Y-116751876D01*
X148272557Y-116762029D01*
X148251938Y-116768284D01*
X148224360Y-116771000D01*
X147715640Y-116771000D01*
X147688062Y-116768284D01*
X147667443Y-116762029D01*
X147648447Y-116751876D01*
X147631792Y-116738208D01*
X147618124Y-116721553D01*
X147607971Y-116702557D01*
X147601716Y-116681938D01*
X147599000Y-116654360D01*
X147599000Y-116195640D01*
X147601716Y-116168062D01*
X147607971Y-116147443D01*
X147618124Y-116128447D01*
X147631792Y-116111792D01*
X147648447Y-116098124D01*
X147667443Y-116087971D01*
X147688062Y-116081716D01*
X147715640Y-116079000D01*
X148224360Y-116079000D01*
X148251938Y-116081716D01*
G37*
G36*
X149301938Y-116071716D02*
G01*
X149322557Y-116077971D01*
X149341553Y-116088124D01*
X149358208Y-116101792D01*
X149371876Y-116118447D01*
X149382029Y-116137443D01*
X149388284Y-116158062D01*
X149391000Y-116185640D01*
X149391000Y-116644360D01*
X149388284Y-116671938D01*
X149382029Y-116692557D01*
X149371876Y-116711553D01*
X149358208Y-116728208D01*
X149341553Y-116741876D01*
X149322557Y-116752029D01*
X149301938Y-116758284D01*
X149274360Y-116761000D01*
X148765640Y-116761000D01*
X148738062Y-116758284D01*
X148717443Y-116752029D01*
X148698447Y-116741876D01*
X148681792Y-116728208D01*
X148668124Y-116711553D01*
X148657971Y-116692557D01*
X148651716Y-116671938D01*
X148649000Y-116644360D01*
X148649000Y-116185640D01*
X148651716Y-116158062D01*
X148657971Y-116137443D01*
X148668124Y-116118447D01*
X148681792Y-116101792D01*
X148698447Y-116088124D01*
X148717443Y-116077971D01*
X148738062Y-116071716D01*
X148765640Y-116069000D01*
X149274360Y-116069000D01*
X149301938Y-116071716D01*
G37*
G36*
X116781938Y-115541716D02*
G01*
X116802557Y-115547971D01*
X116821553Y-115558124D01*
X116838208Y-115571792D01*
X116851876Y-115588447D01*
X116862029Y-115607443D01*
X116868284Y-115628062D01*
X116871000Y-115655640D01*
X116871000Y-116114360D01*
X116868284Y-116141938D01*
X116862029Y-116162557D01*
X116851876Y-116181553D01*
X116838208Y-116198208D01*
X116821553Y-116211876D01*
X116802557Y-116222029D01*
X116781938Y-116228284D01*
X116754360Y-116231000D01*
X116245640Y-116231000D01*
X116218062Y-116228284D01*
X116197443Y-116222029D01*
X116178447Y-116211876D01*
X116161792Y-116198208D01*
X116148124Y-116181553D01*
X116137971Y-116162557D01*
X116131716Y-116141938D01*
X116129000Y-116114360D01*
X116129000Y-115655640D01*
X116131716Y-115628062D01*
X116137971Y-115607443D01*
X116148124Y-115588447D01*
X116161792Y-115571792D01*
X116178447Y-115558124D01*
X116197443Y-115547971D01*
X116218062Y-115541716D01*
X116245640Y-115539000D01*
X116754360Y-115539000D01*
X116781938Y-115541716D01*
G37*
G36*
X142421938Y-115451716D02*
G01*
X142442557Y-115457971D01*
X142461553Y-115468124D01*
X142478208Y-115481792D01*
X142491876Y-115498447D01*
X142502029Y-115517443D01*
X142508284Y-115538062D01*
X142511000Y-115565640D01*
X142511000Y-116024360D01*
X142508284Y-116051938D01*
X142502029Y-116072557D01*
X142491876Y-116091553D01*
X142478208Y-116108208D01*
X142461553Y-116121876D01*
X142442557Y-116132029D01*
X142421938Y-116138284D01*
X142394360Y-116141000D01*
X141885640Y-116141000D01*
X141858062Y-116138284D01*
X141837443Y-116132029D01*
X141818447Y-116121876D01*
X141801792Y-116108208D01*
X141788124Y-116091553D01*
X141777971Y-116072557D01*
X141771716Y-116051938D01*
X141769000Y-116024360D01*
X141769000Y-115565640D01*
X141771716Y-115538062D01*
X141777971Y-115517443D01*
X141788124Y-115498447D01*
X141801792Y-115481792D01*
X141818447Y-115468124D01*
X141837443Y-115457971D01*
X141858062Y-115451716D01*
X141885640Y-115449000D01*
X142394360Y-115449000D01*
X142421938Y-115451716D01*
G37*
G36*
X141421938Y-115451716D02*
G01*
X141442557Y-115457971D01*
X141461553Y-115468124D01*
X141478208Y-115481792D01*
X141491876Y-115498447D01*
X141502029Y-115517443D01*
X141508284Y-115538062D01*
X141511000Y-115565640D01*
X141511000Y-116024360D01*
X141508284Y-116051938D01*
X141502029Y-116072557D01*
X141491876Y-116091553D01*
X141478208Y-116108208D01*
X141461553Y-116121876D01*
X141442557Y-116132029D01*
X141421938Y-116138284D01*
X141394360Y-116141000D01*
X140885640Y-116141000D01*
X140858062Y-116138284D01*
X140837443Y-116132029D01*
X140818447Y-116121876D01*
X140801792Y-116108208D01*
X140788124Y-116091553D01*
X140777971Y-116072557D01*
X140771716Y-116051938D01*
X140769000Y-116024360D01*
X140769000Y-115565640D01*
X140771716Y-115538062D01*
X140777971Y-115517443D01*
X140788124Y-115498447D01*
X140801792Y-115481792D01*
X140818447Y-115468124D01*
X140837443Y-115457971D01*
X140858062Y-115451716D01*
X140885640Y-115449000D01*
X141394360Y-115449000D01*
X141421938Y-115451716D01*
G37*
G36*
X157686938Y-115341716D02*
G01*
X157707557Y-115347971D01*
X157726553Y-115358124D01*
X157743208Y-115371792D01*
X157756876Y-115388447D01*
X157767029Y-115407443D01*
X157773284Y-115428062D01*
X157776000Y-115455640D01*
X157776000Y-115964360D01*
X157773284Y-115991938D01*
X157767029Y-116012557D01*
X157756876Y-116031553D01*
X157743208Y-116048208D01*
X157726553Y-116061876D01*
X157707557Y-116072029D01*
X157686938Y-116078284D01*
X157659360Y-116081000D01*
X157200640Y-116081000D01*
X157173062Y-116078284D01*
X157152443Y-116072029D01*
X157133447Y-116061876D01*
X157116792Y-116048208D01*
X157103124Y-116031553D01*
X157092971Y-116012557D01*
X157086716Y-115991938D01*
X157084000Y-115964360D01*
X157084000Y-115455640D01*
X157086716Y-115428062D01*
X157092971Y-115407443D01*
X157103124Y-115388447D01*
X157116792Y-115371792D01*
X157133447Y-115358124D01*
X157152443Y-115347971D01*
X157173062Y-115341716D01*
X157200640Y-115339000D01*
X157659360Y-115339000D01*
X157686938Y-115341716D01*
G37*
G36*
X156716938Y-115341716D02*
G01*
X156737557Y-115347971D01*
X156756553Y-115358124D01*
X156773208Y-115371792D01*
X156786876Y-115388447D01*
X156797029Y-115407443D01*
X156803284Y-115428062D01*
X156806000Y-115455640D01*
X156806000Y-115964360D01*
X156803284Y-115991938D01*
X156797029Y-116012557D01*
X156786876Y-116031553D01*
X156773208Y-116048208D01*
X156756553Y-116061876D01*
X156737557Y-116072029D01*
X156716938Y-116078284D01*
X156689360Y-116081000D01*
X156230640Y-116081000D01*
X156203062Y-116078284D01*
X156182443Y-116072029D01*
X156163447Y-116061876D01*
X156146792Y-116048208D01*
X156133124Y-116031553D01*
X156122971Y-116012557D01*
X156116716Y-115991938D01*
X156114000Y-115964360D01*
X156114000Y-115455640D01*
X156116716Y-115428062D01*
X156122971Y-115407443D01*
X156133124Y-115388447D01*
X156146792Y-115371792D01*
X156163447Y-115358124D01*
X156182443Y-115347971D01*
X156203062Y-115341716D01*
X156230640Y-115339000D01*
X156689360Y-115339000D01*
X156716938Y-115341716D01*
G37*
G36*
X149261938Y-115081716D02*
G01*
X149282557Y-115087971D01*
X149301553Y-115098124D01*
X149318208Y-115111792D01*
X149331876Y-115128447D01*
X149342029Y-115147443D01*
X149348284Y-115168062D01*
X149351000Y-115195640D01*
X149351000Y-115654360D01*
X149348284Y-115681938D01*
X149342029Y-115702557D01*
X149331876Y-115721553D01*
X149318208Y-115738208D01*
X149301553Y-115751876D01*
X149282557Y-115762029D01*
X149261938Y-115768284D01*
X149234360Y-115771000D01*
X148725640Y-115771000D01*
X148698062Y-115768284D01*
X148677443Y-115762029D01*
X148658447Y-115751876D01*
X148641792Y-115738208D01*
X148628124Y-115721553D01*
X148617971Y-115702557D01*
X148611716Y-115681938D01*
X148609000Y-115654360D01*
X148609000Y-115195640D01*
X148611716Y-115168062D01*
X148617971Y-115147443D01*
X148628124Y-115128447D01*
X148641792Y-115111792D01*
X148658447Y-115098124D01*
X148677443Y-115087971D01*
X148698062Y-115081716D01*
X148725640Y-115079000D01*
X149234360Y-115079000D01*
X149261938Y-115081716D01*
G37*
G36*
X122741938Y-115031716D02*
G01*
X122762557Y-115037971D01*
X122781553Y-115048124D01*
X122798208Y-115061792D01*
X122811876Y-115078447D01*
X122822029Y-115097443D01*
X122828284Y-115118062D01*
X122831000Y-115145640D01*
X122831000Y-115654360D01*
X122828284Y-115681938D01*
X122822029Y-115702557D01*
X122811876Y-115721553D01*
X122798208Y-115738208D01*
X122781553Y-115751876D01*
X122762557Y-115762029D01*
X122741938Y-115768284D01*
X122714360Y-115771000D01*
X122255640Y-115771000D01*
X122228062Y-115768284D01*
X122207443Y-115762029D01*
X122188447Y-115751876D01*
X122171792Y-115738208D01*
X122158124Y-115721553D01*
X122147971Y-115702557D01*
X122141716Y-115681938D01*
X122139000Y-115654360D01*
X122139000Y-115145640D01*
X122141716Y-115118062D01*
X122147971Y-115097443D01*
X122158124Y-115078447D01*
X122171792Y-115061792D01*
X122188447Y-115048124D01*
X122207443Y-115037971D01*
X122228062Y-115031716D01*
X122255640Y-115029000D01*
X122714360Y-115029000D01*
X122741938Y-115031716D01*
G37*
G36*
X121771938Y-115031716D02*
G01*
X121792557Y-115037971D01*
X121811553Y-115048124D01*
X121828208Y-115061792D01*
X121841876Y-115078447D01*
X121852029Y-115097443D01*
X121858284Y-115118062D01*
X121861000Y-115145640D01*
X121861000Y-115654360D01*
X121858284Y-115681938D01*
X121852029Y-115702557D01*
X121841876Y-115721553D01*
X121828208Y-115738208D01*
X121811553Y-115751876D01*
X121792557Y-115762029D01*
X121771938Y-115768284D01*
X121744360Y-115771000D01*
X121285640Y-115771000D01*
X121258062Y-115768284D01*
X121237443Y-115762029D01*
X121218447Y-115751876D01*
X121201792Y-115738208D01*
X121188124Y-115721553D01*
X121177971Y-115702557D01*
X121171716Y-115681938D01*
X121169000Y-115654360D01*
X121169000Y-115145640D01*
X121171716Y-115118062D01*
X121177971Y-115097443D01*
X121188124Y-115078447D01*
X121201792Y-115061792D01*
X121218447Y-115048124D01*
X121237443Y-115037971D01*
X121258062Y-115031716D01*
X121285640Y-115029000D01*
X121744360Y-115029000D01*
X121771938Y-115031716D01*
G37*
G36*
X119771938Y-115031716D02*
G01*
X119792557Y-115037971D01*
X119811553Y-115048124D01*
X119828208Y-115061792D01*
X119841876Y-115078447D01*
X119852029Y-115097443D01*
X119858284Y-115118062D01*
X119861000Y-115145640D01*
X119861000Y-115654360D01*
X119858284Y-115681938D01*
X119852029Y-115702557D01*
X119841876Y-115721553D01*
X119828208Y-115738208D01*
X119811553Y-115751876D01*
X119792557Y-115762029D01*
X119771938Y-115768284D01*
X119744360Y-115771000D01*
X119285640Y-115771000D01*
X119258062Y-115768284D01*
X119237443Y-115762029D01*
X119218447Y-115751876D01*
X119201792Y-115738208D01*
X119188124Y-115721553D01*
X119177971Y-115702557D01*
X119171716Y-115681938D01*
X119169000Y-115654360D01*
X119169000Y-115145640D01*
X119171716Y-115118062D01*
X119177971Y-115097443D01*
X119188124Y-115078447D01*
X119201792Y-115061792D01*
X119218447Y-115048124D01*
X119237443Y-115037971D01*
X119258062Y-115031716D01*
X119285640Y-115029000D01*
X119744360Y-115029000D01*
X119771938Y-115031716D01*
G37*
G36*
X120741938Y-115031716D02*
G01*
X120762557Y-115037971D01*
X120781553Y-115048124D01*
X120798208Y-115061792D01*
X120811876Y-115078447D01*
X120822029Y-115097443D01*
X120828284Y-115118062D01*
X120831000Y-115145640D01*
X120831000Y-115654360D01*
X120828284Y-115681938D01*
X120822029Y-115702557D01*
X120811876Y-115721553D01*
X120798208Y-115738208D01*
X120781553Y-115751876D01*
X120762557Y-115762029D01*
X120741938Y-115768284D01*
X120714360Y-115771000D01*
X120255640Y-115771000D01*
X120228062Y-115768284D01*
X120207443Y-115762029D01*
X120188447Y-115751876D01*
X120171792Y-115738208D01*
X120158124Y-115721553D01*
X120147971Y-115702557D01*
X120141716Y-115681938D01*
X120139000Y-115654360D01*
X120139000Y-115145640D01*
X120141716Y-115118062D01*
X120147971Y-115097443D01*
X120158124Y-115078447D01*
X120171792Y-115061792D01*
X120188447Y-115048124D01*
X120207443Y-115037971D01*
X120228062Y-115031716D01*
X120255640Y-115029000D01*
X120714360Y-115029000D01*
X120741938Y-115031716D01*
G37*
G36*
X148241938Y-115071716D02*
G01*
X148262557Y-115077971D01*
X148281553Y-115088124D01*
X148298208Y-115101792D01*
X148311876Y-115118447D01*
X148322029Y-115137443D01*
X148328284Y-115158062D01*
X148331000Y-115185640D01*
X148331000Y-115644360D01*
X148328284Y-115671938D01*
X148322029Y-115692557D01*
X148311876Y-115711553D01*
X148298208Y-115728208D01*
X148281553Y-115741876D01*
X148262557Y-115752029D01*
X148241938Y-115758284D01*
X148214360Y-115761000D01*
X147705640Y-115761000D01*
X147678062Y-115758284D01*
X147657443Y-115752029D01*
X147638447Y-115741876D01*
X147621792Y-115728208D01*
X147608124Y-115711553D01*
X147597971Y-115692557D01*
X147591716Y-115671938D01*
X147589000Y-115644360D01*
X147589000Y-115185640D01*
X147591716Y-115158062D01*
X147597971Y-115137443D01*
X147608124Y-115118447D01*
X147621792Y-115101792D01*
X147638447Y-115088124D01*
X147657443Y-115077971D01*
X147678062Y-115071716D01*
X147705640Y-115069000D01*
X148214360Y-115069000D01*
X148241938Y-115071716D01*
G37*
G36*
X143531938Y-114891716D02*
G01*
X143552557Y-114897971D01*
X143571553Y-114908124D01*
X143588208Y-114921792D01*
X143601876Y-114938447D01*
X143612029Y-114957443D01*
X143618284Y-114978062D01*
X143621000Y-115005640D01*
X143621000Y-115464360D01*
X143618284Y-115491938D01*
X143612029Y-115512557D01*
X143601876Y-115531553D01*
X143588208Y-115548208D01*
X143571553Y-115561876D01*
X143552557Y-115572029D01*
X143531938Y-115578284D01*
X143504360Y-115581000D01*
X142995640Y-115581000D01*
X142968062Y-115578284D01*
X142947443Y-115572029D01*
X142928447Y-115561876D01*
X142911792Y-115548208D01*
X142898124Y-115531553D01*
X142887971Y-115512557D01*
X142881716Y-115491938D01*
X142879000Y-115464360D01*
X142879000Y-115005640D01*
X142881716Y-114978062D01*
X142887971Y-114957443D01*
X142898124Y-114938447D01*
X142911792Y-114921792D01*
X142928447Y-114908124D01*
X142947443Y-114897971D01*
X142968062Y-114891716D01*
X142995640Y-114889000D01*
X143504360Y-114889000D01*
X143531938Y-114891716D01*
G37*
G36*
X145026938Y-114591716D02*
G01*
X145047557Y-114597971D01*
X145066553Y-114608124D01*
X145083208Y-114621792D01*
X145096876Y-114638447D01*
X145107029Y-114657443D01*
X145113284Y-114678062D01*
X145116000Y-114705640D01*
X145116000Y-115214360D01*
X145113284Y-115241938D01*
X145107029Y-115262557D01*
X145096876Y-115281553D01*
X145083208Y-115298208D01*
X145066553Y-115311876D01*
X145047557Y-115322029D01*
X145026938Y-115328284D01*
X144999360Y-115331000D01*
X144540640Y-115331000D01*
X144513062Y-115328284D01*
X144492443Y-115322029D01*
X144473447Y-115311876D01*
X144456792Y-115298208D01*
X144443124Y-115281553D01*
X144432971Y-115262557D01*
X144426716Y-115241938D01*
X144424000Y-115214360D01*
X144424000Y-114705640D01*
X144426716Y-114678062D01*
X144432971Y-114657443D01*
X144443124Y-114638447D01*
X144456792Y-114621792D01*
X144473447Y-114608124D01*
X144492443Y-114597971D01*
X144513062Y-114591716D01*
X144540640Y-114589000D01*
X144999360Y-114589000D01*
X145026938Y-114591716D01*
G37*
G36*
X145996938Y-114591716D02*
G01*
X146017557Y-114597971D01*
X146036553Y-114608124D01*
X146053208Y-114621792D01*
X146066876Y-114638447D01*
X146077029Y-114657443D01*
X146083284Y-114678062D01*
X146086000Y-114705640D01*
X146086000Y-115214360D01*
X146083284Y-115241938D01*
X146077029Y-115262557D01*
X146066876Y-115281553D01*
X146053208Y-115298208D01*
X146036553Y-115311876D01*
X146017557Y-115322029D01*
X145996938Y-115328284D01*
X145969360Y-115331000D01*
X145510640Y-115331000D01*
X145483062Y-115328284D01*
X145462443Y-115322029D01*
X145443447Y-115311876D01*
X145426792Y-115298208D01*
X145413124Y-115281553D01*
X145402971Y-115262557D01*
X145396716Y-115241938D01*
X145394000Y-115214360D01*
X145394000Y-114705640D01*
X145396716Y-114678062D01*
X145402971Y-114657443D01*
X145413124Y-114638447D01*
X145426792Y-114621792D01*
X145443447Y-114608124D01*
X145462443Y-114597971D01*
X145483062Y-114591716D01*
X145510640Y-114589000D01*
X145969360Y-114589000D01*
X145996938Y-114591716D01*
G37*
G36*
X116781938Y-114571716D02*
G01*
X116802557Y-114577971D01*
X116821553Y-114588124D01*
X116838208Y-114601792D01*
X116851876Y-114618447D01*
X116862029Y-114637443D01*
X116868284Y-114658062D01*
X116871000Y-114685640D01*
X116871000Y-115144360D01*
X116868284Y-115171938D01*
X116862029Y-115192557D01*
X116851876Y-115211553D01*
X116838208Y-115228208D01*
X116821553Y-115241876D01*
X116802557Y-115252029D01*
X116781938Y-115258284D01*
X116754360Y-115261000D01*
X116245640Y-115261000D01*
X116218062Y-115258284D01*
X116197443Y-115252029D01*
X116178447Y-115241876D01*
X116161792Y-115228208D01*
X116148124Y-115211553D01*
X116137971Y-115192557D01*
X116131716Y-115171938D01*
X116129000Y-115144360D01*
X116129000Y-114685640D01*
X116131716Y-114658062D01*
X116137971Y-114637443D01*
X116148124Y-114618447D01*
X116161792Y-114601792D01*
X116178447Y-114588124D01*
X116197443Y-114577971D01*
X116218062Y-114571716D01*
X116245640Y-114569000D01*
X116754360Y-114569000D01*
X116781938Y-114571716D01*
G37*
G36*
X157686938Y-114341716D02*
G01*
X157707557Y-114347971D01*
X157726553Y-114358124D01*
X157743208Y-114371792D01*
X157756876Y-114388447D01*
X157767029Y-114407443D01*
X157773284Y-114428062D01*
X157776000Y-114455640D01*
X157776000Y-114964360D01*
X157773284Y-114991938D01*
X157767029Y-115012557D01*
X157756876Y-115031553D01*
X157743208Y-115048208D01*
X157726553Y-115061876D01*
X157707557Y-115072029D01*
X157686938Y-115078284D01*
X157659360Y-115081000D01*
X157200640Y-115081000D01*
X157173062Y-115078284D01*
X157152443Y-115072029D01*
X157133447Y-115061876D01*
X157116792Y-115048208D01*
X157103124Y-115031553D01*
X157092971Y-115012557D01*
X157086716Y-114991938D01*
X157084000Y-114964360D01*
X157084000Y-114455640D01*
X157086716Y-114428062D01*
X157092971Y-114407443D01*
X157103124Y-114388447D01*
X157116792Y-114371792D01*
X157133447Y-114358124D01*
X157152443Y-114347971D01*
X157173062Y-114341716D01*
X157200640Y-114339000D01*
X157659360Y-114339000D01*
X157686938Y-114341716D01*
G37*
G36*
X156716938Y-114341716D02*
G01*
X156737557Y-114347971D01*
X156756553Y-114358124D01*
X156773208Y-114371792D01*
X156786876Y-114388447D01*
X156797029Y-114407443D01*
X156803284Y-114428062D01*
X156806000Y-114455640D01*
X156806000Y-114964360D01*
X156803284Y-114991938D01*
X156797029Y-115012557D01*
X156786876Y-115031553D01*
X156773208Y-115048208D01*
X156756553Y-115061876D01*
X156737557Y-115072029D01*
X156716938Y-115078284D01*
X156689360Y-115081000D01*
X156230640Y-115081000D01*
X156203062Y-115078284D01*
X156182443Y-115072029D01*
X156163447Y-115061876D01*
X156146792Y-115048208D01*
X156133124Y-115031553D01*
X156122971Y-115012557D01*
X156116716Y-114991938D01*
X156114000Y-114964360D01*
X156114000Y-114455640D01*
X156116716Y-114428062D01*
X156122971Y-114407443D01*
X156133124Y-114388447D01*
X156146792Y-114371792D01*
X156163447Y-114358124D01*
X156182443Y-114347971D01*
X156203062Y-114341716D01*
X156230640Y-114339000D01*
X156689360Y-114339000D01*
X156716938Y-114341716D01*
G37*
G36*
X149261938Y-114111716D02*
G01*
X149282557Y-114117971D01*
X149301553Y-114128124D01*
X149318208Y-114141792D01*
X149331876Y-114158447D01*
X149342029Y-114177443D01*
X149348284Y-114198062D01*
X149351000Y-114225640D01*
X149351000Y-114684360D01*
X149348284Y-114711938D01*
X149342029Y-114732557D01*
X149331876Y-114751553D01*
X149318208Y-114768208D01*
X149301553Y-114781876D01*
X149282557Y-114792029D01*
X149261938Y-114798284D01*
X149234360Y-114801000D01*
X148725640Y-114801000D01*
X148698062Y-114798284D01*
X148677443Y-114792029D01*
X148658447Y-114781876D01*
X148641792Y-114768208D01*
X148628124Y-114751553D01*
X148617971Y-114732557D01*
X148611716Y-114711938D01*
X148609000Y-114684360D01*
X148609000Y-114225640D01*
X148611716Y-114198062D01*
X148617971Y-114177443D01*
X148628124Y-114158447D01*
X148641792Y-114141792D01*
X148658447Y-114128124D01*
X148677443Y-114117971D01*
X148698062Y-114111716D01*
X148725640Y-114109000D01*
X149234360Y-114109000D01*
X149261938Y-114111716D01*
G37*
G36*
X148241938Y-114101716D02*
G01*
X148262557Y-114107971D01*
X148281553Y-114118124D01*
X148298208Y-114131792D01*
X148311876Y-114148447D01*
X148322029Y-114167443D01*
X148328284Y-114188062D01*
X148331000Y-114215640D01*
X148331000Y-114674360D01*
X148328284Y-114701938D01*
X148322029Y-114722557D01*
X148311876Y-114741553D01*
X148298208Y-114758208D01*
X148281553Y-114771876D01*
X148262557Y-114782029D01*
X148241938Y-114788284D01*
X148214360Y-114791000D01*
X147705640Y-114791000D01*
X147678062Y-114788284D01*
X147657443Y-114782029D01*
X147638447Y-114771876D01*
X147621792Y-114758208D01*
X147608124Y-114741553D01*
X147597971Y-114722557D01*
X147591716Y-114701938D01*
X147589000Y-114674360D01*
X147589000Y-114215640D01*
X147591716Y-114188062D01*
X147597971Y-114167443D01*
X147608124Y-114148447D01*
X147621792Y-114131792D01*
X147638447Y-114118124D01*
X147657443Y-114107971D01*
X147678062Y-114101716D01*
X147705640Y-114099000D01*
X148214360Y-114099000D01*
X148241938Y-114101716D01*
G37*
G36*
X143531938Y-113921716D02*
G01*
X143552557Y-113927971D01*
X143571553Y-113938124D01*
X143588208Y-113951792D01*
X143601876Y-113968447D01*
X143612029Y-113987443D01*
X143618284Y-114008062D01*
X143621000Y-114035640D01*
X143621000Y-114494360D01*
X143618284Y-114521938D01*
X143612029Y-114542557D01*
X143601876Y-114561553D01*
X143588208Y-114578208D01*
X143571553Y-114591876D01*
X143552557Y-114602029D01*
X143531938Y-114608284D01*
X143504360Y-114611000D01*
X142995640Y-114611000D01*
X142968062Y-114608284D01*
X142947443Y-114602029D01*
X142928447Y-114591876D01*
X142911792Y-114578208D01*
X142898124Y-114561553D01*
X142887971Y-114542557D01*
X142881716Y-114521938D01*
X142879000Y-114494360D01*
X142879000Y-114035640D01*
X142881716Y-114008062D01*
X142887971Y-113987443D01*
X142898124Y-113968447D01*
X142911792Y-113951792D01*
X142928447Y-113938124D01*
X142947443Y-113927971D01*
X142968062Y-113921716D01*
X142995640Y-113919000D01*
X143504360Y-113919000D01*
X143531938Y-113921716D01*
G37*
G36*
X121281938Y-113541716D02*
G01*
X121302557Y-113547971D01*
X121321553Y-113558124D01*
X121338208Y-113571792D01*
X121351876Y-113588447D01*
X121362029Y-113607443D01*
X121368284Y-113628062D01*
X121371000Y-113655640D01*
X121371000Y-114114360D01*
X121368284Y-114141938D01*
X121362029Y-114162557D01*
X121351876Y-114181553D01*
X121338208Y-114198208D01*
X121321553Y-114211876D01*
X121302557Y-114222029D01*
X121281938Y-114228284D01*
X121254360Y-114231000D01*
X120745640Y-114231000D01*
X120718062Y-114228284D01*
X120697443Y-114222029D01*
X120678447Y-114211876D01*
X120661792Y-114198208D01*
X120648124Y-114181553D01*
X120637971Y-114162557D01*
X120631716Y-114141938D01*
X120629000Y-114114360D01*
X120629000Y-113655640D01*
X120631716Y-113628062D01*
X120637971Y-113607443D01*
X120648124Y-113588447D01*
X120661792Y-113571792D01*
X120678447Y-113558124D01*
X120697443Y-113547971D01*
X120718062Y-113541716D01*
X120745640Y-113539000D01*
X121254360Y-113539000D01*
X121281938Y-113541716D01*
G37*
G36*
X157686938Y-113341716D02*
G01*
X157707557Y-113347971D01*
X157726553Y-113358124D01*
X157743208Y-113371792D01*
X157756876Y-113388447D01*
X157767029Y-113407443D01*
X157773284Y-113428062D01*
X157776000Y-113455640D01*
X157776000Y-113964360D01*
X157773284Y-113991938D01*
X157767029Y-114012557D01*
X157756876Y-114031553D01*
X157743208Y-114048208D01*
X157726553Y-114061876D01*
X157707557Y-114072029D01*
X157686938Y-114078284D01*
X157659360Y-114081000D01*
X157200640Y-114081000D01*
X157173062Y-114078284D01*
X157152443Y-114072029D01*
X157133447Y-114061876D01*
X157116792Y-114048208D01*
X157103124Y-114031553D01*
X157092971Y-114012557D01*
X157086716Y-113991938D01*
X157084000Y-113964360D01*
X157084000Y-113455640D01*
X157086716Y-113428062D01*
X157092971Y-113407443D01*
X157103124Y-113388447D01*
X157116792Y-113371792D01*
X157133447Y-113358124D01*
X157152443Y-113347971D01*
X157173062Y-113341716D01*
X157200640Y-113339000D01*
X157659360Y-113339000D01*
X157686938Y-113341716D01*
G37*
G36*
X156716938Y-113341716D02*
G01*
X156737557Y-113347971D01*
X156756553Y-113358124D01*
X156773208Y-113371792D01*
X156786876Y-113388447D01*
X156797029Y-113407443D01*
X156803284Y-113428062D01*
X156806000Y-113455640D01*
X156806000Y-113964360D01*
X156803284Y-113991938D01*
X156797029Y-114012557D01*
X156786876Y-114031553D01*
X156773208Y-114048208D01*
X156756553Y-114061876D01*
X156737557Y-114072029D01*
X156716938Y-114078284D01*
X156689360Y-114081000D01*
X156230640Y-114081000D01*
X156203062Y-114078284D01*
X156182443Y-114072029D01*
X156163447Y-114061876D01*
X156146792Y-114048208D01*
X156133124Y-114031553D01*
X156122971Y-114012557D01*
X156116716Y-113991938D01*
X156114000Y-113964360D01*
X156114000Y-113455640D01*
X156116716Y-113428062D01*
X156122971Y-113407443D01*
X156133124Y-113388447D01*
X156146792Y-113371792D01*
X156163447Y-113358124D01*
X156182443Y-113347971D01*
X156203062Y-113341716D01*
X156230640Y-113339000D01*
X156689360Y-113339000D01*
X156716938Y-113341716D01*
G37*
G36*
X146181938Y-113121716D02*
G01*
X146202557Y-113127971D01*
X146221553Y-113138124D01*
X146238208Y-113151792D01*
X146251876Y-113168447D01*
X146262029Y-113187443D01*
X146268284Y-113208062D01*
X146271000Y-113235640D01*
X146271000Y-113744360D01*
X146268284Y-113771938D01*
X146262029Y-113792557D01*
X146251876Y-113811553D01*
X146238208Y-113828208D01*
X146221553Y-113841876D01*
X146202557Y-113852029D01*
X146181938Y-113858284D01*
X146154360Y-113861000D01*
X145695640Y-113861000D01*
X145668062Y-113858284D01*
X145647443Y-113852029D01*
X145628447Y-113841876D01*
X145611792Y-113828208D01*
X145598124Y-113811553D01*
X145587971Y-113792557D01*
X145581716Y-113771938D01*
X145579000Y-113744360D01*
X145579000Y-113235640D01*
X145581716Y-113208062D01*
X145587971Y-113187443D01*
X145598124Y-113168447D01*
X145611792Y-113151792D01*
X145628447Y-113138124D01*
X145647443Y-113127971D01*
X145668062Y-113121716D01*
X145695640Y-113119000D01*
X146154360Y-113119000D01*
X146181938Y-113121716D01*
G37*
G36*
X147151938Y-113121716D02*
G01*
X147172557Y-113127971D01*
X147191553Y-113138124D01*
X147208208Y-113151792D01*
X147221876Y-113168447D01*
X147232029Y-113187443D01*
X147238284Y-113208062D01*
X147241000Y-113235640D01*
X147241000Y-113744360D01*
X147238284Y-113771938D01*
X147232029Y-113792557D01*
X147221876Y-113811553D01*
X147208208Y-113828208D01*
X147191553Y-113841876D01*
X147172557Y-113852029D01*
X147151938Y-113858284D01*
X147124360Y-113861000D01*
X146665640Y-113861000D01*
X146638062Y-113858284D01*
X146617443Y-113852029D01*
X146598447Y-113841876D01*
X146581792Y-113828208D01*
X146568124Y-113811553D01*
X146557971Y-113792557D01*
X146551716Y-113771938D01*
X146549000Y-113744360D01*
X146549000Y-113235640D01*
X146551716Y-113208062D01*
X146557971Y-113187443D01*
X146568124Y-113168447D01*
X146581792Y-113151792D01*
X146598447Y-113138124D01*
X146617443Y-113127971D01*
X146638062Y-113121716D01*
X146665640Y-113119000D01*
X147124360Y-113119000D01*
X147151938Y-113121716D01*
G37*
G36*
X149231938Y-113081716D02*
G01*
X149252557Y-113087971D01*
X149271553Y-113098124D01*
X149288208Y-113111792D01*
X149301876Y-113128447D01*
X149312029Y-113147443D01*
X149318284Y-113168062D01*
X149321000Y-113195640D01*
X149321000Y-113654360D01*
X149318284Y-113681938D01*
X149312029Y-113702557D01*
X149301876Y-113721553D01*
X149288208Y-113738208D01*
X149271553Y-113751876D01*
X149252557Y-113762029D01*
X149231938Y-113768284D01*
X149204360Y-113771000D01*
X148695640Y-113771000D01*
X148668062Y-113768284D01*
X148647443Y-113762029D01*
X148628447Y-113751876D01*
X148611792Y-113738208D01*
X148598124Y-113721553D01*
X148587971Y-113702557D01*
X148581716Y-113681938D01*
X148579000Y-113654360D01*
X148579000Y-113195640D01*
X148581716Y-113168062D01*
X148587971Y-113147443D01*
X148598124Y-113128447D01*
X148611792Y-113111792D01*
X148628447Y-113098124D01*
X148647443Y-113087971D01*
X148668062Y-113081716D01*
X148695640Y-113079000D01*
X149204360Y-113079000D01*
X149231938Y-113081716D01*
G37*
G36*
X148206938Y-113066716D02*
G01*
X148227557Y-113072971D01*
X148246553Y-113083124D01*
X148263208Y-113096792D01*
X148276876Y-113113447D01*
X148287029Y-113132443D01*
X148293284Y-113153062D01*
X148296000Y-113180640D01*
X148296000Y-113639360D01*
X148293284Y-113666938D01*
X148287029Y-113687557D01*
X148276876Y-113706553D01*
X148263208Y-113723208D01*
X148246553Y-113736876D01*
X148227557Y-113747029D01*
X148206938Y-113753284D01*
X148179360Y-113756000D01*
X147670640Y-113756000D01*
X147643062Y-113753284D01*
X147622443Y-113747029D01*
X147603447Y-113736876D01*
X147586792Y-113723208D01*
X147573124Y-113706553D01*
X147562971Y-113687557D01*
X147556716Y-113666938D01*
X147554000Y-113639360D01*
X147554000Y-113180640D01*
X147556716Y-113153062D01*
X147562971Y-113132443D01*
X147573124Y-113113447D01*
X147586792Y-113096792D01*
X147603447Y-113083124D01*
X147622443Y-113072971D01*
X147643062Y-113066716D01*
X147670640Y-113064000D01*
X148179360Y-113064000D01*
X148206938Y-113066716D01*
G37*
G36*
X116781938Y-113041716D02*
G01*
X116802557Y-113047971D01*
X116821553Y-113058124D01*
X116838208Y-113071792D01*
X116851876Y-113088447D01*
X116862029Y-113107443D01*
X116868284Y-113128062D01*
X116871000Y-113155640D01*
X116871000Y-113614360D01*
X116868284Y-113641938D01*
X116862029Y-113662557D01*
X116851876Y-113681553D01*
X116838208Y-113698208D01*
X116821553Y-113711876D01*
X116802557Y-113722029D01*
X116781938Y-113728284D01*
X116754360Y-113731000D01*
X116245640Y-113731000D01*
X116218062Y-113728284D01*
X116197443Y-113722029D01*
X116178447Y-113711876D01*
X116161792Y-113698208D01*
X116148124Y-113681553D01*
X116137971Y-113662557D01*
X116131716Y-113641938D01*
X116129000Y-113614360D01*
X116129000Y-113155640D01*
X116131716Y-113128062D01*
X116137971Y-113107443D01*
X116148124Y-113088447D01*
X116161792Y-113071792D01*
X116178447Y-113058124D01*
X116197443Y-113047971D01*
X116218062Y-113041716D01*
X116245640Y-113039000D01*
X116754360Y-113039000D01*
X116781938Y-113041716D01*
G37*
G36*
X143741000Y-113441000D02*
G01*
X143039000Y-113441000D01*
X143039000Y-112539000D01*
X143741000Y-112539000D01*
X143741000Y-113441000D01*
G37*
G36*
X145141000Y-113441000D02*
G01*
X144439000Y-113441000D01*
X144439000Y-112539000D01*
X145141000Y-112539000D01*
X145141000Y-113441000D01*
G37*
G36*
X121281938Y-112571716D02*
G01*
X121302557Y-112577971D01*
X121321553Y-112588124D01*
X121338208Y-112601792D01*
X121351876Y-112618447D01*
X121362029Y-112637443D01*
X121368284Y-112658062D01*
X121371000Y-112685640D01*
X121371000Y-113144360D01*
X121368284Y-113171938D01*
X121362029Y-113192557D01*
X121351876Y-113211553D01*
X121338208Y-113228208D01*
X121321553Y-113241876D01*
X121302557Y-113252029D01*
X121281938Y-113258284D01*
X121254360Y-113261000D01*
X120745640Y-113261000D01*
X120718062Y-113258284D01*
X120697443Y-113252029D01*
X120678447Y-113241876D01*
X120661792Y-113228208D01*
X120648124Y-113211553D01*
X120637971Y-113192557D01*
X120631716Y-113171938D01*
X120629000Y-113144360D01*
X120629000Y-112685640D01*
X120631716Y-112658062D01*
X120637971Y-112637443D01*
X120648124Y-112618447D01*
X120661792Y-112601792D01*
X120678447Y-112588124D01*
X120697443Y-112577971D01*
X120718062Y-112571716D01*
X120745640Y-112569000D01*
X121254360Y-112569000D01*
X121281938Y-112571716D01*
G37*
G36*
X157686938Y-112341716D02*
G01*
X157707557Y-112347971D01*
X157726553Y-112358124D01*
X157743208Y-112371792D01*
X157756876Y-112388447D01*
X157767029Y-112407443D01*
X157773284Y-112428062D01*
X157776000Y-112455640D01*
X157776000Y-112964360D01*
X157773284Y-112991938D01*
X157767029Y-113012557D01*
X157756876Y-113031553D01*
X157743208Y-113048208D01*
X157726553Y-113061876D01*
X157707557Y-113072029D01*
X157686938Y-113078284D01*
X157659360Y-113081000D01*
X157200640Y-113081000D01*
X157173062Y-113078284D01*
X157152443Y-113072029D01*
X157133447Y-113061876D01*
X157116792Y-113048208D01*
X157103124Y-113031553D01*
X157092971Y-113012557D01*
X157086716Y-112991938D01*
X157084000Y-112964360D01*
X157084000Y-112455640D01*
X157086716Y-112428062D01*
X157092971Y-112407443D01*
X157103124Y-112388447D01*
X157116792Y-112371792D01*
X157133447Y-112358124D01*
X157152443Y-112347971D01*
X157173062Y-112341716D01*
X157200640Y-112339000D01*
X157659360Y-112339000D01*
X157686938Y-112341716D01*
G37*
G36*
X156716938Y-112341716D02*
G01*
X156737557Y-112347971D01*
X156756553Y-112358124D01*
X156773208Y-112371792D01*
X156786876Y-112388447D01*
X156797029Y-112407443D01*
X156803284Y-112428062D01*
X156806000Y-112455640D01*
X156806000Y-112964360D01*
X156803284Y-112991938D01*
X156797029Y-113012557D01*
X156786876Y-113031553D01*
X156773208Y-113048208D01*
X156756553Y-113061876D01*
X156737557Y-113072029D01*
X156716938Y-113078284D01*
X156689360Y-113081000D01*
X156230640Y-113081000D01*
X156203062Y-113078284D01*
X156182443Y-113072029D01*
X156163447Y-113061876D01*
X156146792Y-113048208D01*
X156133124Y-113031553D01*
X156122971Y-113012557D01*
X156116716Y-112991938D01*
X156114000Y-112964360D01*
X156114000Y-112455640D01*
X156116716Y-112428062D01*
X156122971Y-112407443D01*
X156133124Y-112388447D01*
X156146792Y-112371792D01*
X156163447Y-112358124D01*
X156182443Y-112347971D01*
X156203062Y-112341716D01*
X156230640Y-112339000D01*
X156689360Y-112339000D01*
X156716938Y-112341716D01*
G37*
G36*
X142421938Y-112381716D02*
G01*
X142442557Y-112387971D01*
X142461553Y-112398124D01*
X142478208Y-112411792D01*
X142491876Y-112428447D01*
X142502029Y-112447443D01*
X142508284Y-112468062D01*
X142511000Y-112495640D01*
X142511000Y-112954360D01*
X142508284Y-112981938D01*
X142502029Y-113002557D01*
X142491876Y-113021553D01*
X142478208Y-113038208D01*
X142461553Y-113051876D01*
X142442557Y-113062029D01*
X142421938Y-113068284D01*
X142394360Y-113071000D01*
X141885640Y-113071000D01*
X141858062Y-113068284D01*
X141837443Y-113062029D01*
X141818447Y-113051876D01*
X141801792Y-113038208D01*
X141788124Y-113021553D01*
X141777971Y-113002557D01*
X141771716Y-112981938D01*
X141769000Y-112954360D01*
X141769000Y-112495640D01*
X141771716Y-112468062D01*
X141777971Y-112447443D01*
X141788124Y-112428447D01*
X141801792Y-112411792D01*
X141818447Y-112398124D01*
X141837443Y-112387971D01*
X141858062Y-112381716D01*
X141885640Y-112379000D01*
X142394360Y-112379000D01*
X142421938Y-112381716D01*
G37*
G36*
X147141938Y-112091716D02*
G01*
X147162557Y-112097971D01*
X147181553Y-112108124D01*
X147198208Y-112121792D01*
X147211876Y-112138447D01*
X147222029Y-112157443D01*
X147228284Y-112178062D01*
X147231000Y-112205640D01*
X147231000Y-112714360D01*
X147228284Y-112741938D01*
X147222029Y-112762557D01*
X147211876Y-112781553D01*
X147198208Y-112798208D01*
X147181553Y-112811876D01*
X147162557Y-112822029D01*
X147141938Y-112828284D01*
X147114360Y-112831000D01*
X146655640Y-112831000D01*
X146628062Y-112828284D01*
X146607443Y-112822029D01*
X146588447Y-112811876D01*
X146571792Y-112798208D01*
X146558124Y-112781553D01*
X146547971Y-112762557D01*
X146541716Y-112741938D01*
X146539000Y-112714360D01*
X146539000Y-112205640D01*
X146541716Y-112178062D01*
X146547971Y-112157443D01*
X146558124Y-112138447D01*
X146571792Y-112121792D01*
X146588447Y-112108124D01*
X146607443Y-112097971D01*
X146628062Y-112091716D01*
X146655640Y-112089000D01*
X147114360Y-112089000D01*
X147141938Y-112091716D01*
G37*
G36*
X146171938Y-112091716D02*
G01*
X146192557Y-112097971D01*
X146211553Y-112108124D01*
X146228208Y-112121792D01*
X146241876Y-112138447D01*
X146252029Y-112157443D01*
X146258284Y-112178062D01*
X146261000Y-112205640D01*
X146261000Y-112714360D01*
X146258284Y-112741938D01*
X146252029Y-112762557D01*
X146241876Y-112781553D01*
X146228208Y-112798208D01*
X146211553Y-112811876D01*
X146192557Y-112822029D01*
X146171938Y-112828284D01*
X146144360Y-112831000D01*
X145685640Y-112831000D01*
X145658062Y-112828284D01*
X145637443Y-112822029D01*
X145618447Y-112811876D01*
X145601792Y-112798208D01*
X145588124Y-112781553D01*
X145577971Y-112762557D01*
X145571716Y-112741938D01*
X145569000Y-112714360D01*
X145569000Y-112205640D01*
X145571716Y-112178062D01*
X145577971Y-112157443D01*
X145588124Y-112138447D01*
X145601792Y-112121792D01*
X145618447Y-112108124D01*
X145637443Y-112097971D01*
X145658062Y-112091716D01*
X145685640Y-112089000D01*
X146144360Y-112089000D01*
X146171938Y-112091716D01*
G37*
G36*
X149231938Y-112111716D02*
G01*
X149252557Y-112117971D01*
X149271553Y-112128124D01*
X149288208Y-112141792D01*
X149301876Y-112158447D01*
X149312029Y-112177443D01*
X149318284Y-112198062D01*
X149321000Y-112225640D01*
X149321000Y-112684360D01*
X149318284Y-112711938D01*
X149312029Y-112732557D01*
X149301876Y-112751553D01*
X149288208Y-112768208D01*
X149271553Y-112781876D01*
X149252557Y-112792029D01*
X149231938Y-112798284D01*
X149204360Y-112801000D01*
X148695640Y-112801000D01*
X148668062Y-112798284D01*
X148647443Y-112792029D01*
X148628447Y-112781876D01*
X148611792Y-112768208D01*
X148598124Y-112751553D01*
X148587971Y-112732557D01*
X148581716Y-112711938D01*
X148579000Y-112684360D01*
X148579000Y-112225640D01*
X148581716Y-112198062D01*
X148587971Y-112177443D01*
X148598124Y-112158447D01*
X148611792Y-112141792D01*
X148628447Y-112128124D01*
X148647443Y-112117971D01*
X148668062Y-112111716D01*
X148695640Y-112109000D01*
X149204360Y-112109000D01*
X149231938Y-112111716D01*
G37*
G36*
X148206938Y-112096716D02*
G01*
X148227557Y-112102971D01*
X148246553Y-112113124D01*
X148263208Y-112126792D01*
X148276876Y-112143447D01*
X148287029Y-112162443D01*
X148293284Y-112183062D01*
X148296000Y-112210640D01*
X148296000Y-112669360D01*
X148293284Y-112696938D01*
X148287029Y-112717557D01*
X148276876Y-112736553D01*
X148263208Y-112753208D01*
X148246553Y-112766876D01*
X148227557Y-112777029D01*
X148206938Y-112783284D01*
X148179360Y-112786000D01*
X147670640Y-112786000D01*
X147643062Y-112783284D01*
X147622443Y-112777029D01*
X147603447Y-112766876D01*
X147586792Y-112753208D01*
X147573124Y-112736553D01*
X147562971Y-112717557D01*
X147556716Y-112696938D01*
X147554000Y-112669360D01*
X147554000Y-112210640D01*
X147556716Y-112183062D01*
X147562971Y-112162443D01*
X147573124Y-112143447D01*
X147586792Y-112126792D01*
X147603447Y-112113124D01*
X147622443Y-112102971D01*
X147643062Y-112096716D01*
X147670640Y-112094000D01*
X148179360Y-112094000D01*
X148206938Y-112096716D01*
G37*
G36*
X116781938Y-112071716D02*
G01*
X116802557Y-112077971D01*
X116821553Y-112088124D01*
X116838208Y-112101792D01*
X116851876Y-112118447D01*
X116862029Y-112137443D01*
X116868284Y-112158062D01*
X116871000Y-112185640D01*
X116871000Y-112644360D01*
X116868284Y-112671938D01*
X116862029Y-112692557D01*
X116851876Y-112711553D01*
X116838208Y-112728208D01*
X116821553Y-112741876D01*
X116802557Y-112752029D01*
X116781938Y-112758284D01*
X116754360Y-112761000D01*
X116245640Y-112761000D01*
X116218062Y-112758284D01*
X116197443Y-112752029D01*
X116178447Y-112741876D01*
X116161792Y-112728208D01*
X116148124Y-112711553D01*
X116137971Y-112692557D01*
X116131716Y-112671938D01*
X116129000Y-112644360D01*
X116129000Y-112185640D01*
X116131716Y-112158062D01*
X116137971Y-112137443D01*
X116148124Y-112118447D01*
X116161792Y-112101792D01*
X116178447Y-112088124D01*
X116197443Y-112077971D01*
X116218062Y-112071716D01*
X116245640Y-112069000D01*
X116754360Y-112069000D01*
X116781938Y-112071716D01*
G37*
G36*
X142421938Y-111411716D02*
G01*
X142442557Y-111417971D01*
X142461553Y-111428124D01*
X142478208Y-111441792D01*
X142491876Y-111458447D01*
X142502029Y-111477443D01*
X142508284Y-111498062D01*
X142511000Y-111525640D01*
X142511000Y-111984360D01*
X142508284Y-112011938D01*
X142502029Y-112032557D01*
X142491876Y-112051553D01*
X142478208Y-112068208D01*
X142461553Y-112081876D01*
X142442557Y-112092029D01*
X142421938Y-112098284D01*
X142394360Y-112101000D01*
X141885640Y-112101000D01*
X141858062Y-112098284D01*
X141837443Y-112092029D01*
X141818447Y-112081876D01*
X141801792Y-112068208D01*
X141788124Y-112051553D01*
X141777971Y-112032557D01*
X141771716Y-112011938D01*
X141769000Y-111984360D01*
X141769000Y-111525640D01*
X141771716Y-111498062D01*
X141777971Y-111477443D01*
X141788124Y-111458447D01*
X141801792Y-111441792D01*
X141818447Y-111428124D01*
X141837443Y-111417971D01*
X141858062Y-111411716D01*
X141885640Y-111409000D01*
X142394360Y-111409000D01*
X142421938Y-111411716D01*
G37*
G36*
X156716938Y-111341716D02*
G01*
X156737557Y-111347971D01*
X156756553Y-111358124D01*
X156773208Y-111371792D01*
X156786876Y-111388447D01*
X156797029Y-111407443D01*
X156803284Y-111428062D01*
X156806000Y-111455640D01*
X156806000Y-111964360D01*
X156803284Y-111991938D01*
X156797029Y-112012557D01*
X156786876Y-112031553D01*
X156773208Y-112048208D01*
X156756553Y-112061876D01*
X156737557Y-112072029D01*
X156716938Y-112078284D01*
X156689360Y-112081000D01*
X156230640Y-112081000D01*
X156203062Y-112078284D01*
X156182443Y-112072029D01*
X156163447Y-112061876D01*
X156146792Y-112048208D01*
X156133124Y-112031553D01*
X156122971Y-112012557D01*
X156116716Y-111991938D01*
X156114000Y-111964360D01*
X156114000Y-111455640D01*
X156116716Y-111428062D01*
X156122971Y-111407443D01*
X156133124Y-111388447D01*
X156146792Y-111371792D01*
X156163447Y-111358124D01*
X156182443Y-111347971D01*
X156203062Y-111341716D01*
X156230640Y-111339000D01*
X156689360Y-111339000D01*
X156716938Y-111341716D01*
G37*
G36*
X157686938Y-111341716D02*
G01*
X157707557Y-111347971D01*
X157726553Y-111358124D01*
X157743208Y-111371792D01*
X157756876Y-111388447D01*
X157767029Y-111407443D01*
X157773284Y-111428062D01*
X157776000Y-111455640D01*
X157776000Y-111964360D01*
X157773284Y-111991938D01*
X157767029Y-112012557D01*
X157756876Y-112031553D01*
X157743208Y-112048208D01*
X157726553Y-112061876D01*
X157707557Y-112072029D01*
X157686938Y-112078284D01*
X157659360Y-112081000D01*
X157200640Y-112081000D01*
X157173062Y-112078284D01*
X157152443Y-112072029D01*
X157133447Y-112061876D01*
X157116792Y-112048208D01*
X157103124Y-112031553D01*
X157092971Y-112012557D01*
X157086716Y-111991938D01*
X157084000Y-111964360D01*
X157084000Y-111455640D01*
X157086716Y-111428062D01*
X157092971Y-111407443D01*
X157103124Y-111388447D01*
X157116792Y-111371792D01*
X157133447Y-111358124D01*
X157152443Y-111347971D01*
X157173062Y-111341716D01*
X157200640Y-111339000D01*
X157659360Y-111339000D01*
X157686938Y-111341716D01*
G37*
G36*
X121701000Y-111901000D02*
G01*
X120799000Y-111901000D01*
X120799000Y-111199000D01*
X121701000Y-111199000D01*
X121701000Y-111901000D01*
G37*
G36*
X126781938Y-111041716D02*
G01*
X126802557Y-111047971D01*
X126821553Y-111058124D01*
X126838208Y-111071792D01*
X126851876Y-111088447D01*
X126862029Y-111107443D01*
X126868284Y-111128062D01*
X126871000Y-111155640D01*
X126871000Y-111614360D01*
X126868284Y-111641938D01*
X126862029Y-111662557D01*
X126851876Y-111681553D01*
X126838208Y-111698208D01*
X126821553Y-111711876D01*
X126802557Y-111722029D01*
X126781938Y-111728284D01*
X126754360Y-111731000D01*
X126245640Y-111731000D01*
X126218062Y-111728284D01*
X126197443Y-111722029D01*
X126178447Y-111711876D01*
X126161792Y-111698208D01*
X126148124Y-111681553D01*
X126137971Y-111662557D01*
X126131716Y-111641938D01*
X126129000Y-111614360D01*
X126129000Y-111155640D01*
X126131716Y-111128062D01*
X126137971Y-111107443D01*
X126148124Y-111088447D01*
X126161792Y-111071792D01*
X126178447Y-111058124D01*
X126197443Y-111047971D01*
X126218062Y-111041716D01*
X126245640Y-111039000D01*
X126754360Y-111039000D01*
X126781938Y-111041716D01*
G37*
G36*
X125781938Y-111041716D02*
G01*
X125802557Y-111047971D01*
X125821553Y-111058124D01*
X125838208Y-111071792D01*
X125851876Y-111088447D01*
X125862029Y-111107443D01*
X125868284Y-111128062D01*
X125871000Y-111155640D01*
X125871000Y-111614360D01*
X125868284Y-111641938D01*
X125862029Y-111662557D01*
X125851876Y-111681553D01*
X125838208Y-111698208D01*
X125821553Y-111711876D01*
X125802557Y-111722029D01*
X125781938Y-111728284D01*
X125754360Y-111731000D01*
X125245640Y-111731000D01*
X125218062Y-111728284D01*
X125197443Y-111722029D01*
X125178447Y-111711876D01*
X125161792Y-111698208D01*
X125148124Y-111681553D01*
X125137971Y-111662557D01*
X125131716Y-111641938D01*
X125129000Y-111614360D01*
X125129000Y-111155640D01*
X125131716Y-111128062D01*
X125137971Y-111107443D01*
X125148124Y-111088447D01*
X125161792Y-111071792D01*
X125178447Y-111058124D01*
X125197443Y-111047971D01*
X125218062Y-111041716D01*
X125245640Y-111039000D01*
X125754360Y-111039000D01*
X125781938Y-111041716D01*
G37*
G36*
X117281938Y-111041716D02*
G01*
X117302557Y-111047971D01*
X117321553Y-111058124D01*
X117338208Y-111071792D01*
X117351876Y-111088447D01*
X117362029Y-111107443D01*
X117368284Y-111128062D01*
X117371000Y-111155640D01*
X117371000Y-111614360D01*
X117368284Y-111641938D01*
X117362029Y-111662557D01*
X117351876Y-111681553D01*
X117338208Y-111698208D01*
X117321553Y-111711876D01*
X117302557Y-111722029D01*
X117281938Y-111728284D01*
X117254360Y-111731000D01*
X116745640Y-111731000D01*
X116718062Y-111728284D01*
X116697443Y-111722029D01*
X116678447Y-111711876D01*
X116661792Y-111698208D01*
X116648124Y-111681553D01*
X116637971Y-111662557D01*
X116631716Y-111641938D01*
X116629000Y-111614360D01*
X116629000Y-111155640D01*
X116631716Y-111128062D01*
X116637971Y-111107443D01*
X116648124Y-111088447D01*
X116661792Y-111071792D01*
X116678447Y-111058124D01*
X116697443Y-111047971D01*
X116718062Y-111041716D01*
X116745640Y-111039000D01*
X117254360Y-111039000D01*
X117281938Y-111041716D01*
G37*
G36*
X118281938Y-111041716D02*
G01*
X118302557Y-111047971D01*
X118321553Y-111058124D01*
X118338208Y-111071792D01*
X118351876Y-111088447D01*
X118362029Y-111107443D01*
X118368284Y-111128062D01*
X118371000Y-111155640D01*
X118371000Y-111614360D01*
X118368284Y-111641938D01*
X118362029Y-111662557D01*
X118351876Y-111681553D01*
X118338208Y-111698208D01*
X118321553Y-111711876D01*
X118302557Y-111722029D01*
X118281938Y-111728284D01*
X118254360Y-111731000D01*
X117745640Y-111731000D01*
X117718062Y-111728284D01*
X117697443Y-111722029D01*
X117678447Y-111711876D01*
X117661792Y-111698208D01*
X117648124Y-111681553D01*
X117637971Y-111662557D01*
X117631716Y-111641938D01*
X117629000Y-111614360D01*
X117629000Y-111155640D01*
X117631716Y-111128062D01*
X117637971Y-111107443D01*
X117648124Y-111088447D01*
X117661792Y-111071792D01*
X117678447Y-111058124D01*
X117697443Y-111047971D01*
X117718062Y-111041716D01*
X117745640Y-111039000D01*
X118254360Y-111039000D01*
X118281938Y-111041716D01*
G37*
G36*
X119281938Y-111041716D02*
G01*
X119302557Y-111047971D01*
X119321553Y-111058124D01*
X119338208Y-111071792D01*
X119351876Y-111088447D01*
X119362029Y-111107443D01*
X119368284Y-111128062D01*
X119371000Y-111155640D01*
X119371000Y-111614360D01*
X119368284Y-111641938D01*
X119362029Y-111662557D01*
X119351876Y-111681553D01*
X119338208Y-111698208D01*
X119321553Y-111711876D01*
X119302557Y-111722029D01*
X119281938Y-111728284D01*
X119254360Y-111731000D01*
X118745640Y-111731000D01*
X118718062Y-111728284D01*
X118697443Y-111722029D01*
X118678447Y-111711876D01*
X118661792Y-111698208D01*
X118648124Y-111681553D01*
X118637971Y-111662557D01*
X118631716Y-111641938D01*
X118629000Y-111614360D01*
X118629000Y-111155640D01*
X118631716Y-111128062D01*
X118637971Y-111107443D01*
X118648124Y-111088447D01*
X118661792Y-111071792D01*
X118678447Y-111058124D01*
X118697443Y-111047971D01*
X118718062Y-111041716D01*
X118745640Y-111039000D01*
X119254360Y-111039000D01*
X119281938Y-111041716D01*
G37*
G36*
X123781938Y-111041716D02*
G01*
X123802557Y-111047971D01*
X123821553Y-111058124D01*
X123838208Y-111071792D01*
X123851876Y-111088447D01*
X123862029Y-111107443D01*
X123868284Y-111128062D01*
X123871000Y-111155640D01*
X123871000Y-111614360D01*
X123868284Y-111641938D01*
X123862029Y-111662557D01*
X123851876Y-111681553D01*
X123838208Y-111698208D01*
X123821553Y-111711876D01*
X123802557Y-111722029D01*
X123781938Y-111728284D01*
X123754360Y-111731000D01*
X123245640Y-111731000D01*
X123218062Y-111728284D01*
X123197443Y-111722029D01*
X123178447Y-111711876D01*
X123161792Y-111698208D01*
X123148124Y-111681553D01*
X123137971Y-111662557D01*
X123131716Y-111641938D01*
X123129000Y-111614360D01*
X123129000Y-111155640D01*
X123131716Y-111128062D01*
X123137971Y-111107443D01*
X123148124Y-111088447D01*
X123161792Y-111071792D01*
X123178447Y-111058124D01*
X123197443Y-111047971D01*
X123218062Y-111041716D01*
X123245640Y-111039000D01*
X123754360Y-111039000D01*
X123781938Y-111041716D01*
G37*
G36*
X124781938Y-111041716D02*
G01*
X124802557Y-111047971D01*
X124821553Y-111058124D01*
X124838208Y-111071792D01*
X124851876Y-111088447D01*
X124862029Y-111107443D01*
X124868284Y-111128062D01*
X124871000Y-111155640D01*
X124871000Y-111614360D01*
X124868284Y-111641938D01*
X124862029Y-111662557D01*
X124851876Y-111681553D01*
X124838208Y-111698208D01*
X124821553Y-111711876D01*
X124802557Y-111722029D01*
X124781938Y-111728284D01*
X124754360Y-111731000D01*
X124245640Y-111731000D01*
X124218062Y-111728284D01*
X124197443Y-111722029D01*
X124178447Y-111711876D01*
X124161792Y-111698208D01*
X124148124Y-111681553D01*
X124137971Y-111662557D01*
X124131716Y-111641938D01*
X124129000Y-111614360D01*
X124129000Y-111155640D01*
X124131716Y-111128062D01*
X124137971Y-111107443D01*
X124148124Y-111088447D01*
X124161792Y-111071792D01*
X124178447Y-111058124D01*
X124197443Y-111047971D01*
X124218062Y-111041716D01*
X124245640Y-111039000D01*
X124754360Y-111039000D01*
X124781938Y-111041716D01*
G37*
G36*
X120281938Y-111041716D02*
G01*
X120302557Y-111047971D01*
X120321553Y-111058124D01*
X120338208Y-111071792D01*
X120351876Y-111088447D01*
X120362029Y-111107443D01*
X120368284Y-111128062D01*
X120371000Y-111155640D01*
X120371000Y-111614360D01*
X120368284Y-111641938D01*
X120362029Y-111662557D01*
X120351876Y-111681553D01*
X120338208Y-111698208D01*
X120321553Y-111711876D01*
X120302557Y-111722029D01*
X120281938Y-111728284D01*
X120254360Y-111731000D01*
X119745640Y-111731000D01*
X119718062Y-111728284D01*
X119697443Y-111722029D01*
X119678447Y-111711876D01*
X119661792Y-111698208D01*
X119648124Y-111681553D01*
X119637971Y-111662557D01*
X119631716Y-111641938D01*
X119629000Y-111614360D01*
X119629000Y-111155640D01*
X119631716Y-111128062D01*
X119637971Y-111107443D01*
X119648124Y-111088447D01*
X119661792Y-111071792D01*
X119678447Y-111058124D01*
X119697443Y-111047971D01*
X119718062Y-111041716D01*
X119745640Y-111039000D01*
X120254360Y-111039000D01*
X120281938Y-111041716D01*
G37*
G36*
X122781938Y-111041716D02*
G01*
X122802557Y-111047971D01*
X122821553Y-111058124D01*
X122838208Y-111071792D01*
X122851876Y-111088447D01*
X122862029Y-111107443D01*
X122868284Y-111128062D01*
X122871000Y-111155640D01*
X122871000Y-111614360D01*
X122868284Y-111641938D01*
X122862029Y-111662557D01*
X122851876Y-111681553D01*
X122838208Y-111698208D01*
X122821553Y-111711876D01*
X122802557Y-111722029D01*
X122781938Y-111728284D01*
X122754360Y-111731000D01*
X122245640Y-111731000D01*
X122218062Y-111728284D01*
X122197443Y-111722029D01*
X122178447Y-111711876D01*
X122161792Y-111698208D01*
X122148124Y-111681553D01*
X122137971Y-111662557D01*
X122131716Y-111641938D01*
X122129000Y-111614360D01*
X122129000Y-111155640D01*
X122131716Y-111128062D01*
X122137971Y-111107443D01*
X122148124Y-111088447D01*
X122161792Y-111071792D01*
X122178447Y-111058124D01*
X122197443Y-111047971D01*
X122218062Y-111041716D01*
X122245640Y-111039000D01*
X122754360Y-111039000D01*
X122781938Y-111041716D01*
G37*
G36*
X156716938Y-110341716D02*
G01*
X156737557Y-110347971D01*
X156756553Y-110358124D01*
X156773208Y-110371792D01*
X156786876Y-110388447D01*
X156797029Y-110407443D01*
X156803284Y-110428062D01*
X156806000Y-110455640D01*
X156806000Y-110964360D01*
X156803284Y-110991938D01*
X156797029Y-111012557D01*
X156786876Y-111031553D01*
X156773208Y-111048208D01*
X156756553Y-111061876D01*
X156737557Y-111072029D01*
X156716938Y-111078284D01*
X156689360Y-111081000D01*
X156230640Y-111081000D01*
X156203062Y-111078284D01*
X156182443Y-111072029D01*
X156163447Y-111061876D01*
X156146792Y-111048208D01*
X156133124Y-111031553D01*
X156122971Y-111012557D01*
X156116716Y-110991938D01*
X156114000Y-110964360D01*
X156114000Y-110455640D01*
X156116716Y-110428062D01*
X156122971Y-110407443D01*
X156133124Y-110388447D01*
X156146792Y-110371792D01*
X156163447Y-110358124D01*
X156182443Y-110347971D01*
X156203062Y-110341716D01*
X156230640Y-110339000D01*
X156689360Y-110339000D01*
X156716938Y-110341716D01*
G37*
G36*
X157686938Y-110341716D02*
G01*
X157707557Y-110347971D01*
X157726553Y-110358124D01*
X157743208Y-110371792D01*
X157756876Y-110388447D01*
X157767029Y-110407443D01*
X157773284Y-110428062D01*
X157776000Y-110455640D01*
X157776000Y-110964360D01*
X157773284Y-110991938D01*
X157767029Y-111012557D01*
X157756876Y-111031553D01*
X157743208Y-111048208D01*
X157726553Y-111061876D01*
X157707557Y-111072029D01*
X157686938Y-111078284D01*
X157659360Y-111081000D01*
X157200640Y-111081000D01*
X157173062Y-111078284D01*
X157152443Y-111072029D01*
X157133447Y-111061876D01*
X157116792Y-111048208D01*
X157103124Y-111031553D01*
X157092971Y-111012557D01*
X157086716Y-110991938D01*
X157084000Y-110964360D01*
X157084000Y-110455640D01*
X157086716Y-110428062D01*
X157092971Y-110407443D01*
X157103124Y-110388447D01*
X157116792Y-110371792D01*
X157133447Y-110358124D01*
X157152443Y-110347971D01*
X157173062Y-110341716D01*
X157200640Y-110339000D01*
X157659360Y-110339000D01*
X157686938Y-110341716D01*
G37*
G36*
X123781938Y-110071716D02*
G01*
X123802557Y-110077971D01*
X123821553Y-110088124D01*
X123838208Y-110101792D01*
X123851876Y-110118447D01*
X123862029Y-110137443D01*
X123868284Y-110158062D01*
X123871000Y-110185640D01*
X123871000Y-110644360D01*
X123868284Y-110671938D01*
X123862029Y-110692557D01*
X123851876Y-110711553D01*
X123838208Y-110728208D01*
X123821553Y-110741876D01*
X123802557Y-110752029D01*
X123781938Y-110758284D01*
X123754360Y-110761000D01*
X123245640Y-110761000D01*
X123218062Y-110758284D01*
X123197443Y-110752029D01*
X123178447Y-110741876D01*
X123161792Y-110728208D01*
X123148124Y-110711553D01*
X123137971Y-110692557D01*
X123131716Y-110671938D01*
X123129000Y-110644360D01*
X123129000Y-110185640D01*
X123131716Y-110158062D01*
X123137971Y-110137443D01*
X123148124Y-110118447D01*
X123161792Y-110101792D01*
X123178447Y-110088124D01*
X123197443Y-110077971D01*
X123218062Y-110071716D01*
X123245640Y-110069000D01*
X123754360Y-110069000D01*
X123781938Y-110071716D01*
G37*
G36*
X126781938Y-110071716D02*
G01*
X126802557Y-110077971D01*
X126821553Y-110088124D01*
X126838208Y-110101792D01*
X126851876Y-110118447D01*
X126862029Y-110137443D01*
X126868284Y-110158062D01*
X126871000Y-110185640D01*
X126871000Y-110644360D01*
X126868284Y-110671938D01*
X126862029Y-110692557D01*
X126851876Y-110711553D01*
X126838208Y-110728208D01*
X126821553Y-110741876D01*
X126802557Y-110752029D01*
X126781938Y-110758284D01*
X126754360Y-110761000D01*
X126245640Y-110761000D01*
X126218062Y-110758284D01*
X126197443Y-110752029D01*
X126178447Y-110741876D01*
X126161792Y-110728208D01*
X126148124Y-110711553D01*
X126137971Y-110692557D01*
X126131716Y-110671938D01*
X126129000Y-110644360D01*
X126129000Y-110185640D01*
X126131716Y-110158062D01*
X126137971Y-110137443D01*
X126148124Y-110118447D01*
X126161792Y-110101792D01*
X126178447Y-110088124D01*
X126197443Y-110077971D01*
X126218062Y-110071716D01*
X126245640Y-110069000D01*
X126754360Y-110069000D01*
X126781938Y-110071716D01*
G37*
G36*
X125781938Y-110071716D02*
G01*
X125802557Y-110077971D01*
X125821553Y-110088124D01*
X125838208Y-110101792D01*
X125851876Y-110118447D01*
X125862029Y-110137443D01*
X125868284Y-110158062D01*
X125871000Y-110185640D01*
X125871000Y-110644360D01*
X125868284Y-110671938D01*
X125862029Y-110692557D01*
X125851876Y-110711553D01*
X125838208Y-110728208D01*
X125821553Y-110741876D01*
X125802557Y-110752029D01*
X125781938Y-110758284D01*
X125754360Y-110761000D01*
X125245640Y-110761000D01*
X125218062Y-110758284D01*
X125197443Y-110752029D01*
X125178447Y-110741876D01*
X125161792Y-110728208D01*
X125148124Y-110711553D01*
X125137971Y-110692557D01*
X125131716Y-110671938D01*
X125129000Y-110644360D01*
X125129000Y-110185640D01*
X125131716Y-110158062D01*
X125137971Y-110137443D01*
X125148124Y-110118447D01*
X125161792Y-110101792D01*
X125178447Y-110088124D01*
X125197443Y-110077971D01*
X125218062Y-110071716D01*
X125245640Y-110069000D01*
X125754360Y-110069000D01*
X125781938Y-110071716D01*
G37*
G36*
X120281938Y-110071716D02*
G01*
X120302557Y-110077971D01*
X120321553Y-110088124D01*
X120338208Y-110101792D01*
X120351876Y-110118447D01*
X120362029Y-110137443D01*
X120368284Y-110158062D01*
X120371000Y-110185640D01*
X120371000Y-110644360D01*
X120368284Y-110671938D01*
X120362029Y-110692557D01*
X120351876Y-110711553D01*
X120338208Y-110728208D01*
X120321553Y-110741876D01*
X120302557Y-110752029D01*
X120281938Y-110758284D01*
X120254360Y-110761000D01*
X119745640Y-110761000D01*
X119718062Y-110758284D01*
X119697443Y-110752029D01*
X119678447Y-110741876D01*
X119661792Y-110728208D01*
X119648124Y-110711553D01*
X119637971Y-110692557D01*
X119631716Y-110671938D01*
X119629000Y-110644360D01*
X119629000Y-110185640D01*
X119631716Y-110158062D01*
X119637971Y-110137443D01*
X119648124Y-110118447D01*
X119661792Y-110101792D01*
X119678447Y-110088124D01*
X119697443Y-110077971D01*
X119718062Y-110071716D01*
X119745640Y-110069000D01*
X120254360Y-110069000D01*
X120281938Y-110071716D01*
G37*
G36*
X119281938Y-110071716D02*
G01*
X119302557Y-110077971D01*
X119321553Y-110088124D01*
X119338208Y-110101792D01*
X119351876Y-110118447D01*
X119362029Y-110137443D01*
X119368284Y-110158062D01*
X119371000Y-110185640D01*
X119371000Y-110644360D01*
X119368284Y-110671938D01*
X119362029Y-110692557D01*
X119351876Y-110711553D01*
X119338208Y-110728208D01*
X119321553Y-110741876D01*
X119302557Y-110752029D01*
X119281938Y-110758284D01*
X119254360Y-110761000D01*
X118745640Y-110761000D01*
X118718062Y-110758284D01*
X118697443Y-110752029D01*
X118678447Y-110741876D01*
X118661792Y-110728208D01*
X118648124Y-110711553D01*
X118637971Y-110692557D01*
X118631716Y-110671938D01*
X118629000Y-110644360D01*
X118629000Y-110185640D01*
X118631716Y-110158062D01*
X118637971Y-110137443D01*
X118648124Y-110118447D01*
X118661792Y-110101792D01*
X118678447Y-110088124D01*
X118697443Y-110077971D01*
X118718062Y-110071716D01*
X118745640Y-110069000D01*
X119254360Y-110069000D01*
X119281938Y-110071716D01*
G37*
G36*
X118281938Y-110071716D02*
G01*
X118302557Y-110077971D01*
X118321553Y-110088124D01*
X118338208Y-110101792D01*
X118351876Y-110118447D01*
X118362029Y-110137443D01*
X118368284Y-110158062D01*
X118371000Y-110185640D01*
X118371000Y-110644360D01*
X118368284Y-110671938D01*
X118362029Y-110692557D01*
X118351876Y-110711553D01*
X118338208Y-110728208D01*
X118321553Y-110741876D01*
X118302557Y-110752029D01*
X118281938Y-110758284D01*
X118254360Y-110761000D01*
X117745640Y-110761000D01*
X117718062Y-110758284D01*
X117697443Y-110752029D01*
X117678447Y-110741876D01*
X117661792Y-110728208D01*
X117648124Y-110711553D01*
X117637971Y-110692557D01*
X117631716Y-110671938D01*
X117629000Y-110644360D01*
X117629000Y-110185640D01*
X117631716Y-110158062D01*
X117637971Y-110137443D01*
X117648124Y-110118447D01*
X117661792Y-110101792D01*
X117678447Y-110088124D01*
X117697443Y-110077971D01*
X117718062Y-110071716D01*
X117745640Y-110069000D01*
X118254360Y-110069000D01*
X118281938Y-110071716D01*
G37*
G36*
X117281938Y-110071716D02*
G01*
X117302557Y-110077971D01*
X117321553Y-110088124D01*
X117338208Y-110101792D01*
X117351876Y-110118447D01*
X117362029Y-110137443D01*
X117368284Y-110158062D01*
X117371000Y-110185640D01*
X117371000Y-110644360D01*
X117368284Y-110671938D01*
X117362029Y-110692557D01*
X117351876Y-110711553D01*
X117338208Y-110728208D01*
X117321553Y-110741876D01*
X117302557Y-110752029D01*
X117281938Y-110758284D01*
X117254360Y-110761000D01*
X116745640Y-110761000D01*
X116718062Y-110758284D01*
X116697443Y-110752029D01*
X116678447Y-110741876D01*
X116661792Y-110728208D01*
X116648124Y-110711553D01*
X116637971Y-110692557D01*
X116631716Y-110671938D01*
X116629000Y-110644360D01*
X116629000Y-110185640D01*
X116631716Y-110158062D01*
X116637971Y-110137443D01*
X116648124Y-110118447D01*
X116661792Y-110101792D01*
X116678447Y-110088124D01*
X116697443Y-110077971D01*
X116718062Y-110071716D01*
X116745640Y-110069000D01*
X117254360Y-110069000D01*
X117281938Y-110071716D01*
G37*
G36*
X122781938Y-110071716D02*
G01*
X122802557Y-110077971D01*
X122821553Y-110088124D01*
X122838208Y-110101792D01*
X122851876Y-110118447D01*
X122862029Y-110137443D01*
X122868284Y-110158062D01*
X122871000Y-110185640D01*
X122871000Y-110644360D01*
X122868284Y-110671938D01*
X122862029Y-110692557D01*
X122851876Y-110711553D01*
X122838208Y-110728208D01*
X122821553Y-110741876D01*
X122802557Y-110752029D01*
X122781938Y-110758284D01*
X122754360Y-110761000D01*
X122245640Y-110761000D01*
X122218062Y-110758284D01*
X122197443Y-110752029D01*
X122178447Y-110741876D01*
X122161792Y-110728208D01*
X122148124Y-110711553D01*
X122137971Y-110692557D01*
X122131716Y-110671938D01*
X122129000Y-110644360D01*
X122129000Y-110185640D01*
X122131716Y-110158062D01*
X122137971Y-110137443D01*
X122148124Y-110118447D01*
X122161792Y-110101792D01*
X122178447Y-110088124D01*
X122197443Y-110077971D01*
X122218062Y-110071716D01*
X122245640Y-110069000D01*
X122754360Y-110069000D01*
X122781938Y-110071716D01*
G37*
G36*
X124781938Y-110071716D02*
G01*
X124802557Y-110077971D01*
X124821553Y-110088124D01*
X124838208Y-110101792D01*
X124851876Y-110118447D01*
X124862029Y-110137443D01*
X124868284Y-110158062D01*
X124871000Y-110185640D01*
X124871000Y-110644360D01*
X124868284Y-110671938D01*
X124862029Y-110692557D01*
X124851876Y-110711553D01*
X124838208Y-110728208D01*
X124821553Y-110741876D01*
X124802557Y-110752029D01*
X124781938Y-110758284D01*
X124754360Y-110761000D01*
X124245640Y-110761000D01*
X124218062Y-110758284D01*
X124197443Y-110752029D01*
X124178447Y-110741876D01*
X124161792Y-110728208D01*
X124148124Y-110711553D01*
X124137971Y-110692557D01*
X124131716Y-110671938D01*
X124129000Y-110644360D01*
X124129000Y-110185640D01*
X124131716Y-110158062D01*
X124137971Y-110137443D01*
X124148124Y-110118447D01*
X124161792Y-110101792D01*
X124178447Y-110088124D01*
X124197443Y-110077971D01*
X124218062Y-110071716D01*
X124245640Y-110069000D01*
X124754360Y-110069000D01*
X124781938Y-110071716D01*
G37*
G36*
X121701000Y-110501000D02*
G01*
X120799000Y-110501000D01*
X120799000Y-109799000D01*
X121701000Y-109799000D01*
X121701000Y-110501000D01*
G37*
G36*
X153541938Y-109631716D02*
G01*
X153562557Y-109637971D01*
X153581553Y-109648124D01*
X153598208Y-109661792D01*
X153611876Y-109678447D01*
X153622029Y-109697443D01*
X153628284Y-109718062D01*
X153631000Y-109745640D01*
X153631000Y-110254360D01*
X153628284Y-110281938D01*
X153622029Y-110302557D01*
X153611876Y-110321553D01*
X153598208Y-110338208D01*
X153581553Y-110351876D01*
X153562557Y-110362029D01*
X153541938Y-110368284D01*
X153514360Y-110371000D01*
X153055640Y-110371000D01*
X153028062Y-110368284D01*
X153007443Y-110362029D01*
X152988447Y-110351876D01*
X152971792Y-110338208D01*
X152958124Y-110321553D01*
X152947971Y-110302557D01*
X152941716Y-110281938D01*
X152939000Y-110254360D01*
X152939000Y-109745640D01*
X152941716Y-109718062D01*
X152947971Y-109697443D01*
X152958124Y-109678447D01*
X152971792Y-109661792D01*
X152988447Y-109648124D01*
X153007443Y-109637971D01*
X153028062Y-109631716D01*
X153055640Y-109629000D01*
X153514360Y-109629000D01*
X153541938Y-109631716D01*
G37*
G36*
X152571938Y-109631716D02*
G01*
X152592557Y-109637971D01*
X152611553Y-109648124D01*
X152628208Y-109661792D01*
X152641876Y-109678447D01*
X152652029Y-109697443D01*
X152658284Y-109718062D01*
X152661000Y-109745640D01*
X152661000Y-110254360D01*
X152658284Y-110281938D01*
X152652029Y-110302557D01*
X152641876Y-110321553D01*
X152628208Y-110338208D01*
X152611553Y-110351876D01*
X152592557Y-110362029D01*
X152571938Y-110368284D01*
X152544360Y-110371000D01*
X152085640Y-110371000D01*
X152058062Y-110368284D01*
X152037443Y-110362029D01*
X152018447Y-110351876D01*
X152001792Y-110338208D01*
X151988124Y-110321553D01*
X151977971Y-110302557D01*
X151971716Y-110281938D01*
X151969000Y-110254360D01*
X151969000Y-109745640D01*
X151971716Y-109718062D01*
X151977971Y-109697443D01*
X151988124Y-109678447D01*
X152001792Y-109661792D01*
X152018447Y-109648124D01*
X152037443Y-109637971D01*
X152058062Y-109631716D01*
X152085640Y-109629000D01*
X152544360Y-109629000D01*
X152571938Y-109631716D01*
G37*
G36*
X150951938Y-109621716D02*
G01*
X150972557Y-109627971D01*
X150991553Y-109638124D01*
X151008208Y-109651792D01*
X151021876Y-109668447D01*
X151032029Y-109687443D01*
X151038284Y-109708062D01*
X151041000Y-109735640D01*
X151041000Y-110244360D01*
X151038284Y-110271938D01*
X151032029Y-110292557D01*
X151021876Y-110311553D01*
X151008208Y-110328208D01*
X150991553Y-110341876D01*
X150972557Y-110352029D01*
X150951938Y-110358284D01*
X150924360Y-110361000D01*
X150465640Y-110361000D01*
X150438062Y-110358284D01*
X150417443Y-110352029D01*
X150398447Y-110341876D01*
X150381792Y-110328208D01*
X150368124Y-110311553D01*
X150357971Y-110292557D01*
X150351716Y-110271938D01*
X150349000Y-110244360D01*
X150349000Y-109735640D01*
X150351716Y-109708062D01*
X150357971Y-109687443D01*
X150368124Y-109668447D01*
X150381792Y-109651792D01*
X150398447Y-109638124D01*
X150417443Y-109627971D01*
X150438062Y-109621716D01*
X150465640Y-109619000D01*
X150924360Y-109619000D01*
X150951938Y-109621716D01*
G37*
G36*
X149981938Y-109621716D02*
G01*
X150002557Y-109627971D01*
X150021553Y-109638124D01*
X150038208Y-109651792D01*
X150051876Y-109668447D01*
X150062029Y-109687443D01*
X150068284Y-109708062D01*
X150071000Y-109735640D01*
X150071000Y-110244360D01*
X150068284Y-110271938D01*
X150062029Y-110292557D01*
X150051876Y-110311553D01*
X150038208Y-110328208D01*
X150021553Y-110341876D01*
X150002557Y-110352029D01*
X149981938Y-110358284D01*
X149954360Y-110361000D01*
X149495640Y-110361000D01*
X149468062Y-110358284D01*
X149447443Y-110352029D01*
X149428447Y-110341876D01*
X149411792Y-110328208D01*
X149398124Y-110311553D01*
X149387971Y-110292557D01*
X149381716Y-110271938D01*
X149379000Y-110244360D01*
X149379000Y-109735640D01*
X149381716Y-109708062D01*
X149387971Y-109687443D01*
X149398124Y-109668447D01*
X149411792Y-109651792D01*
X149428447Y-109638124D01*
X149447443Y-109627971D01*
X149468062Y-109621716D01*
X149495640Y-109619000D01*
X149954360Y-109619000D01*
X149981938Y-109621716D01*
G37*
G36*
X144569438Y-109656716D02*
G01*
X144590057Y-109662971D01*
X144609053Y-109673124D01*
X144625708Y-109686792D01*
X144639376Y-109703447D01*
X144649529Y-109722443D01*
X144655784Y-109743062D01*
X144658500Y-109770640D01*
X144658500Y-110229360D01*
X144655784Y-110256938D01*
X144649529Y-110277557D01*
X144639376Y-110296553D01*
X144625708Y-110313208D01*
X144609053Y-110326876D01*
X144590057Y-110337029D01*
X144569438Y-110343284D01*
X144541860Y-110346000D01*
X144033140Y-110346000D01*
X144005562Y-110343284D01*
X143984943Y-110337029D01*
X143965947Y-110326876D01*
X143949292Y-110313208D01*
X143935624Y-110296553D01*
X143925471Y-110277557D01*
X143919216Y-110256938D01*
X143916500Y-110229360D01*
X143916500Y-109770640D01*
X143919216Y-109743062D01*
X143925471Y-109722443D01*
X143935624Y-109703447D01*
X143949292Y-109686792D01*
X143965947Y-109673124D01*
X143984943Y-109662971D01*
X144005562Y-109656716D01*
X144033140Y-109654000D01*
X144541860Y-109654000D01*
X144569438Y-109656716D01*
G37*
G36*
X143386938Y-109656716D02*
G01*
X143407557Y-109662971D01*
X143426553Y-109673124D01*
X143443208Y-109686792D01*
X143456876Y-109703447D01*
X143467029Y-109722443D01*
X143473284Y-109743062D01*
X143476000Y-109770640D01*
X143476000Y-110229360D01*
X143473284Y-110256938D01*
X143467029Y-110277557D01*
X143456876Y-110296553D01*
X143443208Y-110313208D01*
X143426553Y-110326876D01*
X143407557Y-110337029D01*
X143386938Y-110343284D01*
X143359360Y-110346000D01*
X142850640Y-110346000D01*
X142823062Y-110343284D01*
X142802443Y-110337029D01*
X142783447Y-110326876D01*
X142766792Y-110313208D01*
X142753124Y-110296553D01*
X142742971Y-110277557D01*
X142736716Y-110256938D01*
X142734000Y-110229360D01*
X142734000Y-109770640D01*
X142736716Y-109743062D01*
X142742971Y-109722443D01*
X142753124Y-109703447D01*
X142766792Y-109686792D01*
X142783447Y-109673124D01*
X142802443Y-109662971D01*
X142823062Y-109656716D01*
X142850640Y-109654000D01*
X143359360Y-109654000D01*
X143386938Y-109656716D01*
G37*
G36*
X145751938Y-109656716D02*
G01*
X145772557Y-109662971D01*
X145791553Y-109673124D01*
X145808208Y-109686792D01*
X145821876Y-109703447D01*
X145832029Y-109722443D01*
X145838284Y-109743062D01*
X145841000Y-109770640D01*
X145841000Y-110229360D01*
X145838284Y-110256938D01*
X145832029Y-110277557D01*
X145821876Y-110296553D01*
X145808208Y-110313208D01*
X145791553Y-110326876D01*
X145772557Y-110337029D01*
X145751938Y-110343284D01*
X145724360Y-110346000D01*
X145215640Y-110346000D01*
X145188062Y-110343284D01*
X145167443Y-110337029D01*
X145148447Y-110326876D01*
X145131792Y-110313208D01*
X145118124Y-110296553D01*
X145107971Y-110277557D01*
X145101716Y-110256938D01*
X145099000Y-110229360D01*
X145099000Y-109770640D01*
X145101716Y-109743062D01*
X145107971Y-109722443D01*
X145118124Y-109703447D01*
X145131792Y-109686792D01*
X145148447Y-109673124D01*
X145167443Y-109662971D01*
X145188062Y-109656716D01*
X145215640Y-109654000D01*
X145724360Y-109654000D01*
X145751938Y-109656716D01*
G37*
G36*
X147161000Y-110191000D02*
G01*
X146459000Y-110191000D01*
X146459000Y-109289000D01*
X147161000Y-109289000D01*
X147161000Y-110191000D01*
G37*
G36*
X148561000Y-110191000D02*
G01*
X147859000Y-110191000D01*
X147859000Y-109289000D01*
X148561000Y-109289000D01*
X148561000Y-110191000D01*
G37*
G36*
X157686938Y-109341716D02*
G01*
X157707557Y-109347971D01*
X157726553Y-109358124D01*
X157743208Y-109371792D01*
X157756876Y-109388447D01*
X157767029Y-109407443D01*
X157773284Y-109428062D01*
X157776000Y-109455640D01*
X157776000Y-109964360D01*
X157773284Y-109991938D01*
X157767029Y-110012557D01*
X157756876Y-110031553D01*
X157743208Y-110048208D01*
X157726553Y-110061876D01*
X157707557Y-110072029D01*
X157686938Y-110078284D01*
X157659360Y-110081000D01*
X157200640Y-110081000D01*
X157173062Y-110078284D01*
X157152443Y-110072029D01*
X157133447Y-110061876D01*
X157116792Y-110048208D01*
X157103124Y-110031553D01*
X157092971Y-110012557D01*
X157086716Y-109991938D01*
X157084000Y-109964360D01*
X157084000Y-109455640D01*
X157086716Y-109428062D01*
X157092971Y-109407443D01*
X157103124Y-109388447D01*
X157116792Y-109371792D01*
X157133447Y-109358124D01*
X157152443Y-109347971D01*
X157173062Y-109341716D01*
X157200640Y-109339000D01*
X157659360Y-109339000D01*
X157686938Y-109341716D01*
G37*
G36*
X156716938Y-109341716D02*
G01*
X156737557Y-109347971D01*
X156756553Y-109358124D01*
X156773208Y-109371792D01*
X156786876Y-109388447D01*
X156797029Y-109407443D01*
X156803284Y-109428062D01*
X156806000Y-109455640D01*
X156806000Y-109964360D01*
X156803284Y-109991938D01*
X156797029Y-110012557D01*
X156786876Y-110031553D01*
X156773208Y-110048208D01*
X156756553Y-110061876D01*
X156737557Y-110072029D01*
X156716938Y-110078284D01*
X156689360Y-110081000D01*
X156230640Y-110081000D01*
X156203062Y-110078284D01*
X156182443Y-110072029D01*
X156163447Y-110061876D01*
X156146792Y-110048208D01*
X156133124Y-110031553D01*
X156122971Y-110012557D01*
X156116716Y-109991938D01*
X156114000Y-109964360D01*
X156114000Y-109455640D01*
X156116716Y-109428062D01*
X156122971Y-109407443D01*
X156133124Y-109388447D01*
X156146792Y-109371792D01*
X156163447Y-109358124D01*
X156182443Y-109347971D01*
X156203062Y-109341716D01*
X156230640Y-109339000D01*
X156689360Y-109339000D01*
X156716938Y-109341716D01*
G37*
G36*
X144569438Y-108686716D02*
G01*
X144590057Y-108692971D01*
X144609053Y-108703124D01*
X144625708Y-108716792D01*
X144639376Y-108733447D01*
X144649529Y-108752443D01*
X144655784Y-108773062D01*
X144658500Y-108800640D01*
X144658500Y-109259360D01*
X144655784Y-109286938D01*
X144649529Y-109307557D01*
X144639376Y-109326553D01*
X144625708Y-109343208D01*
X144609053Y-109356876D01*
X144590057Y-109367029D01*
X144569438Y-109373284D01*
X144541860Y-109376000D01*
X144033140Y-109376000D01*
X144005562Y-109373284D01*
X143984943Y-109367029D01*
X143965947Y-109356876D01*
X143949292Y-109343208D01*
X143935624Y-109326553D01*
X143925471Y-109307557D01*
X143919216Y-109286938D01*
X143916500Y-109259360D01*
X143916500Y-108800640D01*
X143919216Y-108773062D01*
X143925471Y-108752443D01*
X143935624Y-108733447D01*
X143949292Y-108716792D01*
X143965947Y-108703124D01*
X143984943Y-108692971D01*
X144005562Y-108686716D01*
X144033140Y-108684000D01*
X144541860Y-108684000D01*
X144569438Y-108686716D01*
G37*
G36*
X143386938Y-108686716D02*
G01*
X143407557Y-108692971D01*
X143426553Y-108703124D01*
X143443208Y-108716792D01*
X143456876Y-108733447D01*
X143467029Y-108752443D01*
X143473284Y-108773062D01*
X143476000Y-108800640D01*
X143476000Y-109259360D01*
X143473284Y-109286938D01*
X143467029Y-109307557D01*
X143456876Y-109326553D01*
X143443208Y-109343208D01*
X143426553Y-109356876D01*
X143407557Y-109367029D01*
X143386938Y-109373284D01*
X143359360Y-109376000D01*
X142850640Y-109376000D01*
X142823062Y-109373284D01*
X142802443Y-109367029D01*
X142783447Y-109356876D01*
X142766792Y-109343208D01*
X142753124Y-109326553D01*
X142742971Y-109307557D01*
X142736716Y-109286938D01*
X142734000Y-109259360D01*
X142734000Y-108800640D01*
X142736716Y-108773062D01*
X142742971Y-108752443D01*
X142753124Y-108733447D01*
X142766792Y-108716792D01*
X142783447Y-108703124D01*
X142802443Y-108692971D01*
X142823062Y-108686716D01*
X142850640Y-108684000D01*
X143359360Y-108684000D01*
X143386938Y-108686716D01*
G37*
G36*
X145751938Y-108686716D02*
G01*
X145772557Y-108692971D01*
X145791553Y-108703124D01*
X145808208Y-108716792D01*
X145821876Y-108733447D01*
X145832029Y-108752443D01*
X145838284Y-108773062D01*
X145841000Y-108800640D01*
X145841000Y-109259360D01*
X145838284Y-109286938D01*
X145832029Y-109307557D01*
X145821876Y-109326553D01*
X145808208Y-109343208D01*
X145791553Y-109356876D01*
X145772557Y-109367029D01*
X145751938Y-109373284D01*
X145724360Y-109376000D01*
X145215640Y-109376000D01*
X145188062Y-109373284D01*
X145167443Y-109367029D01*
X145148447Y-109356876D01*
X145131792Y-109343208D01*
X145118124Y-109326553D01*
X145107971Y-109307557D01*
X145101716Y-109286938D01*
X145099000Y-109259360D01*
X145099000Y-108800640D01*
X145101716Y-108773062D01*
X145107971Y-108752443D01*
X145118124Y-108733447D01*
X145131792Y-108716792D01*
X145148447Y-108703124D01*
X145167443Y-108692971D01*
X145188062Y-108686716D01*
X145215640Y-108684000D01*
X145724360Y-108684000D01*
X145751938Y-108686716D01*
G37*
G36*
X153541938Y-108431716D02*
G01*
X153562557Y-108437971D01*
X153581553Y-108448124D01*
X153598208Y-108461792D01*
X153611876Y-108478447D01*
X153622029Y-108497443D01*
X153628284Y-108518062D01*
X153631000Y-108545640D01*
X153631000Y-109054360D01*
X153628284Y-109081938D01*
X153622029Y-109102557D01*
X153611876Y-109121553D01*
X153598208Y-109138208D01*
X153581553Y-109151876D01*
X153562557Y-109162029D01*
X153541938Y-109168284D01*
X153514360Y-109171000D01*
X153055640Y-109171000D01*
X153028062Y-109168284D01*
X153007443Y-109162029D01*
X152988447Y-109151876D01*
X152971792Y-109138208D01*
X152958124Y-109121553D01*
X152947971Y-109102557D01*
X152941716Y-109081938D01*
X152939000Y-109054360D01*
X152939000Y-108545640D01*
X152941716Y-108518062D01*
X152947971Y-108497443D01*
X152958124Y-108478447D01*
X152971792Y-108461792D01*
X152988447Y-108448124D01*
X153007443Y-108437971D01*
X153028062Y-108431716D01*
X153055640Y-108429000D01*
X153514360Y-108429000D01*
X153541938Y-108431716D01*
G37*
G36*
X152571938Y-108431716D02*
G01*
X152592557Y-108437971D01*
X152611553Y-108448124D01*
X152628208Y-108461792D01*
X152641876Y-108478447D01*
X152652029Y-108497443D01*
X152658284Y-108518062D01*
X152661000Y-108545640D01*
X152661000Y-109054360D01*
X152658284Y-109081938D01*
X152652029Y-109102557D01*
X152641876Y-109121553D01*
X152628208Y-109138208D01*
X152611553Y-109151876D01*
X152592557Y-109162029D01*
X152571938Y-109168284D01*
X152544360Y-109171000D01*
X152085640Y-109171000D01*
X152058062Y-109168284D01*
X152037443Y-109162029D01*
X152018447Y-109151876D01*
X152001792Y-109138208D01*
X151988124Y-109121553D01*
X151977971Y-109102557D01*
X151971716Y-109081938D01*
X151969000Y-109054360D01*
X151969000Y-108545640D01*
X151971716Y-108518062D01*
X151977971Y-108497443D01*
X151988124Y-108478447D01*
X152001792Y-108461792D01*
X152018447Y-108448124D01*
X152037443Y-108437971D01*
X152058062Y-108431716D01*
X152085640Y-108429000D01*
X152544360Y-108429000D01*
X152571938Y-108431716D01*
G37*
G36*
X157686938Y-108341716D02*
G01*
X157707557Y-108347971D01*
X157726553Y-108358124D01*
X157743208Y-108371792D01*
X157756876Y-108388447D01*
X157767029Y-108407443D01*
X157773284Y-108428062D01*
X157776000Y-108455640D01*
X157776000Y-108964360D01*
X157773284Y-108991938D01*
X157767029Y-109012557D01*
X157756876Y-109031553D01*
X157743208Y-109048208D01*
X157726553Y-109061876D01*
X157707557Y-109072029D01*
X157686938Y-109078284D01*
X157659360Y-109081000D01*
X157200640Y-109081000D01*
X157173062Y-109078284D01*
X157152443Y-109072029D01*
X157133447Y-109061876D01*
X157116792Y-109048208D01*
X157103124Y-109031553D01*
X157092971Y-109012557D01*
X157086716Y-108991938D01*
X157084000Y-108964360D01*
X157084000Y-108455640D01*
X157086716Y-108428062D01*
X157092971Y-108407443D01*
X157103124Y-108388447D01*
X157116792Y-108371792D01*
X157133447Y-108358124D01*
X157152443Y-108347971D01*
X157173062Y-108341716D01*
X157200640Y-108339000D01*
X157659360Y-108339000D01*
X157686938Y-108341716D01*
G37*
G36*
X156716938Y-108341716D02*
G01*
X156737557Y-108347971D01*
X156756553Y-108358124D01*
X156773208Y-108371792D01*
X156786876Y-108388447D01*
X156797029Y-108407443D01*
X156803284Y-108428062D01*
X156806000Y-108455640D01*
X156806000Y-108964360D01*
X156803284Y-108991938D01*
X156797029Y-109012557D01*
X156786876Y-109031553D01*
X156773208Y-109048208D01*
X156756553Y-109061876D01*
X156737557Y-109072029D01*
X156716938Y-109078284D01*
X156689360Y-109081000D01*
X156230640Y-109081000D01*
X156203062Y-109078284D01*
X156182443Y-109072029D01*
X156163447Y-109061876D01*
X156146792Y-109048208D01*
X156133124Y-109031553D01*
X156122971Y-109012557D01*
X156116716Y-108991938D01*
X156114000Y-108964360D01*
X156114000Y-108455640D01*
X156116716Y-108428062D01*
X156122971Y-108407443D01*
X156133124Y-108388447D01*
X156146792Y-108371792D01*
X156163447Y-108358124D01*
X156182443Y-108347971D01*
X156203062Y-108341716D01*
X156230640Y-108339000D01*
X156689360Y-108339000D01*
X156716938Y-108341716D01*
G37*
G36*
X148381938Y-108151716D02*
G01*
X148402557Y-108157971D01*
X148421553Y-108168124D01*
X148438208Y-108181792D01*
X148451876Y-108198447D01*
X148462029Y-108217443D01*
X148468284Y-108238062D01*
X148471000Y-108265640D01*
X148471000Y-108724360D01*
X148468284Y-108751938D01*
X148462029Y-108772557D01*
X148451876Y-108791553D01*
X148438208Y-108808208D01*
X148421553Y-108821876D01*
X148402557Y-108832029D01*
X148381938Y-108838284D01*
X148354360Y-108841000D01*
X147845640Y-108841000D01*
X147818062Y-108838284D01*
X147797443Y-108832029D01*
X147778447Y-108821876D01*
X147761792Y-108808208D01*
X147748124Y-108791553D01*
X147737971Y-108772557D01*
X147731716Y-108751938D01*
X147729000Y-108724360D01*
X147729000Y-108265640D01*
X147731716Y-108238062D01*
X147737971Y-108217443D01*
X147748124Y-108198447D01*
X147761792Y-108181792D01*
X147778447Y-108168124D01*
X147797443Y-108157971D01*
X147818062Y-108151716D01*
X147845640Y-108149000D01*
X148354360Y-108149000D01*
X148381938Y-108151716D01*
G37*
G36*
X144551938Y-107491716D02*
G01*
X144572557Y-107497971D01*
X144591553Y-107508124D01*
X144608208Y-107521792D01*
X144621876Y-107538447D01*
X144632029Y-107557443D01*
X144638284Y-107578062D01*
X144641000Y-107605640D01*
X144641000Y-108114360D01*
X144638284Y-108141938D01*
X144632029Y-108162557D01*
X144621876Y-108181553D01*
X144608208Y-108198208D01*
X144591553Y-108211876D01*
X144572557Y-108222029D01*
X144551938Y-108228284D01*
X144524360Y-108231000D01*
X144065640Y-108231000D01*
X144038062Y-108228284D01*
X144017443Y-108222029D01*
X143998447Y-108211876D01*
X143981792Y-108198208D01*
X143968124Y-108181553D01*
X143957971Y-108162557D01*
X143951716Y-108141938D01*
X143949000Y-108114360D01*
X143949000Y-107605640D01*
X143951716Y-107578062D01*
X143957971Y-107557443D01*
X143968124Y-107538447D01*
X143981792Y-107521792D01*
X143998447Y-107508124D01*
X144017443Y-107497971D01*
X144038062Y-107491716D01*
X144065640Y-107489000D01*
X144524360Y-107489000D01*
X144551938Y-107491716D01*
G37*
G36*
X145521938Y-107491716D02*
G01*
X145542557Y-107497971D01*
X145561553Y-107508124D01*
X145578208Y-107521792D01*
X145591876Y-107538447D01*
X145602029Y-107557443D01*
X145608284Y-107578062D01*
X145611000Y-107605640D01*
X145611000Y-108114360D01*
X145608284Y-108141938D01*
X145602029Y-108162557D01*
X145591876Y-108181553D01*
X145578208Y-108198208D01*
X145561553Y-108211876D01*
X145542557Y-108222029D01*
X145521938Y-108228284D01*
X145494360Y-108231000D01*
X145035640Y-108231000D01*
X145008062Y-108228284D01*
X144987443Y-108222029D01*
X144968447Y-108211876D01*
X144951792Y-108198208D01*
X144938124Y-108181553D01*
X144927971Y-108162557D01*
X144921716Y-108141938D01*
X144919000Y-108114360D01*
X144919000Y-107605640D01*
X144921716Y-107578062D01*
X144927971Y-107557443D01*
X144938124Y-107538447D01*
X144951792Y-107521792D01*
X144968447Y-107508124D01*
X144987443Y-107497971D01*
X145008062Y-107491716D01*
X145035640Y-107489000D01*
X145494360Y-107489000D01*
X145521938Y-107491716D01*
G37*
G36*
X157686938Y-107341716D02*
G01*
X157707557Y-107347971D01*
X157726553Y-107358124D01*
X157743208Y-107371792D01*
X157756876Y-107388447D01*
X157767029Y-107407443D01*
X157773284Y-107428062D01*
X157776000Y-107455640D01*
X157776000Y-107964360D01*
X157773284Y-107991938D01*
X157767029Y-108012557D01*
X157756876Y-108031553D01*
X157743208Y-108048208D01*
X157726553Y-108061876D01*
X157707557Y-108072029D01*
X157686938Y-108078284D01*
X157659360Y-108081000D01*
X157200640Y-108081000D01*
X157173062Y-108078284D01*
X157152443Y-108072029D01*
X157133447Y-108061876D01*
X157116792Y-108048208D01*
X157103124Y-108031553D01*
X157092971Y-108012557D01*
X157086716Y-107991938D01*
X157084000Y-107964360D01*
X157084000Y-107455640D01*
X157086716Y-107428062D01*
X157092971Y-107407443D01*
X157103124Y-107388447D01*
X157116792Y-107371792D01*
X157133447Y-107358124D01*
X157152443Y-107347971D01*
X157173062Y-107341716D01*
X157200640Y-107339000D01*
X157659360Y-107339000D01*
X157686938Y-107341716D01*
G37*
G36*
X156716938Y-107341716D02*
G01*
X156737557Y-107347971D01*
X156756553Y-107358124D01*
X156773208Y-107371792D01*
X156786876Y-107388447D01*
X156797029Y-107407443D01*
X156803284Y-107428062D01*
X156806000Y-107455640D01*
X156806000Y-107964360D01*
X156803284Y-107991938D01*
X156797029Y-108012557D01*
X156786876Y-108031553D01*
X156773208Y-108048208D01*
X156756553Y-108061876D01*
X156737557Y-108072029D01*
X156716938Y-108078284D01*
X156689360Y-108081000D01*
X156230640Y-108081000D01*
X156203062Y-108078284D01*
X156182443Y-108072029D01*
X156163447Y-108061876D01*
X156146792Y-108048208D01*
X156133124Y-108031553D01*
X156122971Y-108012557D01*
X156116716Y-107991938D01*
X156114000Y-107964360D01*
X156114000Y-107455640D01*
X156116716Y-107428062D01*
X156122971Y-107407443D01*
X156133124Y-107388447D01*
X156146792Y-107371792D01*
X156163447Y-107358124D01*
X156182443Y-107347971D01*
X156203062Y-107341716D01*
X156230640Y-107339000D01*
X156689360Y-107339000D01*
X156716938Y-107341716D01*
G37*
G36*
X153541938Y-107231716D02*
G01*
X153562557Y-107237971D01*
X153581553Y-107248124D01*
X153598208Y-107261792D01*
X153611876Y-107278447D01*
X153622029Y-107297443D01*
X153628284Y-107318062D01*
X153631000Y-107345640D01*
X153631000Y-107854360D01*
X153628284Y-107881938D01*
X153622029Y-107902557D01*
X153611876Y-107921553D01*
X153598208Y-107938208D01*
X153581553Y-107951876D01*
X153562557Y-107962029D01*
X153541938Y-107968284D01*
X153514360Y-107971000D01*
X153055640Y-107971000D01*
X153028062Y-107968284D01*
X153007443Y-107962029D01*
X152988447Y-107951876D01*
X152971792Y-107938208D01*
X152958124Y-107921553D01*
X152947971Y-107902557D01*
X152941716Y-107881938D01*
X152939000Y-107854360D01*
X152939000Y-107345640D01*
X152941716Y-107318062D01*
X152947971Y-107297443D01*
X152958124Y-107278447D01*
X152971792Y-107261792D01*
X152988447Y-107248124D01*
X153007443Y-107237971D01*
X153028062Y-107231716D01*
X153055640Y-107229000D01*
X153514360Y-107229000D01*
X153541938Y-107231716D01*
G37*
G36*
X152571938Y-107231716D02*
G01*
X152592557Y-107237971D01*
X152611553Y-107248124D01*
X152628208Y-107261792D01*
X152641876Y-107278447D01*
X152652029Y-107297443D01*
X152658284Y-107318062D01*
X152661000Y-107345640D01*
X152661000Y-107854360D01*
X152658284Y-107881938D01*
X152652029Y-107902557D01*
X152641876Y-107921553D01*
X152628208Y-107938208D01*
X152611553Y-107951876D01*
X152592557Y-107962029D01*
X152571938Y-107968284D01*
X152544360Y-107971000D01*
X152085640Y-107971000D01*
X152058062Y-107968284D01*
X152037443Y-107962029D01*
X152018447Y-107951876D01*
X152001792Y-107938208D01*
X151988124Y-107921553D01*
X151977971Y-107902557D01*
X151971716Y-107881938D01*
X151969000Y-107854360D01*
X151969000Y-107345640D01*
X151971716Y-107318062D01*
X151977971Y-107297443D01*
X151988124Y-107278447D01*
X152001792Y-107261792D01*
X152018447Y-107248124D01*
X152037443Y-107237971D01*
X152058062Y-107231716D01*
X152085640Y-107229000D01*
X152544360Y-107229000D01*
X152571938Y-107231716D01*
G37*
G36*
X148381938Y-107181716D02*
G01*
X148402557Y-107187971D01*
X148421553Y-107198124D01*
X148438208Y-107211792D01*
X148451876Y-107228447D01*
X148462029Y-107247443D01*
X148468284Y-107268062D01*
X148471000Y-107295640D01*
X148471000Y-107754360D01*
X148468284Y-107781938D01*
X148462029Y-107802557D01*
X148451876Y-107821553D01*
X148438208Y-107838208D01*
X148421553Y-107851876D01*
X148402557Y-107862029D01*
X148381938Y-107868284D01*
X148354360Y-107871000D01*
X147845640Y-107871000D01*
X147818062Y-107868284D01*
X147797443Y-107862029D01*
X147778447Y-107851876D01*
X147761792Y-107838208D01*
X147748124Y-107821553D01*
X147737971Y-107802557D01*
X147731716Y-107781938D01*
X147729000Y-107754360D01*
X147729000Y-107295640D01*
X147731716Y-107268062D01*
X147737971Y-107247443D01*
X147748124Y-107228447D01*
X147761792Y-107211792D01*
X147778447Y-107198124D01*
X147797443Y-107187971D01*
X147818062Y-107181716D01*
X147845640Y-107179000D01*
X148354360Y-107179000D01*
X148381938Y-107181716D01*
G37*
G36*
X152571938Y-106031716D02*
G01*
X152592557Y-106037971D01*
X152611553Y-106048124D01*
X152628208Y-106061792D01*
X152641876Y-106078447D01*
X152652029Y-106097443D01*
X152658284Y-106118062D01*
X152661000Y-106145640D01*
X152661000Y-106654360D01*
X152658284Y-106681938D01*
X152652029Y-106702557D01*
X152641876Y-106721553D01*
X152628208Y-106738208D01*
X152611553Y-106751876D01*
X152592557Y-106762029D01*
X152571938Y-106768284D01*
X152544360Y-106771000D01*
X152085640Y-106771000D01*
X152058062Y-106768284D01*
X152037443Y-106762029D01*
X152018447Y-106751876D01*
X152001792Y-106738208D01*
X151988124Y-106721553D01*
X151977971Y-106702557D01*
X151971716Y-106681938D01*
X151969000Y-106654360D01*
X151969000Y-106145640D01*
X151971716Y-106118062D01*
X151977971Y-106097443D01*
X151988124Y-106078447D01*
X152001792Y-106061792D01*
X152018447Y-106048124D01*
X152037443Y-106037971D01*
X152058062Y-106031716D01*
X152085640Y-106029000D01*
X152544360Y-106029000D01*
X152571938Y-106031716D01*
G37*
G36*
X153541938Y-106031716D02*
G01*
X153562557Y-106037971D01*
X153581553Y-106048124D01*
X153598208Y-106061792D01*
X153611876Y-106078447D01*
X153622029Y-106097443D01*
X153628284Y-106118062D01*
X153631000Y-106145640D01*
X153631000Y-106654360D01*
X153628284Y-106681938D01*
X153622029Y-106702557D01*
X153611876Y-106721553D01*
X153598208Y-106738208D01*
X153581553Y-106751876D01*
X153562557Y-106762029D01*
X153541938Y-106768284D01*
X153514360Y-106771000D01*
X153055640Y-106771000D01*
X153028062Y-106768284D01*
X153007443Y-106762029D01*
X152988447Y-106751876D01*
X152971792Y-106738208D01*
X152958124Y-106721553D01*
X152947971Y-106702557D01*
X152941716Y-106681938D01*
X152939000Y-106654360D01*
X152939000Y-106145640D01*
X152941716Y-106118062D01*
X152947971Y-106097443D01*
X152958124Y-106078447D01*
X152971792Y-106061792D01*
X152988447Y-106048124D01*
X153007443Y-106037971D01*
X153028062Y-106031716D01*
X153055640Y-106029000D01*
X153514360Y-106029000D01*
X153541938Y-106031716D01*
G37*
G36*
X146276938Y-105606716D02*
G01*
X146297557Y-105612971D01*
X146316553Y-105623124D01*
X146333208Y-105636792D01*
X146346876Y-105653447D01*
X146357029Y-105672443D01*
X146363284Y-105693062D01*
X146366000Y-105720640D01*
X146366000Y-106179360D01*
X146363284Y-106206938D01*
X146357029Y-106227557D01*
X146346876Y-106246553D01*
X146333208Y-106263208D01*
X146316553Y-106276876D01*
X146297557Y-106287029D01*
X146276938Y-106293284D01*
X146249360Y-106296000D01*
X145740640Y-106296000D01*
X145713062Y-106293284D01*
X145692443Y-106287029D01*
X145673447Y-106276876D01*
X145656792Y-106263208D01*
X145643124Y-106246553D01*
X145632971Y-106227557D01*
X145626716Y-106206938D01*
X145624000Y-106179360D01*
X145624000Y-105720640D01*
X145626716Y-105693062D01*
X145632971Y-105672443D01*
X145643124Y-105653447D01*
X145656792Y-105636792D01*
X145673447Y-105623124D01*
X145692443Y-105612971D01*
X145713062Y-105606716D01*
X145740640Y-105604000D01*
X146249360Y-105604000D01*
X146276938Y-105606716D01*
G37*
G36*
X145276938Y-105606716D02*
G01*
X145297557Y-105612971D01*
X145316553Y-105623124D01*
X145333208Y-105636792D01*
X145346876Y-105653447D01*
X145357029Y-105672443D01*
X145363284Y-105693062D01*
X145366000Y-105720640D01*
X145366000Y-106179360D01*
X145363284Y-106206938D01*
X145357029Y-106227557D01*
X145346876Y-106246553D01*
X145333208Y-106263208D01*
X145316553Y-106276876D01*
X145297557Y-106287029D01*
X145276938Y-106293284D01*
X145249360Y-106296000D01*
X144740640Y-106296000D01*
X144713062Y-106293284D01*
X144692443Y-106287029D01*
X144673447Y-106276876D01*
X144656792Y-106263208D01*
X144643124Y-106246553D01*
X144632971Y-106227557D01*
X144626716Y-106206938D01*
X144624000Y-106179360D01*
X144624000Y-105720640D01*
X144626716Y-105693062D01*
X144632971Y-105672443D01*
X144643124Y-105653447D01*
X144656792Y-105636792D01*
X144673447Y-105623124D01*
X144692443Y-105612971D01*
X144713062Y-105606716D01*
X144740640Y-105604000D01*
X145249360Y-105604000D01*
X145276938Y-105606716D01*
G37*
G36*
X146276938Y-104636716D02*
G01*
X146297557Y-104642971D01*
X146316553Y-104653124D01*
X146333208Y-104666792D01*
X146346876Y-104683447D01*
X146357029Y-104702443D01*
X146363284Y-104723062D01*
X146366000Y-104750640D01*
X146366000Y-105209360D01*
X146363284Y-105236938D01*
X146357029Y-105257557D01*
X146346876Y-105276553D01*
X146333208Y-105293208D01*
X146316553Y-105306876D01*
X146297557Y-105317029D01*
X146276938Y-105323284D01*
X146249360Y-105326000D01*
X145740640Y-105326000D01*
X145713062Y-105323284D01*
X145692443Y-105317029D01*
X145673447Y-105306876D01*
X145656792Y-105293208D01*
X145643124Y-105276553D01*
X145632971Y-105257557D01*
X145626716Y-105236938D01*
X145624000Y-105209360D01*
X145624000Y-104750640D01*
X145626716Y-104723062D01*
X145632971Y-104702443D01*
X145643124Y-104683447D01*
X145656792Y-104666792D01*
X145673447Y-104653124D01*
X145692443Y-104642971D01*
X145713062Y-104636716D01*
X145740640Y-104634000D01*
X146249360Y-104634000D01*
X146276938Y-104636716D01*
G37*
G36*
X145276938Y-104636716D02*
G01*
X145297557Y-104642971D01*
X145316553Y-104653124D01*
X145333208Y-104666792D01*
X145346876Y-104683447D01*
X145357029Y-104702443D01*
X145363284Y-104723062D01*
X145366000Y-104750640D01*
X145366000Y-105209360D01*
X145363284Y-105236938D01*
X145357029Y-105257557D01*
X145346876Y-105276553D01*
X145333208Y-105293208D01*
X145316553Y-105306876D01*
X145297557Y-105317029D01*
X145276938Y-105323284D01*
X145249360Y-105326000D01*
X144740640Y-105326000D01*
X144713062Y-105323284D01*
X144692443Y-105317029D01*
X144673447Y-105306876D01*
X144656792Y-105293208D01*
X144643124Y-105276553D01*
X144632971Y-105257557D01*
X144626716Y-105236938D01*
X144624000Y-105209360D01*
X144624000Y-104750640D01*
X144626716Y-104723062D01*
X144632971Y-104702443D01*
X144643124Y-104683447D01*
X144656792Y-104666792D01*
X144673447Y-104653124D01*
X144692443Y-104642971D01*
X144713062Y-104636716D01*
X144740640Y-104634000D01*
X145249360Y-104634000D01*
X145276938Y-104636716D01*
G37*
M02*
