G04 #@! TF.GenerationSoftware,KiCad,Pcbnew,5.1.5+dfsg1-2~bpo10+1*
G04 #@! TF.CreationDate,2020-03-09T15:40:36+01:00*
G04 #@! TF.ProjectId,SDI-bridge,5344492d-6272-4696-9467-652e6b696361,rev?*
G04 #@! TF.SameCoordinates,Original*
G04 #@! TF.FileFunction,Copper,L4,Inr*
G04 #@! TF.FilePolarity,Positive*
%FSLAX46Y46*%
G04 Gerber Fmt 4.6, Leading zero omitted, Abs format (unit mm)*
G04 Created by KiCad (PCBNEW 5.1.5+dfsg1-2~bpo10+1) date 2020-03-09 15:40:36*
%MOMM*%
%LPD*%
G04 APERTURE LIST*
%ADD10C,1.100000*%
%ADD11C,0.550000*%
%ADD12C,4.400000*%
%ADD13C,0.125000*%
%ADD14C,0.150000*%
G04 APERTURE END LIST*
D10*
X154000000Y-131400000D03*
X152730000Y-131400000D03*
X151460000Y-131400000D03*
X150190000Y-131400000D03*
X144500000Y-131400000D03*
X143230000Y-131400000D03*
X141960000Y-131400000D03*
X140690000Y-131400000D03*
D11*
X147195000Y-115077500D03*
X143945000Y-115077500D03*
X120000000Y-116400000D03*
X119000000Y-117400000D03*
X120000000Y-117400000D03*
D12*
X159000000Y-103000000D03*
X159000000Y-130000000D03*
D11*
X163720000Y-123450000D03*
X163700000Y-121960000D03*
X144370000Y-111629444D03*
X150995000Y-106465000D03*
X138245000Y-129715000D03*
X138245000Y-131715000D03*
X139995000Y-129715000D03*
X140825000Y-127885000D03*
X146115000Y-127855000D03*
X112545000Y-128295000D03*
X112545000Y-127305000D03*
X127400000Y-110400000D03*
X126300000Y-113400000D03*
X124300000Y-109400000D03*
X126500000Y-109400000D03*
X125400000Y-109400000D03*
X163700000Y-124940006D03*
X116430000Y-129920000D03*
X125890000Y-129930000D03*
X123500000Y-122650000D03*
X146438676Y-108522410D03*
X143900000Y-129020000D03*
X142220000Y-129020000D03*
X147990000Y-131470000D03*
X138940000Y-131700000D03*
X122005000Y-108405000D03*
X149885000Y-120015000D03*
X135265000Y-128445000D03*
X149775000Y-110785000D03*
X147825000Y-120275000D03*
X148515000Y-120565000D03*
X139925000Y-111575000D03*
X146250000Y-128750000D03*
X163810000Y-120450000D03*
X165210000Y-115970000D03*
X165210000Y-114210000D03*
X137020000Y-117150000D03*
X132220000Y-122550000D03*
X119974991Y-113400000D03*
X119974991Y-114400000D03*
X143070000Y-128854979D03*
X126649998Y-117400000D03*
X146382500Y-114265000D03*
X146382500Y-117515000D03*
X122000000Y-116400000D03*
X122000000Y-117400000D03*
X145200000Y-125950000D03*
X150400000Y-128600000D03*
X149500000Y-127900000D03*
X149905000Y-119095000D03*
X143985000Y-126155000D03*
X135825000Y-119210000D03*
X147170000Y-108420000D03*
X140035000Y-110195000D03*
X149200000Y-129084990D03*
X121989991Y-113394980D03*
X121989991Y-114400000D03*
X111100000Y-119600000D03*
D12*
X109000000Y-103000000D03*
X109000000Y-130000000D03*
D11*
X118000000Y-113400000D03*
X119000000Y-113400000D03*
X118000000Y-114400000D03*
X119000000Y-114400000D03*
X115500000Y-116400000D03*
X117505000Y-105065000D03*
X119505000Y-104365000D03*
X116505000Y-105065000D03*
X129495000Y-104315000D03*
X131495000Y-104325000D03*
X140785000Y-125905000D03*
X140775000Y-126895000D03*
X146495000Y-124145000D03*
X147495000Y-124145000D03*
X146100000Y-126400000D03*
X115300000Y-124300000D03*
X115300000Y-125100000D03*
X108500000Y-119500000D03*
X111300000Y-117400000D03*
X111300000Y-116700000D03*
X114100000Y-117400000D03*
X114100000Y-114900000D03*
X108100000Y-115900000D03*
X115500000Y-118900000D03*
X115400000Y-114400000D03*
X115400000Y-113400000D03*
X115400000Y-112400000D03*
X115400000Y-110400000D03*
X117000000Y-108900000D03*
X119000000Y-108900000D03*
X102390000Y-107000000D03*
X102320000Y-126000000D03*
X106020000Y-124890000D03*
X110330000Y-124849990D03*
X111900000Y-119600000D03*
X111100000Y-120400000D03*
X111900000Y-120400000D03*
X111100000Y-121200000D03*
X111900000Y-121200000D03*
X115700000Y-120200000D03*
X115834184Y-117357909D03*
X134715000Y-125845000D03*
X142775000Y-125670010D03*
X119000000Y-116410010D03*
X118000000Y-116410010D03*
X118000000Y-112400000D03*
X119000000Y-112400000D03*
X115500000Y-111400000D03*
X150100000Y-126390000D03*
X150100002Y-125600000D03*
X150120000Y-124760000D03*
X138100000Y-125900000D03*
X138100000Y-126900000D03*
X111500000Y-111900000D03*
X115500000Y-115250000D03*
X118500000Y-105100000D03*
X115000000Y-117650000D03*
X136965000Y-125815000D03*
X131165000Y-131275000D03*
X132475000Y-128425000D03*
X138095000Y-128905000D03*
X142100000Y-126020000D03*
X115980000Y-128280000D03*
X115970000Y-129300000D03*
X115200000Y-128285000D03*
X115200000Y-129300000D03*
X161260000Y-105950000D03*
X163790000Y-105450000D03*
X141250002Y-128950000D03*
X137245000Y-128815000D03*
X136485000Y-128605000D03*
X150570000Y-108520000D03*
X147195000Y-115890000D03*
X149885000Y-108485000D03*
X132500000Y-115400000D03*
X139954998Y-117015000D03*
X132500000Y-114400000D03*
X139944648Y-116118980D03*
X132500000Y-113400000D03*
X139935000Y-114825000D03*
X140820459Y-114392683D03*
X132500000Y-112400000D03*
X132500000Y-111400000D03*
X141109293Y-113458443D03*
X126205000Y-106205000D03*
X146940000Y-110803147D03*
X123500000Y-105900000D03*
X145445000Y-111005000D03*
X123500000Y-107400000D03*
X144735718Y-110973427D03*
X123000000Y-118400000D03*
X140494994Y-121610000D03*
X123000000Y-117400000D03*
X141370000Y-121570000D03*
X124000000Y-117400000D03*
X142245000Y-121465000D03*
X120000000Y-108900000D03*
X144815000Y-120515000D03*
X120245000Y-103400000D03*
X140950000Y-120170010D03*
X121000000Y-108900000D03*
X128500000Y-109900000D03*
X123250000Y-103400000D03*
X120000000Y-112400000D03*
X143405000Y-125195000D03*
X118750000Y-103400000D03*
X145500000Y-120660000D03*
X122000000Y-112400000D03*
X121750000Y-103400000D03*
X146940000Y-121190000D03*
X120000000Y-118400000D03*
X144495000Y-121610000D03*
X118000000Y-117400000D03*
X145360000Y-121620000D03*
X119500000Y-121400000D03*
X119900000Y-125400000D03*
X139080000Y-119400000D03*
X119000000Y-120900000D03*
X143495000Y-120625000D03*
X119855000Y-126200000D03*
X119000000Y-118400000D03*
X123500000Y-121900000D03*
X124000000Y-121400000D03*
X124500004Y-120900000D03*
X126250000Y-120400000D03*
X128620000Y-119680000D03*
X128125000Y-118670000D03*
X128250000Y-117900000D03*
X127505000Y-117950000D03*
X127175000Y-115745000D03*
X126500000Y-115400006D03*
X126180000Y-114390000D03*
X129765022Y-119915992D03*
X124000000Y-112400000D03*
X129840004Y-118090000D03*
X124003705Y-118396295D03*
X127875000Y-116220000D03*
X147710000Y-110790000D03*
X124000000Y-116400000D03*
X130495000Y-128365000D03*
X124000000Y-114400000D03*
X131245000Y-127065000D03*
X124000000Y-113400000D03*
X147410000Y-121740000D03*
X123000000Y-116400000D03*
X133795000Y-125965000D03*
X123000000Y-114400000D03*
X128245000Y-123215000D03*
X123000000Y-113400000D03*
X143075000Y-119685000D03*
X123000000Y-112400000D03*
X148145000Y-121740000D03*
X117000000Y-121900000D03*
X117900000Y-126100000D03*
X139980000Y-119280000D03*
X141115000Y-112595000D03*
X127595000Y-116850000D03*
X117974991Y-118400000D03*
X146495000Y-121740000D03*
X117502882Y-120897118D03*
X112140000Y-117660000D03*
X108100000Y-116700000D03*
X105100000Y-124900000D03*
X104900000Y-118800000D03*
X104900000Y-117000000D03*
X106399994Y-116700000D03*
X107300000Y-116700000D03*
X108100000Y-124800000D03*
X108099998Y-125600000D03*
X108100000Y-126400000D03*
X108100000Y-127200000D03*
X147195000Y-116702500D03*
X149065000Y-108375000D03*
X143945000Y-117515000D03*
X142374390Y-108326615D03*
X117900000Y-125400000D03*
X139250000Y-117440000D03*
X141730000Y-129560000D03*
X155365000Y-106425000D03*
X155365000Y-111185000D03*
X143015000Y-110735000D03*
X154495000Y-107425000D03*
X143145000Y-111605000D03*
X155280000Y-113670000D03*
X143187118Y-129804999D03*
X154415000Y-109355000D03*
X128895000Y-125670010D03*
X151600883Y-129530883D03*
X152730000Y-130080004D03*
X129875000Y-126235000D03*
X154730000Y-112960000D03*
X164310000Y-114837500D03*
X164310000Y-115562500D03*
X166390000Y-116337500D03*
X166390000Y-117062500D03*
X164840000Y-117337500D03*
X164840000Y-118062500D03*
X164060000Y-118337500D03*
X164060000Y-119062500D03*
X164810000Y-119337500D03*
X164810000Y-120062500D03*
X114090000Y-119010000D03*
X152565000Y-118566250D03*
X151025000Y-118131250D03*
X152565000Y-117853750D03*
X151025000Y-117418750D03*
X150305000Y-117058750D03*
X153188750Y-119405000D03*
X150305000Y-116346250D03*
X153901250Y-119405000D03*
X150996907Y-121376907D03*
X155730008Y-122566250D03*
X150493093Y-120873093D03*
X155730008Y-121853750D03*
X153168750Y-121495000D03*
X153443093Y-116496907D03*
X153881250Y-121495000D03*
X153946907Y-115993093D03*
X152605000Y-126566250D03*
X150181250Y-123705000D03*
X152605000Y-125853750D03*
X149468750Y-123705000D03*
X155665000Y-108566250D03*
X150476907Y-114036907D03*
X155665000Y-107853750D03*
X149973093Y-113533093D03*
X155655000Y-110566250D03*
X152181250Y-111085000D03*
X155655000Y-109853750D03*
X151468750Y-111085000D03*
X155695000Y-112566250D03*
X152976907Y-113976907D03*
X155695000Y-111853750D03*
X152473093Y-113473093D03*
X151265000Y-112656250D03*
X153135000Y-112661250D03*
X151265000Y-111943750D03*
X153135000Y-111948750D03*
X153216907Y-115166907D03*
X155730008Y-116566250D03*
X152713093Y-114663093D03*
X155730008Y-115853750D03*
X145500000Y-128470000D03*
X108450000Y-121850000D03*
X108400000Y-120350000D03*
X101900000Y-119600000D03*
X141635000Y-109805000D03*
X122000000Y-118400000D03*
X118000000Y-108900000D03*
X122500000Y-109400000D03*
X126900000Y-114200000D03*
X146000000Y-124700000D03*
X143800000Y-124600000D03*
X144500000Y-124200000D03*
X113250000Y-117700000D03*
X113500000Y-130250000D03*
X116000000Y-124250000D03*
X145205000Y-124965000D03*
X126895000Y-116710000D03*
X125720000Y-123260000D03*
X135730000Y-123250000D03*
X149750000Y-111500000D03*
X148345000Y-111075000D03*
X149145000Y-121255000D03*
X137755000Y-108845000D03*
X119500000Y-109400000D03*
X143945000Y-114265000D03*
X144757500Y-114265000D03*
X144757500Y-117515000D03*
X143945000Y-116702500D03*
X145570000Y-114265000D03*
X141385000Y-110945000D03*
X141075000Y-110345000D03*
X132590000Y-125700000D03*
X112500000Y-123300000D03*
X146137273Y-110970868D03*
X130500000Y-106680010D03*
X132500000Y-109900000D03*
X139055000Y-109035000D03*
X147195000Y-114265000D03*
X145570000Y-117515000D03*
X147195000Y-117515000D03*
X143945000Y-115890000D03*
D13*
X139129999Y-116190001D02*
X139954998Y-117015000D01*
X139129999Y-114749999D02*
X139129999Y-116190001D01*
X138290000Y-113910000D02*
X139129999Y-114749999D01*
X133980000Y-113910000D02*
X138290000Y-113910000D01*
X132500000Y-115390000D02*
X133980000Y-113910000D01*
X132500000Y-115400000D02*
X132500000Y-115390000D01*
X138393557Y-113659989D02*
X139380010Y-114646442D01*
X139669649Y-115843981D02*
X139944648Y-116118980D01*
X132500000Y-114400000D02*
X133240011Y-113659989D01*
X139380010Y-115554342D02*
X139669649Y-115843981D01*
X139380010Y-114646442D02*
X139380010Y-115554342D01*
X133240011Y-113659989D02*
X138393557Y-113659989D01*
X132888930Y-113400022D02*
X138510022Y-113400022D01*
X139660001Y-114550001D02*
X139935000Y-114825000D01*
X132888908Y-113400000D02*
X132888930Y-113400022D01*
X138510022Y-113400022D02*
X139660001Y-114550001D01*
X132500000Y-113400000D02*
X132888908Y-113400000D01*
X140545460Y-114117684D02*
X140820459Y-114392683D01*
X133260011Y-113150011D02*
X138630011Y-113150011D01*
X132510000Y-112400000D02*
X133260011Y-113150011D01*
X139597684Y-114117684D02*
X140545460Y-114117684D01*
X138630011Y-113150011D02*
X139597684Y-114117684D01*
X132500000Y-112400000D02*
X132510000Y-112400000D01*
X132510000Y-111400000D02*
X134010000Y-112900000D01*
X132500000Y-111400000D02*
X132510000Y-111400000D01*
X138800000Y-112900000D02*
X139740000Y-113840000D01*
X140727736Y-113840000D02*
X141109293Y-113458443D01*
X134010000Y-112900000D02*
X138800000Y-112900000D01*
X139740000Y-113840000D02*
X140727736Y-113840000D01*
X139080000Y-119400000D02*
X137026432Y-119400000D01*
X131806443Y-124619989D02*
X120680011Y-124619989D01*
X120174999Y-125125001D02*
X119900000Y-125400000D01*
X137026432Y-119400000D02*
X131806443Y-124619989D01*
X120680011Y-124619989D02*
X120174999Y-125125001D01*
X121185000Y-124870000D02*
X119855000Y-126200000D01*
X131910000Y-124870000D02*
X121185000Y-124870000D01*
X136090000Y-120690000D02*
X131910000Y-124870000D01*
X143430000Y-120690000D02*
X136090000Y-120690000D01*
X143495000Y-120625000D02*
X143430000Y-120690000D01*
X126180000Y-116220000D02*
X124003705Y-118396295D01*
X127875000Y-116220000D02*
X126180000Y-116220000D01*
X119630022Y-124369978D02*
X118174999Y-125825001D01*
X118174999Y-125825001D02*
X117900000Y-126100000D01*
X131702886Y-124369978D02*
X119630022Y-124369978D01*
X137152864Y-118920000D02*
X131702886Y-124369978D01*
X139620000Y-118920000D02*
X137152864Y-118920000D01*
X139980000Y-119280000D02*
X139620000Y-118920000D01*
X118249990Y-118674999D02*
X117974991Y-118400000D01*
X118714991Y-119140000D02*
X118249990Y-118674999D01*
X127595000Y-116850000D02*
X127320001Y-117124999D01*
X125630000Y-119140000D02*
X118714991Y-119140000D01*
X127320001Y-117449999D02*
X125630000Y-119140000D01*
X127320001Y-117124999D02*
X127320001Y-117449999D01*
X117900000Y-125400000D02*
X119180033Y-124119967D01*
X119180033Y-124119967D02*
X131580033Y-124119967D01*
X138861092Y-117440000D02*
X139250000Y-117440000D01*
X131580033Y-124119967D02*
X138260000Y-117440000D01*
X138260000Y-117440000D02*
X138861092Y-117440000D01*
D14*
X149860000Y-109960000D02*
X153395000Y-106425000D01*
X153395000Y-106425000D02*
X155365000Y-106425000D01*
X143015000Y-110735000D02*
X143790000Y-109960000D01*
X143790000Y-109960000D02*
X149860000Y-109960000D01*
X149970000Y-110270000D02*
X152815000Y-107425000D01*
X144500000Y-110270000D02*
X149970000Y-110270000D01*
X152815000Y-107425000D02*
X154495000Y-107425000D01*
X143145000Y-111605000D02*
X143165000Y-111605000D01*
X143165000Y-111605000D02*
X144500000Y-110270000D01*
X152396250Y-118397500D02*
X152072334Y-118397500D01*
X152565000Y-118566250D02*
X152396250Y-118397500D01*
X152072334Y-118397500D02*
X151637334Y-117962500D01*
X151193750Y-117962500D02*
X151025000Y-118131250D01*
X151637334Y-117962500D02*
X151193750Y-117962500D01*
X152565000Y-117853750D02*
X152396250Y-118022500D01*
X152396250Y-118022500D02*
X152227666Y-118022500D01*
X151193750Y-117587500D02*
X151025000Y-117418750D01*
X152227666Y-118022500D02*
X151792666Y-117587500D01*
X151792666Y-117587500D02*
X151193750Y-117587500D01*
X153357500Y-119236250D02*
X153188750Y-119405000D01*
X152634834Y-116890000D02*
X153357500Y-117612666D01*
X150473750Y-116890000D02*
X152634834Y-116890000D01*
X150305000Y-117058750D02*
X150473750Y-116890000D01*
X153357500Y-117612666D02*
X153357500Y-119236250D01*
X153732500Y-119236250D02*
X153901250Y-119405000D01*
X153732500Y-117457334D02*
X153732500Y-119236250D01*
X150473750Y-116515000D02*
X152790166Y-116515000D01*
X152790166Y-116515000D02*
X153732500Y-117457334D01*
X150305000Y-116346250D02*
X150473750Y-116515000D01*
X152186250Y-122566250D02*
X155730008Y-122566250D01*
X150996907Y-121376907D02*
X152186250Y-122566250D01*
X150493093Y-120873093D02*
X151778259Y-120873093D01*
X153033915Y-122128749D02*
X155455009Y-122128749D01*
X155455009Y-122128749D02*
X155730008Y-121853750D01*
X151778259Y-120873093D02*
X153033915Y-122128749D01*
X153337500Y-120807334D02*
X153337500Y-121326250D01*
X154677500Y-119467334D02*
X153337500Y-120807334D01*
X153337500Y-121326250D02*
X153168750Y-121495000D01*
X154677500Y-117492666D02*
X153681741Y-116496907D01*
X154677500Y-119467334D02*
X154677500Y-117492666D01*
X153681741Y-116496907D02*
X153443093Y-116496907D01*
X153712500Y-121326250D02*
X153881250Y-121495000D01*
X155052500Y-119622666D02*
X153712500Y-120962666D01*
X153712500Y-120962666D02*
X153712500Y-121326250D01*
X153946907Y-116231741D02*
X153946907Y-115993093D01*
X155052500Y-119622666D02*
X155052500Y-117337334D01*
X155052500Y-117337334D02*
X153946907Y-116231741D01*
X150012500Y-122472666D02*
X150142666Y-122342500D01*
X150142666Y-122342500D02*
X150947334Y-122342500D01*
X150947334Y-122342500D02*
X151047500Y-122442666D01*
X151047500Y-122442666D02*
X151047500Y-125912666D01*
X151047500Y-125912666D02*
X151532334Y-126397500D01*
X152436250Y-126397500D02*
X152605000Y-126566250D01*
X151532334Y-126397500D02*
X152436250Y-126397500D01*
X150012500Y-122472666D02*
X150012500Y-123536250D01*
X150012500Y-123536250D02*
X150181250Y-123705000D01*
X149637500Y-122317334D02*
X149987334Y-121967500D01*
X149987334Y-121967500D02*
X151102666Y-121967500D01*
X151102666Y-121967500D02*
X151422500Y-122287334D01*
X151422500Y-122287334D02*
X151422500Y-125757334D01*
X151422500Y-125757334D02*
X151687666Y-126022500D01*
X151687666Y-126022500D02*
X152436250Y-126022500D01*
X152436250Y-126022500D02*
X152605000Y-125853750D01*
X149637500Y-122317334D02*
X149637500Y-123536250D01*
X149637500Y-123536250D02*
X149468750Y-123705000D01*
X153067666Y-108397500D02*
X150662500Y-110802666D01*
X155496250Y-108397500D02*
X153067666Y-108397500D01*
X155665000Y-108566250D02*
X155496250Y-108397500D01*
X150662500Y-113612666D02*
X150476907Y-113798259D01*
X150662500Y-110802666D02*
X150662500Y-113612666D01*
X150476907Y-113798259D02*
X150476907Y-114036907D01*
X152912334Y-108022500D02*
X150287500Y-110647334D01*
X155496250Y-108022500D02*
X152912334Y-108022500D01*
X155665000Y-107853750D02*
X155496250Y-108022500D01*
X150211741Y-113533093D02*
X149973093Y-113533093D01*
X150287500Y-110647334D02*
X150287500Y-113457334D01*
X150287500Y-113457334D02*
X150211741Y-113533093D01*
X152012500Y-110916250D02*
X152181250Y-111085000D01*
X152012500Y-110632666D02*
X152012500Y-110916250D01*
X152247666Y-110397500D02*
X152012500Y-110632666D01*
X155486250Y-110397500D02*
X152247666Y-110397500D01*
X155655000Y-110566250D02*
X155486250Y-110397500D01*
X151637500Y-110477334D02*
X151637500Y-110916250D01*
X151637500Y-110916250D02*
X151468750Y-111085000D01*
X155655000Y-109853750D02*
X155486250Y-110022500D01*
X155486250Y-110022500D02*
X152092334Y-110022500D01*
X152092334Y-110022500D02*
X151637500Y-110477334D01*
X153105721Y-113848093D02*
X152976907Y-113976907D01*
X153657073Y-113848093D02*
X153105721Y-113848093D01*
X154142500Y-112682666D02*
X154142500Y-113362666D01*
X154427666Y-112397500D02*
X154142500Y-112682666D01*
X154142500Y-113362666D02*
X153657073Y-113848093D01*
X155526250Y-112397500D02*
X154427666Y-112397500D01*
X155695000Y-112566250D02*
X155526250Y-112397500D01*
X153105721Y-113473093D02*
X152473093Y-113473093D01*
X153501741Y-113473093D02*
X153105721Y-113473093D01*
X153767500Y-113207334D02*
X153501741Y-113473093D01*
X155695000Y-111853750D02*
X155526250Y-112022500D01*
X155526250Y-112022500D02*
X154272334Y-112022500D01*
X153767500Y-112527334D02*
X153767500Y-113207334D01*
X154272334Y-112022500D02*
X153767500Y-112527334D01*
X151433750Y-112487500D02*
X151265000Y-112656250D01*
X153135000Y-112661250D02*
X152961250Y-112487500D01*
X152961250Y-112487500D02*
X151433750Y-112487500D01*
X151433750Y-112112500D02*
X151265000Y-111943750D01*
X153135000Y-111948750D02*
X152971250Y-112112500D01*
X152971250Y-112112500D02*
X151433750Y-112112500D01*
X154330665Y-115166907D02*
X155730008Y-116566250D01*
X153216907Y-115166907D02*
X154330665Y-115166907D01*
X154539351Y-114663093D02*
X155730008Y-115853750D01*
X152713093Y-114663093D02*
X154539351Y-114663093D01*
M02*
