G04 #@! TF.GenerationSoftware,KiCad,Pcbnew,5.1.5+dfsg1-2~bpo10+1*
G04 #@! TF.CreationDate,2020-03-16T13:02:23+01:00*
G04 #@! TF.ProjectId,SDI-bridge,5344492d-6272-4696-9467-652e6b696361,rev?*
G04 #@! TF.SameCoordinates,Original*
G04 #@! TF.FileFunction,Legend,Bot*
G04 #@! TF.FilePolarity,Positive*
%FSLAX46Y46*%
G04 Gerber Fmt 4.6, Leading zero omitted, Abs format (unit mm)*
G04 Created by KiCad (PCBNEW 5.1.5+dfsg1-2~bpo10+1) date 2020-03-16 13:02:23*
%MOMM*%
%LPD*%
G04 APERTURE LIST*
%ADD10C,0.100000*%
%ADD11C,0.120000*%
G04 APERTURE END LIST*
D10*
X150540000Y-116780000D02*
X149950000Y-116780000D01*
X151150000Y-116780000D02*
X150540000Y-116780000D01*
X152000000Y-117630000D02*
X151150000Y-116780000D01*
X152000000Y-117910000D02*
X152000000Y-117630000D01*
X152000000Y-122250000D02*
X152000000Y-117910000D01*
X154140000Y-124390000D02*
X152000000Y-122250000D01*
X156080000Y-124390000D02*
X154140000Y-124390000D01*
D11*
X106400000Y-123650000D02*
X107000000Y-123650000D01*
X106400000Y-123050000D02*
X107000000Y-123050000D01*
X107000000Y-121550000D02*
X106400000Y-121550000D01*
X107000000Y-122150000D02*
X106400000Y-122150000D01*
X107000000Y-118550000D02*
X106400000Y-118550000D01*
X107000000Y-119150000D02*
X106400000Y-119150000D01*
X107000000Y-120050000D02*
X106400000Y-120050000D01*
X107000000Y-120650000D02*
X106400000Y-120650000D01*
X142240000Y-118840000D02*
X142240000Y-118240000D01*
X141640000Y-118840000D02*
X141640000Y-118240000D01*
X147210000Y-110040000D02*
X147810000Y-110040000D01*
X147210000Y-109440000D02*
X147810000Y-109440000D01*
X144390000Y-112690000D02*
X143790000Y-112690000D01*
X144390000Y-113290000D02*
X143790000Y-113290000D01*
X120950000Y-110550000D02*
X120950000Y-111150000D01*
X121550000Y-110550000D02*
X121550000Y-111150000D01*
X143600000Y-127250000D02*
X143600000Y-127850000D01*
X144200000Y-127250000D02*
X144200000Y-127850000D01*
X141800000Y-127250000D02*
X141800000Y-127850000D01*
X142400000Y-127250000D02*
X142400000Y-127850000D01*
X154614285Y-127571904D02*
X154880952Y-127190952D01*
X155071428Y-127571904D02*
X155071428Y-126771904D01*
X154766666Y-126771904D01*
X154690476Y-126810000D01*
X154652380Y-126848095D01*
X154614285Y-126924285D01*
X154614285Y-127038571D01*
X154652380Y-127114761D01*
X154690476Y-127152857D01*
X154766666Y-127190952D01*
X155071428Y-127190952D01*
X154233333Y-127571904D02*
X154080952Y-127571904D01*
X154004761Y-127533809D01*
X153966666Y-127495714D01*
X153890476Y-127381428D01*
X153852380Y-127229047D01*
X153852380Y-126924285D01*
X153890476Y-126848095D01*
X153928571Y-126810000D01*
X154004761Y-126771904D01*
X154157142Y-126771904D01*
X154233333Y-126810000D01*
X154271428Y-126848095D01*
X154309523Y-126924285D01*
X154309523Y-127114761D01*
X154271428Y-127190952D01*
X154233333Y-127229047D01*
X154157142Y-127267142D01*
X154004761Y-127267142D01*
X153928571Y-127229047D01*
X153890476Y-127190952D01*
X153852380Y-127114761D01*
X153090476Y-127571904D02*
X153547619Y-127571904D01*
X153319047Y-127571904D02*
X153319047Y-126771904D01*
X153395238Y-126886190D01*
X153471428Y-126962380D01*
X153547619Y-127000476D01*
X157361904Y-118295714D02*
X156980952Y-118029047D01*
X157361904Y-117838571D02*
X156561904Y-117838571D01*
X156561904Y-118143333D01*
X156600000Y-118219523D01*
X156638095Y-118257619D01*
X156714285Y-118295714D01*
X156828571Y-118295714D01*
X156904761Y-118257619D01*
X156942857Y-118219523D01*
X156980952Y-118143333D01*
X156980952Y-117838571D01*
X157361904Y-118676666D02*
X157361904Y-118829047D01*
X157323809Y-118905238D01*
X157285714Y-118943333D01*
X157171428Y-119019523D01*
X157019047Y-119057619D01*
X156714285Y-119057619D01*
X156638095Y-119019523D01*
X156600000Y-118981428D01*
X156561904Y-118905238D01*
X156561904Y-118752857D01*
X156600000Y-118676666D01*
X156638095Y-118638571D01*
X156714285Y-118600476D01*
X156904761Y-118600476D01*
X156980952Y-118638571D01*
X157019047Y-118676666D01*
X157057142Y-118752857D01*
X157057142Y-118905238D01*
X157019047Y-118981428D01*
X156980952Y-119019523D01*
X156904761Y-119057619D01*
X156561904Y-119552857D02*
X156561904Y-119629047D01*
X156600000Y-119705238D01*
X156638095Y-119743333D01*
X156714285Y-119781428D01*
X156866666Y-119819523D01*
X157057142Y-119819523D01*
X157209523Y-119781428D01*
X157285714Y-119743333D01*
X157323809Y-119705238D01*
X157361904Y-119629047D01*
X157361904Y-119552857D01*
X157323809Y-119476666D01*
X157285714Y-119438571D01*
X157209523Y-119400476D01*
X157057142Y-119362380D01*
X156866666Y-119362380D01*
X156714285Y-119400476D01*
X156638095Y-119438571D01*
X156600000Y-119476666D01*
X156561904Y-119552857D01*
X145264285Y-107331904D02*
X145530952Y-106950952D01*
X145721428Y-107331904D02*
X145721428Y-106531904D01*
X145416666Y-106531904D01*
X145340476Y-106570000D01*
X145302380Y-106608095D01*
X145264285Y-106684285D01*
X145264285Y-106798571D01*
X145302380Y-106874761D01*
X145340476Y-106912857D01*
X145416666Y-106950952D01*
X145721428Y-106950952D01*
X144807142Y-106874761D02*
X144883333Y-106836666D01*
X144921428Y-106798571D01*
X144959523Y-106722380D01*
X144959523Y-106684285D01*
X144921428Y-106608095D01*
X144883333Y-106570000D01*
X144807142Y-106531904D01*
X144654761Y-106531904D01*
X144578571Y-106570000D01*
X144540476Y-106608095D01*
X144502380Y-106684285D01*
X144502380Y-106722380D01*
X144540476Y-106798571D01*
X144578571Y-106836666D01*
X144654761Y-106874761D01*
X144807142Y-106874761D01*
X144883333Y-106912857D01*
X144921428Y-106950952D01*
X144959523Y-107027142D01*
X144959523Y-107179523D01*
X144921428Y-107255714D01*
X144883333Y-107293809D01*
X144807142Y-107331904D01*
X144654761Y-107331904D01*
X144578571Y-107293809D01*
X144540476Y-107255714D01*
X144502380Y-107179523D01*
X144502380Y-107027142D01*
X144540476Y-106950952D01*
X144578571Y-106912857D01*
X144654761Y-106874761D01*
X144121428Y-107331904D02*
X143969047Y-107331904D01*
X143892857Y-107293809D01*
X143854761Y-107255714D01*
X143778571Y-107141428D01*
X143740476Y-106989047D01*
X143740476Y-106684285D01*
X143778571Y-106608095D01*
X143816666Y-106570000D01*
X143892857Y-106531904D01*
X144045238Y-106531904D01*
X144121428Y-106570000D01*
X144159523Y-106608095D01*
X144197619Y-106684285D01*
X144197619Y-106874761D01*
X144159523Y-106950952D01*
X144121428Y-106989047D01*
X144045238Y-107027142D01*
X143892857Y-107027142D01*
X143816666Y-106989047D01*
X143778571Y-106950952D01*
X143740476Y-106874761D01*
X113154285Y-116291904D02*
X113420952Y-115910952D01*
X113611428Y-116291904D02*
X113611428Y-115491904D01*
X113306666Y-115491904D01*
X113230476Y-115530000D01*
X113192380Y-115568095D01*
X113154285Y-115644285D01*
X113154285Y-115758571D01*
X113192380Y-115834761D01*
X113230476Y-115872857D01*
X113306666Y-115910952D01*
X113611428Y-115910952D01*
X112697142Y-115834761D02*
X112773333Y-115796666D01*
X112811428Y-115758571D01*
X112849523Y-115682380D01*
X112849523Y-115644285D01*
X112811428Y-115568095D01*
X112773333Y-115530000D01*
X112697142Y-115491904D01*
X112544761Y-115491904D01*
X112468571Y-115530000D01*
X112430476Y-115568095D01*
X112392380Y-115644285D01*
X112392380Y-115682380D01*
X112430476Y-115758571D01*
X112468571Y-115796666D01*
X112544761Y-115834761D01*
X112697142Y-115834761D01*
X112773333Y-115872857D01*
X112811428Y-115910952D01*
X112849523Y-115987142D01*
X112849523Y-116139523D01*
X112811428Y-116215714D01*
X112773333Y-116253809D01*
X112697142Y-116291904D01*
X112544761Y-116291904D01*
X112468571Y-116253809D01*
X112430476Y-116215714D01*
X112392380Y-116139523D01*
X112392380Y-115987142D01*
X112430476Y-115910952D01*
X112468571Y-115872857D01*
X112544761Y-115834761D01*
X111706666Y-115758571D02*
X111706666Y-116291904D01*
X111897142Y-115453809D02*
X112087619Y-116025238D01*
X111592380Y-116025238D01*
X116884285Y-123661904D02*
X117150952Y-123280952D01*
X117341428Y-123661904D02*
X117341428Y-122861904D01*
X117036666Y-122861904D01*
X116960476Y-122900000D01*
X116922380Y-122938095D01*
X116884285Y-123014285D01*
X116884285Y-123128571D01*
X116922380Y-123204761D01*
X116960476Y-123242857D01*
X117036666Y-123280952D01*
X117341428Y-123280952D01*
X116617619Y-122861904D02*
X116084285Y-122861904D01*
X116427142Y-123661904D01*
X115360476Y-123661904D02*
X115817619Y-123661904D01*
X115589047Y-123661904D02*
X115589047Y-122861904D01*
X115665238Y-122976190D01*
X115741428Y-123052380D01*
X115817619Y-123090476D01*
X110334285Y-126895714D02*
X110372380Y-126933809D01*
X110486666Y-126971904D01*
X110562857Y-126971904D01*
X110677142Y-126933809D01*
X110753333Y-126857619D01*
X110791428Y-126781428D01*
X110829523Y-126629047D01*
X110829523Y-126514761D01*
X110791428Y-126362380D01*
X110753333Y-126286190D01*
X110677142Y-126210000D01*
X110562857Y-126171904D01*
X110486666Y-126171904D01*
X110372380Y-126210000D01*
X110334285Y-126248095D01*
X109648571Y-126171904D02*
X109800952Y-126171904D01*
X109877142Y-126210000D01*
X109915238Y-126248095D01*
X109991428Y-126362380D01*
X110029523Y-126514761D01*
X110029523Y-126819523D01*
X109991428Y-126895714D01*
X109953333Y-126933809D01*
X109877142Y-126971904D01*
X109724761Y-126971904D01*
X109648571Y-126933809D01*
X109610476Y-126895714D01*
X109572380Y-126819523D01*
X109572380Y-126629047D01*
X109610476Y-126552857D01*
X109648571Y-126514761D01*
X109724761Y-126476666D01*
X109877142Y-126476666D01*
X109953333Y-126514761D01*
X109991428Y-126552857D01*
X110029523Y-126629047D01*
X108848571Y-126171904D02*
X109229523Y-126171904D01*
X109267619Y-126552857D01*
X109229523Y-126514761D01*
X109153333Y-126476666D01*
X108962857Y-126476666D01*
X108886666Y-126514761D01*
X108848571Y-126552857D01*
X108810476Y-126629047D01*
X108810476Y-126819523D01*
X108848571Y-126895714D01*
X108886666Y-126933809D01*
X108962857Y-126971904D01*
X109153333Y-126971904D01*
X109229523Y-126933809D01*
X109267619Y-126895714D01*
X146336904Y-102800714D02*
X145955952Y-102534047D01*
X146336904Y-102343571D02*
X145536904Y-102343571D01*
X145536904Y-102648333D01*
X145575000Y-102724523D01*
X145613095Y-102762619D01*
X145689285Y-102800714D01*
X145803571Y-102800714D01*
X145879761Y-102762619D01*
X145917857Y-102724523D01*
X145955952Y-102648333D01*
X145955952Y-102343571D01*
X145536904Y-103067380D02*
X145536904Y-103600714D01*
X146336904Y-103257857D01*
X145536904Y-104057857D02*
X145536904Y-104134047D01*
X145575000Y-104210238D01*
X145613095Y-104248333D01*
X145689285Y-104286428D01*
X145841666Y-104324523D01*
X146032142Y-104324523D01*
X146184523Y-104286428D01*
X146260714Y-104248333D01*
X146298809Y-104210238D01*
X146336904Y-104134047D01*
X146336904Y-104057857D01*
X146298809Y-103981666D01*
X146260714Y-103943571D01*
X146184523Y-103905476D01*
X146032142Y-103867380D01*
X145841666Y-103867380D01*
X145689285Y-103905476D01*
X145613095Y-103943571D01*
X145575000Y-103981666D01*
X145536904Y-104057857D01*
X145336904Y-102800714D02*
X144955952Y-102534047D01*
X145336904Y-102343571D02*
X144536904Y-102343571D01*
X144536904Y-102648333D01*
X144575000Y-102724523D01*
X144613095Y-102762619D01*
X144689285Y-102800714D01*
X144803571Y-102800714D01*
X144879761Y-102762619D01*
X144917857Y-102724523D01*
X144955952Y-102648333D01*
X144955952Y-102343571D01*
X144536904Y-103486428D02*
X144536904Y-103334047D01*
X144575000Y-103257857D01*
X144613095Y-103219761D01*
X144727380Y-103143571D01*
X144879761Y-103105476D01*
X145184523Y-103105476D01*
X145260714Y-103143571D01*
X145298809Y-103181666D01*
X145336904Y-103257857D01*
X145336904Y-103410238D01*
X145298809Y-103486428D01*
X145260714Y-103524523D01*
X145184523Y-103562619D01*
X144994047Y-103562619D01*
X144917857Y-103524523D01*
X144879761Y-103486428D01*
X144841666Y-103410238D01*
X144841666Y-103257857D01*
X144879761Y-103181666D01*
X144917857Y-103143571D01*
X144994047Y-103105476D01*
X145336904Y-103943571D02*
X145336904Y-104095952D01*
X145298809Y-104172142D01*
X145260714Y-104210238D01*
X145146428Y-104286428D01*
X144994047Y-104324523D01*
X144689285Y-104324523D01*
X144613095Y-104286428D01*
X144575000Y-104248333D01*
X144536904Y-104172142D01*
X144536904Y-104019761D01*
X144575000Y-103943571D01*
X144613095Y-103905476D01*
X144689285Y-103867380D01*
X144879761Y-103867380D01*
X144955952Y-103905476D01*
X144994047Y-103943571D01*
X145032142Y-104019761D01*
X145032142Y-104172142D01*
X144994047Y-104248333D01*
X144955952Y-104286428D01*
X144879761Y-104324523D01*
X153314285Y-105721904D02*
X153580952Y-105340952D01*
X153771428Y-105721904D02*
X153771428Y-104921904D01*
X153466666Y-104921904D01*
X153390476Y-104960000D01*
X153352380Y-104998095D01*
X153314285Y-105074285D01*
X153314285Y-105188571D01*
X153352380Y-105264761D01*
X153390476Y-105302857D01*
X153466666Y-105340952D01*
X153771428Y-105340952D01*
X152628571Y-104921904D02*
X152780952Y-104921904D01*
X152857142Y-104960000D01*
X152895238Y-104998095D01*
X152971428Y-105112380D01*
X153009523Y-105264761D01*
X153009523Y-105569523D01*
X152971428Y-105645714D01*
X152933333Y-105683809D01*
X152857142Y-105721904D01*
X152704761Y-105721904D01*
X152628571Y-105683809D01*
X152590476Y-105645714D01*
X152552380Y-105569523D01*
X152552380Y-105379047D01*
X152590476Y-105302857D01*
X152628571Y-105264761D01*
X152704761Y-105226666D01*
X152857142Y-105226666D01*
X152933333Y-105264761D01*
X152971428Y-105302857D01*
X153009523Y-105379047D01*
X152095238Y-105264761D02*
X152171428Y-105226666D01*
X152209523Y-105188571D01*
X152247619Y-105112380D01*
X152247619Y-105074285D01*
X152209523Y-104998095D01*
X152171428Y-104960000D01*
X152095238Y-104921904D01*
X151942857Y-104921904D01*
X151866666Y-104960000D01*
X151828571Y-104998095D01*
X151790476Y-105074285D01*
X151790476Y-105112380D01*
X151828571Y-105188571D01*
X151866666Y-105226666D01*
X151942857Y-105264761D01*
X152095238Y-105264761D01*
X152171428Y-105302857D01*
X152209523Y-105340952D01*
X152247619Y-105417142D01*
X152247619Y-105569523D01*
X152209523Y-105645714D01*
X152171428Y-105683809D01*
X152095238Y-105721904D01*
X151942857Y-105721904D01*
X151866666Y-105683809D01*
X151828571Y-105645714D01*
X151790476Y-105569523D01*
X151790476Y-105417142D01*
X151828571Y-105340952D01*
X151866666Y-105302857D01*
X151942857Y-105264761D01*
X150724285Y-109441904D02*
X150990952Y-109060952D01*
X151181428Y-109441904D02*
X151181428Y-108641904D01*
X150876666Y-108641904D01*
X150800476Y-108680000D01*
X150762380Y-108718095D01*
X150724285Y-108794285D01*
X150724285Y-108908571D01*
X150762380Y-108984761D01*
X150800476Y-109022857D01*
X150876666Y-109060952D01*
X151181428Y-109060952D01*
X150038571Y-108641904D02*
X150190952Y-108641904D01*
X150267142Y-108680000D01*
X150305238Y-108718095D01*
X150381428Y-108832380D01*
X150419523Y-108984761D01*
X150419523Y-109289523D01*
X150381428Y-109365714D01*
X150343333Y-109403809D01*
X150267142Y-109441904D01*
X150114761Y-109441904D01*
X150038571Y-109403809D01*
X150000476Y-109365714D01*
X149962380Y-109289523D01*
X149962380Y-109099047D01*
X150000476Y-109022857D01*
X150038571Y-108984761D01*
X150114761Y-108946666D01*
X150267142Y-108946666D01*
X150343333Y-108984761D01*
X150381428Y-109022857D01*
X150419523Y-109099047D01*
X149695714Y-108641904D02*
X149162380Y-108641904D01*
X149505238Y-109441904D01*
X153314285Y-104521904D02*
X153580952Y-104140952D01*
X153771428Y-104521904D02*
X153771428Y-103721904D01*
X153466666Y-103721904D01*
X153390476Y-103760000D01*
X153352380Y-103798095D01*
X153314285Y-103874285D01*
X153314285Y-103988571D01*
X153352380Y-104064761D01*
X153390476Y-104102857D01*
X153466666Y-104140952D01*
X153771428Y-104140952D01*
X152628571Y-103721904D02*
X152780952Y-103721904D01*
X152857142Y-103760000D01*
X152895238Y-103798095D01*
X152971428Y-103912380D01*
X153009523Y-104064761D01*
X153009523Y-104369523D01*
X152971428Y-104445714D01*
X152933333Y-104483809D01*
X152857142Y-104521904D01*
X152704761Y-104521904D01*
X152628571Y-104483809D01*
X152590476Y-104445714D01*
X152552380Y-104369523D01*
X152552380Y-104179047D01*
X152590476Y-104102857D01*
X152628571Y-104064761D01*
X152704761Y-104026666D01*
X152857142Y-104026666D01*
X152933333Y-104064761D01*
X152971428Y-104102857D01*
X153009523Y-104179047D01*
X151866666Y-103721904D02*
X152019047Y-103721904D01*
X152095238Y-103760000D01*
X152133333Y-103798095D01*
X152209523Y-103912380D01*
X152247619Y-104064761D01*
X152247619Y-104369523D01*
X152209523Y-104445714D01*
X152171428Y-104483809D01*
X152095238Y-104521904D01*
X151942857Y-104521904D01*
X151866666Y-104483809D01*
X151828571Y-104445714D01*
X151790476Y-104369523D01*
X151790476Y-104179047D01*
X151828571Y-104102857D01*
X151866666Y-104064761D01*
X151942857Y-104026666D01*
X152095238Y-104026666D01*
X152171428Y-104064761D01*
X152209523Y-104102857D01*
X152247619Y-104179047D01*
X153314285Y-103321904D02*
X153580952Y-102940952D01*
X153771428Y-103321904D02*
X153771428Y-102521904D01*
X153466666Y-102521904D01*
X153390476Y-102560000D01*
X153352380Y-102598095D01*
X153314285Y-102674285D01*
X153314285Y-102788571D01*
X153352380Y-102864761D01*
X153390476Y-102902857D01*
X153466666Y-102940952D01*
X153771428Y-102940952D01*
X152628571Y-102521904D02*
X152780952Y-102521904D01*
X152857142Y-102560000D01*
X152895238Y-102598095D01*
X152971428Y-102712380D01*
X153009523Y-102864761D01*
X153009523Y-103169523D01*
X152971428Y-103245714D01*
X152933333Y-103283809D01*
X152857142Y-103321904D01*
X152704761Y-103321904D01*
X152628571Y-103283809D01*
X152590476Y-103245714D01*
X152552380Y-103169523D01*
X152552380Y-102979047D01*
X152590476Y-102902857D01*
X152628571Y-102864761D01*
X152704761Y-102826666D01*
X152857142Y-102826666D01*
X152933333Y-102864761D01*
X152971428Y-102902857D01*
X153009523Y-102979047D01*
X151828571Y-102521904D02*
X152209523Y-102521904D01*
X152247619Y-102902857D01*
X152209523Y-102864761D01*
X152133333Y-102826666D01*
X151942857Y-102826666D01*
X151866666Y-102864761D01*
X151828571Y-102902857D01*
X151790476Y-102979047D01*
X151790476Y-103169523D01*
X151828571Y-103245714D01*
X151866666Y-103283809D01*
X151942857Y-103321904D01*
X152133333Y-103321904D01*
X152209523Y-103283809D01*
X152247619Y-103245714D01*
X159649285Y-116111904D02*
X159915952Y-115730952D01*
X160106428Y-116111904D02*
X160106428Y-115311904D01*
X159801666Y-115311904D01*
X159725476Y-115350000D01*
X159687380Y-115388095D01*
X159649285Y-115464285D01*
X159649285Y-115578571D01*
X159687380Y-115654761D01*
X159725476Y-115692857D01*
X159801666Y-115730952D01*
X160106428Y-115730952D01*
X158925476Y-115311904D02*
X159306428Y-115311904D01*
X159344523Y-115692857D01*
X159306428Y-115654761D01*
X159230238Y-115616666D01*
X159039761Y-115616666D01*
X158963571Y-115654761D01*
X158925476Y-115692857D01*
X158887380Y-115769047D01*
X158887380Y-115959523D01*
X158925476Y-116035714D01*
X158963571Y-116073809D01*
X159039761Y-116111904D01*
X159230238Y-116111904D01*
X159306428Y-116073809D01*
X159344523Y-116035714D01*
X158620714Y-115311904D02*
X158125476Y-115311904D01*
X158392142Y-115616666D01*
X158277857Y-115616666D01*
X158201666Y-115654761D01*
X158163571Y-115692857D01*
X158125476Y-115769047D01*
X158125476Y-115959523D01*
X158163571Y-116035714D01*
X158201666Y-116073809D01*
X158277857Y-116111904D01*
X158506428Y-116111904D01*
X158582619Y-116073809D01*
X158620714Y-116035714D01*
X159649285Y-117111904D02*
X159915952Y-116730952D01*
X160106428Y-117111904D02*
X160106428Y-116311904D01*
X159801666Y-116311904D01*
X159725476Y-116350000D01*
X159687380Y-116388095D01*
X159649285Y-116464285D01*
X159649285Y-116578571D01*
X159687380Y-116654761D01*
X159725476Y-116692857D01*
X159801666Y-116730952D01*
X160106428Y-116730952D01*
X158925476Y-116311904D02*
X159306428Y-116311904D01*
X159344523Y-116692857D01*
X159306428Y-116654761D01*
X159230238Y-116616666D01*
X159039761Y-116616666D01*
X158963571Y-116654761D01*
X158925476Y-116692857D01*
X158887380Y-116769047D01*
X158887380Y-116959523D01*
X158925476Y-117035714D01*
X158963571Y-117073809D01*
X159039761Y-117111904D01*
X159230238Y-117111904D01*
X159306428Y-117073809D01*
X159344523Y-117035714D01*
X158582619Y-116388095D02*
X158544523Y-116350000D01*
X158468333Y-116311904D01*
X158277857Y-116311904D01*
X158201666Y-116350000D01*
X158163571Y-116388095D01*
X158125476Y-116464285D01*
X158125476Y-116540476D01*
X158163571Y-116654761D01*
X158620714Y-117111904D01*
X158125476Y-117111904D01*
X159649285Y-114111904D02*
X159915952Y-113730952D01*
X160106428Y-114111904D02*
X160106428Y-113311904D01*
X159801666Y-113311904D01*
X159725476Y-113350000D01*
X159687380Y-113388095D01*
X159649285Y-113464285D01*
X159649285Y-113578571D01*
X159687380Y-113654761D01*
X159725476Y-113692857D01*
X159801666Y-113730952D01*
X160106428Y-113730952D01*
X158925476Y-113311904D02*
X159306428Y-113311904D01*
X159344523Y-113692857D01*
X159306428Y-113654761D01*
X159230238Y-113616666D01*
X159039761Y-113616666D01*
X158963571Y-113654761D01*
X158925476Y-113692857D01*
X158887380Y-113769047D01*
X158887380Y-113959523D01*
X158925476Y-114035714D01*
X158963571Y-114073809D01*
X159039761Y-114111904D01*
X159230238Y-114111904D01*
X159306428Y-114073809D01*
X159344523Y-114035714D01*
X158125476Y-114111904D02*
X158582619Y-114111904D01*
X158354047Y-114111904D02*
X158354047Y-113311904D01*
X158430238Y-113426190D01*
X158506428Y-113502380D01*
X158582619Y-113540476D01*
X159649285Y-115111904D02*
X159915952Y-114730952D01*
X160106428Y-115111904D02*
X160106428Y-114311904D01*
X159801666Y-114311904D01*
X159725476Y-114350000D01*
X159687380Y-114388095D01*
X159649285Y-114464285D01*
X159649285Y-114578571D01*
X159687380Y-114654761D01*
X159725476Y-114692857D01*
X159801666Y-114730952D01*
X160106428Y-114730952D01*
X158925476Y-114311904D02*
X159306428Y-114311904D01*
X159344523Y-114692857D01*
X159306428Y-114654761D01*
X159230238Y-114616666D01*
X159039761Y-114616666D01*
X158963571Y-114654761D01*
X158925476Y-114692857D01*
X158887380Y-114769047D01*
X158887380Y-114959523D01*
X158925476Y-115035714D01*
X158963571Y-115073809D01*
X159039761Y-115111904D01*
X159230238Y-115111904D01*
X159306428Y-115073809D01*
X159344523Y-115035714D01*
X158392142Y-114311904D02*
X158315952Y-114311904D01*
X158239761Y-114350000D01*
X158201666Y-114388095D01*
X158163571Y-114464285D01*
X158125476Y-114616666D01*
X158125476Y-114807142D01*
X158163571Y-114959523D01*
X158201666Y-115035714D01*
X158239761Y-115073809D01*
X158315952Y-115111904D01*
X158392142Y-115111904D01*
X158468333Y-115073809D01*
X158506428Y-115035714D01*
X158544523Y-114959523D01*
X158582619Y-114807142D01*
X158582619Y-114616666D01*
X158544523Y-114464285D01*
X158506428Y-114388095D01*
X158468333Y-114350000D01*
X158392142Y-114311904D01*
X159649285Y-112111904D02*
X159915952Y-111730952D01*
X160106428Y-112111904D02*
X160106428Y-111311904D01*
X159801666Y-111311904D01*
X159725476Y-111350000D01*
X159687380Y-111388095D01*
X159649285Y-111464285D01*
X159649285Y-111578571D01*
X159687380Y-111654761D01*
X159725476Y-111692857D01*
X159801666Y-111730952D01*
X160106428Y-111730952D01*
X158963571Y-111578571D02*
X158963571Y-112111904D01*
X159154047Y-111273809D02*
X159344523Y-111845238D01*
X158849285Y-111845238D01*
X158506428Y-112111904D02*
X158354047Y-112111904D01*
X158277857Y-112073809D01*
X158239761Y-112035714D01*
X158163571Y-111921428D01*
X158125476Y-111769047D01*
X158125476Y-111464285D01*
X158163571Y-111388095D01*
X158201666Y-111350000D01*
X158277857Y-111311904D01*
X158430238Y-111311904D01*
X158506428Y-111350000D01*
X158544523Y-111388095D01*
X158582619Y-111464285D01*
X158582619Y-111654761D01*
X158544523Y-111730952D01*
X158506428Y-111769047D01*
X158430238Y-111807142D01*
X158277857Y-111807142D01*
X158201666Y-111769047D01*
X158163571Y-111730952D01*
X158125476Y-111654761D01*
X159649285Y-113111904D02*
X159915952Y-112730952D01*
X160106428Y-113111904D02*
X160106428Y-112311904D01*
X159801666Y-112311904D01*
X159725476Y-112350000D01*
X159687380Y-112388095D01*
X159649285Y-112464285D01*
X159649285Y-112578571D01*
X159687380Y-112654761D01*
X159725476Y-112692857D01*
X159801666Y-112730952D01*
X160106428Y-112730952D01*
X158963571Y-112578571D02*
X158963571Y-113111904D01*
X159154047Y-112273809D02*
X159344523Y-112845238D01*
X158849285Y-112845238D01*
X158430238Y-112654761D02*
X158506428Y-112616666D01*
X158544523Y-112578571D01*
X158582619Y-112502380D01*
X158582619Y-112464285D01*
X158544523Y-112388095D01*
X158506428Y-112350000D01*
X158430238Y-112311904D01*
X158277857Y-112311904D01*
X158201666Y-112350000D01*
X158163571Y-112388095D01*
X158125476Y-112464285D01*
X158125476Y-112502380D01*
X158163571Y-112578571D01*
X158201666Y-112616666D01*
X158277857Y-112654761D01*
X158430238Y-112654761D01*
X158506428Y-112692857D01*
X158544523Y-112730952D01*
X158582619Y-112807142D01*
X158582619Y-112959523D01*
X158544523Y-113035714D01*
X158506428Y-113073809D01*
X158430238Y-113111904D01*
X158277857Y-113111904D01*
X158201666Y-113073809D01*
X158163571Y-113035714D01*
X158125476Y-112959523D01*
X158125476Y-112807142D01*
X158163571Y-112730952D01*
X158201666Y-112692857D01*
X158277857Y-112654761D01*
X159649285Y-110111904D02*
X159915952Y-109730952D01*
X160106428Y-110111904D02*
X160106428Y-109311904D01*
X159801666Y-109311904D01*
X159725476Y-109350000D01*
X159687380Y-109388095D01*
X159649285Y-109464285D01*
X159649285Y-109578571D01*
X159687380Y-109654761D01*
X159725476Y-109692857D01*
X159801666Y-109730952D01*
X160106428Y-109730952D01*
X158963571Y-109578571D02*
X158963571Y-110111904D01*
X159154047Y-109273809D02*
X159344523Y-109845238D01*
X158849285Y-109845238D01*
X158620714Y-109311904D02*
X158087380Y-109311904D01*
X158430238Y-110111904D01*
X159649285Y-111111904D02*
X159915952Y-110730952D01*
X160106428Y-111111904D02*
X160106428Y-110311904D01*
X159801666Y-110311904D01*
X159725476Y-110350000D01*
X159687380Y-110388095D01*
X159649285Y-110464285D01*
X159649285Y-110578571D01*
X159687380Y-110654761D01*
X159725476Y-110692857D01*
X159801666Y-110730952D01*
X160106428Y-110730952D01*
X158963571Y-110578571D02*
X158963571Y-111111904D01*
X159154047Y-110273809D02*
X159344523Y-110845238D01*
X158849285Y-110845238D01*
X158201666Y-110311904D02*
X158354047Y-110311904D01*
X158430238Y-110350000D01*
X158468333Y-110388095D01*
X158544523Y-110502380D01*
X158582619Y-110654761D01*
X158582619Y-110959523D01*
X158544523Y-111035714D01*
X158506428Y-111073809D01*
X158430238Y-111111904D01*
X158277857Y-111111904D01*
X158201666Y-111073809D01*
X158163571Y-111035714D01*
X158125476Y-110959523D01*
X158125476Y-110769047D01*
X158163571Y-110692857D01*
X158201666Y-110654761D01*
X158277857Y-110616666D01*
X158430238Y-110616666D01*
X158506428Y-110654761D01*
X158544523Y-110692857D01*
X158582619Y-110769047D01*
X159649285Y-108111904D02*
X159915952Y-107730952D01*
X160106428Y-108111904D02*
X160106428Y-107311904D01*
X159801666Y-107311904D01*
X159725476Y-107350000D01*
X159687380Y-107388095D01*
X159649285Y-107464285D01*
X159649285Y-107578571D01*
X159687380Y-107654761D01*
X159725476Y-107692857D01*
X159801666Y-107730952D01*
X160106428Y-107730952D01*
X158963571Y-107578571D02*
X158963571Y-108111904D01*
X159154047Y-107273809D02*
X159344523Y-107845238D01*
X158849285Y-107845238D01*
X158163571Y-107311904D02*
X158544523Y-107311904D01*
X158582619Y-107692857D01*
X158544523Y-107654761D01*
X158468333Y-107616666D01*
X158277857Y-107616666D01*
X158201666Y-107654761D01*
X158163571Y-107692857D01*
X158125476Y-107769047D01*
X158125476Y-107959523D01*
X158163571Y-108035714D01*
X158201666Y-108073809D01*
X158277857Y-108111904D01*
X158468333Y-108111904D01*
X158544523Y-108073809D01*
X158582619Y-108035714D01*
X159649285Y-109111904D02*
X159915952Y-108730952D01*
X160106428Y-109111904D02*
X160106428Y-108311904D01*
X159801666Y-108311904D01*
X159725476Y-108350000D01*
X159687380Y-108388095D01*
X159649285Y-108464285D01*
X159649285Y-108578571D01*
X159687380Y-108654761D01*
X159725476Y-108692857D01*
X159801666Y-108730952D01*
X160106428Y-108730952D01*
X158963571Y-108578571D02*
X158963571Y-109111904D01*
X159154047Y-108273809D02*
X159344523Y-108845238D01*
X158849285Y-108845238D01*
X158201666Y-108578571D02*
X158201666Y-109111904D01*
X158392142Y-108273809D02*
X158582619Y-108845238D01*
X158087380Y-108845238D01*
X153314285Y-102121904D02*
X153580952Y-101740952D01*
X153771428Y-102121904D02*
X153771428Y-101321904D01*
X153466666Y-101321904D01*
X153390476Y-101360000D01*
X153352380Y-101398095D01*
X153314285Y-101474285D01*
X153314285Y-101588571D01*
X153352380Y-101664761D01*
X153390476Y-101702857D01*
X153466666Y-101740952D01*
X153771428Y-101740952D01*
X152628571Y-101321904D02*
X152780952Y-101321904D01*
X152857142Y-101360000D01*
X152895238Y-101398095D01*
X152971428Y-101512380D01*
X153009523Y-101664761D01*
X153009523Y-101969523D01*
X152971428Y-102045714D01*
X152933333Y-102083809D01*
X152857142Y-102121904D01*
X152704761Y-102121904D01*
X152628571Y-102083809D01*
X152590476Y-102045714D01*
X152552380Y-101969523D01*
X152552380Y-101779047D01*
X152590476Y-101702857D01*
X152628571Y-101664761D01*
X152704761Y-101626666D01*
X152857142Y-101626666D01*
X152933333Y-101664761D01*
X152971428Y-101702857D01*
X153009523Y-101779047D01*
X151866666Y-101588571D02*
X151866666Y-102121904D01*
X152057142Y-101283809D02*
X152247619Y-101855238D01*
X151752380Y-101855238D01*
X132876904Y-129630714D02*
X132495952Y-129364047D01*
X132876904Y-129173571D02*
X132076904Y-129173571D01*
X132076904Y-129478333D01*
X132115000Y-129554523D01*
X132153095Y-129592619D01*
X132229285Y-129630714D01*
X132343571Y-129630714D01*
X132419761Y-129592619D01*
X132457857Y-129554523D01*
X132495952Y-129478333D01*
X132495952Y-129173571D01*
X132343571Y-130316428D02*
X132876904Y-130316428D01*
X132038809Y-130125952D02*
X132610238Y-129935476D01*
X132610238Y-130430714D01*
X132076904Y-130659285D02*
X132076904Y-131154523D01*
X132381666Y-130887857D01*
X132381666Y-131002142D01*
X132419761Y-131078333D01*
X132457857Y-131116428D01*
X132534047Y-131154523D01*
X132724523Y-131154523D01*
X132800714Y-131116428D01*
X132838809Y-131078333D01*
X132876904Y-131002142D01*
X132876904Y-130773571D01*
X132838809Y-130697380D01*
X132800714Y-130659285D01*
X110364285Y-114885714D02*
X110402380Y-114923809D01*
X110516666Y-114961904D01*
X110592857Y-114961904D01*
X110707142Y-114923809D01*
X110783333Y-114847619D01*
X110821428Y-114771428D01*
X110859523Y-114619047D01*
X110859523Y-114504761D01*
X110821428Y-114352380D01*
X110783333Y-114276190D01*
X110707142Y-114200000D01*
X110592857Y-114161904D01*
X110516666Y-114161904D01*
X110402380Y-114200000D01*
X110364285Y-114238095D01*
X109602380Y-114961904D02*
X110059523Y-114961904D01*
X109830952Y-114961904D02*
X109830952Y-114161904D01*
X109907142Y-114276190D01*
X109983333Y-114352380D01*
X110059523Y-114390476D01*
X109145238Y-114504761D02*
X109221428Y-114466666D01*
X109259523Y-114428571D01*
X109297619Y-114352380D01*
X109297619Y-114314285D01*
X109259523Y-114238095D01*
X109221428Y-114200000D01*
X109145238Y-114161904D01*
X108992857Y-114161904D01*
X108916666Y-114200000D01*
X108878571Y-114238095D01*
X108840476Y-114314285D01*
X108840476Y-114352380D01*
X108878571Y-114428571D01*
X108916666Y-114466666D01*
X108992857Y-114504761D01*
X109145238Y-114504761D01*
X109221428Y-114542857D01*
X109259523Y-114580952D01*
X109297619Y-114657142D01*
X109297619Y-114809523D01*
X109259523Y-114885714D01*
X109221428Y-114923809D01*
X109145238Y-114961904D01*
X108992857Y-114961904D01*
X108916666Y-114923809D01*
X108878571Y-114885714D01*
X108840476Y-114809523D01*
X108840476Y-114657142D01*
X108878571Y-114580952D01*
X108916666Y-114542857D01*
X108992857Y-114504761D01*
X134530476Y-112986034D02*
X134073333Y-112986034D01*
X134301904Y-113786034D02*
X134301904Y-112986034D01*
X133806666Y-113786034D02*
X133806666Y-112986034D01*
X133501904Y-112986034D01*
X133425714Y-113024130D01*
X133387619Y-113062225D01*
X133349523Y-113138415D01*
X133349523Y-113252701D01*
X133387619Y-113328891D01*
X133425714Y-113366987D01*
X133501904Y-113405082D01*
X133806666Y-113405082D01*
X132587619Y-113786034D02*
X133044761Y-113786034D01*
X132816190Y-113786034D02*
X132816190Y-112986034D01*
X132892380Y-113100320D01*
X132968571Y-113176510D01*
X133044761Y-113214606D01*
X131901904Y-112986034D02*
X132054285Y-112986034D01*
X132130476Y-113024130D01*
X132168571Y-113062225D01*
X132244761Y-113176510D01*
X132282857Y-113328891D01*
X132282857Y-113633653D01*
X132244761Y-113709844D01*
X132206666Y-113747939D01*
X132130476Y-113786034D01*
X131978095Y-113786034D01*
X131901904Y-113747939D01*
X131863809Y-113709844D01*
X131825714Y-113633653D01*
X131825714Y-113443177D01*
X131863809Y-113366987D01*
X131901904Y-113328891D01*
X131978095Y-113290796D01*
X132130476Y-113290796D01*
X132206666Y-113328891D01*
X132244761Y-113366987D01*
X132282857Y-113443177D01*
X134530476Y-113990108D02*
X134073333Y-113990108D01*
X134301904Y-114790108D02*
X134301904Y-113990108D01*
X133806666Y-114790108D02*
X133806666Y-113990108D01*
X133501904Y-113990108D01*
X133425714Y-114028204D01*
X133387619Y-114066299D01*
X133349523Y-114142489D01*
X133349523Y-114256775D01*
X133387619Y-114332965D01*
X133425714Y-114371061D01*
X133501904Y-114409156D01*
X133806666Y-114409156D01*
X132587619Y-114790108D02*
X133044761Y-114790108D01*
X132816190Y-114790108D02*
X132816190Y-113990108D01*
X132892380Y-114104394D01*
X132968571Y-114180584D01*
X133044761Y-114218680D01*
X131863809Y-113990108D02*
X132244761Y-113990108D01*
X132282857Y-114371061D01*
X132244761Y-114332965D01*
X132168571Y-114294870D01*
X131978095Y-114294870D01*
X131901904Y-114332965D01*
X131863809Y-114371061D01*
X131825714Y-114447251D01*
X131825714Y-114637727D01*
X131863809Y-114713918D01*
X131901904Y-114752013D01*
X131978095Y-114790108D01*
X132168571Y-114790108D01*
X132244761Y-114752013D01*
X132282857Y-114713918D01*
X134530476Y-114994182D02*
X134073333Y-114994182D01*
X134301904Y-115794182D02*
X134301904Y-114994182D01*
X133806666Y-115794182D02*
X133806666Y-114994182D01*
X133501904Y-114994182D01*
X133425714Y-115032278D01*
X133387619Y-115070373D01*
X133349523Y-115146563D01*
X133349523Y-115260849D01*
X133387619Y-115337039D01*
X133425714Y-115375135D01*
X133501904Y-115413230D01*
X133806666Y-115413230D01*
X132587619Y-115794182D02*
X133044761Y-115794182D01*
X132816190Y-115794182D02*
X132816190Y-114994182D01*
X132892380Y-115108468D01*
X132968571Y-115184658D01*
X133044761Y-115222754D01*
X131901904Y-115260849D02*
X131901904Y-115794182D01*
X132092380Y-114956087D02*
X132282857Y-115527516D01*
X131787619Y-115527516D01*
X134530476Y-115998256D02*
X134073333Y-115998256D01*
X134301904Y-116798256D02*
X134301904Y-115998256D01*
X133806666Y-116798256D02*
X133806666Y-115998256D01*
X133501904Y-115998256D01*
X133425714Y-116036352D01*
X133387619Y-116074447D01*
X133349523Y-116150637D01*
X133349523Y-116264923D01*
X133387619Y-116341113D01*
X133425714Y-116379209D01*
X133501904Y-116417304D01*
X133806666Y-116417304D01*
X132587619Y-116798256D02*
X133044761Y-116798256D01*
X132816190Y-116798256D02*
X132816190Y-115998256D01*
X132892380Y-116112542D01*
X132968571Y-116188732D01*
X133044761Y-116226828D01*
X132320952Y-115998256D02*
X131825714Y-115998256D01*
X132092380Y-116303018D01*
X131978095Y-116303018D01*
X131901904Y-116341113D01*
X131863809Y-116379209D01*
X131825714Y-116455399D01*
X131825714Y-116645875D01*
X131863809Y-116722066D01*
X131901904Y-116760161D01*
X131978095Y-116798256D01*
X132206666Y-116798256D01*
X132282857Y-116760161D01*
X132320952Y-116722066D01*
X134530476Y-117002330D02*
X134073333Y-117002330D01*
X134301904Y-117802330D02*
X134301904Y-117002330D01*
X133806666Y-117802330D02*
X133806666Y-117002330D01*
X133501904Y-117002330D01*
X133425714Y-117040426D01*
X133387619Y-117078521D01*
X133349523Y-117154711D01*
X133349523Y-117268997D01*
X133387619Y-117345187D01*
X133425714Y-117383283D01*
X133501904Y-117421378D01*
X133806666Y-117421378D01*
X132587619Y-117802330D02*
X133044761Y-117802330D01*
X132816190Y-117802330D02*
X132816190Y-117002330D01*
X132892380Y-117116616D01*
X132968571Y-117192806D01*
X133044761Y-117230902D01*
X132282857Y-117078521D02*
X132244761Y-117040426D01*
X132168571Y-117002330D01*
X131978095Y-117002330D01*
X131901904Y-117040426D01*
X131863809Y-117078521D01*
X131825714Y-117154711D01*
X131825714Y-117230902D01*
X131863809Y-117345187D01*
X132320952Y-117802330D01*
X131825714Y-117802330D01*
X134530476Y-118006404D02*
X134073333Y-118006404D01*
X134301904Y-118806404D02*
X134301904Y-118006404D01*
X133806666Y-118806404D02*
X133806666Y-118006404D01*
X133501904Y-118006404D01*
X133425714Y-118044500D01*
X133387619Y-118082595D01*
X133349523Y-118158785D01*
X133349523Y-118273071D01*
X133387619Y-118349261D01*
X133425714Y-118387357D01*
X133501904Y-118425452D01*
X133806666Y-118425452D01*
X132587619Y-118806404D02*
X133044761Y-118806404D01*
X132816190Y-118806404D02*
X132816190Y-118006404D01*
X132892380Y-118120690D01*
X132968571Y-118196880D01*
X133044761Y-118234976D01*
X131825714Y-118806404D02*
X132282857Y-118806404D01*
X132054285Y-118806404D02*
X132054285Y-118006404D01*
X132130476Y-118120690D01*
X132206666Y-118196880D01*
X132282857Y-118234976D01*
X134530476Y-119010478D02*
X134073333Y-119010478D01*
X134301904Y-119810478D02*
X134301904Y-119010478D01*
X133806666Y-119810478D02*
X133806666Y-119010478D01*
X133501904Y-119010478D01*
X133425714Y-119048574D01*
X133387619Y-119086669D01*
X133349523Y-119162859D01*
X133349523Y-119277145D01*
X133387619Y-119353335D01*
X133425714Y-119391431D01*
X133501904Y-119429526D01*
X133806666Y-119429526D01*
X132587619Y-119810478D02*
X133044761Y-119810478D01*
X132816190Y-119810478D02*
X132816190Y-119010478D01*
X132892380Y-119124764D01*
X132968571Y-119200954D01*
X133044761Y-119239050D01*
X132092380Y-119010478D02*
X132016190Y-119010478D01*
X131940000Y-119048574D01*
X131901904Y-119086669D01*
X131863809Y-119162859D01*
X131825714Y-119315240D01*
X131825714Y-119505716D01*
X131863809Y-119658097D01*
X131901904Y-119734288D01*
X131940000Y-119772383D01*
X132016190Y-119810478D01*
X132092380Y-119810478D01*
X132168571Y-119772383D01*
X132206666Y-119734288D01*
X132244761Y-119658097D01*
X132282857Y-119505716D01*
X132282857Y-119315240D01*
X132244761Y-119162859D01*
X132206666Y-119086669D01*
X132168571Y-119048574D01*
X132092380Y-119010478D01*
X134509523Y-119994552D02*
X134052380Y-119994552D01*
X134280952Y-120794552D02*
X134280952Y-119994552D01*
X133785714Y-120794552D02*
X133785714Y-119994552D01*
X133480952Y-119994552D01*
X133404761Y-120032648D01*
X133366666Y-120070743D01*
X133328571Y-120146933D01*
X133328571Y-120261219D01*
X133366666Y-120337409D01*
X133404761Y-120375505D01*
X133480952Y-120413600D01*
X133785714Y-120413600D01*
X132947619Y-120794552D02*
X132795238Y-120794552D01*
X132719047Y-120756457D01*
X132680952Y-120718362D01*
X132604761Y-120604076D01*
X132566666Y-120451695D01*
X132566666Y-120146933D01*
X132604761Y-120070743D01*
X132642857Y-120032648D01*
X132719047Y-119994552D01*
X132871428Y-119994552D01*
X132947619Y-120032648D01*
X132985714Y-120070743D01*
X133023809Y-120146933D01*
X133023809Y-120337409D01*
X132985714Y-120413600D01*
X132947619Y-120451695D01*
X132871428Y-120489790D01*
X132719047Y-120489790D01*
X132642857Y-120451695D01*
X132604761Y-120413600D01*
X132566666Y-120337409D01*
X134509523Y-120998626D02*
X134052380Y-120998626D01*
X134280952Y-121798626D02*
X134280952Y-120998626D01*
X133785714Y-121798626D02*
X133785714Y-120998626D01*
X133480952Y-120998626D01*
X133404761Y-121036722D01*
X133366666Y-121074817D01*
X133328571Y-121151007D01*
X133328571Y-121265293D01*
X133366666Y-121341483D01*
X133404761Y-121379579D01*
X133480952Y-121417674D01*
X133785714Y-121417674D01*
X132871428Y-121341483D02*
X132947619Y-121303388D01*
X132985714Y-121265293D01*
X133023809Y-121189102D01*
X133023809Y-121151007D01*
X132985714Y-121074817D01*
X132947619Y-121036722D01*
X132871428Y-120998626D01*
X132719047Y-120998626D01*
X132642857Y-121036722D01*
X132604761Y-121074817D01*
X132566666Y-121151007D01*
X132566666Y-121189102D01*
X132604761Y-121265293D01*
X132642857Y-121303388D01*
X132719047Y-121341483D01*
X132871428Y-121341483D01*
X132947619Y-121379579D01*
X132985714Y-121417674D01*
X133023809Y-121493864D01*
X133023809Y-121646245D01*
X132985714Y-121722436D01*
X132947619Y-121760531D01*
X132871428Y-121798626D01*
X132719047Y-121798626D01*
X132642857Y-121760531D01*
X132604761Y-121722436D01*
X132566666Y-121646245D01*
X132566666Y-121493864D01*
X132604761Y-121417674D01*
X132642857Y-121379579D01*
X132719047Y-121341483D01*
X134529523Y-122002700D02*
X134072380Y-122002700D01*
X134300952Y-122802700D02*
X134300952Y-122002700D01*
X133805714Y-122802700D02*
X133805714Y-122002700D01*
X133500952Y-122002700D01*
X133424761Y-122040796D01*
X133386666Y-122078891D01*
X133348571Y-122155081D01*
X133348571Y-122269367D01*
X133386666Y-122345557D01*
X133424761Y-122383653D01*
X133500952Y-122421748D01*
X133805714Y-122421748D01*
X133081904Y-122002700D02*
X132548571Y-122002700D01*
X132891428Y-122802700D01*
X140021904Y-108035714D02*
X139640952Y-107769047D01*
X140021904Y-107578571D02*
X139221904Y-107578571D01*
X139221904Y-107883333D01*
X139260000Y-107959523D01*
X139298095Y-107997619D01*
X139374285Y-108035714D01*
X139488571Y-108035714D01*
X139564761Y-107997619D01*
X139602857Y-107959523D01*
X139640952Y-107883333D01*
X139640952Y-107578571D01*
X139221904Y-108302380D02*
X139221904Y-108797619D01*
X139526666Y-108530952D01*
X139526666Y-108645238D01*
X139564761Y-108721428D01*
X139602857Y-108759523D01*
X139679047Y-108797619D01*
X139869523Y-108797619D01*
X139945714Y-108759523D01*
X139983809Y-108721428D01*
X140021904Y-108645238D01*
X140021904Y-108416666D01*
X139983809Y-108340476D01*
X139945714Y-108302380D01*
X139221904Y-109483333D02*
X139221904Y-109330952D01*
X139260000Y-109254761D01*
X139298095Y-109216666D01*
X139412380Y-109140476D01*
X139564761Y-109102380D01*
X139869523Y-109102380D01*
X139945714Y-109140476D01*
X139983809Y-109178571D01*
X140021904Y-109254761D01*
X140021904Y-109407142D01*
X139983809Y-109483333D01*
X139945714Y-109521428D01*
X139869523Y-109559523D01*
X139679047Y-109559523D01*
X139602857Y-109521428D01*
X139564761Y-109483333D01*
X139526666Y-109407142D01*
X139526666Y-109254761D01*
X139564761Y-109178571D01*
X139602857Y-109140476D01*
X139679047Y-109102380D01*
X141071904Y-108035714D02*
X140690952Y-107769047D01*
X141071904Y-107578571D02*
X140271904Y-107578571D01*
X140271904Y-107883333D01*
X140310000Y-107959523D01*
X140348095Y-107997619D01*
X140424285Y-108035714D01*
X140538571Y-108035714D01*
X140614761Y-107997619D01*
X140652857Y-107959523D01*
X140690952Y-107883333D01*
X140690952Y-107578571D01*
X140271904Y-108302380D02*
X140271904Y-108797619D01*
X140576666Y-108530952D01*
X140576666Y-108645238D01*
X140614761Y-108721428D01*
X140652857Y-108759523D01*
X140729047Y-108797619D01*
X140919523Y-108797619D01*
X140995714Y-108759523D01*
X141033809Y-108721428D01*
X141071904Y-108645238D01*
X141071904Y-108416666D01*
X141033809Y-108340476D01*
X140995714Y-108302380D01*
X140271904Y-109521428D02*
X140271904Y-109140476D01*
X140652857Y-109102380D01*
X140614761Y-109140476D01*
X140576666Y-109216666D01*
X140576666Y-109407142D01*
X140614761Y-109483333D01*
X140652857Y-109521428D01*
X140729047Y-109559523D01*
X140919523Y-109559523D01*
X140995714Y-109521428D01*
X141033809Y-109483333D01*
X141071904Y-109407142D01*
X141071904Y-109216666D01*
X141033809Y-109140476D01*
X140995714Y-109102380D01*
X158516904Y-120909047D02*
X158135952Y-120642380D01*
X158516904Y-120451904D02*
X157716904Y-120451904D01*
X157716904Y-120756666D01*
X157755000Y-120832856D01*
X157793095Y-120870952D01*
X157869285Y-120909047D01*
X157983571Y-120909047D01*
X158059761Y-120870952D01*
X158097857Y-120832856D01*
X158135952Y-120756666D01*
X158135952Y-120451904D01*
X157793095Y-121213809D02*
X157755000Y-121251904D01*
X157716904Y-121328094D01*
X157716904Y-121518571D01*
X157755000Y-121594761D01*
X157793095Y-121632856D01*
X157869285Y-121670952D01*
X157945476Y-121670952D01*
X158059761Y-121632856D01*
X158516904Y-121175713D01*
X158516904Y-121670952D01*
X157716904Y-122356666D02*
X157716904Y-122204285D01*
X157755000Y-122128094D01*
X157793095Y-122089999D01*
X157907380Y-122013809D01*
X158059761Y-121975713D01*
X158364523Y-121975713D01*
X158440714Y-122013809D01*
X158478809Y-122051904D01*
X158516904Y-122128094D01*
X158516904Y-122280475D01*
X158478809Y-122356666D01*
X158440714Y-122394761D01*
X158364523Y-122432856D01*
X158174047Y-122432856D01*
X158097857Y-122394761D01*
X158059761Y-122356666D01*
X158021666Y-122280475D01*
X158021666Y-122128094D01*
X158059761Y-122051904D01*
X158097857Y-122013809D01*
X158174047Y-121975713D01*
X116884285Y-124658570D02*
X117150952Y-124277618D01*
X117341428Y-124658570D02*
X117341428Y-123858570D01*
X117036666Y-123858570D01*
X116960476Y-123896666D01*
X116922380Y-123934761D01*
X116884285Y-124010951D01*
X116884285Y-124125237D01*
X116922380Y-124201427D01*
X116960476Y-124239523D01*
X117036666Y-124277618D01*
X117341428Y-124277618D01*
X116579523Y-123934761D02*
X116541428Y-123896666D01*
X116465238Y-123858570D01*
X116274761Y-123858570D01*
X116198571Y-123896666D01*
X116160476Y-123934761D01*
X116122380Y-124010951D01*
X116122380Y-124087142D01*
X116160476Y-124201427D01*
X116617619Y-124658570D01*
X116122380Y-124658570D01*
X115436666Y-124125237D02*
X115436666Y-124658570D01*
X115627142Y-123820475D02*
X115817619Y-124391904D01*
X115322380Y-124391904D01*
X104714285Y-124571904D02*
X104980952Y-124190952D01*
X105171428Y-124571904D02*
X105171428Y-123771904D01*
X104866666Y-123771904D01*
X104790476Y-123810000D01*
X104752380Y-123848095D01*
X104714285Y-123924285D01*
X104714285Y-124038571D01*
X104752380Y-124114761D01*
X104790476Y-124152857D01*
X104866666Y-124190952D01*
X105171428Y-124190952D01*
X104409523Y-123848095D02*
X104371428Y-123810000D01*
X104295238Y-123771904D01*
X104104761Y-123771904D01*
X104028571Y-123810000D01*
X103990476Y-123848095D01*
X103952380Y-123924285D01*
X103952380Y-124000476D01*
X103990476Y-124114761D01*
X104447619Y-124571904D01*
X103952380Y-124571904D01*
X103457142Y-123771904D02*
X103380952Y-123771904D01*
X103304761Y-123810000D01*
X103266666Y-123848095D01*
X103228571Y-123924285D01*
X103190476Y-124076666D01*
X103190476Y-124267142D01*
X103228571Y-124419523D01*
X103266666Y-124495714D01*
X103304761Y-124533809D01*
X103380952Y-124571904D01*
X103457142Y-124571904D01*
X103533333Y-124533809D01*
X103571428Y-124495714D01*
X103609523Y-124419523D01*
X103647619Y-124267142D01*
X103647619Y-124076666D01*
X103609523Y-123924285D01*
X103571428Y-123848095D01*
X103533333Y-123810000D01*
X103457142Y-123771904D01*
X104714285Y-123381904D02*
X104980952Y-123000952D01*
X105171428Y-123381904D02*
X105171428Y-122581904D01*
X104866666Y-122581904D01*
X104790476Y-122620000D01*
X104752380Y-122658095D01*
X104714285Y-122734285D01*
X104714285Y-122848571D01*
X104752380Y-122924761D01*
X104790476Y-122962857D01*
X104866666Y-123000952D01*
X105171428Y-123000952D01*
X103952380Y-123381904D02*
X104409523Y-123381904D01*
X104180952Y-123381904D02*
X104180952Y-122581904D01*
X104257142Y-122696190D01*
X104333333Y-122772380D01*
X104409523Y-122810476D01*
X103571428Y-123381904D02*
X103419047Y-123381904D01*
X103342857Y-123343809D01*
X103304761Y-123305714D01*
X103228571Y-123191428D01*
X103190476Y-123039047D01*
X103190476Y-122734285D01*
X103228571Y-122658095D01*
X103266666Y-122620000D01*
X103342857Y-122581904D01*
X103495238Y-122581904D01*
X103571428Y-122620000D01*
X103609523Y-122658095D01*
X103647619Y-122734285D01*
X103647619Y-122924761D01*
X103609523Y-123000952D01*
X103571428Y-123039047D01*
X103495238Y-123077142D01*
X103342857Y-123077142D01*
X103266666Y-123039047D01*
X103228571Y-123000952D01*
X103190476Y-122924761D01*
X104714285Y-121001904D02*
X104980952Y-120620952D01*
X105171428Y-121001904D02*
X105171428Y-120201904D01*
X104866666Y-120201904D01*
X104790476Y-120240000D01*
X104752380Y-120278095D01*
X104714285Y-120354285D01*
X104714285Y-120468571D01*
X104752380Y-120544761D01*
X104790476Y-120582857D01*
X104866666Y-120620952D01*
X105171428Y-120620952D01*
X103952380Y-121001904D02*
X104409523Y-121001904D01*
X104180952Y-121001904D02*
X104180952Y-120201904D01*
X104257142Y-120316190D01*
X104333333Y-120392380D01*
X104409523Y-120430476D01*
X103495238Y-120544761D02*
X103571428Y-120506666D01*
X103609523Y-120468571D01*
X103647619Y-120392380D01*
X103647619Y-120354285D01*
X103609523Y-120278095D01*
X103571428Y-120240000D01*
X103495238Y-120201904D01*
X103342857Y-120201904D01*
X103266666Y-120240000D01*
X103228571Y-120278095D01*
X103190476Y-120354285D01*
X103190476Y-120392380D01*
X103228571Y-120468571D01*
X103266666Y-120506666D01*
X103342857Y-120544761D01*
X103495238Y-120544761D01*
X103571428Y-120582857D01*
X103609523Y-120620952D01*
X103647619Y-120697142D01*
X103647619Y-120849523D01*
X103609523Y-120925714D01*
X103571428Y-120963809D01*
X103495238Y-121001904D01*
X103342857Y-121001904D01*
X103266666Y-120963809D01*
X103228571Y-120925714D01*
X103190476Y-120849523D01*
X103190476Y-120697142D01*
X103228571Y-120620952D01*
X103266666Y-120582857D01*
X103342857Y-120544761D01*
X104714285Y-122191904D02*
X104980952Y-121810952D01*
X105171428Y-122191904D02*
X105171428Y-121391904D01*
X104866666Y-121391904D01*
X104790476Y-121430000D01*
X104752380Y-121468095D01*
X104714285Y-121544285D01*
X104714285Y-121658571D01*
X104752380Y-121734761D01*
X104790476Y-121772857D01*
X104866666Y-121810952D01*
X105171428Y-121810952D01*
X103952380Y-122191904D02*
X104409523Y-122191904D01*
X104180952Y-122191904D02*
X104180952Y-121391904D01*
X104257142Y-121506190D01*
X104333333Y-121582380D01*
X104409523Y-121620476D01*
X103685714Y-121391904D02*
X103152380Y-121391904D01*
X103495238Y-122191904D01*
X115151904Y-120626666D02*
X114770952Y-120360000D01*
X115151904Y-120169523D02*
X114351904Y-120169523D01*
X114351904Y-120474285D01*
X114390000Y-120550476D01*
X114428095Y-120588571D01*
X114504285Y-120626666D01*
X114618571Y-120626666D01*
X114694761Y-120588571D01*
X114732857Y-120550476D01*
X114770952Y-120474285D01*
X114770952Y-120169523D01*
X114618571Y-121312380D02*
X115151904Y-121312380D01*
X114313809Y-121121904D02*
X114885238Y-120931428D01*
X114885238Y-121426666D01*
X137382857Y-118543333D02*
X137382857Y-118276666D01*
X137801904Y-118276666D02*
X137001904Y-118276666D01*
X137001904Y-118657619D01*
X137382857Y-119229047D02*
X137420952Y-119343333D01*
X137459047Y-119381428D01*
X137535238Y-119419523D01*
X137649523Y-119419523D01*
X137725714Y-119381428D01*
X137763809Y-119343333D01*
X137801904Y-119267142D01*
X137801904Y-118962380D01*
X137001904Y-118962380D01*
X137001904Y-119229047D01*
X137040000Y-119305238D01*
X137078095Y-119343333D01*
X137154285Y-119381428D01*
X137230476Y-119381428D01*
X137306666Y-119343333D01*
X137344761Y-119305238D01*
X137382857Y-119229047D01*
X137382857Y-118962380D01*
X137001904Y-119686190D02*
X137001904Y-120181428D01*
X137306666Y-119914761D01*
X137306666Y-120029047D01*
X137344761Y-120105238D01*
X137382857Y-120143333D01*
X137459047Y-120181428D01*
X137649523Y-120181428D01*
X137725714Y-120143333D01*
X137763809Y-120105238D01*
X137801904Y-120029047D01*
X137801904Y-119800476D01*
X137763809Y-119724285D01*
X137725714Y-119686190D01*
X147866666Y-111442857D02*
X148133333Y-111442857D01*
X148133333Y-111861904D02*
X148133333Y-111061904D01*
X147752380Y-111061904D01*
X147180952Y-111442857D02*
X147066666Y-111480952D01*
X147028571Y-111519047D01*
X146990476Y-111595238D01*
X146990476Y-111709523D01*
X147028571Y-111785714D01*
X147066666Y-111823809D01*
X147142857Y-111861904D01*
X147447619Y-111861904D01*
X147447619Y-111061904D01*
X147180952Y-111061904D01*
X147104761Y-111100000D01*
X147066666Y-111138095D01*
X147028571Y-111214285D01*
X147028571Y-111290476D01*
X147066666Y-111366666D01*
X147104761Y-111404761D01*
X147180952Y-111442857D01*
X147447619Y-111442857D01*
X146685714Y-111138095D02*
X146647619Y-111100000D01*
X146571428Y-111061904D01*
X146380952Y-111061904D01*
X146304761Y-111100000D01*
X146266666Y-111138095D01*
X146228571Y-111214285D01*
X146228571Y-111290476D01*
X146266666Y-111404761D01*
X146723809Y-111861904D01*
X146228571Y-111861904D01*
X144966666Y-111802857D02*
X145233333Y-111802857D01*
X145233333Y-112221904D02*
X145233333Y-111421904D01*
X144852380Y-111421904D01*
X144280952Y-111802857D02*
X144166666Y-111840952D01*
X144128571Y-111879047D01*
X144090476Y-111955238D01*
X144090476Y-112069523D01*
X144128571Y-112145714D01*
X144166666Y-112183809D01*
X144242857Y-112221904D01*
X144547619Y-112221904D01*
X144547619Y-111421904D01*
X144280952Y-111421904D01*
X144204761Y-111460000D01*
X144166666Y-111498095D01*
X144128571Y-111574285D01*
X144128571Y-111650476D01*
X144166666Y-111726666D01*
X144204761Y-111764761D01*
X144280952Y-111802857D01*
X144547619Y-111802857D01*
X143328571Y-112221904D02*
X143785714Y-112221904D01*
X143557142Y-112221904D02*
X143557142Y-111421904D01*
X143633333Y-111536190D01*
X143709523Y-111612380D01*
X143785714Y-111650476D01*
X136915714Y-116195714D02*
X136953809Y-116157619D01*
X136991904Y-116043333D01*
X136991904Y-115967142D01*
X136953809Y-115852857D01*
X136877619Y-115776666D01*
X136801428Y-115738571D01*
X136649047Y-115700476D01*
X136534761Y-115700476D01*
X136382380Y-115738571D01*
X136306190Y-115776666D01*
X136230000Y-115852857D01*
X136191904Y-115967142D01*
X136191904Y-116043333D01*
X136230000Y-116157619D01*
X136268095Y-116195714D01*
X136191904Y-116919523D02*
X136191904Y-116538571D01*
X136572857Y-116500476D01*
X136534761Y-116538571D01*
X136496666Y-116614761D01*
X136496666Y-116805238D01*
X136534761Y-116881428D01*
X136572857Y-116919523D01*
X136649047Y-116957619D01*
X136839523Y-116957619D01*
X136915714Y-116919523D01*
X136953809Y-116881428D01*
X136991904Y-116805238D01*
X136991904Y-116614761D01*
X136953809Y-116538571D01*
X136915714Y-116500476D01*
X136991904Y-117719523D02*
X136991904Y-117262380D01*
X136991904Y-117490952D02*
X136191904Y-117490952D01*
X136306190Y-117414761D01*
X136382380Y-117338571D01*
X136420476Y-117262380D01*
X137985714Y-116165714D02*
X138023809Y-116127619D01*
X138061904Y-116013333D01*
X138061904Y-115937142D01*
X138023809Y-115822857D01*
X137947619Y-115746666D01*
X137871428Y-115708571D01*
X137719047Y-115670476D01*
X137604761Y-115670476D01*
X137452380Y-115708571D01*
X137376190Y-115746666D01*
X137300000Y-115822857D01*
X137261904Y-115937142D01*
X137261904Y-116013333D01*
X137300000Y-116127619D01*
X137338095Y-116165714D01*
X137528571Y-116851428D02*
X138061904Y-116851428D01*
X137223809Y-116660952D02*
X137795238Y-116470476D01*
X137795238Y-116965714D01*
X137261904Y-117194285D02*
X137261904Y-117727619D01*
X138061904Y-117384761D01*
X158515714Y-123522380D02*
X158553809Y-123484285D01*
X158591904Y-123369999D01*
X158591904Y-123293808D01*
X158553809Y-123179523D01*
X158477619Y-123103332D01*
X158401428Y-123065237D01*
X158249047Y-123027142D01*
X158134761Y-123027142D01*
X157982380Y-123065237D01*
X157906190Y-123103332D01*
X157830000Y-123179523D01*
X157791904Y-123293808D01*
X157791904Y-123369999D01*
X157830000Y-123484285D01*
X157868095Y-123522380D01*
X157791904Y-124246189D02*
X157791904Y-123865237D01*
X158172857Y-123827142D01*
X158134761Y-123865237D01*
X158096666Y-123941427D01*
X158096666Y-124131904D01*
X158134761Y-124208094D01*
X158172857Y-124246189D01*
X158249047Y-124284285D01*
X158439523Y-124284285D01*
X158515714Y-124246189D01*
X158553809Y-124208094D01*
X158591904Y-124131904D01*
X158591904Y-123941427D01*
X158553809Y-123865237D01*
X158515714Y-123827142D01*
X157868095Y-124589046D02*
X157830000Y-124627142D01*
X157791904Y-124703332D01*
X157791904Y-124893808D01*
X157830000Y-124969999D01*
X157868095Y-125008094D01*
X157944285Y-125046189D01*
X158020476Y-125046189D01*
X158134761Y-125008094D01*
X158591904Y-124550951D01*
X158591904Y-125046189D01*
X158495714Y-118295714D02*
X158533809Y-118257619D01*
X158571904Y-118143333D01*
X158571904Y-118067142D01*
X158533809Y-117952857D01*
X158457619Y-117876666D01*
X158381428Y-117838571D01*
X158229047Y-117800476D01*
X158114761Y-117800476D01*
X157962380Y-117838571D01*
X157886190Y-117876666D01*
X157810000Y-117952857D01*
X157771904Y-118067142D01*
X157771904Y-118143333D01*
X157810000Y-118257619D01*
X157848095Y-118295714D01*
X158038571Y-118981428D02*
X158571904Y-118981428D01*
X157733809Y-118790952D02*
X158305238Y-118600476D01*
X158305238Y-119095714D01*
X157771904Y-119781428D02*
X157771904Y-119400476D01*
X158152857Y-119362380D01*
X158114761Y-119400476D01*
X158076666Y-119476666D01*
X158076666Y-119667142D01*
X158114761Y-119743333D01*
X158152857Y-119781428D01*
X158229047Y-119819523D01*
X158419523Y-119819523D01*
X158495714Y-119781428D01*
X158533809Y-119743333D01*
X158571904Y-119667142D01*
X158571904Y-119476666D01*
X158533809Y-119400476D01*
X158495714Y-119362380D01*
X158415714Y-126135714D02*
X158453809Y-126097619D01*
X158491904Y-125983333D01*
X158491904Y-125907142D01*
X158453809Y-125792857D01*
X158377619Y-125716666D01*
X158301428Y-125678571D01*
X158149047Y-125640476D01*
X158034761Y-125640476D01*
X157882380Y-125678571D01*
X157806190Y-125716666D01*
X157730000Y-125792857D01*
X157691904Y-125907142D01*
X157691904Y-125983333D01*
X157730000Y-126097619D01*
X157768095Y-126135714D01*
X157958571Y-126821428D02*
X158491904Y-126821428D01*
X157653809Y-126630952D02*
X158225238Y-126440476D01*
X158225238Y-126935714D01*
X158034761Y-127354761D02*
X157996666Y-127278571D01*
X157958571Y-127240476D01*
X157882380Y-127202380D01*
X157844285Y-127202380D01*
X157768095Y-127240476D01*
X157730000Y-127278571D01*
X157691904Y-127354761D01*
X157691904Y-127507142D01*
X157730000Y-127583333D01*
X157768095Y-127621428D01*
X157844285Y-127659523D01*
X157882380Y-127659523D01*
X157958571Y-127621428D01*
X157996666Y-127583333D01*
X158034761Y-127507142D01*
X158034761Y-127354761D01*
X158072857Y-127278571D01*
X158110952Y-127240476D01*
X158187142Y-127202380D01*
X158339523Y-127202380D01*
X158415714Y-127240476D01*
X158453809Y-127278571D01*
X158491904Y-127354761D01*
X158491904Y-127507142D01*
X158453809Y-127583333D01*
X158415714Y-127621428D01*
X158339523Y-127659523D01*
X158187142Y-127659523D01*
X158110952Y-127621428D01*
X158072857Y-127583333D01*
X158034761Y-127507142D01*
X157350714Y-126135714D02*
X157388809Y-126097619D01*
X157426904Y-125983333D01*
X157426904Y-125907142D01*
X157388809Y-125792857D01*
X157312619Y-125716666D01*
X157236428Y-125678571D01*
X157084047Y-125640476D01*
X156969761Y-125640476D01*
X156817380Y-125678571D01*
X156741190Y-125716666D01*
X156665000Y-125792857D01*
X156626904Y-125907142D01*
X156626904Y-125983333D01*
X156665000Y-126097619D01*
X156703095Y-126135714D01*
X156893571Y-126821428D02*
X157426904Y-126821428D01*
X156588809Y-126630952D02*
X157160238Y-126440476D01*
X157160238Y-126935714D01*
X156703095Y-127202380D02*
X156665000Y-127240476D01*
X156626904Y-127316666D01*
X156626904Y-127507142D01*
X156665000Y-127583333D01*
X156703095Y-127621428D01*
X156779285Y-127659523D01*
X156855476Y-127659523D01*
X156969761Y-127621428D01*
X157426904Y-127164285D01*
X157426904Y-127659523D01*
X156215714Y-126135714D02*
X156253809Y-126097619D01*
X156291904Y-125983333D01*
X156291904Y-125907142D01*
X156253809Y-125792857D01*
X156177619Y-125716666D01*
X156101428Y-125678571D01*
X155949047Y-125640476D01*
X155834761Y-125640476D01*
X155682380Y-125678571D01*
X155606190Y-125716666D01*
X155530000Y-125792857D01*
X155491904Y-125907142D01*
X155491904Y-125983333D01*
X155530000Y-126097619D01*
X155568095Y-126135714D01*
X155491904Y-126402380D02*
X155491904Y-126897619D01*
X155796666Y-126630952D01*
X155796666Y-126745238D01*
X155834761Y-126821428D01*
X155872857Y-126859523D01*
X155949047Y-126897619D01*
X156139523Y-126897619D01*
X156215714Y-126859523D01*
X156253809Y-126821428D01*
X156291904Y-126745238D01*
X156291904Y-126516666D01*
X156253809Y-126440476D01*
X156215714Y-126402380D01*
X156291904Y-127278571D02*
X156291904Y-127430952D01*
X156253809Y-127507142D01*
X156215714Y-127545238D01*
X156101428Y-127621428D01*
X155949047Y-127659523D01*
X155644285Y-127659523D01*
X155568095Y-127621428D01*
X155530000Y-127583333D01*
X155491904Y-127507142D01*
X155491904Y-127354761D01*
X155530000Y-127278571D01*
X155568095Y-127240476D01*
X155644285Y-127202380D01*
X155834761Y-127202380D01*
X155910952Y-127240476D01*
X155949047Y-127278571D01*
X155987142Y-127354761D01*
X155987142Y-127507142D01*
X155949047Y-127583333D01*
X155910952Y-127621428D01*
X155834761Y-127659523D01*
X157300714Y-123522380D02*
X157338809Y-123484285D01*
X157376904Y-123369999D01*
X157376904Y-123293808D01*
X157338809Y-123179523D01*
X157262619Y-123103332D01*
X157186428Y-123065237D01*
X157034047Y-123027142D01*
X156919761Y-123027142D01*
X156767380Y-123065237D01*
X156691190Y-123103332D01*
X156615000Y-123179523D01*
X156576904Y-123293808D01*
X156576904Y-123369999D01*
X156615000Y-123484285D01*
X156653095Y-123522380D01*
X156576904Y-124246189D02*
X156576904Y-123865237D01*
X156957857Y-123827142D01*
X156919761Y-123865237D01*
X156881666Y-123941427D01*
X156881666Y-124131904D01*
X156919761Y-124208094D01*
X156957857Y-124246189D01*
X157034047Y-124284285D01*
X157224523Y-124284285D01*
X157300714Y-124246189D01*
X157338809Y-124208094D01*
X157376904Y-124131904D01*
X157376904Y-123941427D01*
X157338809Y-123865237D01*
X157300714Y-123827142D01*
X156576904Y-124550951D02*
X156576904Y-125046189D01*
X156881666Y-124779523D01*
X156881666Y-124893808D01*
X156919761Y-124969999D01*
X156957857Y-125008094D01*
X157034047Y-125046189D01*
X157224523Y-125046189D01*
X157300714Y-125008094D01*
X157338809Y-124969999D01*
X157376904Y-124893808D01*
X157376904Y-124665237D01*
X157338809Y-124589046D01*
X157300714Y-124550951D01*
X148395714Y-105375714D02*
X148433809Y-105337619D01*
X148471904Y-105223333D01*
X148471904Y-105147142D01*
X148433809Y-105032857D01*
X148357619Y-104956666D01*
X148281428Y-104918571D01*
X148129047Y-104880476D01*
X148014761Y-104880476D01*
X147862380Y-104918571D01*
X147786190Y-104956666D01*
X147710000Y-105032857D01*
X147671904Y-105147142D01*
X147671904Y-105223333D01*
X147710000Y-105337619D01*
X147748095Y-105375714D01*
X147938571Y-106061428D02*
X148471904Y-106061428D01*
X147633809Y-105870952D02*
X148205238Y-105680476D01*
X148205238Y-106175714D01*
X148471904Y-106518571D02*
X148471904Y-106670952D01*
X148433809Y-106747142D01*
X148395714Y-106785238D01*
X148281428Y-106861428D01*
X148129047Y-106899523D01*
X147824285Y-106899523D01*
X147748095Y-106861428D01*
X147710000Y-106823333D01*
X147671904Y-106747142D01*
X147671904Y-106594761D01*
X147710000Y-106518571D01*
X147748095Y-106480476D01*
X147824285Y-106442380D01*
X148014761Y-106442380D01*
X148090952Y-106480476D01*
X148129047Y-106518571D01*
X148167142Y-106594761D01*
X148167142Y-106747142D01*
X148129047Y-106823333D01*
X148090952Y-106861428D01*
X148014761Y-106899523D01*
X155689285Y-118620714D02*
X155727380Y-118658809D01*
X155841666Y-118696904D01*
X155917857Y-118696904D01*
X156032142Y-118658809D01*
X156108333Y-118582619D01*
X156146428Y-118506428D01*
X156184523Y-118354047D01*
X156184523Y-118239761D01*
X156146428Y-118087380D01*
X156108333Y-118011190D01*
X156032142Y-117935000D01*
X155917857Y-117896904D01*
X155841666Y-117896904D01*
X155727380Y-117935000D01*
X155689285Y-117973095D01*
X155003571Y-118163571D02*
X155003571Y-118696904D01*
X155194047Y-117858809D02*
X155384523Y-118430238D01*
X154889285Y-118430238D01*
X154241666Y-118163571D02*
X154241666Y-118696904D01*
X154432142Y-117858809D02*
X154622619Y-118430238D01*
X154127380Y-118430238D01*
X157300714Y-120909047D02*
X157338809Y-120870952D01*
X157376904Y-120756666D01*
X157376904Y-120680475D01*
X157338809Y-120566190D01*
X157262619Y-120489999D01*
X157186428Y-120451904D01*
X157034047Y-120413809D01*
X156919761Y-120413809D01*
X156767380Y-120451904D01*
X156691190Y-120489999D01*
X156615000Y-120566190D01*
X156576904Y-120680475D01*
X156576904Y-120756666D01*
X156615000Y-120870952D01*
X156653095Y-120909047D01*
X156843571Y-121594761D02*
X157376904Y-121594761D01*
X156538809Y-121404285D02*
X157110238Y-121213809D01*
X157110238Y-121709047D01*
X156576904Y-122166190D02*
X156576904Y-122242380D01*
X156615000Y-122318571D01*
X156653095Y-122356666D01*
X156729285Y-122394761D01*
X156881666Y-122432856D01*
X157072142Y-122432856D01*
X157224523Y-122394761D01*
X157300714Y-122356666D01*
X157338809Y-122318571D01*
X157376904Y-122242380D01*
X157376904Y-122166190D01*
X157338809Y-122089999D01*
X157300714Y-122051904D01*
X157224523Y-122013809D01*
X157072142Y-121975713D01*
X156881666Y-121975713D01*
X156729285Y-122013809D01*
X156653095Y-122051904D01*
X156615000Y-122089999D01*
X156576904Y-122166190D01*
X140755714Y-111715714D02*
X140793809Y-111677619D01*
X140831904Y-111563333D01*
X140831904Y-111487142D01*
X140793809Y-111372857D01*
X140717619Y-111296666D01*
X140641428Y-111258571D01*
X140489047Y-111220476D01*
X140374761Y-111220476D01*
X140222380Y-111258571D01*
X140146190Y-111296666D01*
X140070000Y-111372857D01*
X140031904Y-111487142D01*
X140031904Y-111563333D01*
X140070000Y-111677619D01*
X140108095Y-111715714D01*
X140031904Y-111982380D02*
X140031904Y-112477619D01*
X140336666Y-112210952D01*
X140336666Y-112325238D01*
X140374761Y-112401428D01*
X140412857Y-112439523D01*
X140489047Y-112477619D01*
X140679523Y-112477619D01*
X140755714Y-112439523D01*
X140793809Y-112401428D01*
X140831904Y-112325238D01*
X140831904Y-112096666D01*
X140793809Y-112020476D01*
X140755714Y-111982380D01*
X140374761Y-112934761D02*
X140336666Y-112858571D01*
X140298571Y-112820476D01*
X140222380Y-112782380D01*
X140184285Y-112782380D01*
X140108095Y-112820476D01*
X140070000Y-112858571D01*
X140031904Y-112934761D01*
X140031904Y-113087142D01*
X140070000Y-113163333D01*
X140108095Y-113201428D01*
X140184285Y-113239523D01*
X140222380Y-113239523D01*
X140298571Y-113201428D01*
X140336666Y-113163333D01*
X140374761Y-113087142D01*
X140374761Y-112934761D01*
X140412857Y-112858571D01*
X140450952Y-112820476D01*
X140527142Y-112782380D01*
X140679523Y-112782380D01*
X140755714Y-112820476D01*
X140793809Y-112858571D01*
X140831904Y-112934761D01*
X140831904Y-113087142D01*
X140793809Y-113163333D01*
X140755714Y-113201428D01*
X140679523Y-113239523D01*
X140527142Y-113239523D01*
X140450952Y-113201428D01*
X140412857Y-113163333D01*
X140374761Y-113087142D01*
X155699285Y-119670714D02*
X155737380Y-119708809D01*
X155851666Y-119746904D01*
X155927857Y-119746904D01*
X156042142Y-119708809D01*
X156118333Y-119632619D01*
X156156428Y-119556428D01*
X156194523Y-119404047D01*
X156194523Y-119289761D01*
X156156428Y-119137380D01*
X156118333Y-119061190D01*
X156042142Y-118985000D01*
X155927857Y-118946904D01*
X155851666Y-118946904D01*
X155737380Y-118985000D01*
X155699285Y-119023095D01*
X154975476Y-118946904D02*
X155356428Y-118946904D01*
X155394523Y-119327857D01*
X155356428Y-119289761D01*
X155280238Y-119251666D01*
X155089761Y-119251666D01*
X155013571Y-119289761D01*
X154975476Y-119327857D01*
X154937380Y-119404047D01*
X154937380Y-119594523D01*
X154975476Y-119670714D01*
X155013571Y-119708809D01*
X155089761Y-119746904D01*
X155280238Y-119746904D01*
X155356428Y-119708809D01*
X155394523Y-119670714D01*
X154670714Y-118946904D02*
X154137380Y-118946904D01*
X154480238Y-119746904D01*
X154614285Y-126455714D02*
X154652380Y-126493809D01*
X154766666Y-126531904D01*
X154842857Y-126531904D01*
X154957142Y-126493809D01*
X155033333Y-126417619D01*
X155071428Y-126341428D01*
X155109523Y-126189047D01*
X155109523Y-126074761D01*
X155071428Y-125922380D01*
X155033333Y-125846190D01*
X154957142Y-125770000D01*
X154842857Y-125731904D01*
X154766666Y-125731904D01*
X154652380Y-125770000D01*
X154614285Y-125808095D01*
X153890476Y-125731904D02*
X154271428Y-125731904D01*
X154309523Y-126112857D01*
X154271428Y-126074761D01*
X154195238Y-126036666D01*
X154004761Y-126036666D01*
X153928571Y-126074761D01*
X153890476Y-126112857D01*
X153852380Y-126189047D01*
X153852380Y-126379523D01*
X153890476Y-126455714D01*
X153928571Y-126493809D01*
X154004761Y-126531904D01*
X154195238Y-126531904D01*
X154271428Y-126493809D01*
X154309523Y-126455714D01*
X153166666Y-125998571D02*
X153166666Y-126531904D01*
X153357142Y-125693809D02*
X153547619Y-126265238D01*
X153052380Y-126265238D01*
X145884285Y-116295714D02*
X145922380Y-116333809D01*
X146036666Y-116371904D01*
X146112857Y-116371904D01*
X146227142Y-116333809D01*
X146303333Y-116257619D01*
X146341428Y-116181428D01*
X146379523Y-116029047D01*
X146379523Y-115914761D01*
X146341428Y-115762380D01*
X146303333Y-115686190D01*
X146227142Y-115610000D01*
X146112857Y-115571904D01*
X146036666Y-115571904D01*
X145922380Y-115610000D01*
X145884285Y-115648095D01*
X145160476Y-115571904D02*
X145541428Y-115571904D01*
X145579523Y-115952857D01*
X145541428Y-115914761D01*
X145465238Y-115876666D01*
X145274761Y-115876666D01*
X145198571Y-115914761D01*
X145160476Y-115952857D01*
X145122380Y-116029047D01*
X145122380Y-116219523D01*
X145160476Y-116295714D01*
X145198571Y-116333809D01*
X145274761Y-116371904D01*
X145465238Y-116371904D01*
X145541428Y-116333809D01*
X145579523Y-116295714D01*
X144627142Y-115571904D02*
X144550952Y-115571904D01*
X144474761Y-115610000D01*
X144436666Y-115648095D01*
X144398571Y-115724285D01*
X144360476Y-115876666D01*
X144360476Y-116067142D01*
X144398571Y-116219523D01*
X144436666Y-116295714D01*
X144474761Y-116333809D01*
X144550952Y-116371904D01*
X144627142Y-116371904D01*
X144703333Y-116333809D01*
X144741428Y-116295714D01*
X144779523Y-116219523D01*
X144817619Y-116067142D01*
X144817619Y-115876666D01*
X144779523Y-115724285D01*
X144741428Y-115648095D01*
X144703333Y-115610000D01*
X144627142Y-115571904D01*
X139035714Y-114735714D02*
X139073809Y-114697619D01*
X139111904Y-114583333D01*
X139111904Y-114507142D01*
X139073809Y-114392857D01*
X138997619Y-114316666D01*
X138921428Y-114278571D01*
X138769047Y-114240476D01*
X138654761Y-114240476D01*
X138502380Y-114278571D01*
X138426190Y-114316666D01*
X138350000Y-114392857D01*
X138311904Y-114507142D01*
X138311904Y-114583333D01*
X138350000Y-114697619D01*
X138388095Y-114735714D01*
X138578571Y-115421428D02*
X139111904Y-115421428D01*
X138273809Y-115230952D02*
X138845238Y-115040476D01*
X138845238Y-115535714D01*
X138311904Y-116183333D02*
X138311904Y-116030952D01*
X138350000Y-115954761D01*
X138388095Y-115916666D01*
X138502380Y-115840476D01*
X138654761Y-115802380D01*
X138959523Y-115802380D01*
X139035714Y-115840476D01*
X139073809Y-115878571D01*
X139111904Y-115954761D01*
X139111904Y-116107142D01*
X139073809Y-116183333D01*
X139035714Y-116221428D01*
X138959523Y-116259523D01*
X138769047Y-116259523D01*
X138692857Y-116221428D01*
X138654761Y-116183333D01*
X138616666Y-116107142D01*
X138616666Y-115954761D01*
X138654761Y-115878571D01*
X138692857Y-115840476D01*
X138769047Y-115802380D01*
X138985714Y-117315714D02*
X139023809Y-117277619D01*
X139061904Y-117163333D01*
X139061904Y-117087142D01*
X139023809Y-116972857D01*
X138947619Y-116896666D01*
X138871428Y-116858571D01*
X138719047Y-116820476D01*
X138604761Y-116820476D01*
X138452380Y-116858571D01*
X138376190Y-116896666D01*
X138300000Y-116972857D01*
X138261904Y-117087142D01*
X138261904Y-117163333D01*
X138300000Y-117277619D01*
X138338095Y-117315714D01*
X138528571Y-118001428D02*
X139061904Y-118001428D01*
X138223809Y-117810952D02*
X138795238Y-117620476D01*
X138795238Y-118115714D01*
X139061904Y-118839523D02*
X139061904Y-118382380D01*
X139061904Y-118610952D02*
X138261904Y-118610952D01*
X138376190Y-118534761D01*
X138452380Y-118458571D01*
X138490476Y-118382380D01*
X142045714Y-108035714D02*
X142083809Y-107997619D01*
X142121904Y-107883333D01*
X142121904Y-107807142D01*
X142083809Y-107692857D01*
X142007619Y-107616666D01*
X141931428Y-107578571D01*
X141779047Y-107540476D01*
X141664761Y-107540476D01*
X141512380Y-107578571D01*
X141436190Y-107616666D01*
X141360000Y-107692857D01*
X141321904Y-107807142D01*
X141321904Y-107883333D01*
X141360000Y-107997619D01*
X141398095Y-108035714D01*
X141321904Y-108302380D02*
X141321904Y-108797619D01*
X141626666Y-108530952D01*
X141626666Y-108645238D01*
X141664761Y-108721428D01*
X141702857Y-108759523D01*
X141779047Y-108797619D01*
X141969523Y-108797619D01*
X142045714Y-108759523D01*
X142083809Y-108721428D01*
X142121904Y-108645238D01*
X142121904Y-108416666D01*
X142083809Y-108340476D01*
X142045714Y-108302380D01*
X141321904Y-109064285D02*
X141321904Y-109597619D01*
X142121904Y-109254761D01*
X110364285Y-121075714D02*
X110402380Y-121113809D01*
X110516666Y-121151904D01*
X110592857Y-121151904D01*
X110707142Y-121113809D01*
X110783333Y-121037619D01*
X110821428Y-120961428D01*
X110859523Y-120809047D01*
X110859523Y-120694761D01*
X110821428Y-120542380D01*
X110783333Y-120466190D01*
X110707142Y-120390000D01*
X110592857Y-120351904D01*
X110516666Y-120351904D01*
X110402380Y-120390000D01*
X110364285Y-120428095D01*
X110097619Y-120351904D02*
X109602380Y-120351904D01*
X109869047Y-120656666D01*
X109754761Y-120656666D01*
X109678571Y-120694761D01*
X109640476Y-120732857D01*
X109602380Y-120809047D01*
X109602380Y-120999523D01*
X109640476Y-121075714D01*
X109678571Y-121113809D01*
X109754761Y-121151904D01*
X109983333Y-121151904D01*
X110059523Y-121113809D01*
X110097619Y-121075714D01*
X108916666Y-120351904D02*
X109069047Y-120351904D01*
X109145238Y-120390000D01*
X109183333Y-120428095D01*
X109259523Y-120542380D01*
X109297619Y-120694761D01*
X109297619Y-120999523D01*
X109259523Y-121075714D01*
X109221428Y-121113809D01*
X109145238Y-121151904D01*
X108992857Y-121151904D01*
X108916666Y-121113809D01*
X108878571Y-121075714D01*
X108840476Y-120999523D01*
X108840476Y-120809047D01*
X108878571Y-120732857D01*
X108916666Y-120694761D01*
X108992857Y-120656666D01*
X109145238Y-120656666D01*
X109221428Y-120694761D01*
X109259523Y-120732857D01*
X109297619Y-120809047D01*
X116884285Y-125579046D02*
X116922380Y-125617141D01*
X117036666Y-125655236D01*
X117112857Y-125655236D01*
X117227142Y-125617141D01*
X117303333Y-125540951D01*
X117341428Y-125464760D01*
X117379523Y-125312379D01*
X117379523Y-125198093D01*
X117341428Y-125045712D01*
X117303333Y-124969522D01*
X117227142Y-124893332D01*
X117112857Y-124855236D01*
X117036666Y-124855236D01*
X116922380Y-124893332D01*
X116884285Y-124931427D01*
X116617619Y-124855236D02*
X116122380Y-124855236D01*
X116389047Y-125159998D01*
X116274761Y-125159998D01*
X116198571Y-125198093D01*
X116160476Y-125236189D01*
X116122380Y-125312379D01*
X116122380Y-125502855D01*
X116160476Y-125579046D01*
X116198571Y-125617141D01*
X116274761Y-125655236D01*
X116503333Y-125655236D01*
X116579523Y-125617141D01*
X116617619Y-125579046D01*
X115436666Y-125121903D02*
X115436666Y-125655236D01*
X115627142Y-124817141D02*
X115817619Y-125388570D01*
X115322380Y-125388570D01*
X103734285Y-117835714D02*
X103772380Y-117873809D01*
X103886666Y-117911904D01*
X103962857Y-117911904D01*
X104077142Y-117873809D01*
X104153333Y-117797619D01*
X104191428Y-117721428D01*
X104229523Y-117569047D01*
X104229523Y-117454761D01*
X104191428Y-117302380D01*
X104153333Y-117226190D01*
X104077142Y-117150000D01*
X103962857Y-117111904D01*
X103886666Y-117111904D01*
X103772380Y-117150000D01*
X103734285Y-117188095D01*
X103467619Y-117111904D02*
X102972380Y-117111904D01*
X103239047Y-117416666D01*
X103124761Y-117416666D01*
X103048571Y-117454761D01*
X103010476Y-117492857D01*
X102972380Y-117569047D01*
X102972380Y-117759523D01*
X103010476Y-117835714D01*
X103048571Y-117873809D01*
X103124761Y-117911904D01*
X103353333Y-117911904D01*
X103429523Y-117873809D01*
X103467619Y-117835714D01*
X102210476Y-117911904D02*
X102667619Y-117911904D01*
X102439047Y-117911904D02*
X102439047Y-117111904D01*
X102515238Y-117226190D01*
X102591428Y-117302380D01*
X102667619Y-117340476D01*
X116884285Y-127572378D02*
X116922380Y-127610473D01*
X117036666Y-127648568D01*
X117112857Y-127648568D01*
X117227142Y-127610473D01*
X117303333Y-127534283D01*
X117341428Y-127458092D01*
X117379523Y-127305711D01*
X117379523Y-127191425D01*
X117341428Y-127039044D01*
X117303333Y-126962854D01*
X117227142Y-126886664D01*
X117112857Y-126848568D01*
X117036666Y-126848568D01*
X116922380Y-126886664D01*
X116884285Y-126924759D01*
X116617619Y-126848568D02*
X116122380Y-126848568D01*
X116389047Y-127153330D01*
X116274761Y-127153330D01*
X116198571Y-127191425D01*
X116160476Y-127229521D01*
X116122380Y-127305711D01*
X116122380Y-127496187D01*
X116160476Y-127572378D01*
X116198571Y-127610473D01*
X116274761Y-127648568D01*
X116503333Y-127648568D01*
X116579523Y-127610473D01*
X116617619Y-127572378D01*
X115627142Y-126848568D02*
X115550952Y-126848568D01*
X115474761Y-126886664D01*
X115436666Y-126924759D01*
X115398571Y-127000949D01*
X115360476Y-127153330D01*
X115360476Y-127343806D01*
X115398571Y-127496187D01*
X115436666Y-127572378D01*
X115474761Y-127610473D01*
X115550952Y-127648568D01*
X115627142Y-127648568D01*
X115703333Y-127610473D01*
X115741428Y-127572378D01*
X115779523Y-127496187D01*
X115817619Y-127343806D01*
X115817619Y-127153330D01*
X115779523Y-127000949D01*
X115741428Y-126924759D01*
X115703333Y-126886664D01*
X115627142Y-126848568D01*
X103734285Y-116795714D02*
X103772380Y-116833809D01*
X103886666Y-116871904D01*
X103962857Y-116871904D01*
X104077142Y-116833809D01*
X104153333Y-116757619D01*
X104191428Y-116681428D01*
X104229523Y-116529047D01*
X104229523Y-116414761D01*
X104191428Y-116262380D01*
X104153333Y-116186190D01*
X104077142Y-116110000D01*
X103962857Y-116071904D01*
X103886666Y-116071904D01*
X103772380Y-116110000D01*
X103734285Y-116148095D01*
X103429523Y-116148095D02*
X103391428Y-116110000D01*
X103315238Y-116071904D01*
X103124761Y-116071904D01*
X103048571Y-116110000D01*
X103010476Y-116148095D01*
X102972380Y-116224285D01*
X102972380Y-116300476D01*
X103010476Y-116414761D01*
X103467619Y-116871904D01*
X102972380Y-116871904D01*
X102705714Y-116071904D02*
X102172380Y-116071904D01*
X102515238Y-116871904D01*
X116884285Y-126575712D02*
X116922380Y-126613807D01*
X117036666Y-126651902D01*
X117112857Y-126651902D01*
X117227142Y-126613807D01*
X117303333Y-126537617D01*
X117341428Y-126461426D01*
X117379523Y-126309045D01*
X117379523Y-126194759D01*
X117341428Y-126042378D01*
X117303333Y-125966188D01*
X117227142Y-125889998D01*
X117112857Y-125851902D01*
X117036666Y-125851902D01*
X116922380Y-125889998D01*
X116884285Y-125928093D01*
X116579523Y-125928093D02*
X116541428Y-125889998D01*
X116465238Y-125851902D01*
X116274761Y-125851902D01*
X116198571Y-125889998D01*
X116160476Y-125928093D01*
X116122380Y-126004283D01*
X116122380Y-126080474D01*
X116160476Y-126194759D01*
X116617619Y-126651902D01*
X116122380Y-126651902D01*
X115436666Y-125851902D02*
X115589047Y-125851902D01*
X115665238Y-125889998D01*
X115703333Y-125928093D01*
X115779523Y-126042378D01*
X115817619Y-126194759D01*
X115817619Y-126499521D01*
X115779523Y-126575712D01*
X115741428Y-126613807D01*
X115665238Y-126651902D01*
X115512857Y-126651902D01*
X115436666Y-126613807D01*
X115398571Y-126575712D01*
X115360476Y-126499521D01*
X115360476Y-126309045D01*
X115398571Y-126232855D01*
X115436666Y-126194759D01*
X115512857Y-126156664D01*
X115665238Y-126156664D01*
X115741428Y-126194759D01*
X115779523Y-126232855D01*
X115817619Y-126309045D01*
X110334285Y-125895714D02*
X110372380Y-125933809D01*
X110486666Y-125971904D01*
X110562857Y-125971904D01*
X110677142Y-125933809D01*
X110753333Y-125857619D01*
X110791428Y-125781428D01*
X110829523Y-125629047D01*
X110829523Y-125514761D01*
X110791428Y-125362380D01*
X110753333Y-125286190D01*
X110677142Y-125210000D01*
X110562857Y-125171904D01*
X110486666Y-125171904D01*
X110372380Y-125210000D01*
X110334285Y-125248095D01*
X110029523Y-125248095D02*
X109991428Y-125210000D01*
X109915238Y-125171904D01*
X109724761Y-125171904D01*
X109648571Y-125210000D01*
X109610476Y-125248095D01*
X109572380Y-125324285D01*
X109572380Y-125400476D01*
X109610476Y-125514761D01*
X110067619Y-125971904D01*
X109572380Y-125971904D01*
X109305714Y-125171904D02*
X108810476Y-125171904D01*
X109077142Y-125476666D01*
X108962857Y-125476666D01*
X108886666Y-125514761D01*
X108848571Y-125552857D01*
X108810476Y-125629047D01*
X108810476Y-125819523D01*
X108848571Y-125895714D01*
X108886666Y-125933809D01*
X108962857Y-125971904D01*
X109191428Y-125971904D01*
X109267619Y-125933809D01*
X109305714Y-125895714D01*
X110364285Y-116005714D02*
X110402380Y-116043809D01*
X110516666Y-116081904D01*
X110592857Y-116081904D01*
X110707142Y-116043809D01*
X110783333Y-115967619D01*
X110821428Y-115891428D01*
X110859523Y-115739047D01*
X110859523Y-115624761D01*
X110821428Y-115472380D01*
X110783333Y-115396190D01*
X110707142Y-115320000D01*
X110592857Y-115281904D01*
X110516666Y-115281904D01*
X110402380Y-115320000D01*
X110364285Y-115358095D01*
X110059523Y-115358095D02*
X110021428Y-115320000D01*
X109945238Y-115281904D01*
X109754761Y-115281904D01*
X109678571Y-115320000D01*
X109640476Y-115358095D01*
X109602380Y-115434285D01*
X109602380Y-115510476D01*
X109640476Y-115624761D01*
X110097619Y-116081904D01*
X109602380Y-116081904D01*
X109297619Y-115358095D02*
X109259523Y-115320000D01*
X109183333Y-115281904D01*
X108992857Y-115281904D01*
X108916666Y-115320000D01*
X108878571Y-115358095D01*
X108840476Y-115434285D01*
X108840476Y-115510476D01*
X108878571Y-115624761D01*
X109335714Y-116081904D01*
X108840476Y-116081904D01*
X116884285Y-128569044D02*
X116922380Y-128607139D01*
X117036666Y-128645234D01*
X117112857Y-128645234D01*
X117227142Y-128607139D01*
X117303333Y-128530949D01*
X117341428Y-128454758D01*
X117379523Y-128302377D01*
X117379523Y-128188091D01*
X117341428Y-128035710D01*
X117303333Y-127959520D01*
X117227142Y-127883330D01*
X117112857Y-127845234D01*
X117036666Y-127845234D01*
X116922380Y-127883330D01*
X116884285Y-127921425D01*
X116579523Y-127921425D02*
X116541428Y-127883330D01*
X116465238Y-127845234D01*
X116274761Y-127845234D01*
X116198571Y-127883330D01*
X116160476Y-127921425D01*
X116122380Y-127997615D01*
X116122380Y-128073806D01*
X116160476Y-128188091D01*
X116617619Y-128645234D01*
X116122380Y-128645234D01*
X115360476Y-128645234D02*
X115817619Y-128645234D01*
X115589047Y-128645234D02*
X115589047Y-127845234D01*
X115665238Y-127959520D01*
X115741428Y-128035710D01*
X115817619Y-128073806D01*
X116884285Y-129641900D02*
X117150952Y-129260948D01*
X117341428Y-129641900D02*
X117341428Y-128841900D01*
X117036666Y-128841900D01*
X116960476Y-128879996D01*
X116922380Y-128918091D01*
X116884285Y-128994281D01*
X116884285Y-129108567D01*
X116922380Y-129184757D01*
X116960476Y-129222853D01*
X117036666Y-129260948D01*
X117341428Y-129260948D01*
X116579523Y-128918091D02*
X116541428Y-128879996D01*
X116465238Y-128841900D01*
X116274761Y-128841900D01*
X116198571Y-128879996D01*
X116160476Y-128918091D01*
X116122380Y-128994281D01*
X116122380Y-129070472D01*
X116160476Y-129184757D01*
X116617619Y-129641900D01*
X116122380Y-129641900D01*
X115398571Y-128841900D02*
X115779523Y-128841900D01*
X115817619Y-129222853D01*
X115779523Y-129184757D01*
X115703333Y-129146662D01*
X115512857Y-129146662D01*
X115436666Y-129184757D01*
X115398571Y-129222853D01*
X115360476Y-129299043D01*
X115360476Y-129489519D01*
X115398571Y-129565710D01*
X115436666Y-129603805D01*
X115512857Y-129641900D01*
X115703333Y-129641900D01*
X115779523Y-129603805D01*
X115817619Y-129565710D01*
X121525714Y-106565714D02*
X121563809Y-106527619D01*
X121601904Y-106413333D01*
X121601904Y-106337142D01*
X121563809Y-106222857D01*
X121487619Y-106146666D01*
X121411428Y-106108571D01*
X121259047Y-106070476D01*
X121144761Y-106070476D01*
X120992380Y-106108571D01*
X120916190Y-106146666D01*
X120840000Y-106222857D01*
X120801904Y-106337142D01*
X120801904Y-106413333D01*
X120840000Y-106527619D01*
X120878095Y-106565714D01*
X120801904Y-107289523D02*
X120801904Y-106908571D01*
X121182857Y-106870476D01*
X121144761Y-106908571D01*
X121106666Y-106984761D01*
X121106666Y-107175238D01*
X121144761Y-107251428D01*
X121182857Y-107289523D01*
X121259047Y-107327619D01*
X121449523Y-107327619D01*
X121525714Y-107289523D01*
X121563809Y-107251428D01*
X121601904Y-107175238D01*
X121601904Y-106984761D01*
X121563809Y-106908571D01*
X121525714Y-106870476D01*
X121144761Y-107784761D02*
X121106666Y-107708571D01*
X121068571Y-107670476D01*
X120992380Y-107632380D01*
X120954285Y-107632380D01*
X120878095Y-107670476D01*
X120840000Y-107708571D01*
X120801904Y-107784761D01*
X120801904Y-107937142D01*
X120840000Y-108013333D01*
X120878095Y-108051428D01*
X120954285Y-108089523D01*
X120992380Y-108089523D01*
X121068571Y-108051428D01*
X121106666Y-108013333D01*
X121144761Y-107937142D01*
X121144761Y-107784761D01*
X121182857Y-107708571D01*
X121220952Y-107670476D01*
X121297142Y-107632380D01*
X121449523Y-107632380D01*
X121525714Y-107670476D01*
X121563809Y-107708571D01*
X121601904Y-107784761D01*
X121601904Y-107937142D01*
X121563809Y-108013333D01*
X121525714Y-108051428D01*
X121449523Y-108089523D01*
X121297142Y-108089523D01*
X121220952Y-108051428D01*
X121182857Y-108013333D01*
X121144761Y-107937142D01*
X141545714Y-123785714D02*
X141583809Y-123747619D01*
X141621904Y-123633333D01*
X141621904Y-123557142D01*
X141583809Y-123442857D01*
X141507619Y-123366666D01*
X141431428Y-123328571D01*
X141279047Y-123290476D01*
X141164761Y-123290476D01*
X141012380Y-123328571D01*
X140936190Y-123366666D01*
X140860000Y-123442857D01*
X140821904Y-123557142D01*
X140821904Y-123633333D01*
X140860000Y-123747619D01*
X140898095Y-123785714D01*
X141621904Y-124547619D02*
X141621904Y-124090476D01*
X141621904Y-124319047D02*
X140821904Y-124319047D01*
X140936190Y-124242857D01*
X141012380Y-124166666D01*
X141050476Y-124090476D01*
X140821904Y-125271428D02*
X140821904Y-124890476D01*
X141202857Y-124852380D01*
X141164761Y-124890476D01*
X141126666Y-124966666D01*
X141126666Y-125157142D01*
X141164761Y-125233333D01*
X141202857Y-125271428D01*
X141279047Y-125309523D01*
X141469523Y-125309523D01*
X141545714Y-125271428D01*
X141583809Y-125233333D01*
X141621904Y-125157142D01*
X141621904Y-124966666D01*
X141583809Y-124890476D01*
X141545714Y-124852380D01*
X142635714Y-123785713D02*
X142673809Y-123747618D01*
X142711904Y-123633332D01*
X142711904Y-123557141D01*
X142673809Y-123442856D01*
X142597619Y-123366665D01*
X142521428Y-123328570D01*
X142369047Y-123290475D01*
X142254761Y-123290475D01*
X142102380Y-123328570D01*
X142026190Y-123366665D01*
X141950000Y-123442856D01*
X141911904Y-123557141D01*
X141911904Y-123633332D01*
X141950000Y-123747618D01*
X141988095Y-123785713D01*
X142711904Y-124547618D02*
X142711904Y-124090475D01*
X142711904Y-124319046D02*
X141911904Y-124319046D01*
X142026190Y-124242856D01*
X142102380Y-124166665D01*
X142140476Y-124090475D01*
X141911904Y-125042856D02*
X141911904Y-125119046D01*
X141950000Y-125195237D01*
X141988095Y-125233332D01*
X142064285Y-125271427D01*
X142216666Y-125309522D01*
X142407142Y-125309522D01*
X142559523Y-125271427D01*
X142635714Y-125233332D01*
X142673809Y-125195237D01*
X142711904Y-125119046D01*
X142711904Y-125042856D01*
X142673809Y-124966665D01*
X142635714Y-124928570D01*
X142559523Y-124890475D01*
X142407142Y-124852379D01*
X142216666Y-124852379D01*
X142064285Y-124890475D01*
X141988095Y-124928570D01*
X141950000Y-124966665D01*
X141911904Y-125042856D01*
X140265714Y-124136666D02*
X140303809Y-124098571D01*
X140341904Y-123984285D01*
X140341904Y-123908095D01*
X140303809Y-123793809D01*
X140227619Y-123717619D01*
X140151428Y-123679523D01*
X139999047Y-123641428D01*
X139884761Y-123641428D01*
X139732380Y-123679523D01*
X139656190Y-123717619D01*
X139580000Y-123793809D01*
X139541904Y-123908095D01*
X139541904Y-123984285D01*
X139580000Y-124098571D01*
X139618095Y-124136666D01*
X140341904Y-124898571D02*
X140341904Y-124441428D01*
X140341904Y-124670000D02*
X139541904Y-124670000D01*
X139656190Y-124593809D01*
X139732380Y-124517619D01*
X139770476Y-124441428D01*
X126056266Y-107045714D02*
X126094361Y-107007619D01*
X126132456Y-106893333D01*
X126132456Y-106817142D01*
X126094361Y-106702857D01*
X126018171Y-106626666D01*
X125941980Y-106588571D01*
X125789599Y-106550476D01*
X125675313Y-106550476D01*
X125522932Y-106588571D01*
X125446742Y-106626666D01*
X125370552Y-106702857D01*
X125332456Y-106817142D01*
X125332456Y-106893333D01*
X125370552Y-107007619D01*
X125408647Y-107045714D01*
X125332456Y-107312380D02*
X125332456Y-107807619D01*
X125637218Y-107540952D01*
X125637218Y-107655238D01*
X125675313Y-107731428D01*
X125713409Y-107769523D01*
X125789599Y-107807619D01*
X125980075Y-107807619D01*
X126056266Y-107769523D01*
X126094361Y-107731428D01*
X126132456Y-107655238D01*
X126132456Y-107426666D01*
X126094361Y-107350476D01*
X126056266Y-107312380D01*
X125332456Y-108531428D02*
X125332456Y-108150476D01*
X125713409Y-108112380D01*
X125675313Y-108150476D01*
X125637218Y-108226666D01*
X125637218Y-108417142D01*
X125675313Y-108493333D01*
X125713409Y-108531428D01*
X125789599Y-108569523D01*
X125980075Y-108569523D01*
X126056266Y-108531428D01*
X126094361Y-108493333D01*
X126132456Y-108417142D01*
X126132456Y-108226666D01*
X126094361Y-108150476D01*
X126056266Y-108112380D01*
X148371904Y-125375714D02*
X147990952Y-125109047D01*
X148371904Y-124918571D02*
X147571904Y-124918571D01*
X147571904Y-125223333D01*
X147610000Y-125299523D01*
X147648095Y-125337619D01*
X147724285Y-125375714D01*
X147838571Y-125375714D01*
X147914761Y-125337619D01*
X147952857Y-125299523D01*
X147990952Y-125223333D01*
X147990952Y-124918571D01*
X147648095Y-125680476D02*
X147610000Y-125718571D01*
X147571904Y-125794761D01*
X147571904Y-125985238D01*
X147610000Y-126061428D01*
X147648095Y-126099523D01*
X147724285Y-126137619D01*
X147800476Y-126137619D01*
X147914761Y-126099523D01*
X148371904Y-125642380D01*
X148371904Y-126137619D01*
X147571904Y-126404285D02*
X147571904Y-126899523D01*
X147876666Y-126632857D01*
X147876666Y-126747142D01*
X147914761Y-126823333D01*
X147952857Y-126861428D01*
X148029047Y-126899523D01*
X148219523Y-126899523D01*
X148295714Y-126861428D01*
X148333809Y-126823333D01*
X148371904Y-126747142D01*
X148371904Y-126518571D01*
X148333809Y-126442380D01*
X148295714Y-126404285D01*
X135091904Y-129630714D02*
X134710952Y-129364047D01*
X135091904Y-129173571D02*
X134291904Y-129173571D01*
X134291904Y-129478333D01*
X134330000Y-129554523D01*
X134368095Y-129592619D01*
X134444285Y-129630714D01*
X134558571Y-129630714D01*
X134634761Y-129592619D01*
X134672857Y-129554523D01*
X134710952Y-129478333D01*
X134710952Y-129173571D01*
X134368095Y-129935476D02*
X134330000Y-129973571D01*
X134291904Y-130049761D01*
X134291904Y-130240238D01*
X134330000Y-130316428D01*
X134368095Y-130354523D01*
X134444285Y-130392619D01*
X134520476Y-130392619D01*
X134634761Y-130354523D01*
X135091904Y-129897380D01*
X135091904Y-130392619D01*
X134368095Y-130697380D02*
X134330000Y-130735476D01*
X134291904Y-130811666D01*
X134291904Y-131002142D01*
X134330000Y-131078333D01*
X134368095Y-131116428D01*
X134444285Y-131154523D01*
X134520476Y-131154523D01*
X134634761Y-131116428D01*
X135091904Y-130659285D01*
X135091904Y-131154523D01*
X137306904Y-129630714D02*
X136925952Y-129364047D01*
X137306904Y-129173571D02*
X136506904Y-129173571D01*
X136506904Y-129478333D01*
X136545000Y-129554523D01*
X136583095Y-129592619D01*
X136659285Y-129630714D01*
X136773571Y-129630714D01*
X136849761Y-129592619D01*
X136887857Y-129554523D01*
X136925952Y-129478333D01*
X136925952Y-129173571D01*
X136583095Y-129935476D02*
X136545000Y-129973571D01*
X136506904Y-130049761D01*
X136506904Y-130240238D01*
X136545000Y-130316428D01*
X136583095Y-130354523D01*
X136659285Y-130392619D01*
X136735476Y-130392619D01*
X136849761Y-130354523D01*
X137306904Y-129897380D01*
X137306904Y-130392619D01*
X137306904Y-131154523D02*
X137306904Y-130697380D01*
X137306904Y-130925952D02*
X136506904Y-130925952D01*
X136621190Y-130849761D01*
X136697380Y-130773571D01*
X136735476Y-130697380D01*
X120131904Y-107045714D02*
X119750952Y-106779047D01*
X120131904Y-106588571D02*
X119331904Y-106588571D01*
X119331904Y-106893333D01*
X119370000Y-106969523D01*
X119408095Y-107007619D01*
X119484285Y-107045714D01*
X119598571Y-107045714D01*
X119674761Y-107007619D01*
X119712857Y-106969523D01*
X119750952Y-106893333D01*
X119750952Y-106588571D01*
X119331904Y-107312380D02*
X119331904Y-107807619D01*
X119636666Y-107540952D01*
X119636666Y-107655238D01*
X119674761Y-107731428D01*
X119712857Y-107769523D01*
X119789047Y-107807619D01*
X119979523Y-107807619D01*
X120055714Y-107769523D01*
X120093809Y-107731428D01*
X120131904Y-107655238D01*
X120131904Y-107426666D01*
X120093809Y-107350476D01*
X120055714Y-107312380D01*
X119331904Y-108302857D02*
X119331904Y-108379047D01*
X119370000Y-108455238D01*
X119408095Y-108493333D01*
X119484285Y-108531428D01*
X119636666Y-108569523D01*
X119827142Y-108569523D01*
X119979523Y-108531428D01*
X120055714Y-108493333D01*
X120093809Y-108455238D01*
X120131904Y-108379047D01*
X120131904Y-108302857D01*
X120093809Y-108226666D01*
X120055714Y-108188571D01*
X119979523Y-108150476D01*
X119827142Y-108112380D01*
X119636666Y-108112380D01*
X119484285Y-108150476D01*
X119408095Y-108188571D01*
X119370000Y-108226666D01*
X119331904Y-108302857D01*
X118330474Y-122196666D02*
X117949522Y-121930000D01*
X118330474Y-121739523D02*
X117530474Y-121739523D01*
X117530474Y-122044285D01*
X117568570Y-122120476D01*
X117606665Y-122158571D01*
X117682855Y-122196666D01*
X117797141Y-122196666D01*
X117873331Y-122158571D01*
X117911427Y-122120476D01*
X117949522Y-122044285D01*
X117949522Y-121739523D01*
X117530474Y-122463333D02*
X117530474Y-122958571D01*
X117835236Y-122691904D01*
X117835236Y-122806190D01*
X117873331Y-122882380D01*
X117911427Y-122920476D01*
X117987617Y-122958571D01*
X118178093Y-122958571D01*
X118254284Y-122920476D01*
X118292379Y-122882380D01*
X118330474Y-122806190D01*
X118330474Y-122577619D01*
X118292379Y-122501428D01*
X118254284Y-122463333D01*
X119286189Y-122196666D02*
X118905237Y-121930000D01*
X119286189Y-121739523D02*
X118486189Y-121739523D01*
X118486189Y-122044285D01*
X118524285Y-122120476D01*
X118562380Y-122158571D01*
X118638570Y-122196666D01*
X118752856Y-122196666D01*
X118829046Y-122158571D01*
X118867142Y-122120476D01*
X118905237Y-122044285D01*
X118905237Y-121739523D01*
X118562380Y-122501428D02*
X118524285Y-122539523D01*
X118486189Y-122615714D01*
X118486189Y-122806190D01*
X118524285Y-122882380D01*
X118562380Y-122920476D01*
X118638570Y-122958571D01*
X118714761Y-122958571D01*
X118829046Y-122920476D01*
X119286189Y-122463333D01*
X119286189Y-122958571D01*
X120241904Y-122196666D02*
X119860952Y-121930000D01*
X120241904Y-121739523D02*
X119441904Y-121739523D01*
X119441904Y-122044285D01*
X119480000Y-122120476D01*
X119518095Y-122158571D01*
X119594285Y-122196666D01*
X119708571Y-122196666D01*
X119784761Y-122158571D01*
X119822857Y-122120476D01*
X119860952Y-122044285D01*
X119860952Y-121739523D01*
X120241904Y-122958571D02*
X120241904Y-122501428D01*
X120241904Y-122730000D02*
X119441904Y-122730000D01*
X119556190Y-122653809D01*
X119632380Y-122577619D01*
X119670476Y-122501428D01*
X116785714Y-119965714D02*
X116823809Y-119927619D01*
X116861904Y-119813333D01*
X116861904Y-119737142D01*
X116823809Y-119622857D01*
X116747619Y-119546666D01*
X116671428Y-119508571D01*
X116519047Y-119470476D01*
X116404761Y-119470476D01*
X116252380Y-119508571D01*
X116176190Y-119546666D01*
X116100000Y-119622857D01*
X116061904Y-119737142D01*
X116061904Y-119813333D01*
X116100000Y-119927619D01*
X116138095Y-119965714D01*
X116861904Y-120727619D02*
X116861904Y-120270476D01*
X116861904Y-120499047D02*
X116061904Y-120499047D01*
X116176190Y-120422857D01*
X116252380Y-120346666D01*
X116290476Y-120270476D01*
X116061904Y-120994285D02*
X116061904Y-121527619D01*
X116861904Y-121184761D01*
X116890714Y-107045714D02*
X116928809Y-107007619D01*
X116966904Y-106893333D01*
X116966904Y-106817142D01*
X116928809Y-106702857D01*
X116852619Y-106626666D01*
X116776428Y-106588571D01*
X116624047Y-106550476D01*
X116509761Y-106550476D01*
X116357380Y-106588571D01*
X116281190Y-106626666D01*
X116205000Y-106702857D01*
X116166904Y-106817142D01*
X116166904Y-106893333D01*
X116205000Y-107007619D01*
X116243095Y-107045714D01*
X116966904Y-107807619D02*
X116966904Y-107350476D01*
X116966904Y-107579047D02*
X116166904Y-107579047D01*
X116281190Y-107502857D01*
X116357380Y-107426666D01*
X116395476Y-107350476D01*
X116166904Y-108493333D02*
X116166904Y-108340952D01*
X116205000Y-108264761D01*
X116243095Y-108226666D01*
X116357380Y-108150476D01*
X116509761Y-108112380D01*
X116814523Y-108112380D01*
X116890714Y-108150476D01*
X116928809Y-108188571D01*
X116966904Y-108264761D01*
X116966904Y-108417142D01*
X116928809Y-108493333D01*
X116890714Y-108531428D01*
X116814523Y-108569523D01*
X116624047Y-108569523D01*
X116547857Y-108531428D01*
X116509761Y-108493333D01*
X116471666Y-108417142D01*
X116471666Y-108264761D01*
X116509761Y-108188571D01*
X116547857Y-108150476D01*
X116624047Y-108112380D01*
X115075714Y-115015714D02*
X115113809Y-114977619D01*
X115151904Y-114863333D01*
X115151904Y-114787142D01*
X115113809Y-114672857D01*
X115037619Y-114596666D01*
X114961428Y-114558571D01*
X114809047Y-114520476D01*
X114694761Y-114520476D01*
X114542380Y-114558571D01*
X114466190Y-114596666D01*
X114390000Y-114672857D01*
X114351904Y-114787142D01*
X114351904Y-114863333D01*
X114390000Y-114977619D01*
X114428095Y-115015714D01*
X115151904Y-115777619D02*
X115151904Y-115320476D01*
X115151904Y-115549047D02*
X114351904Y-115549047D01*
X114466190Y-115472857D01*
X114542380Y-115396666D01*
X114580476Y-115320476D01*
X114618571Y-116463333D02*
X115151904Y-116463333D01*
X114313809Y-116272857D02*
X114885238Y-116082380D01*
X114885238Y-116577619D01*
X119000714Y-107045714D02*
X119038809Y-107007619D01*
X119076904Y-106893333D01*
X119076904Y-106817142D01*
X119038809Y-106702857D01*
X118962619Y-106626666D01*
X118886428Y-106588571D01*
X118734047Y-106550476D01*
X118619761Y-106550476D01*
X118467380Y-106588571D01*
X118391190Y-106626666D01*
X118315000Y-106702857D01*
X118276904Y-106817142D01*
X118276904Y-106893333D01*
X118315000Y-107007619D01*
X118353095Y-107045714D01*
X119076904Y-107807619D02*
X119076904Y-107350476D01*
X119076904Y-107579047D02*
X118276904Y-107579047D01*
X118391190Y-107502857D01*
X118467380Y-107426666D01*
X118505476Y-107350476D01*
X118276904Y-108074285D02*
X118276904Y-108569523D01*
X118581666Y-108302857D01*
X118581666Y-108417142D01*
X118619761Y-108493333D01*
X118657857Y-108531428D01*
X118734047Y-108569523D01*
X118924523Y-108569523D01*
X119000714Y-108531428D01*
X119038809Y-108493333D01*
X119076904Y-108417142D01*
X119076904Y-108188571D01*
X119038809Y-108112380D01*
X119000714Y-108074285D01*
X114965714Y-112405714D02*
X115003809Y-112367619D01*
X115041904Y-112253333D01*
X115041904Y-112177142D01*
X115003809Y-112062857D01*
X114927619Y-111986666D01*
X114851428Y-111948571D01*
X114699047Y-111910476D01*
X114584761Y-111910476D01*
X114432380Y-111948571D01*
X114356190Y-111986666D01*
X114280000Y-112062857D01*
X114241904Y-112177142D01*
X114241904Y-112253333D01*
X114280000Y-112367619D01*
X114318095Y-112405714D01*
X115041904Y-113167619D02*
X115041904Y-112710476D01*
X115041904Y-112939047D02*
X114241904Y-112939047D01*
X114356190Y-112862857D01*
X114432380Y-112786666D01*
X114470476Y-112710476D01*
X114318095Y-113472380D02*
X114280000Y-113510476D01*
X114241904Y-113586666D01*
X114241904Y-113777142D01*
X114280000Y-113853333D01*
X114318095Y-113891428D01*
X114394285Y-113929523D01*
X114470476Y-113929523D01*
X114584761Y-113891428D01*
X115041904Y-113434285D01*
X115041904Y-113929523D01*
X117945714Y-107045714D02*
X117983809Y-107007619D01*
X118021904Y-106893333D01*
X118021904Y-106817142D01*
X117983809Y-106702857D01*
X117907619Y-106626666D01*
X117831428Y-106588571D01*
X117679047Y-106550476D01*
X117564761Y-106550476D01*
X117412380Y-106588571D01*
X117336190Y-106626666D01*
X117260000Y-106702857D01*
X117221904Y-106817142D01*
X117221904Y-106893333D01*
X117260000Y-107007619D01*
X117298095Y-107045714D01*
X118021904Y-107807619D02*
X118021904Y-107350476D01*
X118021904Y-107579047D02*
X117221904Y-107579047D01*
X117336190Y-107502857D01*
X117412380Y-107426666D01*
X117450476Y-107350476D01*
X118021904Y-108569523D02*
X118021904Y-108112380D01*
X118021904Y-108340952D02*
X117221904Y-108340952D01*
X117336190Y-108264761D01*
X117412380Y-108188571D01*
X117450476Y-108112380D01*
X125006822Y-107426667D02*
X125044917Y-107388572D01*
X125083012Y-107274286D01*
X125083012Y-107198096D01*
X125044917Y-107083810D01*
X124968727Y-107007620D01*
X124892536Y-106969524D01*
X124740155Y-106931429D01*
X124625869Y-106931429D01*
X124473488Y-106969524D01*
X124397298Y-107007620D01*
X124321108Y-107083810D01*
X124283012Y-107198096D01*
X124283012Y-107274286D01*
X124321108Y-107388572D01*
X124359203Y-107426667D01*
X125083012Y-107807620D02*
X125083012Y-107960001D01*
X125044917Y-108036191D01*
X125006822Y-108074286D01*
X124892536Y-108150477D01*
X124740155Y-108188572D01*
X124435393Y-108188572D01*
X124359203Y-108150477D01*
X124321108Y-108112381D01*
X124283012Y-108036191D01*
X124283012Y-107883810D01*
X124321108Y-107807620D01*
X124359203Y-107769524D01*
X124435393Y-107731429D01*
X124625869Y-107731429D01*
X124702060Y-107769524D01*
X124740155Y-107807620D01*
X124778250Y-107883810D01*
X124778250Y-108036191D01*
X124740155Y-108112381D01*
X124702060Y-108150477D01*
X124625869Y-108188572D01*
X123863333Y-115695714D02*
X123901428Y-115733809D01*
X124015714Y-115771904D01*
X124091904Y-115771904D01*
X124206190Y-115733809D01*
X124282380Y-115657619D01*
X124320476Y-115581428D01*
X124358571Y-115429047D01*
X124358571Y-115314761D01*
X124320476Y-115162380D01*
X124282380Y-115086190D01*
X124206190Y-115010000D01*
X124091904Y-114971904D01*
X124015714Y-114971904D01*
X123901428Y-115010000D01*
X123863333Y-115048095D01*
X123406190Y-115314761D02*
X123482380Y-115276666D01*
X123520476Y-115238571D01*
X123558571Y-115162380D01*
X123558571Y-115124285D01*
X123520476Y-115048095D01*
X123482380Y-115010000D01*
X123406190Y-114971904D01*
X123253809Y-114971904D01*
X123177619Y-115010000D01*
X123139523Y-115048095D01*
X123101428Y-115124285D01*
X123101428Y-115162380D01*
X123139523Y-115238571D01*
X123177619Y-115276666D01*
X123253809Y-115314761D01*
X123406190Y-115314761D01*
X123482380Y-115352857D01*
X123520476Y-115390952D01*
X123558571Y-115467142D01*
X123558571Y-115619523D01*
X123520476Y-115695714D01*
X123482380Y-115733809D01*
X123406190Y-115771904D01*
X123253809Y-115771904D01*
X123177619Y-115733809D01*
X123139523Y-115695714D01*
X123101428Y-115619523D01*
X123101428Y-115467142D01*
X123139523Y-115390952D01*
X123177619Y-115352857D01*
X123253809Y-115314761D01*
X127225714Y-107426667D02*
X127263809Y-107388572D01*
X127301904Y-107274286D01*
X127301904Y-107198096D01*
X127263809Y-107083810D01*
X127187619Y-107007620D01*
X127111428Y-106969524D01*
X126959047Y-106931429D01*
X126844761Y-106931429D01*
X126692380Y-106969524D01*
X126616190Y-107007620D01*
X126540000Y-107083810D01*
X126501904Y-107198096D01*
X126501904Y-107274286D01*
X126540000Y-107388572D01*
X126578095Y-107426667D01*
X126501904Y-107693334D02*
X126501904Y-108226667D01*
X127301904Y-107883810D01*
X118393333Y-115705714D02*
X118431428Y-115743809D01*
X118545714Y-115781904D01*
X118621904Y-115781904D01*
X118736190Y-115743809D01*
X118812380Y-115667619D01*
X118850476Y-115591428D01*
X118888571Y-115439047D01*
X118888571Y-115324761D01*
X118850476Y-115172380D01*
X118812380Y-115096190D01*
X118736190Y-115020000D01*
X118621904Y-114981904D01*
X118545714Y-114981904D01*
X118431428Y-115020000D01*
X118393333Y-115058095D01*
X117707619Y-114981904D02*
X117860000Y-114981904D01*
X117936190Y-115020000D01*
X117974285Y-115058095D01*
X118050476Y-115172380D01*
X118088571Y-115324761D01*
X118088571Y-115629523D01*
X118050476Y-115705714D01*
X118012380Y-115743809D01*
X117936190Y-115781904D01*
X117783809Y-115781904D01*
X117707619Y-115743809D01*
X117669523Y-115705714D01*
X117631428Y-115629523D01*
X117631428Y-115439047D01*
X117669523Y-115362857D01*
X117707619Y-115324761D01*
X117783809Y-115286666D01*
X117936190Y-115286666D01*
X118012380Y-115324761D01*
X118050476Y-115362857D01*
X118088571Y-115439047D01*
X123957378Y-107426667D02*
X123995473Y-107388572D01*
X124033568Y-107274286D01*
X124033568Y-107198096D01*
X123995473Y-107083810D01*
X123919283Y-107007620D01*
X123843092Y-106969524D01*
X123690711Y-106931429D01*
X123576425Y-106931429D01*
X123424044Y-106969524D01*
X123347854Y-107007620D01*
X123271664Y-107083810D01*
X123233568Y-107198096D01*
X123233568Y-107274286D01*
X123271664Y-107388572D01*
X123309759Y-107426667D01*
X123233568Y-108150477D02*
X123233568Y-107769524D01*
X123614521Y-107731429D01*
X123576425Y-107769524D01*
X123538330Y-107845715D01*
X123538330Y-108036191D01*
X123576425Y-108112381D01*
X123614521Y-108150477D01*
X123690711Y-108188572D01*
X123881187Y-108188572D01*
X123957378Y-108150477D01*
X123995473Y-108112381D01*
X124033568Y-108036191D01*
X124033568Y-107845715D01*
X123995473Y-107769524D01*
X123957378Y-107731429D01*
X125165714Y-117276666D02*
X125203809Y-117238571D01*
X125241904Y-117124285D01*
X125241904Y-117048095D01*
X125203809Y-116933809D01*
X125127619Y-116857619D01*
X125051428Y-116819523D01*
X124899047Y-116781428D01*
X124784761Y-116781428D01*
X124632380Y-116819523D01*
X124556190Y-116857619D01*
X124480000Y-116933809D01*
X124441904Y-117048095D01*
X124441904Y-117124285D01*
X124480000Y-117238571D01*
X124518095Y-117276666D01*
X124708571Y-117962380D02*
X125241904Y-117962380D01*
X124403809Y-117771904D02*
X124975238Y-117581428D01*
X124975238Y-118076666D01*
X122907934Y-107426667D02*
X122946029Y-107388572D01*
X122984124Y-107274286D01*
X122984124Y-107198096D01*
X122946029Y-107083810D01*
X122869839Y-107007620D01*
X122793648Y-106969524D01*
X122641267Y-106931429D01*
X122526981Y-106931429D01*
X122374600Y-106969524D01*
X122298410Y-107007620D01*
X122222220Y-107083810D01*
X122184124Y-107198096D01*
X122184124Y-107274286D01*
X122222220Y-107388572D01*
X122260315Y-107426667D01*
X122184124Y-107693334D02*
X122184124Y-108188572D01*
X122488886Y-107921905D01*
X122488886Y-108036191D01*
X122526981Y-108112381D01*
X122565077Y-108150477D01*
X122641267Y-108188572D01*
X122831743Y-108188572D01*
X122907934Y-108150477D01*
X122946029Y-108112381D01*
X122984124Y-108036191D01*
X122984124Y-107807620D01*
X122946029Y-107731429D01*
X122907934Y-107693334D01*
X125085714Y-113296666D02*
X125123809Y-113258571D01*
X125161904Y-113144285D01*
X125161904Y-113068095D01*
X125123809Y-112953809D01*
X125047619Y-112877619D01*
X124971428Y-112839523D01*
X124819047Y-112801428D01*
X124704761Y-112801428D01*
X124552380Y-112839523D01*
X124476190Y-112877619D01*
X124400000Y-112953809D01*
X124361904Y-113068095D01*
X124361904Y-113144285D01*
X124400000Y-113258571D01*
X124438095Y-113296666D01*
X124438095Y-113601428D02*
X124400000Y-113639523D01*
X124361904Y-113715714D01*
X124361904Y-113906190D01*
X124400000Y-113982380D01*
X124438095Y-114020476D01*
X124514285Y-114058571D01*
X124590476Y-114058571D01*
X124704761Y-114020476D01*
X125161904Y-113563333D01*
X125161904Y-114058571D01*
M02*
