M48
; DRILL file {KiCad 5.1.5+dfsg1-2~bpo10+1} date Mon 09 Mar 2020 15:40:41 CET
; FORMAT={-:-/ absolute / metric / decimal}
; #@! TF.CreationDate,2020-03-09T15:40:41+01:00
; #@! TF.GenerationSoftware,Kicad,Pcbnew,5.1.5+dfsg1-2~bpo10+1
; #@! TF.FileFunction,Plated,1,6,PTH
FMAT,2
METRIC
T1C0.150
T2C0.700
T3C2.500
%
G90
G05
T1
X101.9Y-119.6
X102.32Y-126.0
X102.39Y-107.0
X104.9Y-117.0
X104.9Y-118.8
X105.1Y-124.9
X106.02Y-124.89
X106.4Y-116.7
X107.3Y-116.7
X108.1Y-125.6
X108.1Y-115.9
X108.1Y-116.7
X108.1Y-124.8
X108.1Y-126.4
X108.1Y-127.2
X108.4Y-120.35
X108.45Y-121.85
X108.5Y-119.5
X110.33Y-124.85
X111.1Y-119.6
X111.1Y-120.4
X111.1Y-121.2
X111.3Y-116.7
X111.3Y-117.4
X111.5Y-111.9
X111.9Y-119.6
X111.9Y-120.4
X111.9Y-121.2
X112.14Y-117.66
X112.5Y-123.3
X112.545Y-127.305
X112.545Y-128.295
X113.25Y-117.7
X113.5Y-130.25
X114.09Y-119.01
X114.1Y-114.9
X114.1Y-117.4
X115.0Y-117.65
X115.2Y-128.285
X115.2Y-129.3
X115.3Y-124.3
X115.3Y-125.1
X115.4Y-110.4
X115.4Y-112.4
X115.4Y-113.4
X115.4Y-114.4
X115.5Y-111.4
X115.5Y-115.25
X115.5Y-116.4
X115.5Y-118.9
X115.7Y-120.2
X115.834Y-117.358
X115.97Y-129.3
X115.98Y-128.28
X116.0Y-124.25
X116.43Y-129.92
X116.505Y-105.065
X117.0Y-108.9
X117.0Y-121.9
X117.503Y-120.897
X117.505Y-105.065
X117.9Y-125.4
X117.9Y-126.1
X117.975Y-118.4
X118.0Y-108.9
X118.0Y-112.4
X118.0Y-113.4
X118.0Y-114.4
X118.0Y-116.41
X118.0Y-117.4
X118.5Y-105.1
X118.75Y-103.4
X119.0Y-108.9
X119.0Y-112.4
X119.0Y-113.4
X119.0Y-114.4
X119.0Y-116.41
X119.0Y-117.4
X119.0Y-118.4
X119.0Y-120.9
X119.5Y-109.4
X119.5Y-121.4
X119.505Y-104.365
X119.855Y-126.2
X119.9Y-125.4
X119.975Y-113.4
X119.975Y-114.4
X120.0Y-108.9
X120.0Y-112.4
X120.0Y-116.4
X120.0Y-117.4
X120.0Y-118.4
X120.245Y-103.4
X121.0Y-108.9
X121.75Y-103.4
X121.99Y-113.395
X121.99Y-114.4
X122.0Y-112.4
X122.0Y-116.4
X122.0Y-117.4
X122.0Y-118.4
X122.005Y-108.405
X122.5Y-109.4
X123.0Y-112.4
X123.0Y-113.4
X123.0Y-114.4
X123.0Y-116.4
X123.0Y-117.4
X123.0Y-118.4
X123.25Y-103.4
X123.5Y-105.9
X123.5Y-107.4
X123.5Y-121.9
X123.5Y-122.65
X124.0Y-112.4
X124.0Y-113.4
X124.0Y-114.4
X124.0Y-116.4
X124.0Y-117.4
X124.0Y-121.4
X124.004Y-118.396
X124.3Y-109.4
X124.5Y-120.9
X125.4Y-109.4
X125.72Y-123.26
X125.89Y-129.93
X126.18Y-114.39
X126.205Y-106.205
X126.25Y-120.4
X126.3Y-113.4
X126.5Y-109.4
X126.5Y-115.4
X126.65Y-117.4
X126.895Y-116.71
X126.9Y-114.2
X127.175Y-115.745
X127.4Y-110.4
X127.505Y-117.95
X127.595Y-116.85
X127.875Y-116.22
X128.125Y-118.67
X128.245Y-123.215
X128.25Y-117.9
X128.5Y-109.9
X128.62Y-119.68
X128.895Y-125.67
X129.495Y-104.315
X129.765Y-119.916
X129.84Y-118.09
X129.875Y-126.235
X130.495Y-128.365
X130.5Y-106.68
X131.165Y-131.275
X131.245Y-127.065
X131.495Y-104.325
X132.22Y-122.55
X132.475Y-128.425
X132.5Y-109.9
X132.5Y-111.4
X132.5Y-112.4
X132.5Y-113.4
X132.5Y-114.4
X132.5Y-115.4
X132.59Y-125.7
X133.795Y-125.965
X134.715Y-125.845
X135.265Y-128.445
X135.73Y-123.25
X135.825Y-119.21
X136.485Y-128.605
X136.965Y-125.815
X137.02Y-117.15
X137.245Y-128.815
X137.755Y-108.845
X138.095Y-128.905
X138.1Y-125.9
X138.1Y-126.9
X138.245Y-129.715
X138.245Y-131.715
X138.94Y-131.7
X139.055Y-109.035
X139.08Y-119.4
X139.25Y-117.44
X139.925Y-111.575
X139.935Y-114.825
X139.945Y-116.119
X139.955Y-117.015
X139.98Y-119.28
X139.995Y-129.715
X140.035Y-110.195
X140.495Y-121.61
X140.775Y-126.895
X140.785Y-125.905
X140.82Y-114.393
X140.825Y-127.885
X140.95Y-120.17
X141.075Y-110.345
X141.109Y-113.458
X141.115Y-112.595
X141.25Y-128.95
X141.37Y-121.57
X141.385Y-110.945
X141.635Y-109.805
X141.73Y-129.56
X142.1Y-126.02
X142.22Y-129.02
X142.245Y-121.465
X142.374Y-108.327
X142.775Y-125.67
X143.015Y-110.735
X143.07Y-128.855
X143.075Y-119.685
X143.145Y-111.605
X143.187Y-129.805
X143.405Y-125.195
X143.495Y-120.625
X143.8Y-124.6
X143.9Y-129.02
X143.945Y-114.265
X143.945Y-115.078
X143.945Y-115.89
X143.945Y-116.703
X143.945Y-117.515
X143.985Y-126.155
X144.37Y-111.629
X144.495Y-121.61
X144.5Y-124.2
X144.736Y-110.973
X144.757Y-114.265
X144.757Y-117.515
X144.815Y-120.515
X145.2Y-125.95
X145.205Y-124.965
X145.36Y-121.62
X145.445Y-111.005
X145.5Y-120.66
X145.5Y-128.47
X145.57Y-114.265
X145.57Y-117.515
X146.0Y-124.7
X146.1Y-126.4
X146.115Y-127.855
X146.137Y-110.971
X146.25Y-128.75
X146.382Y-114.265
X146.382Y-117.515
X146.439Y-108.522
X146.495Y-121.74
X146.495Y-124.145
X146.94Y-110.803
X146.94Y-121.19
X147.17Y-108.42
X147.195Y-114.265
X147.195Y-115.078
X147.195Y-115.89
X147.195Y-116.703
X147.195Y-117.515
X147.41Y-121.74
X147.495Y-124.145
X147.71Y-110.79
X147.825Y-120.275
X147.99Y-131.47
X148.145Y-121.74
X148.345Y-111.075
X148.515Y-120.565
X149.065Y-108.375
X149.145Y-121.255
X149.2Y-129.085
X149.469Y-123.705
X149.5Y-127.9
X149.75Y-111.5
X149.775Y-110.785
X149.885Y-108.485
X149.885Y-120.015
X149.905Y-119.095
X149.973Y-113.533
X150.1Y-126.39
X150.1Y-125.6
X150.12Y-124.76
X150.181Y-123.705
X150.305Y-116.346
X150.305Y-117.059
X150.4Y-128.6
X150.477Y-114.037
X150.493Y-120.873
X150.57Y-108.52
X150.995Y-106.465
X150.997Y-121.377
X151.025Y-117.419
X151.025Y-118.131
X151.265Y-111.944
X151.265Y-112.656
X151.469Y-111.085
X151.601Y-129.531
X152.181Y-111.085
X152.473Y-113.473
X152.565Y-117.854
X152.565Y-118.566
X152.605Y-125.854
X152.605Y-126.566
X152.713Y-114.663
X152.73Y-130.08
X152.977Y-113.977
X153.135Y-111.949
X153.135Y-112.661
X153.169Y-121.495
X153.189Y-119.405
X153.217Y-115.167
X153.443Y-116.497
X153.881Y-121.495
X153.901Y-119.405
X153.947Y-115.993
X154.415Y-109.355
X154.495Y-107.425
X154.73Y-112.96
X155.28Y-113.67
X155.365Y-106.425
X155.365Y-111.185
X155.655Y-109.854
X155.655Y-110.566
X155.665Y-107.854
X155.665Y-108.566
X155.695Y-111.854
X155.695Y-112.566
X155.73Y-115.854
X155.73Y-116.566
X155.73Y-121.854
X155.73Y-122.566
X161.26Y-105.95
X163.7Y-121.96
X163.7Y-124.94
X163.72Y-123.45
X163.79Y-105.45
X163.81Y-120.45
X164.06Y-118.337
X164.06Y-119.062
X164.31Y-114.837
X164.31Y-115.562
X164.81Y-119.337
X164.81Y-120.062
X164.84Y-117.337
X164.84Y-118.062
X165.21Y-114.21
X165.21Y-115.97
X166.39Y-116.337
X166.39Y-117.062
T2
X150.19Y-131.4
X151.46Y-131.4
X152.73Y-131.4
X154.0Y-131.4
X140.69Y-131.4
X141.96Y-131.4
X143.23Y-131.4
X144.5Y-131.4
T3
X109.0Y-103.0
X109.0Y-130.0
X159.0Y-103.0
X159.0Y-130.0
T0
M30
